<?xml version="1.0" encoding="utf-8" standalone="no"?>
<!DOCTYPE svg PUBLIC "-//W3C//DTD SVG 1.1//EN"
  "http://www.w3.org/Graphics/SVG/1.1/DTD/svg11.dtd">
<!-- Created with matplotlib (https://matplotlib.org/) -->
<svg height="567.922969pt" version="1.1" viewBox="0 0 506.968281 567.922969" width="506.968281pt" xmlns="http://www.w3.org/2000/svg" xmlns:xlink="http://www.w3.org/1999/xlink">
 <metadata>
  <rdf:RDF xmlns:cc="http://creativecommons.org/ns#" xmlns:dc="http://purl.org/dc/elements/1.1/" xmlns:rdf="http://www.w3.org/1999/02/22-rdf-syntax-ns#">
   <cc:Work>
    <dc:type rdf:resource="http://purl.org/dc/dcmitype/StillImage"/>
    <dc:date>2021-12-15T13:04:53.364600</dc:date>
    <dc:format>image/svg+xml</dc:format>
    <dc:creator>
     <cc:Agent>
      <dc:title>Matplotlib v3.3.0, https://matplotlib.org/</dc:title>
     </cc:Agent>
    </dc:creator>
   </cc:Work>
  </rdf:RDF>
 </metadata>
 <defs>
  <style type="text/css">*{stroke-linecap:butt;stroke-linejoin:round;}</style>
 </defs>
 <g id="figure_1">
  <g id="patch_1">
   <path d="M 0 567.922969 
L 506.968281 567.922969 
L 506.968281 0 
L 0 0 
z
" style="fill:#ffffff;"/>
  </g>
  <g id="axes_1">
   <g id="patch_2">
    <path d="M 53.368281 204.872727 
L 499.768281 204.872727 
L 499.768281 7.2 
L 53.368281 7.2 
z
" style="fill:#ffffff;"/>
   </g>
   <g id="matplotlib.axis_1">
    <g id="xtick_1">
     <g id="line2d_1">
      <defs>
       <path d="M 0 0 
L 0 6 
" id="m781acae7c1" style="stroke:#262626;stroke-width:1.25;"/>
      </defs>
      <g>
       <use style="fill:#262626;stroke:#262626;stroke-width:1.25;" x="101.257127" xlink:href="#m781acae7c1" y="204.872727"/>
      </g>
     </g>
    </g>
    <g id="xtick_2">
     <g id="line2d_2">
      <g>
       <use style="fill:#262626;stroke:#262626;stroke-width:1.25;" x="171.9525" xlink:href="#m781acae7c1" y="204.872727"/>
      </g>
     </g>
    </g>
    <g id="xtick_3">
     <g id="line2d_3">
      <g>
       <use style="fill:#262626;stroke:#262626;stroke-width:1.25;" x="242.647873" xlink:href="#m781acae7c1" y="204.872727"/>
      </g>
     </g>
    </g>
    <g id="xtick_4">
     <g id="line2d_4">
      <g>
       <use style="fill:#262626;stroke:#262626;stroke-width:1.25;" x="313.343246" xlink:href="#m781acae7c1" y="204.872727"/>
      </g>
     </g>
    </g>
    <g id="xtick_5">
     <g id="line2d_5">
      <g>
       <use style="fill:#262626;stroke:#262626;stroke-width:1.25;" x="384.038619" xlink:href="#m781acae7c1" y="204.872727"/>
      </g>
     </g>
    </g>
    <g id="xtick_6">
     <g id="line2d_6">
      <g>
       <use style="fill:#262626;stroke:#262626;stroke-width:1.25;" x="454.733992" xlink:href="#m781acae7c1" y="204.872727"/>
      </g>
     </g>
    </g>
   </g>
   <g id="matplotlib.axis_2">
    <g id="ytick_1">
     <g id="line2d_7">
      <defs>
       <path d="M 0 0 
L -6 0 
" id="md330310d82" style="stroke:#262626;stroke-width:1.25;"/>
      </defs>
      <g>
       <use style="fill:#262626;stroke:#262626;stroke-width:1.25;" x="53.368281" xlink:href="#md330310d82" y="204.872727"/>
      </g>
     </g>
     <g id="text_1">
      <!-- 0.00 -->
      <g style="fill:#262626;" transform="translate(22.46125 208.809524)scale(0.11 -0.11)">
       <defs>
        <path d="M 4.15625 35.296875 
Q 4.15625 48 6.765625 55.734375 
Q 9.375 63.484375 14.515625 67.671875 
Q 19.671875 71.875 27.484375 71.875 
Q 33.25 71.875 37.59375 69.546875 
Q 41.9375 67.234375 44.765625 62.859375 
Q 47.609375 58.5 49.21875 52.21875 
Q 50.828125 45.953125 50.828125 35.296875 
Q 50.828125 22.703125 48.234375 14.96875 
Q 45.65625 7.234375 40.5 3 
Q 35.359375 -1.21875 27.484375 -1.21875 
Q 17.140625 -1.21875 11.234375 6.203125 
Q 4.15625 15.140625 4.15625 35.296875 
z
M 13.1875 35.296875 
Q 13.1875 17.671875 17.3125 11.828125 
Q 21.4375 6 27.484375 6 
Q 33.546875 6 37.671875 11.859375 
Q 41.796875 17.71875 41.796875 35.296875 
Q 41.796875 52.984375 37.671875 58.78125 
Q 33.546875 64.59375 27.390625 64.59375 
Q 21.34375 64.59375 17.71875 59.46875 
Q 13.1875 52.9375 13.1875 35.296875 
z
" id="ArialMT-48"/>
        <path d="M 9.078125 0 
L 9.078125 10.015625 
L 19.09375 10.015625 
L 19.09375 0 
z
" id="ArialMT-46"/>
       </defs>
       <use xlink:href="#ArialMT-48"/>
       <use x="55.615234" xlink:href="#ArialMT-46"/>
       <use x="83.398438" xlink:href="#ArialMT-48"/>
       <use x="139.013672" xlink:href="#ArialMT-48"/>
      </g>
     </g>
    </g>
    <g id="ytick_2">
     <g id="line2d_8">
      <g>
       <use style="fill:#262626;stroke:#262626;stroke-width:1.25;" x="53.368281" xlink:href="#md330310d82" y="167.91077"/>
      </g>
     </g>
     <g id="text_2">
      <!-- 0.05 -->
      <g style="fill:#262626;" transform="translate(22.46125 171.847567)scale(0.11 -0.11)">
       <defs>
        <path d="M 4.15625 18.75 
L 13.375 19.53125 
Q 14.40625 12.796875 18.140625 9.390625 
Q 21.875 6 27.15625 6 
Q 33.5 6 37.890625 10.78125 
Q 42.28125 15.578125 42.28125 23.484375 
Q 42.28125 31 38.0625 35.34375 
Q 33.84375 39.703125 27 39.703125 
Q 22.75 39.703125 19.328125 37.765625 
Q 15.921875 35.84375 13.96875 32.765625 
L 5.71875 33.84375 
L 12.640625 70.609375 
L 48.25 70.609375 
L 48.25 62.203125 
L 19.671875 62.203125 
L 15.828125 42.96875 
Q 22.265625 47.46875 29.34375 47.46875 
Q 38.71875 47.46875 45.15625 40.96875 
Q 51.609375 34.46875 51.609375 24.265625 
Q 51.609375 14.546875 45.953125 7.46875 
Q 39.0625 -1.21875 27.15625 -1.21875 
Q 17.390625 -1.21875 11.203125 4.25 
Q 5.03125 9.71875 4.15625 18.75 
z
" id="ArialMT-53"/>
       </defs>
       <use xlink:href="#ArialMT-48"/>
       <use x="55.615234" xlink:href="#ArialMT-46"/>
       <use x="83.398438" xlink:href="#ArialMT-48"/>
       <use x="139.013672" xlink:href="#ArialMT-53"/>
      </g>
     </g>
    </g>
    <g id="ytick_3">
     <g id="line2d_9">
      <g>
       <use style="fill:#262626;stroke:#262626;stroke-width:1.25;" x="53.368281" xlink:href="#md330310d82" y="130.948813"/>
      </g>
     </g>
     <g id="text_3">
      <!-- 0.10 -->
      <g style="fill:#262626;" transform="translate(22.46125 134.88561)scale(0.11 -0.11)">
       <defs>
        <path d="M 37.25 0 
L 28.46875 0 
L 28.46875 56 
Q 25.296875 52.984375 20.140625 49.953125 
Q 14.984375 46.921875 10.890625 45.40625 
L 10.890625 53.90625 
Q 18.265625 57.375 23.78125 62.296875 
Q 29.296875 67.234375 31.59375 71.875 
L 37.25 71.875 
z
" id="ArialMT-49"/>
       </defs>
       <use xlink:href="#ArialMT-48"/>
       <use x="55.615234" xlink:href="#ArialMT-46"/>
       <use x="83.398438" xlink:href="#ArialMT-49"/>
       <use x="139.013672" xlink:href="#ArialMT-48"/>
      </g>
     </g>
    </g>
    <g id="ytick_4">
     <g id="line2d_10">
      <g>
       <use style="fill:#262626;stroke:#262626;stroke-width:1.25;" x="53.368281" xlink:href="#md330310d82" y="93.986856"/>
      </g>
     </g>
     <g id="text_4">
      <!-- 0.15 -->
      <g style="fill:#262626;" transform="translate(22.46125 97.923653)scale(0.11 -0.11)">
       <use xlink:href="#ArialMT-48"/>
       <use x="55.615234" xlink:href="#ArialMT-46"/>
       <use x="83.398438" xlink:href="#ArialMT-49"/>
       <use x="139.013672" xlink:href="#ArialMT-53"/>
      </g>
     </g>
    </g>
    <g id="ytick_5">
     <g id="line2d_11">
      <g>
       <use style="fill:#262626;stroke:#262626;stroke-width:1.25;" x="53.368281" xlink:href="#md330310d82" y="57.024899"/>
      </g>
     </g>
     <g id="text_5">
      <!-- 0.20 -->
      <g style="fill:#262626;" transform="translate(22.46125 60.961696)scale(0.11 -0.11)">
       <defs>
        <path d="M 50.34375 8.453125 
L 50.34375 0 
L 3.03125 0 
Q 2.9375 3.171875 4.046875 6.109375 
Q 5.859375 10.9375 9.828125 15.625 
Q 13.8125 20.3125 21.34375 26.46875 
Q 33.015625 36.03125 37.109375 41.625 
Q 41.21875 47.21875 41.21875 52.203125 
Q 41.21875 57.421875 37.46875 61 
Q 33.734375 64.59375 27.734375 64.59375 
Q 21.390625 64.59375 17.578125 60.78125 
Q 13.765625 56.984375 13.71875 50.25 
L 4.6875 51.171875 
Q 5.609375 61.28125 11.65625 66.578125 
Q 17.71875 71.875 27.9375 71.875 
Q 38.234375 71.875 44.234375 66.15625 
Q 50.25 60.453125 50.25 52 
Q 50.25 47.703125 48.484375 43.546875 
Q 46.734375 39.40625 42.65625 34.8125 
Q 38.578125 30.21875 29.109375 22.21875 
Q 21.1875 15.578125 18.9375 13.203125 
Q 16.703125 10.84375 15.234375 8.453125 
z
" id="ArialMT-50"/>
       </defs>
       <use xlink:href="#ArialMT-48"/>
       <use x="55.615234" xlink:href="#ArialMT-46"/>
       <use x="83.398438" xlink:href="#ArialMT-50"/>
       <use x="139.013672" xlink:href="#ArialMT-48"/>
      </g>
     </g>
    </g>
    <g id="ytick_6">
     <g id="line2d_12">
      <g>
       <use style="fill:#262626;stroke:#262626;stroke-width:1.25;" x="53.368281" xlink:href="#md330310d82" y="20.062942"/>
      </g>
     </g>
     <g id="text_6">
      <!-- 0.25 -->
      <g style="fill:#262626;" transform="translate(22.46125 23.999739)scale(0.11 -0.11)">
       <use xlink:href="#ArialMT-48"/>
       <use x="55.615234" xlink:href="#ArialMT-46"/>
       <use x="83.398438" xlink:href="#ArialMT-50"/>
       <use x="139.013672" xlink:href="#ArialMT-53"/>
      </g>
     </g>
    </g>
    <g id="text_7">
     <!-- Integration Efficiency -->
     <g style="fill:#262626;" transform="translate(15.935625 161.624489)rotate(-90)scale(0.12 -0.12)">
      <defs>
       <path d="M 9.328125 0 
L 9.328125 71.578125 
L 18.796875 71.578125 
L 18.796875 0 
z
" id="ArialMT-73"/>
       <path d="M 6.59375 0 
L 6.59375 51.859375 
L 14.5 51.859375 
L 14.5 44.484375 
Q 20.21875 53.03125 31 53.03125 
Q 35.6875 53.03125 39.625 51.34375 
Q 43.5625 49.65625 45.515625 46.921875 
Q 47.46875 44.1875 48.25 40.4375 
Q 48.734375 37.984375 48.734375 31.890625 
L 48.734375 0 
L 39.9375 0 
L 39.9375 31.546875 
Q 39.9375 36.921875 38.90625 39.578125 
Q 37.890625 42.234375 35.28125 43.8125 
Q 32.671875 45.40625 29.15625 45.40625 
Q 23.53125 45.40625 19.453125 41.84375 
Q 15.375 38.28125 15.375 28.328125 
L 15.375 0 
z
" id="ArialMT-110"/>
       <path d="M 25.78125 7.859375 
L 27.046875 0.09375 
Q 23.34375 -0.6875 20.40625 -0.6875 
Q 15.625 -0.6875 12.984375 0.828125 
Q 10.359375 2.34375 9.28125 4.8125 
Q 8.203125 7.28125 8.203125 15.1875 
L 8.203125 45.015625 
L 1.765625 45.015625 
L 1.765625 51.859375 
L 8.203125 51.859375 
L 8.203125 64.703125 
L 16.9375 69.96875 
L 16.9375 51.859375 
L 25.78125 51.859375 
L 25.78125 45.015625 
L 16.9375 45.015625 
L 16.9375 14.703125 
Q 16.9375 10.9375 17.40625 9.859375 
Q 17.875 8.796875 18.921875 8.15625 
Q 19.96875 7.515625 21.921875 7.515625 
Q 23.390625 7.515625 25.78125 7.859375 
z
" id="ArialMT-116"/>
       <path d="M 42.09375 16.703125 
L 51.171875 15.578125 
Q 49.03125 7.625 43.21875 3.21875 
Q 37.40625 -1.171875 28.375 -1.171875 
Q 17 -1.171875 10.328125 5.828125 
Q 3.65625 12.84375 3.65625 25.484375 
Q 3.65625 38.578125 10.390625 45.796875 
Q 17.140625 53.03125 27.875 53.03125 
Q 38.28125 53.03125 44.875 45.953125 
Q 51.46875 38.875 51.46875 26.03125 
Q 51.46875 25.25 51.421875 23.6875 
L 12.75 23.6875 
Q 13.234375 15.140625 17.578125 10.59375 
Q 21.921875 6.0625 28.421875 6.0625 
Q 33.25 6.0625 36.671875 8.59375 
Q 40.09375 11.140625 42.09375 16.703125 
z
M 13.234375 30.90625 
L 42.1875 30.90625 
Q 41.609375 37.453125 38.875 40.71875 
Q 34.671875 45.796875 27.984375 45.796875 
Q 21.921875 45.796875 17.796875 41.75 
Q 13.671875 37.703125 13.234375 30.90625 
z
" id="ArialMT-101"/>
       <path d="M 4.984375 -4.296875 
L 13.53125 -5.5625 
Q 14.0625 -9.515625 16.5 -11.328125 
Q 19.78125 -13.765625 25.4375 -13.765625 
Q 31.546875 -13.765625 34.859375 -11.328125 
Q 38.1875 -8.890625 39.359375 -4.5 
Q 40.046875 -1.8125 39.984375 6.78125 
Q 34.234375 0 25.640625 0 
Q 14.9375 0 9.078125 7.71875 
Q 3.21875 15.4375 3.21875 26.21875 
Q 3.21875 33.640625 5.90625 39.90625 
Q 8.59375 46.1875 13.6875 49.609375 
Q 18.796875 53.03125 25.6875 53.03125 
Q 34.859375 53.03125 40.828125 45.609375 
L 40.828125 51.859375 
L 48.921875 51.859375 
L 48.921875 7.03125 
Q 48.921875 -5.078125 46.453125 -10.125 
Q 44 -15.1875 38.640625 -18.109375 
Q 33.296875 -21.046875 25.484375 -21.046875 
Q 16.21875 -21.046875 10.5 -16.875 
Q 4.78125 -12.703125 4.984375 -4.296875 
z
M 12.25 26.859375 
Q 12.25 16.65625 16.296875 11.96875 
Q 20.359375 7.28125 26.46875 7.28125 
Q 32.515625 7.28125 36.609375 11.9375 
Q 40.71875 16.609375 40.71875 26.5625 
Q 40.71875 36.078125 36.5 40.90625 
Q 32.28125 45.75 26.3125 45.75 
Q 20.453125 45.75 16.34375 40.984375 
Q 12.25 36.234375 12.25 26.859375 
z
" id="ArialMT-103"/>
       <path d="M 6.5 0 
L 6.5 51.859375 
L 14.40625 51.859375 
L 14.40625 44 
Q 17.4375 49.515625 20 51.265625 
Q 22.5625 53.03125 25.640625 53.03125 
Q 30.078125 53.03125 34.671875 50.203125 
L 31.640625 42.046875 
Q 28.421875 43.953125 25.203125 43.953125 
Q 22.3125 43.953125 20.015625 42.21875 
Q 17.71875 40.484375 16.75 37.40625 
Q 15.28125 32.71875 15.28125 27.15625 
L 15.28125 0 
z
" id="ArialMT-114"/>
       <path d="M 40.4375 6.390625 
Q 35.546875 2.25 31.03125 0.53125 
Q 26.515625 -1.171875 21.34375 -1.171875 
Q 12.796875 -1.171875 8.203125 3 
Q 3.609375 7.171875 3.609375 13.671875 
Q 3.609375 17.484375 5.34375 20.625 
Q 7.078125 23.78125 9.890625 25.6875 
Q 12.703125 27.59375 16.21875 28.5625 
Q 18.796875 29.25 24.03125 29.890625 
Q 34.671875 31.15625 39.703125 32.90625 
Q 39.75 34.71875 39.75 35.203125 
Q 39.75 40.578125 37.25 42.78125 
Q 33.890625 45.75 27.25 45.75 
Q 21.046875 45.75 18.09375 43.578125 
Q 15.140625 41.40625 13.71875 35.890625 
L 5.125 37.0625 
Q 6.296875 42.578125 8.984375 45.96875 
Q 11.671875 49.359375 16.75 51.1875 
Q 21.828125 53.03125 28.515625 53.03125 
Q 35.15625 53.03125 39.296875 51.46875 
Q 43.453125 49.90625 45.40625 47.53125 
Q 47.359375 45.171875 48.140625 41.546875 
Q 48.578125 39.3125 48.578125 33.453125 
L 48.578125 21.734375 
Q 48.578125 9.46875 49.140625 6.21875 
Q 49.703125 2.984375 51.375 0 
L 42.1875 0 
Q 40.828125 2.734375 40.4375 6.390625 
z
M 39.703125 26.03125 
Q 34.90625 24.078125 25.34375 22.703125 
Q 19.921875 21.921875 17.671875 20.9375 
Q 15.4375 19.96875 14.203125 18.09375 
Q 12.984375 16.21875 12.984375 13.921875 
Q 12.984375 10.40625 15.640625 8.0625 
Q 18.3125 5.71875 23.4375 5.71875 
Q 28.515625 5.71875 32.46875 7.9375 
Q 36.421875 10.15625 38.28125 14.015625 
Q 39.703125 17 39.703125 22.796875 
z
" id="ArialMT-97"/>
       <path d="M 6.640625 61.46875 
L 6.640625 71.578125 
L 15.4375 71.578125 
L 15.4375 61.46875 
z
M 6.640625 0 
L 6.640625 51.859375 
L 15.4375 51.859375 
L 15.4375 0 
z
" id="ArialMT-105"/>
       <path d="M 3.328125 25.921875 
Q 3.328125 40.328125 11.328125 47.265625 
Q 18.015625 53.03125 27.640625 53.03125 
Q 38.328125 53.03125 45.109375 46.015625 
Q 51.90625 39.015625 51.90625 26.65625 
Q 51.90625 16.65625 48.90625 10.90625 
Q 45.90625 5.171875 40.15625 2 
Q 34.421875 -1.171875 27.640625 -1.171875 
Q 16.75 -1.171875 10.03125 5.8125 
Q 3.328125 12.796875 3.328125 25.921875 
z
M 12.359375 25.921875 
Q 12.359375 15.96875 16.703125 11.015625 
Q 21.046875 6.0625 27.640625 6.0625 
Q 34.1875 6.0625 38.53125 11.03125 
Q 42.875 16.015625 42.875 26.21875 
Q 42.875 35.84375 38.5 40.796875 
Q 34.125 45.75 27.640625 45.75 
Q 21.046875 45.75 16.703125 40.8125 
Q 12.359375 35.890625 12.359375 25.921875 
z
" id="ArialMT-111"/>
       <path id="ArialMT-32"/>
       <path d="M 7.90625 0 
L 7.90625 71.578125 
L 59.671875 71.578125 
L 59.671875 63.140625 
L 17.390625 63.140625 
L 17.390625 41.21875 
L 56.984375 41.21875 
L 56.984375 32.8125 
L 17.390625 32.8125 
L 17.390625 8.453125 
L 61.328125 8.453125 
L 61.328125 0 
z
" id="ArialMT-69"/>
       <path d="M 8.6875 0 
L 8.6875 45.015625 
L 0.921875 45.015625 
L 0.921875 51.859375 
L 8.6875 51.859375 
L 8.6875 57.375 
Q 8.6875 62.59375 9.625 65.140625 
Q 10.890625 68.5625 14.078125 70.671875 
Q 17.28125 72.796875 23.046875 72.796875 
Q 26.765625 72.796875 31.25 71.921875 
L 29.9375 64.265625 
Q 27.203125 64.75 24.75 64.75 
Q 20.75 64.75 19.09375 63.03125 
Q 17.4375 61.328125 17.4375 56.640625 
L 17.4375 51.859375 
L 27.546875 51.859375 
L 27.546875 45.015625 
L 17.4375 45.015625 
L 17.4375 0 
z
" id="ArialMT-102"/>
       <path d="M 40.4375 19 
L 49.078125 17.875 
Q 47.65625 8.9375 41.8125 3.875 
Q 35.984375 -1.171875 27.484375 -1.171875 
Q 16.84375 -1.171875 10.375 5.78125 
Q 3.90625 12.75 3.90625 25.734375 
Q 3.90625 34.125 6.6875 40.421875 
Q 9.46875 46.734375 15.15625 49.875 
Q 20.84375 53.03125 27.546875 53.03125 
Q 35.984375 53.03125 41.359375 48.75 
Q 46.734375 44.484375 48.25 36.625 
L 39.703125 35.296875 
Q 38.484375 40.53125 35.375 43.15625 
Q 32.28125 45.796875 27.875 45.796875 
Q 21.234375 45.796875 17.078125 41.03125 
Q 12.9375 36.28125 12.9375 25.984375 
Q 12.9375 15.53125 16.9375 10.796875 
Q 20.953125 6.0625 27.390625 6.0625 
Q 32.5625 6.0625 36.03125 9.234375 
Q 39.5 12.40625 40.4375 19 
z
" id="ArialMT-99"/>
       <path d="M 6.203125 -19.96875 
L 5.21875 -11.71875 
Q 8.109375 -12.5 10.25 -12.5 
Q 13.1875 -12.5 14.9375 -11.515625 
Q 16.703125 -10.546875 17.828125 -8.796875 
Q 18.65625 -7.46875 20.515625 -2.25 
Q 20.75 -1.515625 21.296875 -0.09375 
L 1.609375 51.859375 
L 11.078125 51.859375 
L 21.875 21.828125 
Q 23.96875 16.109375 25.640625 9.8125 
Q 27.15625 15.875 29.25 21.625 
L 40.328125 51.859375 
L 49.125 51.859375 
L 29.390625 -0.875 
Q 26.21875 -9.421875 24.46875 -12.640625 
Q 22.125 -17 19.09375 -19.015625 
Q 16.0625 -21.046875 11.859375 -21.046875 
Q 9.328125 -21.046875 6.203125 -19.96875 
z
" id="ArialMT-121"/>
      </defs>
      <use xlink:href="#ArialMT-73"/>
      <use x="27.783203" xlink:href="#ArialMT-110"/>
      <use x="83.398438" xlink:href="#ArialMT-116"/>
      <use x="111.181641" xlink:href="#ArialMT-101"/>
      <use x="166.796875" xlink:href="#ArialMT-103"/>
      <use x="222.412109" xlink:href="#ArialMT-114"/>
      <use x="255.712891" xlink:href="#ArialMT-97"/>
      <use x="311.328125" xlink:href="#ArialMT-116"/>
      <use x="339.111328" xlink:href="#ArialMT-105"/>
      <use x="361.328125" xlink:href="#ArialMT-111"/>
      <use x="416.943359" xlink:href="#ArialMT-110"/>
      <use x="472.558594" xlink:href="#ArialMT-32"/>
      <use x="500.341797" xlink:href="#ArialMT-69"/>
      <use x="567.041016" xlink:href="#ArialMT-102"/>
      <use x="593.074219" xlink:href="#ArialMT-102"/>
      <use x="620.857422" xlink:href="#ArialMT-105"/>
      <use x="643.074219" xlink:href="#ArialMT-99"/>
      <use x="693.074219" xlink:href="#ArialMT-105"/>
      <use x="715.291016" xlink:href="#ArialMT-101"/>
      <use x="770.90625" xlink:href="#ArialMT-110"/>
      <use x="826.521484" xlink:href="#ArialMT-99"/>
      <use x="876.521484" xlink:href="#ArialMT-121"/>
     </g>
    </g>
   </g>
   <g id="patch_3">
    <path d="M 53.368281 204.872727 
L 53.368281 7.2 
" style="fill:none;stroke:#262626;stroke-linecap:square;stroke-linejoin:miter;stroke-width:1.25;"/>
   </g>
   <g id="patch_4">
    <path d="M 53.368281 204.872727 
L 499.768281 204.872727 
" style="fill:none;stroke:#262626;stroke-linecap:square;stroke-linejoin:miter;stroke-width:1.25;"/>
   </g>
   <g id="PathCollection_1">
    <defs>
     <path d="M 0 2.5 
C 0.663008 2.5 1.29895 2.236584 1.767767 1.767767 
C 2.236584 1.29895 2.5 0.663008 2.5 -0 
C 2.5 -0.663008 2.236584 -1.29895 1.767767 -1.767767 
C 1.29895 -2.236584 0.663008 -2.5 0 -2.5 
C -0.663008 -2.5 -1.29895 -2.236584 -1.767767 -1.767767 
C -2.236584 -1.29895 -2.5 -0.663008 -2.5 0 
C -2.5 0.663008 -2.236584 1.29895 -1.767767 1.767767 
C -1.29895 2.236584 -0.663008 2.5 0 2.5 
z
" id="C0_0_b84152b18d"/>
    </defs>
    <g clip-path="url(#pda500d3c24)">
     <use style="fill:#f1be64;" x="103.918582" xlink:href="#C0_0_b84152b18d" y="184.233333"/>
    </g>
    <g clip-path="url(#pda500d3c24)">
     <use style="fill:#f1be64;" x="104.604127" xlink:href="#C0_0_b84152b18d" y="179.464748"/>
    </g>
    <g clip-path="url(#pda500d3c24)">
     <use style="fill:#f1be64;" x="102.569162" xlink:href="#C0_0_b84152b18d" y="179.746722"/>
    </g>
   </g>
   <g id="PathCollection_2">
    <defs>
     <path d="M 0 2.5 
C 0.663008 2.5 1.29895 2.236584 1.767767 1.767767 
C 2.236584 1.29895 2.5 0.663008 2.5 -0 
C 2.5 -0.663008 2.236584 -1.29895 1.767767 -1.767767 
C 1.29895 -2.236584 0.663008 -2.5 0 -2.5 
C -0.663008 -2.5 -1.29895 -2.236584 -1.767767 -1.767767 
C -2.236584 -1.29895 -2.5 -0.663008 -2.5 0 
C -2.5 0.663008 -2.236584 1.29895 -1.767767 1.767767 
C -1.29895 2.236584 -0.663008 2.5 0 2.5 
z
" id="C1_0_58e7ffcb67"/>
    </defs>
    <g clip-path="url(#pda500d3c24)">
     <use style="fill:#ac4140;" x="168.742918" xlink:href="#C1_0_58e7ffcb67" y="147.057308"/>
    </g>
    <g clip-path="url(#pda500d3c24)">
     <use style="fill:#ac4140;" x="177.979969" xlink:href="#C1_0_58e7ffcb67" y="144.944828"/>
    </g>
    <g clip-path="url(#pda500d3c24)">
     <use style="fill:#ac4140;" x="178.403575" xlink:href="#C1_0_58e7ffcb67" y="142.07091"/>
    </g>
   </g>
   <g id="PathCollection_3">
    <defs>
     <path d="M 0 2.5 
C 0.663008 2.5 1.29895 2.236584 1.767767 1.767767 
C 2.236584 1.29895 2.5 0.663008 2.5 -0 
C 2.5 -0.663008 2.236584 -1.29895 1.767767 -1.767767 
C 1.29895 -2.236584 0.663008 -2.5 0 -2.5 
C -0.663008 -2.5 -1.29895 -2.236584 -1.767767 -1.767767 
C -2.236584 -1.29895 -2.5 -0.663008 -2.5 0 
C -2.5 0.663008 -2.236584 1.29895 -1.767767 1.767767 
C -1.29895 2.236584 -0.663008 2.5 0 2.5 
z
" id="C2_0_9687fbfd8f"/>
    </defs>
    <g clip-path="url(#pda500d3c24)">
     <use style="fill:#f85d5c;" x="239.554703" xlink:href="#C2_0_9687fbfd8f" y="190.564873"/>
    </g>
    <g clip-path="url(#pda500d3c24)">
     <use style="fill:#f85d5c;" x="243.14513" xlink:href="#C2_0_9687fbfd8f" y="193.864213"/>
    </g>
    <g clip-path="url(#pda500d3c24)">
     <use style="fill:#f85d5c;" x="235.971286" xlink:href="#C2_0_9687fbfd8f" y="193.566642"/>
    </g>
   </g>
   <g id="PathCollection_4">
    <defs>
     <path d="M 0 2.5 
C 0.663008 2.5 1.29895 2.236584 1.767767 1.767767 
C 2.236584 1.29895 2.5 0.663008 2.5 -0 
C 2.5 -0.663008 2.236584 -1.29895 1.767767 -1.767767 
C 1.29895 -2.236584 0.663008 -2.5 0 -2.5 
C -0.663008 -2.5 -1.29895 -2.236584 -1.767767 -1.767767 
C -2.236584 -1.29895 -2.5 -0.663008 -2.5 0 
C -2.5 0.663008 -2.236584 1.29895 -1.767767 1.767767 
C -1.29895 2.236584 -0.663008 2.5 0 2.5 
z
" id="C3_0_cb3f43202c"/>
    </defs>
    <g clip-path="url(#pda500d3c24)">
     <use style="fill:#1de2ff;" x="318.194804" xlink:href="#C3_0_cb3f43202c" y="127.364438"/>
    </g>
    <g clip-path="url(#pda500d3c24)">
     <use style="fill:#1de2ff;" x="318.647113" xlink:href="#C3_0_cb3f43202c" y="129.951453"/>
    </g>
    <g clip-path="url(#pda500d3c24)">
     <use style="fill:#1de2ff;" x="311.974493" xlink:href="#C3_0_cb3f43202c" y="81.306539"/>
    </g>
   </g>
   <g id="PathCollection_5">
    <defs>
     <path d="M 0 2.5 
C 0.663008 2.5 1.29895 2.236584 1.767767 1.767767 
C 2.236584 1.29895 2.5 0.663008 2.5 -0 
C 2.5 -0.663008 2.236584 -1.29895 1.767767 -1.767767 
C 1.29895 -2.236584 0.663008 -2.5 0 -2.5 
C -0.663008 -2.5 -1.29895 -2.236584 -1.767767 -1.767767 
C -2.236584 -1.29895 -2.5 -0.663008 -2.5 0 
C -2.5 0.663008 -2.236584 1.29895 -1.767767 1.767767 
C -1.29895 2.236584 -0.663008 2.5 0 2.5 
z
" id="C4_0_21d3542cad"/>
    </defs>
    <g clip-path="url(#pda500d3c24)">
     <use style="fill:#29f43d;" x="388.250867" xlink:href="#C4_0_21d3542cad" y="120.498003"/>
    </g>
    <g clip-path="url(#pda500d3c24)">
     <use style="fill:#29f43d;" x="382.686268" xlink:href="#C4_0_21d3542cad" y="125.668533"/>
    </g>
    <g clip-path="url(#pda500d3c24)">
     <use style="fill:#29f43d;" x="384.7473" xlink:href="#C4_0_21d3542cad" y="125.687548"/>
    </g>
   </g>
   <g id="PathCollection_6">
    <defs>
     <path d="M 0 2.5 
C 0.663008 2.5 1.29895 2.236584 1.767767 1.767767 
C 2.236584 1.29895 2.5 0.663008 2.5 -0 
C 2.5 -0.663008 2.236584 -1.29895 1.767767 -1.767767 
C 1.29895 -2.236584 0.663008 -2.5 0 -2.5 
C -0.663008 -2.5 -1.29895 -2.236584 -1.767767 -1.767767 
C -2.236584 -1.29895 -2.5 -0.663008 -2.5 0 
C -2.5 0.663008 -2.236584 1.29895 -1.767767 1.767767 
C -1.29895 2.236584 -0.663008 2.5 0 2.5 
z
" id="C5_0_584ea62592"/>
    </defs>
    <g clip-path="url(#pda500d3c24)">
     <use style="fill:#f42d29;" x="448.120152" xlink:href="#C5_0_584ea62592" y="35.279219"/>
    </g>
    <g clip-path="url(#pda500d3c24)">
     <use style="fill:#f42d29;" x="456.371409" xlink:href="#C5_0_584ea62592" y="45.732242"/>
    </g>
    <g clip-path="url(#pda500d3c24)">
     <use style="fill:#f42d29;" x="461.608422" xlink:href="#C5_0_584ea62592" y="16.088772"/>
    </g>
   </g>
  </g>
  <g id="axes_2">
   <g id="patch_5">
    <path d="M 53.368281 442.08 
L 499.768281 442.08 
L 499.768281 244.407273 
L 53.368281 244.407273 
z
" style="fill:#ffffff;"/>
   </g>
   <g id="matplotlib.axis_3">
    <g id="xtick_7">
     <g id="line2d_13">
      <g>
       <use style="fill:#262626;stroke:#262626;stroke-width:1.25;" x="101.257127" xlink:href="#m781acae7c1" y="442.08"/>
      </g>
     </g>
     <g id="text_8">
      <!-- 3-gene.Tandem -->
      <g style="fill:#262626;" transform="translate(104.052674 528.009375)rotate(-90)scale(0.11 -0.11)">
       <defs>
        <path d="M 4.203125 18.890625 
L 12.984375 20.0625 
Q 14.5 12.59375 18.140625 9.296875 
Q 21.78125 6 27 6 
Q 33.203125 6 37.46875 10.296875 
Q 41.75 14.59375 41.75 20.953125 
Q 41.75 27 37.796875 30.921875 
Q 33.84375 34.859375 27.734375 34.859375 
Q 25.25 34.859375 21.53125 33.890625 
L 22.515625 41.609375 
Q 23.390625 41.5 23.921875 41.5 
Q 29.546875 41.5 34.03125 44.421875 
Q 38.53125 47.359375 38.53125 53.46875 
Q 38.53125 58.296875 35.25 61.46875 
Q 31.984375 64.65625 26.8125 64.65625 
Q 21.6875 64.65625 18.265625 61.421875 
Q 14.84375 58.203125 13.875 51.765625 
L 5.078125 53.328125 
Q 6.6875 62.15625 12.390625 67.015625 
Q 18.109375 71.875 26.609375 71.875 
Q 32.46875 71.875 37.390625 69.359375 
Q 42.328125 66.84375 44.9375 62.5 
Q 47.5625 58.15625 47.5625 53.265625 
Q 47.5625 48.640625 45.0625 44.828125 
Q 42.578125 41.015625 37.703125 38.765625 
Q 44.046875 37.3125 47.5625 32.6875 
Q 51.078125 28.078125 51.078125 21.140625 
Q 51.078125 11.765625 44.234375 5.25 
Q 37.40625 -1.265625 26.953125 -1.265625 
Q 17.53125 -1.265625 11.296875 4.34375 
Q 5.078125 9.96875 4.203125 18.890625 
z
" id="ArialMT-51"/>
        <path d="M 3.171875 21.484375 
L 3.171875 30.328125 
L 30.171875 30.328125 
L 30.171875 21.484375 
z
" id="ArialMT-45"/>
        <path d="M 25.921875 0 
L 25.921875 63.140625 
L 2.34375 63.140625 
L 2.34375 71.578125 
L 59.078125 71.578125 
L 59.078125 63.140625 
L 35.40625 63.140625 
L 35.40625 0 
z
" id="ArialMT-84"/>
        <path d="M 40.234375 0 
L 40.234375 6.546875 
Q 35.296875 -1.171875 25.734375 -1.171875 
Q 19.53125 -1.171875 14.328125 2.25 
Q 9.125 5.671875 6.265625 11.796875 
Q 3.421875 17.921875 3.421875 25.875 
Q 3.421875 33.640625 6 39.96875 
Q 8.59375 46.296875 13.765625 49.65625 
Q 18.953125 53.03125 25.34375 53.03125 
Q 30.03125 53.03125 33.6875 51.046875 
Q 37.359375 49.078125 39.65625 45.90625 
L 39.65625 71.578125 
L 48.390625 71.578125 
L 48.390625 0 
z
M 12.453125 25.875 
Q 12.453125 15.921875 16.640625 10.984375 
Q 20.84375 6.0625 26.5625 6.0625 
Q 32.328125 6.0625 36.34375 10.765625 
Q 40.375 15.484375 40.375 25.140625 
Q 40.375 35.796875 36.265625 40.765625 
Q 32.171875 45.75 26.171875 45.75 
Q 20.3125 45.75 16.375 40.96875 
Q 12.453125 36.1875 12.453125 25.875 
z
" id="ArialMT-100"/>
        <path d="M 6.59375 0 
L 6.59375 51.859375 
L 14.453125 51.859375 
L 14.453125 44.578125 
Q 16.890625 48.390625 20.9375 50.703125 
Q 25 53.03125 30.171875 53.03125 
Q 35.9375 53.03125 39.625 50.640625 
Q 43.3125 48.25 44.828125 43.953125 
Q 50.984375 53.03125 60.84375 53.03125 
Q 68.5625 53.03125 72.703125 48.75 
Q 76.859375 44.484375 76.859375 35.59375 
L 76.859375 0 
L 68.109375 0 
L 68.109375 32.671875 
Q 68.109375 37.9375 67.25 40.25 
Q 66.40625 42.578125 64.15625 43.984375 
Q 61.921875 45.40625 58.890625 45.40625 
Q 53.421875 45.40625 49.796875 41.765625 
Q 46.1875 38.140625 46.1875 30.125 
L 46.1875 0 
L 37.40625 0 
L 37.40625 33.6875 
Q 37.40625 39.546875 35.25 42.46875 
Q 33.109375 45.40625 28.21875 45.40625 
Q 24.515625 45.40625 21.359375 43.453125 
Q 18.21875 41.5 16.796875 37.734375 
Q 15.375 33.984375 15.375 26.90625 
L 15.375 0 
z
" id="ArialMT-109"/>
       </defs>
       <use xlink:href="#ArialMT-51"/>
       <use x="55.615234" xlink:href="#ArialMT-45"/>
       <use x="88.916016" xlink:href="#ArialMT-103"/>
       <use x="144.53125" xlink:href="#ArialMT-101"/>
       <use x="200.146484" xlink:href="#ArialMT-110"/>
       <use x="255.761719" xlink:href="#ArialMT-101"/>
       <use x="311.376953" xlink:href="#ArialMT-46"/>
       <use x="339.160156" xlink:href="#ArialMT-84"/>
       <use x="389.119141" xlink:href="#ArialMT-97"/>
       <use x="444.734375" xlink:href="#ArialMT-110"/>
       <use x="500.349609" xlink:href="#ArialMT-100"/>
       <use x="555.964844" xlink:href="#ArialMT-101"/>
       <use x="611.580078" xlink:href="#ArialMT-109"/>
      </g>
     </g>
    </g>
    <g id="xtick_8">
     <g id="line2d_14">
      <g>
       <use style="fill:#262626;stroke:#262626;stroke-width:1.25;" x="171.9525" xlink:href="#m781acae7c1" y="442.08"/>
      </g>
     </g>
     <g id="text_9">
      <!-- 2-gene.Convergent -->
      <g style="fill:#262626;" transform="translate(174.79875 545.748594)rotate(-90)scale(0.11 -0.11)">
       <defs>
        <path d="M 58.796875 25.09375 
L 68.265625 22.703125 
Q 65.28125 11.03125 57.546875 4.90625 
Q 49.8125 -1.21875 38.625 -1.21875 
Q 27.046875 -1.21875 19.796875 3.484375 
Q 12.546875 8.203125 8.765625 17.140625 
Q 4.984375 26.078125 4.984375 36.328125 
Q 4.984375 47.515625 9.25 55.828125 
Q 13.53125 64.15625 21.40625 68.46875 
Q 29.296875 72.796875 38.765625 72.796875 
Q 49.515625 72.796875 56.828125 67.328125 
Q 64.15625 61.859375 67.046875 51.953125 
L 57.71875 49.75 
Q 55.21875 57.5625 50.484375 61.125 
Q 45.75 64.703125 38.578125 64.703125 
Q 30.328125 64.703125 24.78125 60.734375 
Q 19.234375 56.78125 16.984375 50.109375 
Q 14.75 43.453125 14.75 36.375 
Q 14.75 27.25 17.40625 20.4375 
Q 20.0625 13.625 25.671875 10.25 
Q 31.296875 6.890625 37.84375 6.890625 
Q 45.796875 6.890625 51.3125 11.46875 
Q 56.84375 16.0625 58.796875 25.09375 
z
" id="ArialMT-67"/>
        <path d="M 21 0 
L 1.265625 51.859375 
L 10.546875 51.859375 
L 21.6875 20.796875 
Q 23.484375 15.765625 25 10.359375 
Q 26.171875 14.453125 28.265625 20.21875 
L 39.796875 51.859375 
L 48.828125 51.859375 
L 29.203125 0 
z
" id="ArialMT-118"/>
       </defs>
       <use xlink:href="#ArialMT-50"/>
       <use x="55.615234" xlink:href="#ArialMT-45"/>
       <use x="88.916016" xlink:href="#ArialMT-103"/>
       <use x="144.53125" xlink:href="#ArialMT-101"/>
       <use x="200.146484" xlink:href="#ArialMT-110"/>
       <use x="255.761719" xlink:href="#ArialMT-101"/>
       <use x="311.376953" xlink:href="#ArialMT-46"/>
       <use x="339.160156" xlink:href="#ArialMT-67"/>
       <use x="411.376953" xlink:href="#ArialMT-111"/>
       <use x="466.992188" xlink:href="#ArialMT-110"/>
       <use x="522.607422" xlink:href="#ArialMT-118"/>
       <use x="572.607422" xlink:href="#ArialMT-101"/>
       <use x="628.222656" xlink:href="#ArialMT-114"/>
       <use x="661.523438" xlink:href="#ArialMT-103"/>
       <use x="717.138672" xlink:href="#ArialMT-101"/>
       <use x="772.753906" xlink:href="#ArialMT-110"/>
       <use x="828.369141" xlink:href="#ArialMT-116"/>
      </g>
     </g>
    </g>
    <g id="xtick_9">
     <g id="line2d_15">
      <g>
       <use style="fill:#262626;stroke:#262626;stroke-width:1.25;" x="242.647873" xlink:href="#m781acae7c1" y="442.08"/>
      </g>
     </g>
     <g id="text_10">
      <!-- 3-gene.Convergent -->
      <g style="fill:#262626;" transform="translate(245.494123 545.748594)rotate(-90)scale(0.11 -0.11)">
       <use xlink:href="#ArialMT-51"/>
       <use x="55.615234" xlink:href="#ArialMT-45"/>
       <use x="88.916016" xlink:href="#ArialMT-103"/>
       <use x="144.53125" xlink:href="#ArialMT-101"/>
       <use x="200.146484" xlink:href="#ArialMT-110"/>
       <use x="255.761719" xlink:href="#ArialMT-101"/>
       <use x="311.376953" xlink:href="#ArialMT-46"/>
       <use x="339.160156" xlink:href="#ArialMT-67"/>
       <use x="411.376953" xlink:href="#ArialMT-111"/>
       <use x="466.992188" xlink:href="#ArialMT-110"/>
       <use x="522.607422" xlink:href="#ArialMT-118"/>
       <use x="572.607422" xlink:href="#ArialMT-101"/>
       <use x="628.222656" xlink:href="#ArialMT-114"/>
       <use x="661.523438" xlink:href="#ArialMT-103"/>
       <use x="717.138672" xlink:href="#ArialMT-101"/>
       <use x="772.753906" xlink:href="#ArialMT-110"/>
       <use x="828.369141" xlink:href="#ArialMT-116"/>
      </g>
     </g>
    </g>
    <g id="xtick_10">
     <g id="line2d_16">
      <g>
       <use style="fill:#262626;stroke:#262626;stroke-width:1.25;" x="313.343246" xlink:href="#m781acae7c1" y="442.08"/>
      </g>
     </g>
     <g id="text_11">
      <!-- 3-gene.Divergent -->
      <g style="fill:#262626;" transform="translate(316.138793 535.958594)rotate(-90)scale(0.11 -0.11)">
       <defs>
        <path d="M 7.71875 0 
L 7.71875 71.578125 
L 32.375 71.578125 
Q 40.71875 71.578125 45.125 70.5625 
Q 51.265625 69.140625 55.609375 65.4375 
Q 61.28125 60.640625 64.078125 53.1875 
Q 66.890625 45.75 66.890625 36.1875 
Q 66.890625 28.03125 64.984375 21.734375 
Q 63.09375 15.4375 60.109375 11.296875 
Q 57.125 7.171875 53.578125 4.796875 
Q 50.046875 2.4375 45.046875 1.21875 
Q 40.046875 0 33.546875 0 
z
M 17.1875 8.453125 
L 32.46875 8.453125 
Q 39.546875 8.453125 43.578125 9.765625 
Q 47.609375 11.078125 50 13.484375 
Q 53.375 16.84375 55.25 22.53125 
Q 57.125 28.21875 57.125 36.328125 
Q 57.125 47.5625 53.4375 53.59375 
Q 49.75 59.625 44.484375 61.671875 
Q 40.671875 63.140625 32.234375 63.140625 
L 17.1875 63.140625 
z
" id="ArialMT-68"/>
       </defs>
       <use xlink:href="#ArialMT-51"/>
       <use x="55.615234" xlink:href="#ArialMT-45"/>
       <use x="88.916016" xlink:href="#ArialMT-103"/>
       <use x="144.53125" xlink:href="#ArialMT-101"/>
       <use x="200.146484" xlink:href="#ArialMT-110"/>
       <use x="255.761719" xlink:href="#ArialMT-101"/>
       <use x="311.376953" xlink:href="#ArialMT-46"/>
       <use x="339.160156" xlink:href="#ArialMT-68"/>
       <use x="411.376953" xlink:href="#ArialMT-105"/>
       <use x="433.59375" xlink:href="#ArialMT-118"/>
       <use x="483.59375" xlink:href="#ArialMT-101"/>
       <use x="539.208984" xlink:href="#ArialMT-114"/>
       <use x="572.509766" xlink:href="#ArialMT-103"/>
       <use x="628.125" xlink:href="#ArialMT-101"/>
       <use x="683.740234" xlink:href="#ArialMT-110"/>
       <use x="739.355469" xlink:href="#ArialMT-116"/>
      </g>
     </g>
    </g>
    <g id="xtick_11">
     <g id="line2d_17">
      <g>
       <use style="fill:#262626;stroke:#262626;stroke-width:1.25;" x="384.038619" xlink:href="#m781acae7c1" y="442.08"/>
      </g>
     </g>
     <g id="text_12">
      <!-- EGFP -->
      <g style="fill:#262626;" transform="translate(386.882291 481.529219)rotate(-90)scale(0.11 -0.11)">
       <defs>
        <path d="M 41.21875 28.078125 
L 41.21875 36.46875 
L 71.53125 36.53125 
L 71.53125 9.96875 
Q 64.546875 4.390625 57.125 1.578125 
Q 49.703125 -1.21875 41.890625 -1.21875 
Q 31.34375 -1.21875 22.71875 3.296875 
Q 14.109375 7.8125 9.71875 16.359375 
Q 5.328125 24.90625 5.328125 35.453125 
Q 5.328125 45.90625 9.6875 54.953125 
Q 14.0625 64.015625 22.265625 68.40625 
Q 30.46875 72.796875 41.15625 72.796875 
Q 48.921875 72.796875 55.1875 70.28125 
Q 61.46875 67.78125 65.03125 63.28125 
Q 68.609375 58.796875 70.453125 51.5625 
L 61.921875 49.21875 
Q 60.296875 54.6875 57.90625 57.8125 
Q 55.515625 60.9375 51.0625 62.8125 
Q 46.625 64.703125 41.21875 64.703125 
Q 34.71875 64.703125 29.984375 62.71875 
Q 25.25 60.75 22.34375 57.515625 
Q 19.4375 54.296875 17.828125 50.4375 
Q 15.09375 43.796875 15.09375 36.03125 
Q 15.09375 26.46875 18.390625 20.015625 
Q 21.6875 13.578125 27.984375 10.453125 
Q 34.28125 7.328125 41.359375 7.328125 
Q 47.515625 7.328125 53.375 9.6875 
Q 59.234375 12.0625 62.25 14.75 
L 62.25 28.078125 
z
" id="ArialMT-71"/>
        <path d="M 8.203125 0 
L 8.203125 71.578125 
L 56.5 71.578125 
L 56.5 63.140625 
L 17.671875 63.140625 
L 17.671875 40.96875 
L 51.265625 40.96875 
L 51.265625 32.515625 
L 17.671875 32.515625 
L 17.671875 0 
z
" id="ArialMT-70"/>
        <path d="M 7.71875 0 
L 7.71875 71.578125 
L 34.71875 71.578125 
Q 41.84375 71.578125 45.609375 70.90625 
Q 50.875 70.015625 54.4375 67.546875 
Q 58.015625 65.09375 60.1875 60.640625 
Q 62.359375 56.203125 62.359375 50.875 
Q 62.359375 41.75 56.546875 35.421875 
Q 50.734375 29.109375 35.546875 29.109375 
L 17.1875 29.109375 
L 17.1875 0 
z
M 17.1875 37.546875 
L 35.6875 37.546875 
Q 44.875 37.546875 48.734375 40.96875 
Q 52.59375 44.390625 52.59375 50.59375 
Q 52.59375 55.078125 50.3125 58.265625 
Q 48.046875 61.46875 44.34375 62.5 
Q 41.9375 63.140625 35.5 63.140625 
L 17.1875 63.140625 
z
" id="ArialMT-80"/>
       </defs>
       <use xlink:href="#ArialMT-69"/>
       <use x="66.699219" xlink:href="#ArialMT-71"/>
       <use x="144.482422" xlink:href="#ArialMT-70"/>
       <use x="205.566406" xlink:href="#ArialMT-80"/>
      </g>
     </g>
    </g>
    <g id="xtick_12">
     <g id="line2d_18">
      <g>
       <use style="fill:#262626;stroke:#262626;stroke-width:1.25;" x="454.733992" xlink:href="#m781acae7c1" y="442.08"/>
      </g>
     </g>
     <g id="text_13">
      <!-- mRuby2 -->
      <g style="fill:#262626;" transform="translate(457.529538 492.537812)rotate(-90)scale(0.11 -0.11)">
       <defs>
        <path d="M 7.859375 0 
L 7.859375 71.578125 
L 39.59375 71.578125 
Q 49.171875 71.578125 54.140625 69.640625 
Q 59.125 67.71875 62.109375 62.828125 
Q 65.09375 57.953125 65.09375 52.046875 
Q 65.09375 44.4375 60.15625 39.203125 
Q 55.21875 33.984375 44.921875 32.5625 
Q 48.6875 30.765625 50.640625 29 
Q 54.78125 25.203125 58.5 19.484375 
L 70.953125 0 
L 59.03125 0 
L 49.5625 14.890625 
Q 45.40625 21.34375 42.71875 24.75 
Q 40.046875 28.171875 37.921875 29.53125 
Q 35.796875 30.90625 33.59375 31.453125 
Q 31.984375 31.78125 28.328125 31.78125 
L 17.328125 31.78125 
L 17.328125 0 
z
M 17.328125 39.984375 
L 37.703125 39.984375 
Q 44.1875 39.984375 47.84375 41.328125 
Q 51.515625 42.671875 53.421875 45.625 
Q 55.328125 48.578125 55.328125 52.046875 
Q 55.328125 57.125 51.640625 60.390625 
Q 47.953125 63.671875 39.984375 63.671875 
L 17.328125 63.671875 
z
" id="ArialMT-82"/>
        <path d="M 40.578125 0 
L 40.578125 7.625 
Q 34.515625 -1.171875 24.125 -1.171875 
Q 19.53125 -1.171875 15.546875 0.578125 
Q 11.578125 2.34375 9.640625 5 
Q 7.71875 7.671875 6.9375 11.53125 
Q 6.390625 14.109375 6.390625 19.734375 
L 6.390625 51.859375 
L 15.1875 51.859375 
L 15.1875 23.09375 
Q 15.1875 16.21875 15.71875 13.8125 
Q 16.546875 10.359375 19.234375 8.375 
Q 21.921875 6.390625 25.875 6.390625 
Q 29.828125 6.390625 33.296875 8.421875 
Q 36.765625 10.453125 38.203125 13.9375 
Q 39.65625 17.4375 39.65625 24.078125 
L 39.65625 51.859375 
L 48.4375 51.859375 
L 48.4375 0 
z
" id="ArialMT-117"/>
        <path d="M 14.703125 0 
L 6.546875 0 
L 6.546875 71.578125 
L 15.328125 71.578125 
L 15.328125 46.046875 
Q 20.90625 53.03125 29.546875 53.03125 
Q 34.328125 53.03125 38.59375 51.09375 
Q 42.875 49.171875 45.625 45.671875 
Q 48.390625 42.1875 49.953125 37.25 
Q 51.515625 32.328125 51.515625 26.703125 
Q 51.515625 13.375 44.921875 6.09375 
Q 38.328125 -1.171875 29.109375 -1.171875 
Q 19.921875 -1.171875 14.703125 6.5 
z
M 14.59375 26.3125 
Q 14.59375 17 17.140625 12.84375 
Q 21.296875 6.0625 28.375 6.0625 
Q 34.125 6.0625 38.328125 11.0625 
Q 42.53125 16.0625 42.53125 25.984375 
Q 42.53125 36.140625 38.5 40.96875 
Q 34.46875 45.796875 28.765625 45.796875 
Q 23 45.796875 18.796875 40.796875 
Q 14.59375 35.796875 14.59375 26.3125 
z
" id="ArialMT-98"/>
       </defs>
       <use xlink:href="#ArialMT-109"/>
       <use x="83.300781" xlink:href="#ArialMT-82"/>
       <use x="155.517578" xlink:href="#ArialMT-117"/>
       <use x="211.132812" xlink:href="#ArialMT-98"/>
       <use x="266.748047" xlink:href="#ArialMT-121"/>
       <use x="316.748047" xlink:href="#ArialMT-50"/>
      </g>
     </g>
    </g>
    <g id="text_14">
     <!-- condition -->
     <g style="fill:#262626;" transform="translate(252.552344 558.337969)scale(0.12 -0.12)">
      <use xlink:href="#ArialMT-99"/>
      <use x="50" xlink:href="#ArialMT-111"/>
      <use x="105.615234" xlink:href="#ArialMT-110"/>
      <use x="161.230469" xlink:href="#ArialMT-100"/>
      <use x="216.845703" xlink:href="#ArialMT-105"/>
      <use x="239.0625" xlink:href="#ArialMT-116"/>
      <use x="266.845703" xlink:href="#ArialMT-105"/>
      <use x="289.0625" xlink:href="#ArialMT-111"/>
      <use x="344.677734" xlink:href="#ArialMT-110"/>
     </g>
    </g>
   </g>
   <g id="matplotlib.axis_4">
    <g id="ytick_7">
     <g id="line2d_19">
      <g>
       <use style="fill:#262626;stroke:#262626;stroke-width:1.25;" x="53.368281" xlink:href="#md330310d82" y="426.505616"/>
      </g>
     </g>
     <g id="text_15">
      <!-- 0 -->
      <g style="fill:#262626;" transform="translate(41.682031 428.685851)rotate(-90)scale(0.11 -0.11)">
       <use xlink:href="#ArialMT-48"/>
      </g>
     </g>
    </g>
    <g id="ytick_8">
     <g id="line2d_20">
      <g>
       <use style="fill:#262626;stroke:#262626;stroke-width:1.25;" x="53.368281" xlink:href="#md330310d82" y="398.532125"/>
      </g>
     </g>
     <g id="text_16">
      <!-- 1 -->
      <g style="fill:#262626;" transform="translate(41.682031 400.71236)rotate(-90)scale(0.11 -0.11)">
       <use xlink:href="#ArialMT-49"/>
      </g>
     </g>
    </g>
    <g id="ytick_9">
     <g id="line2d_21">
      <g>
       <use style="fill:#262626;stroke:#262626;stroke-width:1.25;" x="53.368281" xlink:href="#md330310d82" y="370.558635"/>
      </g>
     </g>
     <g id="text_17">
      <!-- 2 -->
      <g style="fill:#262626;" transform="translate(41.682031 372.738869)rotate(-90)scale(0.11 -0.11)">
       <use xlink:href="#ArialMT-50"/>
      </g>
     </g>
    </g>
    <g id="ytick_10">
     <g id="line2d_22">
      <g>
       <use style="fill:#262626;stroke:#262626;stroke-width:1.25;" x="53.368281" xlink:href="#md330310d82" y="342.585144"/>
      </g>
     </g>
     <g id="text_18">
      <!-- 3 -->
      <g style="fill:#262626;" transform="translate(41.682031 344.765378)rotate(-90)scale(0.11 -0.11)">
       <use xlink:href="#ArialMT-51"/>
      </g>
     </g>
    </g>
    <g id="ytick_11">
     <g id="line2d_23">
      <g>
       <use style="fill:#262626;stroke:#262626;stroke-width:1.25;" x="53.368281" xlink:href="#md330310d82" y="314.611653"/>
      </g>
     </g>
     <g id="text_19">
      <!-- 4 -->
      <g style="fill:#262626;" transform="translate(41.682031 316.791887)rotate(-90)scale(0.11 -0.11)">
       <defs>
        <path d="M 32.328125 0 
L 32.328125 17.140625 
L 1.265625 17.140625 
L 1.265625 25.203125 
L 33.9375 71.578125 
L 41.109375 71.578125 
L 41.109375 25.203125 
L 50.78125 25.203125 
L 50.78125 17.140625 
L 41.109375 17.140625 
L 41.109375 0 
z
M 32.328125 25.203125 
L 32.328125 57.46875 
L 9.90625 25.203125 
z
" id="ArialMT-52"/>
       </defs>
       <use xlink:href="#ArialMT-52"/>
      </g>
     </g>
    </g>
    <g id="ytick_12">
     <g id="line2d_24">
      <g>
       <use style="fill:#262626;stroke:#262626;stroke-width:1.25;" x="53.368281" xlink:href="#md330310d82" y="286.638162"/>
      </g>
     </g>
     <g id="text_20">
      <!-- 5 -->
      <g style="fill:#262626;" transform="translate(41.682031 288.818397)rotate(-90)scale(0.11 -0.11)">
       <use xlink:href="#ArialMT-53"/>
      </g>
     </g>
    </g>
    <g id="text_21">
     <!-- log Integration Marker -->
     <g style="fill:#262626;" transform="translate(15.935625 401.601136)rotate(-90)scale(0.12 -0.12)">
      <defs>
       <path d="M 6.390625 0 
L 6.390625 71.578125 
L 15.1875 71.578125 
L 15.1875 0 
z
" id="ArialMT-108"/>
       <path d="M 7.421875 0 
L 7.421875 71.578125 
L 21.6875 71.578125 
L 38.625 20.90625 
Q 40.96875 13.8125 42.046875 10.296875 
Q 43.265625 14.203125 45.84375 21.78125 
L 62.984375 71.578125 
L 75.734375 71.578125 
L 75.734375 0 
L 66.609375 0 
L 66.609375 59.90625 
L 45.796875 0 
L 37.25 0 
L 16.546875 60.9375 
L 16.546875 0 
z
" id="ArialMT-77"/>
       <path d="M 6.640625 0 
L 6.640625 71.578125 
L 15.4375 71.578125 
L 15.4375 30.765625 
L 36.234375 51.859375 
L 47.609375 51.859375 
L 27.78125 32.625 
L 49.609375 0 
L 38.765625 0 
L 21.625 26.515625 
L 15.4375 20.5625 
L 15.4375 0 
z
" id="ArialMT-107"/>
      </defs>
      <use xlink:href="#ArialMT-108"/>
      <use x="22.216797" xlink:href="#ArialMT-111"/>
      <use x="77.832031" xlink:href="#ArialMT-103"/>
      <use x="133.447266" xlink:href="#ArialMT-32"/>
      <use x="161.230469" xlink:href="#ArialMT-73"/>
      <use x="189.013672" xlink:href="#ArialMT-110"/>
      <use x="244.628906" xlink:href="#ArialMT-116"/>
      <use x="272.412109" xlink:href="#ArialMT-101"/>
      <use x="328.027344" xlink:href="#ArialMT-103"/>
      <use x="383.642578" xlink:href="#ArialMT-114"/>
      <use x="416.943359" xlink:href="#ArialMT-97"/>
      <use x="472.558594" xlink:href="#ArialMT-116"/>
      <use x="500.341797" xlink:href="#ArialMT-105"/>
      <use x="522.558594" xlink:href="#ArialMT-111"/>
      <use x="578.173828" xlink:href="#ArialMT-110"/>
      <use x="633.789062" xlink:href="#ArialMT-32"/>
      <use x="661.572266" xlink:href="#ArialMT-77"/>
      <use x="744.873047" xlink:href="#ArialMT-97"/>
      <use x="800.488281" xlink:href="#ArialMT-114"/>
      <use x="833.789062" xlink:href="#ArialMT-107"/>
      <use x="883.789062" xlink:href="#ArialMT-101"/>
      <use x="939.404297" xlink:href="#ArialMT-114"/>
     </g>
    </g>
   </g>
   <g id="PolyCollection_1">
    <defs>
     <path d="M 101.451991 -137.521527 
L 101.062263 -137.521527 
L 100.609785 -138.954298 
L 100.005208 -140.387069 
L 99.84739 -141.81984 
L 100.32882 -143.252611 
L 100.863039 -144.685382 
L 100.956494 -146.118153 
L 100.554391 -147.550924 
L 99.986454 -148.983695 
L 99.807423 -150.416466 
L 99.922815 -151.849236 
L 99.717652 -153.282007 
L 99.303042 -154.714778 
L 99.083907 -156.147549 
L 98.888217 -157.58032 
L 98.59857 -159.013091 
L 98.283344 -160.445862 
L 97.915313 -161.878633 
L 97.489125 -163.311404 
L 97.030967 -164.744175 
L 96.547887 -166.176946 
L 95.987826 -167.609717 
L 95.307949 -169.042488 
L 94.516991 -170.475259 
L 93.588254 -171.90803 
L 92.486923 -173.340801 
L 91.282013 -174.773572 
L 90.08009 -176.206343 
L 88.866499 -177.639114 
L 87.508025 -179.071884 
L 85.91321 -180.504655 
L 84.105008 -181.937426 
L 82.197095 -183.370197 
L 80.304206 -184.802968 
L 78.41992 -186.235739 
L 76.59005 -187.66851 
L 75.05198 -189.101281 
L 74.026218 -190.534052 
L 73.65919 -191.966823 
L 74.099348 -193.399594 
L 75.531426 -194.832365 
L 78.132042 -196.265136 
L 81.787122 -197.697907 
L 86.007631 -199.130678 
L 90.19626 -200.563449 
L 93.871852 -201.99622 
L 96.745752 -203.428991 
L 98.744172 -204.861762 
L 99.958584 -206.294532 
L 100.591051 -207.727303 
L 100.88167 -209.160074 
L 101.010162 -210.592845 
L 101.067684 -212.025616 
L 101.084041 -213.458387 
L 101.073884 -214.891158 
L 101.063075 -216.323929 
L 101.070802 -217.7567 
L 101.090024 -219.189471 
L 101.098132 -220.622242 
L 101.082726 -222.055013 
L 101.054077 -223.487784 
L 101.027321 -224.920555 
L 101.011022 -226.353326 
L 101.011361 -227.786097 
L 101.020399 -229.218868 
L 101.022582 -230.651639 
L 101.014818 -232.084409 
L 100.995924 -233.51718 
L 100.953349 -234.949951 
L 100.884864 -236.382722 
L 100.818124 -237.815493 
L 100.780358 -239.248264 
L 100.760017 -240.681035 
L 100.733751 -242.113806 
L 100.698748 -243.546577 
L 100.659972 -244.979348 
L 100.628031 -246.412119 
L 100.608721 -247.84489 
L 100.589582 -249.277661 
L 100.568098 -250.710432 
L 100.577718 -252.143203 
L 100.648872 -253.575974 
L 100.747751 -255.008745 
L 100.820615 -256.441516 
L 100.86685 -257.874287 
L 100.909348 -259.307057 
L 100.954837 -260.739828 
L 101.000562 -262.172599 
L 101.041134 -263.60537 
L 101.076015 -265.038141 
L 101.110691 -266.470912 
L 101.149385 -267.903683 
L 101.188959 -269.336454 
L 101.21899 -270.769225 
L 101.23336 -272.201996 
L 101.237758 -273.634767 
L 101.241524 -275.067538 
L 101.247667 -276.500309 
L 101.253292 -277.93308 
L 101.256145 -279.365851 
L 101.258109 -279.365851 
L 101.258109 -279.365851 
L 101.260962 -277.93308 
L 101.266587 -276.500309 
L 101.27273 -275.067538 
L 101.276496 -273.634767 
L 101.280894 -272.201996 
L 101.295263 -270.769225 
L 101.325294 -269.336454 
L 101.364868 -267.903683 
L 101.403563 -266.470912 
L 101.438239 -265.038141 
L 101.473119 -263.60537 
L 101.513692 -262.172599 
L 101.559417 -260.739828 
L 101.604906 -259.307057 
L 101.647404 -257.874287 
L 101.693639 -256.441516 
L 101.766503 -255.008745 
L 101.865382 -253.575974 
L 101.936535 -252.143203 
L 101.946156 -250.710432 
L 101.924672 -249.277661 
L 101.905533 -247.84489 
L 101.886222 -246.412119 
L 101.854282 -244.979348 
L 101.815506 -243.546577 
L 101.780503 -242.113806 
L 101.754237 -240.681035 
L 101.733896 -239.248264 
L 101.696129 -237.815493 
L 101.629389 -236.382722 
L 101.560905 -234.949951 
L 101.51833 -233.51718 
L 101.499436 -232.084409 
L 101.491671 -230.651639 
L 101.493854 -229.218868 
L 101.502892 -227.786097 
L 101.503232 -226.353326 
L 101.486932 -224.920555 
L 101.460176 -223.487784 
L 101.431528 -222.055013 
L 101.416121 -220.622242 
L 101.42423 -219.189471 
L 101.443452 -217.7567 
L 101.451179 -216.323929 
L 101.44037 -214.891158 
L 101.430213 -213.458387 
L 101.44657 -212.025616 
L 101.504092 -210.592845 
L 101.632584 -209.160074 
L 101.923203 -207.727303 
L 102.55567 -206.294532 
L 103.770082 -204.861762 
L 105.768502 -203.428991 
L 108.642402 -201.99622 
L 112.317993 -200.563449 
L 116.506623 -199.130678 
L 120.727132 -197.697907 
L 124.382212 -196.265136 
L 126.982828 -194.832365 
L 128.414906 -193.399594 
L 128.855063 -191.966823 
L 128.488036 -190.534052 
L 127.462274 -189.101281 
L 125.924204 -187.66851 
L 124.094333 -186.235739 
L 122.210047 -184.802968 
L 120.317159 -183.370197 
L 118.409246 -181.937426 
L 116.601044 -180.504655 
L 115.006229 -179.071884 
L 113.647754 -177.639114 
L 112.434164 -176.206343 
L 111.23224 -174.773572 
L 110.027331 -173.340801 
L 108.926 -171.90803 
L 107.997262 -170.475259 
L 107.206305 -169.042488 
L 106.526428 -167.609717 
L 105.966367 -166.176946 
L 105.483286 -164.744175 
L 105.025129 -163.311404 
L 104.59894 -161.878633 
L 104.23091 -160.445862 
L 103.915684 -159.013091 
L 103.626037 -157.58032 
L 103.430347 -156.147549 
L 103.211212 -154.714778 
L 102.796601 -153.282007 
L 102.591438 -151.849236 
L 102.706831 -150.416466 
L 102.5278 -148.983695 
L 101.959863 -147.550924 
L 101.55776 -146.118153 
L 101.651215 -144.685382 
L 102.185433 -143.252611 
L 102.666864 -141.81984 
L 102.509046 -140.387069 
L 101.904468 -138.954298 
L 101.451991 -137.521527 
z
" id="m19bad43a77" style="stroke:#474747;stroke-width:1.5;"/>
    </defs>
    <g clip-path="url(#p93b623cc7b)">
     <use style="fill:#dfb976;stroke:#474747;stroke-width:1.5;" x="0" xlink:href="#m19bad43a77" y="567.922969"/>
    </g>
   </g>
   <g id="PolyCollection_2">
    <defs>
     <path d="M 172.125072 -137.033285 
L 171.779927 -137.033285 
L 171.443749 -138.445774 
L 170.962295 -139.858263 
L 170.679667 -141.270753 
L 170.867813 -142.683242 
L 171.312159 -144.095731 
L 171.571186 -145.50822 
L 171.4385 -146.920709 
L 171.051155 -148.333198 
L 170.755428 -149.745687 
L 170.710627 -151.158176 
L 170.672245 -152.570665 
L 170.450048 -153.983154 
L 170.182909 -155.395643 
L 169.960258 -156.808132 
L 169.714626 -158.220621 
L 169.436474 -159.633111 
L 169.147261 -161.0456 
L 168.831513 -162.458089 
L 168.452842 -163.870578 
L 167.978244 -165.283067 
L 167.412406 -166.695556 
L 166.791298 -168.108045 
L 166.136909 -169.520534 
L 165.433665 -170.933023 
L 164.635555 -172.345512 
L 163.690979 -173.758001 
L 162.580193 -175.17049 
L 161.338003 -176.58298 
L 160.031054 -177.995469 
L 158.686033 -179.407958 
L 157.251903 -180.820447 
L 155.674759 -182.232936 
L 153.978254 -183.645425 
L 152.2342 -185.057914 
L 150.500283 -186.470403 
L 148.840168 -187.882892 
L 147.387097 -189.295381 
L 146.338593 -190.70787 
L 145.909361 -192.120359 
L 146.318935 -193.532849 
L 147.729192 -194.945338 
L 150.107836 -196.357827 
L 153.208838 -197.770316 
L 156.700539 -199.182805 
L 160.255864 -200.595294 
L 163.561238 -202.007783 
L 166.338238 -203.420272 
L 168.415426 -204.832761 
L 169.787721 -206.24525 
L 170.592685 -207.657739 
L 171.02077 -209.070228 
L 171.23307 -210.482717 
L 171.331896 -211.895207 
L 171.375569 -213.307696 
L 171.400579 -214.720185 
L 171.4243 -216.132674 
L 171.446409 -217.545163 
L 171.468648 -218.957652 
L 171.500045 -220.370141 
L 171.536526 -221.78263 
L 171.558757 -223.195119 
L 171.551532 -224.607608 
L 171.512899 -226.020097 
L 171.44961 -227.432586 
L 171.366892 -228.845076 
L 171.263736 -230.257565 
L 171.139193 -231.670054 
L 170.989239 -233.082543 
L 170.793499 -234.495032 
L 170.52949 -235.907521 
L 170.205869 -237.32001 
L 169.865663 -238.732499 
L 169.563701 -240.144988 
L 169.360637 -241.557477 
L 169.320965 -242.969966 
L 169.465646 -244.382455 
L 169.736243 -245.794945 
L 170.050364 -247.207434 
L 170.368408 -248.619923 
L 170.682597 -250.032412 
L 170.979117 -251.444901 
L 171.234141 -252.85739 
L 171.434811 -254.269879 
L 171.585183 -255.682368 
L 171.691006 -257.094857 
L 171.757699 -258.507346 
L 171.79812 -259.919835 
L 171.827655 -261.332324 
L 171.854468 -262.744814 
L 171.878674 -264.157303 
L 171.898482 -265.569792 
L 171.913953 -266.982281 
L 171.925882 -268.39477 
L 171.934332 -269.807259 
L 171.939623 -271.219748 
L 171.943371 -272.632237 
L 171.946929 -274.044726 
L 171.949944 -275.457215 
L 171.951679 -276.869704 
L 171.95332 -276.869704 
L 171.95332 -276.869704 
L 171.955056 -275.457215 
L 171.958071 -274.044726 
L 171.961628 -272.632237 
L 171.965377 -271.219748 
L 171.970668 -269.807259 
L 171.979117 -268.39477 
L 171.991047 -266.982281 
L 172.006517 -265.569792 
L 172.026326 -264.157303 
L 172.050531 -262.744814 
L 172.077345 -261.332324 
L 172.10688 -259.919835 
L 172.147301 -258.507346 
L 172.213993 -257.094857 
L 172.319817 -255.682368 
L 172.470189 -254.269879 
L 172.670858 -252.85739 
L 172.925882 -251.444901 
L 173.222403 -250.032412 
L 173.536592 -248.619923 
L 173.854636 -247.207434 
L 174.168757 -245.794945 
L 174.439354 -244.382455 
L 174.584035 -242.969966 
L 174.544363 -241.557477 
L 174.341299 -240.144988 
L 174.039337 -238.732499 
L 173.699131 -237.32001 
L 173.375509 -235.907521 
L 173.111501 -234.495032 
L 172.915761 -233.082543 
L 172.765807 -231.670054 
L 172.641263 -230.257565 
L 172.538107 -228.845076 
L 172.45539 -227.432586 
L 172.392101 -226.020097 
L 172.353467 -224.607608 
L 172.346242 -223.195119 
L 172.368474 -221.78263 
L 172.404955 -220.370141 
L 172.436351 -218.957652 
L 172.45859 -217.545163 
L 172.4807 -216.132674 
L 172.50442 -214.720185 
L 172.52943 -213.307696 
L 172.573103 -211.895207 
L 172.671929 -210.482717 
L 172.884229 -209.070228 
L 173.312314 -207.657739 
L 174.117278 -206.24525 
L 175.489573 -204.832761 
L 177.566761 -203.420272 
L 180.343762 -202.007783 
L 183.649136 -200.595294 
L 187.204461 -199.182805 
L 190.696161 -197.770316 
L 193.797163 -196.357827 
L 196.175807 -194.945338 
L 197.586065 -193.532849 
L 197.995639 -192.120359 
L 197.566406 -190.70787 
L 196.517902 -189.295381 
L 195.064831 -187.882892 
L 193.404717 -186.470403 
L 191.670799 -185.057914 
L 189.926745 -183.645425 
L 188.230241 -182.232936 
L 186.653097 -180.820447 
L 185.218966 -179.407958 
L 183.873945 -177.995469 
L 182.566996 -176.58298 
L 181.324807 -175.17049 
L 180.21402 -173.758001 
L 179.269444 -172.345512 
L 178.471335 -170.933023 
L 177.768091 -169.520534 
L 177.113701 -168.108045 
L 176.492594 -166.695556 
L 175.926756 -165.283067 
L 175.452158 -163.870578 
L 175.073487 -162.458089 
L 174.757738 -161.0456 
L 174.468525 -159.633111 
L 174.190374 -158.220621 
L 173.944742 -156.808132 
L 173.722091 -155.395643 
L 173.454952 -153.983154 
L 173.232755 -152.570665 
L 173.194372 -151.158176 
L 173.149572 -149.745687 
L 172.853845 -148.333198 
L 172.4665 -146.920709 
L 172.333814 -145.50822 
L 172.59284 -144.095731 
L 173.037187 -142.683242 
L 173.225332 -141.270753 
L 172.942705 -139.858263 
L 172.461251 -138.445774 
L 172.125072 -137.033285 
z
" id="mabfd0fb929" style="stroke:#474747;stroke-width:1.5;"/>
    </defs>
    <g clip-path="url(#p93b623cc7b)">
     <use style="fill:#9e4e4e;stroke:#474747;stroke-width:1.5;" x="0" xlink:href="#mabfd0fb929" y="567.922969"/>
    </g>
   </g>
   <g id="PolyCollection_3">
    <defs>
     <path d="M 242.891757 -138.307842 
L 242.403989 -138.307842 
L 241.6239 -139.764265 
L 240.860161 -141.220688 
L 241.350026 -142.677111 
L 242.25411 -144.133534 
L 242.558633 -145.589957 
L 242.311223 -147.04638 
L 241.488898 -148.502803 
L 240.960655 -149.959227 
L 241.445388 -151.41565 
L 241.418356 -152.872073 
L 240.585566 -154.328496 
L 240.516018 -155.784919 
L 240.608039 -157.241342 
L 240.27395 -158.697765 
L 239.936583 -160.154188 
L 239.578246 -161.610611 
L 239.229278 -163.067035 
L 238.674998 -164.523458 
L 238.035036 -165.979881 
L 237.442307 -167.436304 
L 236.859444 -168.892727 
L 236.168928 -170.34915 
L 235.211186 -171.805573 
L 233.971432 -173.261996 
L 232.661366 -174.718419 
L 231.458988 -176.174843 
L 230.379525 -177.631266 
L 229.219722 -179.087689 
L 227.694798 -180.544112 
L 225.776555 -182.000535 
L 223.79534 -183.456958 
L 221.808053 -184.913381 
L 219.723393 -186.369804 
L 217.692019 -187.826227 
L 216.012457 -189.282651 
L 214.94032 -190.739074 
L 214.369724 -192.195497 
L 214.48566 -193.65192 
L 215.735618 -195.108343 
L 218.262902 -196.564766 
L 221.951503 -198.021189 
L 226.627222 -199.477612 
L 231.511681 -200.934035 
L 235.610404 -202.390458 
L 238.629731 -203.846882 
L 240.604463 -205.303305 
L 241.686937 -206.759728 
L 242.189683 -208.216151 
L 242.379672 -209.672574 
L 242.445566 -211.128997 
L 242.490405 -212.58542 
L 242.520777 -214.041843 
L 242.519415 -215.498266 
L 242.510186 -216.95469 
L 242.522322 -218.411113 
L 242.550927 -219.867536 
L 242.57 -221.323959 
L 242.56914 -222.780382 
L 242.557848 -224.236805 
L 242.549029 -225.693228 
L 242.543586 -227.149651 
L 242.545625 -228.606074 
L 242.556951 -230.062498 
L 242.55892 -231.518921 
L 242.553529 -232.975344 
L 242.556376 -234.431767 
L 242.555114 -235.88819 
L 242.521164 -237.344613 
L 242.469325 -238.801036 
L 242.444574 -240.257459 
L 242.454488 -241.713882 
L 242.468835 -243.170306 
L 242.453949 -244.626729 
L 242.41757 -246.083152 
L 242.383118 -247.539575 
L 242.367479 -248.995998 
L 242.376723 -250.452421 
L 242.39212 -251.908844 
L 242.401194 -253.365267 
L 242.404259 -254.82169 
L 242.424394 -256.278114 
L 242.462451 -257.734537 
L 242.493252 -259.19096 
L 242.507355 -260.647383 
L 242.524632 -262.103806 
L 242.554904 -263.560229 
L 242.579784 -265.016652 
L 242.590443 -266.473075 
L 242.59592 -267.929498 
L 242.606406 -269.385922 
L 242.621507 -270.842345 
L 242.630243 -272.298768 
L 242.632493 -273.755191 
L 242.636038 -275.211614 
L 242.640214 -276.668037 
L 242.64201 -278.12446 
L 242.643467 -279.580883 
L 242.645811 -281.037306 
L 242.64741 -282.49373 
L 242.648336 -282.49373 
L 242.648336 -282.49373 
L 242.649934 -281.037306 
L 242.652279 -279.580883 
L 242.653736 -278.12446 
L 242.655531 -276.668037 
L 242.659707 -275.211614 
L 242.663252 -273.755191 
L 242.665503 -272.298768 
L 242.674239 -270.842345 
L 242.689339 -269.385922 
L 242.699825 -267.929498 
L 242.705302 -266.473075 
L 242.715962 -265.016652 
L 242.740842 -263.560229 
L 242.771113 -262.103806 
L 242.78839 -260.647383 
L 242.802493 -259.19096 
L 242.833295 -257.734537 
L 242.871351 -256.278114 
L 242.891486 -254.82169 
L 242.894552 -253.365267 
L 242.903626 -251.908844 
L 242.919023 -250.452421 
L 242.928266 -248.995998 
L 242.912627 -247.539575 
L 242.878176 -246.083152 
L 242.841797 -244.626729 
L 242.82691 -243.170306 
L 242.841257 -241.713882 
L 242.851171 -240.257459 
L 242.826421 -238.801036 
L 242.774582 -237.344613 
L 242.740631 -235.88819 
L 242.739369 -234.431767 
L 242.742217 -232.975344 
L 242.736826 -231.518921 
L 242.738794 -230.062498 
L 242.75012 -228.606074 
L 242.75216 -227.149651 
L 242.746717 -225.693228 
L 242.737897 -224.236805 
L 242.726605 -222.780382 
L 242.725746 -221.323959 
L 242.744818 -219.867536 
L 242.773423 -218.411113 
L 242.785559 -216.95469 
L 242.776331 -215.498266 
L 242.774969 -214.041843 
L 242.805341 -212.58542 
L 242.850179 -211.128997 
L 242.916074 -209.672574 
L 243.106063 -208.216151 
L 243.608808 -206.759728 
L 244.691283 -205.303305 
L 246.666014 -203.846882 
L 249.685341 -202.390458 
L 253.784065 -200.934035 
L 258.668523 -199.477612 
L 263.344243 -198.021189 
L 267.032843 -196.564766 
L 269.560127 -195.108343 
L 270.810086 -193.65192 
L 270.926022 -192.195497 
L 270.355425 -190.739074 
L 269.283288 -189.282651 
L 267.603727 -187.826227 
L 265.572353 -186.369804 
L 263.487692 -184.913381 
L 261.500406 -183.456958 
L 259.519191 -182.000535 
L 257.600947 -180.544112 
L 256.076023 -179.087689 
L 254.91622 -177.631266 
L 253.836757 -176.174843 
L 252.63438 -174.718419 
L 251.324314 -173.261996 
L 250.084559 -171.805573 
L 249.126818 -170.34915 
L 248.436301 -168.892727 
L 247.853438 -167.436304 
L 247.260709 -165.979881 
L 246.620748 -164.523458 
L 246.066468 -163.067035 
L 245.717499 -161.610611 
L 245.359163 -160.154188 
L 245.021795 -158.697765 
L 244.687706 -157.241342 
L 244.779728 -155.784919 
L 244.71018 -154.328496 
L 243.87739 -152.872073 
L 243.850357 -151.41565 
L 244.33509 -149.959227 
L 243.806847 -148.502803 
L 242.984522 -147.04638 
L 242.737113 -145.589957 
L 243.041635 -144.133534 
L 243.94572 -142.677111 
L 244.435585 -141.220688 
L 243.671846 -139.764265 
L 242.891757 -138.307842 
z
" id="mca19a4ee01" style="stroke:#474747;stroke-width:1.5;"/>
    </defs>
    <g clip-path="url(#p93b623cc7b)">
     <use style="fill:#e47070;stroke:#474747;stroke-width:1.5;" x="0" xlink:href="#mca19a4ee01" y="567.922969"/>
    </g>
   </g>
   <g id="PolyCollection_4">
    <defs>
     <path d="M 313.468912 -136.294134 
L 313.21758 -136.294134 
L 312.982826 -137.893111 
L 312.642902 -139.492087 
L 312.419396 -141.091063 
L 312.503037 -142.69004 
L 312.756265 -144.289016 
L 312.847612 -145.887993 
L 312.64398 -147.486969 
L 312.337504 -149.085946 
L 312.166916 -150.684922 
L 312.099799 -152.283899 
L 311.97258 -153.882875 
L 311.775687 -155.481852 
L 311.562949 -157.080828 
L 311.321072 -158.679805 
L 311.026975 -160.278781 
L 310.667171 -161.877757 
L 310.226446 -163.476734 
L 309.708723 -165.07571 
L 309.128751 -166.674687 
L 308.47772 -168.273663 
L 307.726339 -169.87264 
L 306.862163 -171.471616 
L 305.909636 -173.070593 
L 304.900965 -174.669569 
L 303.820781 -176.268546 
L 302.600762 -177.867522 
L 301.188253 -179.466498 
L 299.601702 -181.065475 
L 297.904274 -182.664451 
L 296.14411 -184.263428 
L 294.342859 -185.862404 
L 292.551019 -187.461381 
L 290.935285 -189.060357 
L 289.791666 -190.659334 
L 289.398817 -192.25831 
L 289.872097 -193.857287 
L 291.216336 -195.456263 
L 293.438978 -197.05524 
L 296.478828 -198.654216 
L 300.042478 -200.253192 
L 303.616903 -201.852169 
L 306.695749 -203.451145 
L 309.005905 -205.050122 
L 310.539563 -206.649098 
L 311.44475 -208.248075 
L 311.924191 -209.847051 
L 312.161927 -211.446028 
L 312.271586 -213.045004 
L 312.304376 -214.643981 
L 312.291623 -216.242957 
L 312.259716 -217.841933 
L 312.22122 -219.44091 
L 312.178433 -221.039886 
L 312.133749 -222.638863 
L 312.082952 -224.237839 
L 312.011406 -225.836816 
L 311.916048 -227.435792 
L 311.81504 -229.034769 
L 311.720834 -230.633745 
L 311.624732 -232.232722 
L 311.518094 -233.831698 
L 311.408813 -235.430674 
L 311.310744 -237.029651 
L 311.229988 -238.628627 
L 311.169951 -240.227604 
L 311.147361 -241.82658 
L 311.1884 -243.425557 
L 311.301678 -245.024533 
L 311.466576 -246.62351 
L 311.650558 -248.222486 
L 311.824613 -249.821463 
L 311.969741 -251.420439 
L 312.084402 -253.019416 
L 312.175466 -254.618392 
L 312.245291 -256.217368 
L 312.303118 -257.816345 
L 312.370399 -259.415321 
L 312.460768 -261.014298 
L 312.570653 -262.613274 
L 312.687998 -264.212251 
L 312.797204 -265.811227 
L 312.88728 -267.410204 
L 312.96292 -269.00918 
L 313.036037 -270.608157 
L 313.10781 -272.207133 
L 313.169006 -273.806109 
L 313.213775 -275.405086 
L 313.245453 -277.004062 
L 313.270912 -278.603039 
L 313.293834 -280.202015 
L 313.313048 -281.800992 
L 313.325892 -283.399968 
L 313.33244 -284.998945 
L 313.335476 -286.597921 
L 313.337425 -288.196898 
L 313.339173 -289.795874 
L 313.340822 -291.39485 
L 313.342129 -292.993827 
L 313.342874 -294.592803 
L 313.343617 -294.592803 
L 313.343617 -294.592803 
L 313.344362 -292.993827 
L 313.34567 -291.39485 
L 313.347318 -289.795874 
L 313.349067 -288.196898 
L 313.351015 -286.597921 
L 313.354051 -284.998945 
L 313.360599 -283.399968 
L 313.373443 -281.800992 
L 313.392658 -280.202015 
L 313.415579 -278.603039 
L 313.441038 -277.004062 
L 313.472716 -275.405086 
L 313.517486 -273.806109 
L 313.578681 -272.207133 
L 313.650454 -270.608157 
L 313.723571 -269.00918 
L 313.799211 -267.410204 
L 313.889287 -265.811227 
L 313.998493 -264.212251 
L 314.115838 -262.613274 
L 314.225724 -261.014298 
L 314.316092 -259.415321 
L 314.383373 -257.816345 
L 314.441201 -256.217368 
L 314.511025 -254.618392 
L 314.602089 -253.019416 
L 314.71675 -251.420439 
L 314.861879 -249.821463 
L 315.035934 -248.222486 
L 315.219915 -246.62351 
L 315.384813 -245.024533 
L 315.498091 -243.425557 
L 315.53913 -241.82658 
L 315.516541 -240.227604 
L 315.456503 -238.628627 
L 315.375747 -237.029651 
L 315.277678 -235.430674 
L 315.168398 -233.831698 
L 315.061759 -232.232722 
L 314.965657 -230.633745 
L 314.871451 -229.034769 
L 314.770443 -227.435792 
L 314.675085 -225.836816 
L 314.60354 -224.237839 
L 314.552742 -222.638863 
L 314.508059 -221.039886 
L 314.465272 -219.44091 
L 314.426775 -217.841933 
L 314.394868 -216.242957 
L 314.382115 -214.643981 
L 314.414906 -213.045004 
L 314.524564 -211.446028 
L 314.7623 -209.847051 
L 315.241741 -208.248075 
L 316.146929 -206.649098 
L 317.680587 -205.050122 
L 319.990742 -203.451145 
L 323.069588 -201.852169 
L 326.644013 -200.253192 
L 330.207663 -198.654216 
L 333.247514 -197.05524 
L 335.470156 -195.456263 
L 336.814394 -193.857287 
L 337.287675 -192.25831 
L 336.894826 -190.659334 
L 335.751206 -189.060357 
L 334.135472 -187.461381 
L 332.343632 -185.862404 
L 330.542381 -184.263428 
L 328.782218 -182.664451 
L 327.084789 -181.065475 
L 325.498239 -179.466498 
L 324.08573 -177.867522 
L 322.865711 -176.268546 
L 321.785527 -174.669569 
L 320.776856 -173.070593 
L 319.824329 -171.471616 
L 318.960152 -169.87264 
L 318.208772 -168.273663 
L 317.55774 -166.674687 
L 316.977768 -165.07571 
L 316.460046 -163.476734 
L 316.01932 -161.877757 
L 315.659516 -160.278781 
L 315.36542 -158.679805 
L 315.123542 -157.080828 
L 314.910805 -155.481852 
L 314.713912 -153.882875 
L 314.586692 -152.283899 
L 314.519575 -150.684922 
L 314.348988 -149.085946 
L 314.042511 -147.486969 
L 313.838879 -145.887993 
L 313.930226 -144.289016 
L 314.183455 -142.69004 
L 314.267096 -141.091063 
L 314.04359 -139.492087 
L 313.703665 -137.893111 
L 313.468912 -136.294134 
z
" id="m068af73f28" style="stroke:#474747;stroke-width:1.5;"/>
    </defs>
    <g clip-path="url(#p93b623cc7b)">
     <use style="fill:#39cde3;stroke:#474747;stroke-width:1.5;" x="0" xlink:href="#m068af73f28" y="567.922969"/>
    </g>
   </g>
   <g id="PolyCollection_5">
    <defs>
     <path d="M 384.184928 -134.828093 
L 383.892309 -134.828093 
L 383.660013 -136.643269 
L 383.313949 -138.458446 
L 383.006365 -140.273622 
L 382.917564 -142.088799 
L 383.027385 -143.903976 
L 383.105708 -145.719152 
L 382.987368 -147.534329 
L 382.738511 -149.349505 
L 382.493821 -151.164682 
L 382.261117 -152.979858 
L 381.968169 -154.795035 
L 381.588879 -156.610211 
L 381.144667 -158.425388 
L 380.645781 -160.240565 
L 380.074522 -162.055741 
L 379.41065 -163.870918 
L 378.654376 -165.686094 
L 377.810198 -167.501271 
L 376.856475 -169.316447 
L 375.752557 -171.131624 
L 374.475051 -172.9468 
L 373.035691 -174.761977 
L 371.467488 -176.577154 
L 369.801975 -178.39233 
L 368.063664 -180.207507 
L 366.29025 -182.022683 
L 364.559518 -183.83786 
L 363.003256 -185.653036 
L 361.813335 -187.468213 
L 361.239819 -189.283389 
L 361.549253 -191.098566 
L 362.924283 -192.913743 
L 365.350824 -194.728919 
L 368.567867 -196.544096 
L 372.120133 -198.359272 
L 375.499844 -200.174449 
L 378.31061 -201.989625 
L 380.37042 -203.804802 
L 381.71417 -205.619979 
L 382.51518 -207.435155 
L 382.977414 -209.250332 
L 383.253059 -211.065508 
L 383.42025 -212.880685 
L 383.511726 -214.695861 
L 383.550478 -216.511038 
L 383.562418 -218.326214 
L 383.570391 -220.141391 
L 383.58626 -221.956568 
L 383.610372 -223.771744 
L 383.637517 -225.586921 
L 383.662864 -227.402097 
L 383.682971 -229.217274 
L 383.694958 -231.03245 
L 383.699082 -232.847627 
L 383.70125 -234.662803 
L 383.709137 -236.47798 
L 383.72523 -238.293157 
L 383.744655 -240.108333 
L 383.757907 -241.92351 
L 383.753757 -243.738686 
L 383.722696 -245.553863 
L 383.662752 -247.369039 
L 383.581931 -249.184216 
L 383.490924 -250.999392 
L 383.392084 -252.814569 
L 383.276605 -254.629746 
L 383.131663 -256.444922 
L 382.950257 -258.260099 
L 382.737969 -260.075275 
L 382.514356 -261.890452 
L 382.307631 -263.705628 
L 382.143893 -265.520805 
L 382.037581 -267.335982 
L 381.989467 -269.151158 
L 381.992064 -270.966335 
L 382.0398 -272.781511 
L 382.136454 -274.596688 
L 382.289736 -276.411864 
L 382.498344 -278.227041 
L 382.745583 -280.042217 
L 383.001733 -281.857394 
L 383.233437 -283.672571 
L 383.419048 -285.487747 
L 383.558242 -287.302924 
L 383.664559 -289.1181 
L 383.749525 -290.933277 
L 383.816714 -292.748453 
L 383.868031 -294.56363 
L 383.908486 -296.378806 
L 383.943178 -298.193983 
L 383.973606 -300.00916 
L 383.998341 -301.824336 
L 384.015723 -303.639513 
L 384.025825 -305.454689 
L 384.030812 -307.269866 
L 384.033501 -309.085042 
L 384.035533 -310.900219 
L 384.037114 -312.715395 
L 384.038058 -314.530572 
L 384.039179 -314.530572 
L 384.039179 -314.530572 
L 384.040124 -312.715395 
L 384.041704 -310.900219 
L 384.043736 -309.085042 
L 384.046425 -307.269866 
L 384.051412 -305.454689 
L 384.061514 -303.639513 
L 384.078896 -301.824336 
L 384.103631 -300.00916 
L 384.134059 -298.193983 
L 384.168751 -296.378806 
L 384.209206 -294.56363 
L 384.260524 -292.748453 
L 384.327713 -290.933277 
L 384.412679 -289.1181 
L 384.518995 -287.302924 
L 384.658189 -285.487747 
L 384.843801 -283.672571 
L 385.075505 -281.857394 
L 385.331654 -280.042217 
L 385.578893 -278.227041 
L 385.787501 -276.411864 
L 385.940783 -274.596688 
L 386.037437 -272.781511 
L 386.085173 -270.966335 
L 386.087771 -269.151158 
L 386.039656 -267.335982 
L 385.933344 -265.520805 
L 385.769607 -263.705628 
L 385.562881 -261.890452 
L 385.339268 -260.075275 
L 385.12698 -258.260099 
L 384.945574 -256.444922 
L 384.800633 -254.629746 
L 384.685154 -252.814569 
L 384.586313 -250.999392 
L 384.495306 -249.184216 
L 384.414485 -247.369039 
L 384.354541 -245.553863 
L 384.323481 -243.738686 
L 384.31933 -241.92351 
L 384.332582 -240.108333 
L 384.352007 -238.293157 
L 384.3681 -236.47798 
L 384.375987 -234.662803 
L 384.378155 -232.847627 
L 384.38228 -231.03245 
L 384.394266 -229.217274 
L 384.414374 -227.402097 
L 384.439721 -225.586921 
L 384.466865 -223.771744 
L 384.490977 -221.956568 
L 384.506847 -220.141391 
L 384.51482 -218.326214 
L 384.52676 -216.511038 
L 384.565512 -214.695861 
L 384.656987 -212.880685 
L 384.824178 -211.065508 
L 385.099823 -209.250332 
L 385.562058 -207.435155 
L 386.363067 -205.619979 
L 387.706817 -203.804802 
L 389.766627 -201.989625 
L 392.577393 -200.174449 
L 395.957105 -198.359272 
L 399.50937 -196.544096 
L 402.726413 -194.728919 
L 405.152954 -192.913743 
L 406.527984 -191.098566 
L 406.837419 -189.283389 
L 406.263902 -187.468213 
L 405.073981 -185.653036 
L 403.517719 -183.83786 
L 401.786987 -182.022683 
L 400.013574 -180.207507 
L 398.275262 -178.39233 
L 396.60975 -176.577154 
L 395.041546 -174.761977 
L 393.602186 -172.9468 
L 392.324681 -171.131624 
L 391.220762 -169.316447 
L 390.26704 -167.501271 
L 389.422861 -165.686094 
L 388.666587 -163.870918 
L 388.002715 -162.055741 
L 387.431457 -160.240565 
L 386.932571 -158.425388 
L 386.488358 -156.610211 
L 386.109069 -154.795035 
L 385.81612 -152.979858 
L 385.583417 -151.164682 
L 385.338726 -149.349505 
L 385.089869 -147.534329 
L 384.971529 -145.719152 
L 385.049852 -143.903976 
L 385.159673 -142.088799 
L 385.070872 -140.273622 
L 384.763288 -138.458446 
L 384.417224 -136.643269 
L 384.184928 -134.828093 
z
" id="mbcb97e4b3e" style="stroke:#474747;stroke-width:1.5;"/>
    </defs>
    <g clip-path="url(#p93b623cc7b)">
     <use style="fill:#42db51;stroke:#474747;stroke-width:1.5;" x="0" xlink:href="#mbcb97e4b3e" y="567.922969"/>
    </g>
   </g>
   <g id="PolyCollection_6">
    <defs>
     <path d="M 454.898534 -137.904701 
L 454.569449 -137.904701 
L 454.173406 -139.231891 
L 453.655013 -140.55908 
L 453.560699 -141.88627 
L 454.012175 -143.21346 
L 454.469728 -144.540649 
L 454.581149 -145.867839 
L 454.297842 -147.195028 
L 453.722291 -148.522218 
L 453.373973 -149.849408 
L 453.586148 -151.176597 
L 453.784975 -152.503787 
L 453.543278 -153.830976 
L 453.275718 -155.158166 
L 453.156952 -156.485356 
L 452.947658 -157.812545 
L 452.749057 -159.139735 
L 452.601608 -160.466924 
L 452.377234 -161.794114 
L 452.058028 -163.121304 
L 451.669185 -164.448493 
L 451.250999 -165.775683 
L 450.827759 -167.102873 
L 450.383721 -168.430062 
L 449.877977 -169.757252 
L 449.267233 -171.084441 
L 448.566506 -172.411631 
L 447.845543 -173.738821 
L 447.100361 -175.06601 
L 446.293365 -176.3932 
L 445.429604 -177.720389 
L 444.479882 -179.047579 
L 443.443741 -180.374769 
L 442.377055 -181.701958 
L 441.294137 -183.029148 
L 440.210848 -184.356337 
L 439.128449 -185.683527 
L 438.02586 -187.010717 
L 437.025982 -188.337906 
L 436.367504 -189.665096 
L 436.163667 -190.992285 
L 436.298681 -192.319475 
L 436.649336 -193.646665 
L 437.266676 -194.973854 
L 438.219272 -196.301044 
L 439.386669 -197.628234 
L 440.530718 -198.955423 
L 441.512676 -200.282613 
L 442.27754 -201.609802 
L 442.785249 -202.936992 
L 443.059352 -204.264182 
L 443.208409 -205.591371 
L 443.42559 -206.918561 
L 443.855729 -208.24575 
L 444.456701 -209.57294 
L 445.118465 -210.90013 
L 445.791939 -212.227319 
L 446.481457 -213.554509 
L 447.197852 -214.881698 
L 447.91494 -216.208888 
L 448.584963 -217.536078 
L 449.201434 -218.863267 
L 449.813522 -220.190457 
L 450.439332 -221.517647 
L 451.02904 -222.844836 
L 451.54666 -224.172026 
L 452.009887 -225.499215 
L 452.442406 -226.826405 
L 452.826862 -228.153595 
L 453.143567 -229.480784 
L 453.415447 -230.807974 
L 453.678729 -232.135163 
L 453.932599 -233.462353 
L 454.145036 -234.789543 
L 454.296918 -236.116732 
L 454.394238 -237.443922 
L 454.459887 -238.771111 
L 454.513916 -240.098301 
L 454.564674 -241.425491 
L 454.611775 -242.75268 
L 454.65004 -244.07987 
L 454.676809 -245.40706 
L 454.692888 -246.734249 
L 454.701686 -248.061439 
L 454.709164 -249.388628 
L 454.717212 -250.715818 
L 454.722523 -252.043008 
L 454.724509 -253.370197 
L 454.725698 -254.697387 
L 454.727087 -256.024576 
L 454.728321 -257.351766 
L 454.729588 -258.678956 
L 454.731206 -260.006145 
L 454.732297 -261.333335 
L 454.731977 -262.660524 
L 454.730959 -263.987714 
L 454.730715 -265.314904 
L 454.731683 -266.642093 
L 454.732966 -267.969283 
L 454.733715 -269.296473 
L 454.734268 -269.296473 
L 454.734268 -269.296473 
L 454.735017 -267.969283 
L 454.7363 -266.642093 
L 454.737268 -265.314904 
L 454.737025 -263.987714 
L 454.736006 -262.660524 
L 454.735687 -261.333335 
L 454.736777 -260.006145 
L 454.738396 -258.678956 
L 454.739662 -257.351766 
L 454.740896 -256.024576 
L 454.742286 -254.697387 
L 454.743474 -253.370197 
L 454.745461 -252.043008 
L 454.750771 -250.715818 
L 454.758819 -249.388628 
L 454.766297 -248.061439 
L 454.775095 -246.734249 
L 454.791174 -245.40706 
L 454.817944 -244.07987 
L 454.856208 -242.75268 
L 454.903309 -241.425491 
L 454.954067 -240.098301 
L 455.008096 -238.771111 
L 455.073745 -237.443922 
L 455.171066 -236.116732 
L 455.322947 -234.789543 
L 455.535384 -233.462353 
L 455.789254 -232.135163 
L 456.052536 -230.807974 
L 456.324416 -229.480784 
L 456.641121 -228.153595 
L 457.025577 -226.826405 
L 457.458096 -225.499215 
L 457.921323 -224.172026 
L 458.438943 -222.844836 
L 459.028651 -221.517647 
L 459.654462 -220.190457 
L 460.266549 -218.863267 
L 460.88302 -217.536078 
L 461.553043 -216.208888 
L 462.270131 -214.881698 
L 462.986526 -213.554509 
L 463.676045 -212.227319 
L 464.349519 -210.90013 
L 465.011282 -209.57294 
L 465.612254 -208.24575 
L 466.042394 -206.918561 
L 466.259574 -205.591371 
L 466.408632 -204.264182 
L 466.682734 -202.936992 
L 467.190443 -201.609802 
L 467.955308 -200.282613 
L 468.937265 -198.955423 
L 470.081314 -197.628234 
L 471.248711 -196.301044 
L 472.201307 -194.973854 
L 472.818647 -193.646665 
L 473.169302 -192.319475 
L 473.304316 -190.992285 
L 473.10048 -189.665096 
L 472.442002 -188.337906 
L 471.442124 -187.010717 
L 470.339534 -185.683527 
L 469.257135 -184.356337 
L 468.173846 -183.029148 
L 467.090929 -181.701958 
L 466.024242 -180.374769 
L 464.988101 -179.047579 
L 464.038379 -177.720389 
L 463.174618 -176.3932 
L 462.367622 -175.06601 
L 461.62244 -173.738821 
L 460.901477 -172.411631 
L 460.20075 -171.084441 
L 459.590007 -169.757252 
L 459.084262 -168.430062 
L 458.640225 -167.102873 
L 458.216984 -165.775683 
L 457.798798 -164.448493 
L 457.409956 -163.121304 
L 457.090749 -161.794114 
L 456.866376 -160.466924 
L 456.718926 -159.139735 
L 456.520325 -157.812545 
L 456.311031 -156.485356 
L 456.192266 -155.158166 
L 455.924705 -153.830976 
L 455.683008 -152.503787 
L 455.881835 -151.176597 
L 456.09401 -149.849408 
L 455.745692 -148.522218 
L 455.170142 -147.195028 
L 454.886834 -145.867839 
L 454.998255 -144.540649 
L 455.455808 -143.21346 
L 455.907284 -141.88627 
L 455.81297 -140.55908 
L 455.294577 -139.231891 
L 454.898534 -137.904701 
z
" id="m9d1317cccf" style="stroke:#474747;stroke-width:1.5;"/>
    </defs>
    <g clip-path="url(#p93b623cc7b)">
     <use style="fill:#db4542;stroke:#474747;stroke-width:1.5;" x="0" xlink:href="#m9d1317cccf" y="567.922969"/>
    </g>
   </g>
   <g id="line2d_25">
    <path clip-path="url(#p93b623cc7b)" d="M 101.257127 409.663897 
L 101.257127 350.957506 
" style="fill:none;stroke:#474747;stroke-linecap:round;stroke-width:1.5;"/>
   </g>
   <g id="line2d_26">
    <path clip-path="url(#p93b623cc7b)" d="M 101.257127 388.413335 
L 101.257127 373.422362 
" style="fill:none;stroke:#474747;stroke-linecap:round;stroke-width:4.5;"/>
   </g>
   <g id="line2d_27">
    <path clip-path="url(#p93b623cc7b)" d="M 171.9525 409.663897 
L 171.9525 349.223853 
" style="fill:none;stroke:#474747;stroke-linecap:round;stroke-width:1.5;"/>
   </g>
   <g id="line2d_28">
    <path clip-path="url(#p93b623cc7b)" d="M 171.9525 387.400354 
L 171.9525 372.111648 
" style="fill:none;stroke:#474747;stroke-linecap:round;stroke-width:4.5;"/>
   </g>
   <g id="line2d_29">
    <path clip-path="url(#p93b623cc7b)" d="M 242.647873 406.952985 
L 242.647873 351.757711 
" style="fill:none;stroke:#474747;stroke-linecap:round;stroke-width:1.5;"/>
   </g>
   <g id="line2d_30">
    <path clip-path="url(#p93b623cc7b)" d="M 242.647873 387.89629 
L 242.647873 373.422362 
" style="fill:none;stroke:#474747;stroke-linecap:round;stroke-width:4.5;"/>
   </g>
   <g id="line2d_31">
    <path clip-path="url(#p93b623cc7b)" d="M 313.343246 406.952985 
L 313.343246 346.76309 
" style="fill:none;stroke:#474747;stroke-linecap:round;stroke-width:1.5;"/>
   </g>
   <g id="line2d_32">
    <path clip-path="url(#p93b623cc7b)" d="M 313.343246 386.023554 
L 313.343246 370.318058 
" style="fill:none;stroke:#474747;stroke-linecap:round;stroke-width:4.5;"/>
   </g>
   <g id="line2d_33">
    <path clip-path="url(#p93b623cc7b)" d="M 384.038619 413.158869 
L 384.038619 348.913127 
" style="fill:none;stroke:#474747;stroke-linecap:round;stroke-width:1.5;"/>
   </g>
   <g id="line2d_34">
    <path clip-path="url(#p93b623cc7b)" d="M 384.038619 389.518527 
L 384.038619 373.269546 
" style="fill:none;stroke:#474747;stroke-linecap:round;stroke-width:4.5;"/>
   </g>
   <g id="line2d_35">
    <path clip-path="url(#p93b623cc7b)" d="M 454.733992 413.158869 
L 454.733992 330.704289 
" style="fill:none;stroke:#474747;stroke-linecap:round;stroke-width:1.5;"/>
   </g>
   <g id="line2d_36">
    <path clip-path="url(#p93b623cc7b)" d="M 454.733992 384.787024 
L 454.733992 363.150756 
" style="fill:none;stroke:#474747;stroke-linecap:round;stroke-width:4.5;"/>
   </g>
   <g id="line2d_37">
    <path clip-path="url(#p93b623cc7b)" d="M 76.513746 362.137775 
L 479.477372 362.137775 
" style="fill:none;stroke:#000000;stroke-linecap:round;stroke-width:1.5;"/>
   </g>
   <g id="patch_6">
    <path d="M 53.368281 442.08 
L 53.368281 244.407273 
" style="fill:none;stroke:#262626;stroke-linecap:square;stroke-linejoin:miter;stroke-width:1.25;"/>
   </g>
   <g id="patch_7">
    <path d="M 53.368281 442.08 
L 499.768281 442.08 
" style="fill:none;stroke:#262626;stroke-linecap:square;stroke-linejoin:miter;stroke-width:1.25;"/>
   </g>
   <g id="PathCollection_7">
    <defs>
     <path d="M 0 1.5 
C 0.397805 1.5 0.77937 1.341951 1.06066 1.06066 
C 1.341951 0.77937 1.5 0.397805 1.5 0 
C 1.5 -0.397805 1.341951 -0.77937 1.06066 -1.06066 
C 0.77937 -1.341951 0.397805 -1.5 0 -1.5 
C -0.397805 -1.5 -0.77937 -1.341951 -1.06066 -1.06066 
C -1.341951 -0.77937 -1.5 -0.397805 -1.5 0 
C -1.5 0.397805 -1.341951 0.77937 -1.06066 1.06066 
C -0.77937 1.341951 -0.397805 1.5 0 1.5 
z
" id="m69bade1f7e" style="stroke:#474747;"/>
    </defs>
    <g clip-path="url(#p93b623cc7b)">
     <use style="fill:#ffffff;stroke:#474747;" x="101.257127" xlink:href="#m69bade1f7e" y="379.731202"/>
    </g>
   </g>
   <g id="PathCollection_8">
    <g clip-path="url(#p93b623cc7b)">
     <use style="fill:#ffffff;stroke:#474747;" x="171.9525" xlink:href="#m69bade1f7e" y="378.503012"/>
    </g>
   </g>
   <g id="PathCollection_9">
    <g clip-path="url(#p93b623cc7b)">
     <use style="fill:#ffffff;stroke:#474747;" x="242.647873" xlink:href="#m69bade1f7e" y="379.47543"/>
    </g>
   </g>
   <g id="PathCollection_10">
    <g clip-path="url(#p93b623cc7b)">
     <use style="fill:#ffffff;stroke:#474747;" x="313.343246" xlink:href="#m69bade1f7e" y="377.387667"/>
    </g>
   </g>
   <g id="PathCollection_11">
    <g clip-path="url(#p93b623cc7b)">
     <use style="fill:#ffffff;stroke:#474747;" x="384.038619" xlink:href="#m69bade1f7e" y="380.532508"/>
    </g>
   </g>
   <g id="PathCollection_12">
    <g clip-path="url(#p93b623cc7b)">
     <use style="fill:#ffffff;stroke:#474747;" x="454.733992" xlink:href="#m69bade1f7e" y="374.891783"/>
    </g>
   </g>
  </g>
 </g>
 <defs>
  <clipPath id="pda500d3c24">
   <rect height="197.672727" width="446.4" x="53.368281" y="7.2"/>
  </clipPath>
  <clipPath id="p93b623cc7b">
   <rect height="197.672727" width="446.4" x="53.368281" y="244.407273"/>
  </clipPath>
 </defs>
</svg>
