<?xml version="1.0" encoding="utf-8" standalone="no"?>
<!DOCTYPE svg PUBLIC "-//W3C//DTD SVG 1.1//EN"
  "http://www.w3.org/Graphics/SVG/1.1/DTD/svg11.dtd">
<!-- Created with matplotlib (https://matplotlib.org/) -->
<svg height="691.405824pt" version="1.1" viewBox="0 0 545.636562 691.405824" width="545.636562pt" xmlns="http://www.w3.org/2000/svg" xmlns:xlink="http://www.w3.org/1999/xlink">
 <metadata>
  <rdf:RDF xmlns:cc="http://creativecommons.org/ns#" xmlns:dc="http://purl.org/dc/elements/1.1/" xmlns:rdf="http://www.w3.org/1999/02/22-rdf-syntax-ns#">
   <cc:Work>
    <dc:type rdf:resource="http://purl.org/dc/dcmitype/StillImage"/>
    <dc:date>2021-12-15T13:05:23.338033</dc:date>
    <dc:format>image/svg+xml</dc:format>
    <dc:creator>
     <cc:Agent>
      <dc:title>Matplotlib v3.3.0, https://matplotlib.org/</dc:title>
     </cc:Agent>
    </dc:creator>
   </cc:Work>
  </rdf:RDF>
 </metadata>
 <defs>
  <style type="text/css">*{stroke-linecap:butt;stroke-linejoin:round;}</style>
 </defs>
 <g id="figure_1">
  <g id="patch_1">
   <path d="M 0 691.405824 
L 545.636562 691.405824 
L 545.636562 0 
L 0 0 
z
" style="fill:#ffffff;"/>
  </g>
  <g id="axes_1">
   <g id="patch_2">
    <path d="M 92.036563 217.212614 
L 538.436563 217.212614 
L 538.436563 19.539886 
L 92.036563 19.539886 
z
" style="fill:#ffffff;"/>
   </g>
   <g id="matplotlib.axis_1">
    <g id="xtick_1">
     <g id="line2d_1">
      <defs>
       <path d="M 0 0 
L 0 12 
" id="mdc3072b7a4" style="stroke:#262626;stroke-width:2.5;"/>
      </defs>
      <g>
       <use style="fill:#262626;stroke:#262626;stroke-width:2.5;" x="139.925408" xlink:href="#mdc3072b7a4" y="217.212614"/>
      </g>
     </g>
    </g>
    <g id="xtick_2">
     <g id="line2d_2">
      <g>
       <use style="fill:#262626;stroke:#262626;stroke-width:2.5;" x="210.620781" xlink:href="#mdc3072b7a4" y="217.212614"/>
      </g>
     </g>
    </g>
    <g id="xtick_3">
     <g id="line2d_3">
      <g>
       <use style="fill:#262626;stroke:#262626;stroke-width:2.5;" x="281.316154" xlink:href="#mdc3072b7a4" y="217.212614"/>
      </g>
     </g>
    </g>
    <g id="xtick_4">
     <g id="line2d_4">
      <g>
       <use style="fill:#262626;stroke:#262626;stroke-width:2.5;" x="352.011527" xlink:href="#mdc3072b7a4" y="217.212614"/>
      </g>
     </g>
    </g>
    <g id="xtick_5">
     <g id="line2d_5">
      <g>
       <use style="fill:#262626;stroke:#262626;stroke-width:2.5;" x="422.7069" xlink:href="#mdc3072b7a4" y="217.212614"/>
      </g>
     </g>
    </g>
    <g id="xtick_6">
     <g id="line2d_6">
      <g>
       <use style="fill:#262626;stroke:#262626;stroke-width:2.5;" x="493.402273" xlink:href="#mdc3072b7a4" y="217.212614"/>
      </g>
     </g>
    </g>
   </g>
   <g id="matplotlib.axis_2">
    <g id="ytick_1">
     <g id="line2d_7">
      <defs>
       <path d="M 0 0 
L -12 0 
" id="me9a72ca52e" style="stroke:#262626;stroke-width:2.5;"/>
      </defs>
      <g>
       <use style="fill:#262626;stroke:#262626;stroke-width:2.5;" x="92.036563" xlink:href="#me9a72ca52e" y="217.212614"/>
      </g>
     </g>
     <g id="text_1">
      <!-- 0.00 -->
      <g style="fill:#262626;" transform="translate(33.7225 225.086207)scale(0.22 -0.22)">
       <defs>
        <path d="M 4.15625 35.296875 
Q 4.15625 48 6.765625 55.734375 
Q 9.375 63.484375 14.515625 67.671875 
Q 19.671875 71.875 27.484375 71.875 
Q 33.25 71.875 37.59375 69.546875 
Q 41.9375 67.234375 44.765625 62.859375 
Q 47.609375 58.5 49.21875 52.21875 
Q 50.828125 45.953125 50.828125 35.296875 
Q 50.828125 22.703125 48.234375 14.96875 
Q 45.65625 7.234375 40.5 3 
Q 35.359375 -1.21875 27.484375 -1.21875 
Q 17.140625 -1.21875 11.234375 6.203125 
Q 4.15625 15.140625 4.15625 35.296875 
z
M 13.1875 35.296875 
Q 13.1875 17.671875 17.3125 11.828125 
Q 21.4375 6 27.484375 6 
Q 33.546875 6 37.671875 11.859375 
Q 41.796875 17.71875 41.796875 35.296875 
Q 41.796875 52.984375 37.671875 58.78125 
Q 33.546875 64.59375 27.390625 64.59375 
Q 21.34375 64.59375 17.71875 59.46875 
Q 13.1875 52.9375 13.1875 35.296875 
z
" id="ArialMT-48"/>
        <path d="M 9.078125 0 
L 9.078125 10.015625 
L 19.09375 10.015625 
L 19.09375 0 
z
" id="ArialMT-46"/>
       </defs>
       <use xlink:href="#ArialMT-48"/>
       <use x="55.615234" xlink:href="#ArialMT-46"/>
       <use x="83.398438" xlink:href="#ArialMT-48"/>
       <use x="139.013672" xlink:href="#ArialMT-48"/>
      </g>
     </g>
    </g>
    <g id="ytick_2">
     <g id="line2d_8">
      <g>
       <use style="fill:#262626;stroke:#262626;stroke-width:2.5;" x="92.036563" xlink:href="#me9a72ca52e" y="180.250657"/>
      </g>
     </g>
     <g id="text_2">
      <!-- 0.05 -->
      <g style="fill:#262626;" transform="translate(33.7225 188.12425)scale(0.22 -0.22)">
       <defs>
        <path d="M 4.15625 18.75 
L 13.375 19.53125 
Q 14.40625 12.796875 18.140625 9.390625 
Q 21.875 6 27.15625 6 
Q 33.5 6 37.890625 10.78125 
Q 42.28125 15.578125 42.28125 23.484375 
Q 42.28125 31 38.0625 35.34375 
Q 33.84375 39.703125 27 39.703125 
Q 22.75 39.703125 19.328125 37.765625 
Q 15.921875 35.84375 13.96875 32.765625 
L 5.71875 33.84375 
L 12.640625 70.609375 
L 48.25 70.609375 
L 48.25 62.203125 
L 19.671875 62.203125 
L 15.828125 42.96875 
Q 22.265625 47.46875 29.34375 47.46875 
Q 38.71875 47.46875 45.15625 40.96875 
Q 51.609375 34.46875 51.609375 24.265625 
Q 51.609375 14.546875 45.953125 7.46875 
Q 39.0625 -1.21875 27.15625 -1.21875 
Q 17.390625 -1.21875 11.203125 4.25 
Q 5.03125 9.71875 4.15625 18.75 
z
" id="ArialMT-53"/>
       </defs>
       <use xlink:href="#ArialMT-48"/>
       <use x="55.615234" xlink:href="#ArialMT-46"/>
       <use x="83.398438" xlink:href="#ArialMT-48"/>
       <use x="139.013672" xlink:href="#ArialMT-53"/>
      </g>
     </g>
    </g>
    <g id="ytick_3">
     <g id="line2d_9">
      <g>
       <use style="fill:#262626;stroke:#262626;stroke-width:2.5;" x="92.036563" xlink:href="#me9a72ca52e" y="143.288699"/>
      </g>
     </g>
     <g id="text_3">
      <!-- 0.10 -->
      <g style="fill:#262626;" transform="translate(33.7225 151.162293)scale(0.22 -0.22)">
       <defs>
        <path d="M 37.25 0 
L 28.46875 0 
L 28.46875 56 
Q 25.296875 52.984375 20.140625 49.953125 
Q 14.984375 46.921875 10.890625 45.40625 
L 10.890625 53.90625 
Q 18.265625 57.375 23.78125 62.296875 
Q 29.296875 67.234375 31.59375 71.875 
L 37.25 71.875 
z
" id="ArialMT-49"/>
       </defs>
       <use xlink:href="#ArialMT-48"/>
       <use x="55.615234" xlink:href="#ArialMT-46"/>
       <use x="83.398438" xlink:href="#ArialMT-49"/>
       <use x="139.013672" xlink:href="#ArialMT-48"/>
      </g>
     </g>
    </g>
    <g id="ytick_4">
     <g id="line2d_10">
      <g>
       <use style="fill:#262626;stroke:#262626;stroke-width:2.5;" x="92.036563" xlink:href="#me9a72ca52e" y="106.326742"/>
      </g>
     </g>
     <g id="text_4">
      <!-- 0.15 -->
      <g style="fill:#262626;" transform="translate(33.7225 114.200336)scale(0.22 -0.22)">
       <use xlink:href="#ArialMT-48"/>
       <use x="55.615234" xlink:href="#ArialMT-46"/>
       <use x="83.398438" xlink:href="#ArialMT-49"/>
       <use x="139.013672" xlink:href="#ArialMT-53"/>
      </g>
     </g>
    </g>
    <g id="ytick_5">
     <g id="line2d_11">
      <g>
       <use style="fill:#262626;stroke:#262626;stroke-width:2.5;" x="92.036563" xlink:href="#me9a72ca52e" y="69.364785"/>
      </g>
     </g>
     <g id="text_5">
      <!-- 0.20 -->
      <g style="fill:#262626;" transform="translate(33.7225 77.238379)scale(0.22 -0.22)">
       <defs>
        <path d="M 50.34375 8.453125 
L 50.34375 0 
L 3.03125 0 
Q 2.9375 3.171875 4.046875 6.109375 
Q 5.859375 10.9375 9.828125 15.625 
Q 13.8125 20.3125 21.34375 26.46875 
Q 33.015625 36.03125 37.109375 41.625 
Q 41.21875 47.21875 41.21875 52.203125 
Q 41.21875 57.421875 37.46875 61 
Q 33.734375 64.59375 27.734375 64.59375 
Q 21.390625 64.59375 17.578125 60.78125 
Q 13.765625 56.984375 13.71875 50.25 
L 4.6875 51.171875 
Q 5.609375 61.28125 11.65625 66.578125 
Q 17.71875 71.875 27.9375 71.875 
Q 38.234375 71.875 44.234375 66.15625 
Q 50.25 60.453125 50.25 52 
Q 50.25 47.703125 48.484375 43.546875 
Q 46.734375 39.40625 42.65625 34.8125 
Q 38.578125 30.21875 29.109375 22.21875 
Q 21.1875 15.578125 18.9375 13.203125 
Q 16.703125 10.84375 15.234375 8.453125 
z
" id="ArialMT-50"/>
       </defs>
       <use xlink:href="#ArialMT-48"/>
       <use x="55.615234" xlink:href="#ArialMT-46"/>
       <use x="83.398438" xlink:href="#ArialMT-50"/>
       <use x="139.013672" xlink:href="#ArialMT-48"/>
      </g>
     </g>
    </g>
    <g id="ytick_6">
     <g id="line2d_12">
      <g>
       <use style="fill:#262626;stroke:#262626;stroke-width:2.5;" x="92.036563" xlink:href="#me9a72ca52e" y="32.402828"/>
      </g>
     </g>
     <g id="text_6">
      <!-- 0.25 -->
      <g style="fill:#262626;" transform="translate(33.7225 40.276422)scale(0.22 -0.22)">
       <use xlink:href="#ArialMT-48"/>
       <use x="55.615234" xlink:href="#ArialMT-46"/>
       <use x="83.398438" xlink:href="#ArialMT-50"/>
       <use x="139.013672" xlink:href="#ArialMT-53"/>
      </g>
     </g>
    </g>
    <g id="text_7">
     <!-- Integration Efficiency -->
     <g style="fill:#262626;" transform="translate(24.67125 229.5525)rotate(-90)scale(0.24 -0.24)">
      <defs>
       <path d="M 9.328125 0 
L 9.328125 71.578125 
L 18.796875 71.578125 
L 18.796875 0 
z
" id="ArialMT-73"/>
       <path d="M 6.59375 0 
L 6.59375 51.859375 
L 14.5 51.859375 
L 14.5 44.484375 
Q 20.21875 53.03125 31 53.03125 
Q 35.6875 53.03125 39.625 51.34375 
Q 43.5625 49.65625 45.515625 46.921875 
Q 47.46875 44.1875 48.25 40.4375 
Q 48.734375 37.984375 48.734375 31.890625 
L 48.734375 0 
L 39.9375 0 
L 39.9375 31.546875 
Q 39.9375 36.921875 38.90625 39.578125 
Q 37.890625 42.234375 35.28125 43.8125 
Q 32.671875 45.40625 29.15625 45.40625 
Q 23.53125 45.40625 19.453125 41.84375 
Q 15.375 38.28125 15.375 28.328125 
L 15.375 0 
z
" id="ArialMT-110"/>
       <path d="M 25.78125 7.859375 
L 27.046875 0.09375 
Q 23.34375 -0.6875 20.40625 -0.6875 
Q 15.625 -0.6875 12.984375 0.828125 
Q 10.359375 2.34375 9.28125 4.8125 
Q 8.203125 7.28125 8.203125 15.1875 
L 8.203125 45.015625 
L 1.765625 45.015625 
L 1.765625 51.859375 
L 8.203125 51.859375 
L 8.203125 64.703125 
L 16.9375 69.96875 
L 16.9375 51.859375 
L 25.78125 51.859375 
L 25.78125 45.015625 
L 16.9375 45.015625 
L 16.9375 14.703125 
Q 16.9375 10.9375 17.40625 9.859375 
Q 17.875 8.796875 18.921875 8.15625 
Q 19.96875 7.515625 21.921875 7.515625 
Q 23.390625 7.515625 25.78125 7.859375 
z
" id="ArialMT-116"/>
       <path d="M 42.09375 16.703125 
L 51.171875 15.578125 
Q 49.03125 7.625 43.21875 3.21875 
Q 37.40625 -1.171875 28.375 -1.171875 
Q 17 -1.171875 10.328125 5.828125 
Q 3.65625 12.84375 3.65625 25.484375 
Q 3.65625 38.578125 10.390625 45.796875 
Q 17.140625 53.03125 27.875 53.03125 
Q 38.28125 53.03125 44.875 45.953125 
Q 51.46875 38.875 51.46875 26.03125 
Q 51.46875 25.25 51.421875 23.6875 
L 12.75 23.6875 
Q 13.234375 15.140625 17.578125 10.59375 
Q 21.921875 6.0625 28.421875 6.0625 
Q 33.25 6.0625 36.671875 8.59375 
Q 40.09375 11.140625 42.09375 16.703125 
z
M 13.234375 30.90625 
L 42.1875 30.90625 
Q 41.609375 37.453125 38.875 40.71875 
Q 34.671875 45.796875 27.984375 45.796875 
Q 21.921875 45.796875 17.796875 41.75 
Q 13.671875 37.703125 13.234375 30.90625 
z
" id="ArialMT-101"/>
       <path d="M 4.984375 -4.296875 
L 13.53125 -5.5625 
Q 14.0625 -9.515625 16.5 -11.328125 
Q 19.78125 -13.765625 25.4375 -13.765625 
Q 31.546875 -13.765625 34.859375 -11.328125 
Q 38.1875 -8.890625 39.359375 -4.5 
Q 40.046875 -1.8125 39.984375 6.78125 
Q 34.234375 0 25.640625 0 
Q 14.9375 0 9.078125 7.71875 
Q 3.21875 15.4375 3.21875 26.21875 
Q 3.21875 33.640625 5.90625 39.90625 
Q 8.59375 46.1875 13.6875 49.609375 
Q 18.796875 53.03125 25.6875 53.03125 
Q 34.859375 53.03125 40.828125 45.609375 
L 40.828125 51.859375 
L 48.921875 51.859375 
L 48.921875 7.03125 
Q 48.921875 -5.078125 46.453125 -10.125 
Q 44 -15.1875 38.640625 -18.109375 
Q 33.296875 -21.046875 25.484375 -21.046875 
Q 16.21875 -21.046875 10.5 -16.875 
Q 4.78125 -12.703125 4.984375 -4.296875 
z
M 12.25 26.859375 
Q 12.25 16.65625 16.296875 11.96875 
Q 20.359375 7.28125 26.46875 7.28125 
Q 32.515625 7.28125 36.609375 11.9375 
Q 40.71875 16.609375 40.71875 26.5625 
Q 40.71875 36.078125 36.5 40.90625 
Q 32.28125 45.75 26.3125 45.75 
Q 20.453125 45.75 16.34375 40.984375 
Q 12.25 36.234375 12.25 26.859375 
z
" id="ArialMT-103"/>
       <path d="M 6.5 0 
L 6.5 51.859375 
L 14.40625 51.859375 
L 14.40625 44 
Q 17.4375 49.515625 20 51.265625 
Q 22.5625 53.03125 25.640625 53.03125 
Q 30.078125 53.03125 34.671875 50.203125 
L 31.640625 42.046875 
Q 28.421875 43.953125 25.203125 43.953125 
Q 22.3125 43.953125 20.015625 42.21875 
Q 17.71875 40.484375 16.75 37.40625 
Q 15.28125 32.71875 15.28125 27.15625 
L 15.28125 0 
z
" id="ArialMT-114"/>
       <path d="M 40.4375 6.390625 
Q 35.546875 2.25 31.03125 0.53125 
Q 26.515625 -1.171875 21.34375 -1.171875 
Q 12.796875 -1.171875 8.203125 3 
Q 3.609375 7.171875 3.609375 13.671875 
Q 3.609375 17.484375 5.34375 20.625 
Q 7.078125 23.78125 9.890625 25.6875 
Q 12.703125 27.59375 16.21875 28.5625 
Q 18.796875 29.25 24.03125 29.890625 
Q 34.671875 31.15625 39.703125 32.90625 
Q 39.75 34.71875 39.75 35.203125 
Q 39.75 40.578125 37.25 42.78125 
Q 33.890625 45.75 27.25 45.75 
Q 21.046875 45.75 18.09375 43.578125 
Q 15.140625 41.40625 13.71875 35.890625 
L 5.125 37.0625 
Q 6.296875 42.578125 8.984375 45.96875 
Q 11.671875 49.359375 16.75 51.1875 
Q 21.828125 53.03125 28.515625 53.03125 
Q 35.15625 53.03125 39.296875 51.46875 
Q 43.453125 49.90625 45.40625 47.53125 
Q 47.359375 45.171875 48.140625 41.546875 
Q 48.578125 39.3125 48.578125 33.453125 
L 48.578125 21.734375 
Q 48.578125 9.46875 49.140625 6.21875 
Q 49.703125 2.984375 51.375 0 
L 42.1875 0 
Q 40.828125 2.734375 40.4375 6.390625 
z
M 39.703125 26.03125 
Q 34.90625 24.078125 25.34375 22.703125 
Q 19.921875 21.921875 17.671875 20.9375 
Q 15.4375 19.96875 14.203125 18.09375 
Q 12.984375 16.21875 12.984375 13.921875 
Q 12.984375 10.40625 15.640625 8.0625 
Q 18.3125 5.71875 23.4375 5.71875 
Q 28.515625 5.71875 32.46875 7.9375 
Q 36.421875 10.15625 38.28125 14.015625 
Q 39.703125 17 39.703125 22.796875 
z
" id="ArialMT-97"/>
       <path d="M 6.640625 61.46875 
L 6.640625 71.578125 
L 15.4375 71.578125 
L 15.4375 61.46875 
z
M 6.640625 0 
L 6.640625 51.859375 
L 15.4375 51.859375 
L 15.4375 0 
z
" id="ArialMT-105"/>
       <path d="M 3.328125 25.921875 
Q 3.328125 40.328125 11.328125 47.265625 
Q 18.015625 53.03125 27.640625 53.03125 
Q 38.328125 53.03125 45.109375 46.015625 
Q 51.90625 39.015625 51.90625 26.65625 
Q 51.90625 16.65625 48.90625 10.90625 
Q 45.90625 5.171875 40.15625 2 
Q 34.421875 -1.171875 27.640625 -1.171875 
Q 16.75 -1.171875 10.03125 5.8125 
Q 3.328125 12.796875 3.328125 25.921875 
z
M 12.359375 25.921875 
Q 12.359375 15.96875 16.703125 11.015625 
Q 21.046875 6.0625 27.640625 6.0625 
Q 34.1875 6.0625 38.53125 11.03125 
Q 42.875 16.015625 42.875 26.21875 
Q 42.875 35.84375 38.5 40.796875 
Q 34.125 45.75 27.640625 45.75 
Q 21.046875 45.75 16.703125 40.8125 
Q 12.359375 35.890625 12.359375 25.921875 
z
" id="ArialMT-111"/>
       <path id="ArialMT-32"/>
       <path d="M 7.90625 0 
L 7.90625 71.578125 
L 59.671875 71.578125 
L 59.671875 63.140625 
L 17.390625 63.140625 
L 17.390625 41.21875 
L 56.984375 41.21875 
L 56.984375 32.8125 
L 17.390625 32.8125 
L 17.390625 8.453125 
L 61.328125 8.453125 
L 61.328125 0 
z
" id="ArialMT-69"/>
       <path d="M 8.6875 0 
L 8.6875 45.015625 
L 0.921875 45.015625 
L 0.921875 51.859375 
L 8.6875 51.859375 
L 8.6875 57.375 
Q 8.6875 62.59375 9.625 65.140625 
Q 10.890625 68.5625 14.078125 70.671875 
Q 17.28125 72.796875 23.046875 72.796875 
Q 26.765625 72.796875 31.25 71.921875 
L 29.9375 64.265625 
Q 27.203125 64.75 24.75 64.75 
Q 20.75 64.75 19.09375 63.03125 
Q 17.4375 61.328125 17.4375 56.640625 
L 17.4375 51.859375 
L 27.546875 51.859375 
L 27.546875 45.015625 
L 17.4375 45.015625 
L 17.4375 0 
z
" id="ArialMT-102"/>
       <path d="M 40.4375 19 
L 49.078125 17.875 
Q 47.65625 8.9375 41.8125 3.875 
Q 35.984375 -1.171875 27.484375 -1.171875 
Q 16.84375 -1.171875 10.375 5.78125 
Q 3.90625 12.75 3.90625 25.734375 
Q 3.90625 34.125 6.6875 40.421875 
Q 9.46875 46.734375 15.15625 49.875 
Q 20.84375 53.03125 27.546875 53.03125 
Q 35.984375 53.03125 41.359375 48.75 
Q 46.734375 44.484375 48.25 36.625 
L 39.703125 35.296875 
Q 38.484375 40.53125 35.375 43.15625 
Q 32.28125 45.796875 27.875 45.796875 
Q 21.234375 45.796875 17.078125 41.03125 
Q 12.9375 36.28125 12.9375 25.984375 
Q 12.9375 15.53125 16.9375 10.796875 
Q 20.953125 6.0625 27.390625 6.0625 
Q 32.5625 6.0625 36.03125 9.234375 
Q 39.5 12.40625 40.4375 19 
z
" id="ArialMT-99"/>
       <path d="M 6.203125 -19.96875 
L 5.21875 -11.71875 
Q 8.109375 -12.5 10.25 -12.5 
Q 13.1875 -12.5 14.9375 -11.515625 
Q 16.703125 -10.546875 17.828125 -8.796875 
Q 18.65625 -7.46875 20.515625 -2.25 
Q 20.75 -1.515625 21.296875 -0.09375 
L 1.609375 51.859375 
L 11.078125 51.859375 
L 21.875 21.828125 
Q 23.96875 16.109375 25.640625 9.8125 
Q 27.15625 15.875 29.25 21.625 
L 40.328125 51.859375 
L 49.125 51.859375 
L 29.390625 -0.875 
Q 26.21875 -9.421875 24.46875 -12.640625 
Q 22.125 -17 19.09375 -19.015625 
Q 16.0625 -21.046875 11.859375 -21.046875 
Q 9.328125 -21.046875 6.203125 -19.96875 
z
" id="ArialMT-121"/>
      </defs>
      <use xlink:href="#ArialMT-73"/>
      <use x="27.783203" xlink:href="#ArialMT-110"/>
      <use x="83.398438" xlink:href="#ArialMT-116"/>
      <use x="111.181641" xlink:href="#ArialMT-101"/>
      <use x="166.796875" xlink:href="#ArialMT-103"/>
      <use x="222.412109" xlink:href="#ArialMT-114"/>
      <use x="255.712891" xlink:href="#ArialMT-97"/>
      <use x="311.328125" xlink:href="#ArialMT-116"/>
      <use x="339.111328" xlink:href="#ArialMT-105"/>
      <use x="361.328125" xlink:href="#ArialMT-111"/>
      <use x="416.943359" xlink:href="#ArialMT-110"/>
      <use x="472.558594" xlink:href="#ArialMT-32"/>
      <use x="500.341797" xlink:href="#ArialMT-69"/>
      <use x="567.041016" xlink:href="#ArialMT-102"/>
      <use x="593.074219" xlink:href="#ArialMT-102"/>
      <use x="620.857422" xlink:href="#ArialMT-105"/>
      <use x="643.074219" xlink:href="#ArialMT-99"/>
      <use x="693.074219" xlink:href="#ArialMT-105"/>
      <use x="715.291016" xlink:href="#ArialMT-101"/>
      <use x="770.90625" xlink:href="#ArialMT-110"/>
      <use x="826.521484" xlink:href="#ArialMT-99"/>
      <use x="876.521484" xlink:href="#ArialMT-121"/>
     </g>
    </g>
   </g>
   <g id="patch_3">
    <path d="M 92.036563 217.212614 
L 92.036563 19.539886 
" style="fill:none;stroke:#262626;stroke-linecap:square;stroke-linejoin:miter;stroke-width:2.5;"/>
   </g>
   <g id="patch_4">
    <path d="M 92.036563 217.212614 
L 538.436563 217.212614 
" style="fill:none;stroke:#262626;stroke-linecap:square;stroke-linejoin:miter;stroke-width:2.5;"/>
   </g>
   <g id="PathCollection_1">
    <defs>
     <path d="M 0 2.5 
C 0.663008 2.5 1.29895 2.236584 1.767767 1.767767 
C 2.236584 1.29895 2.5 0.663008 2.5 -0 
C 2.5 -0.663008 2.236584 -1.29895 1.767767 -1.767767 
C 1.29895 -2.236584 0.663008 -2.5 0 -2.5 
C -0.663008 -2.5 -1.29895 -2.236584 -1.767767 -1.767767 
C -2.236584 -1.29895 -2.5 -0.663008 -2.5 0 
C -2.5 0.663008 -2.236584 1.29895 -1.767767 1.767767 
C -1.29895 2.236584 -0.663008 2.5 0 2.5 
z
" id="C0_0_1bc6ed28dd"/>
    </defs>
    <g clip-path="url(#pc958abb82a)">
     <use style="fill:#f1be64;" x="134.554545" xlink:href="#C0_0_1bc6ed28dd" y="196.57322"/>
    </g>
    <g clip-path="url(#pc958abb82a)">
     <use style="fill:#f1be64;" x="137.588574" xlink:href="#C0_0_1bc6ed28dd" y="191.804634"/>
    </g>
    <g clip-path="url(#pc958abb82a)">
     <use style="fill:#f1be64;" x="133.718643" xlink:href="#C0_0_1bc6ed28dd" y="192.086609"/>
    </g>
   </g>
   <g id="PathCollection_2">
    <defs>
     <path d="M 0 2.5 
C 0.663008 2.5 1.29895 2.236584 1.767767 1.767767 
C 2.236584 1.29895 2.5 0.663008 2.5 -0 
C 2.5 -0.663008 2.236584 -1.29895 1.767767 -1.767767 
C 1.29895 -2.236584 0.663008 -2.5 0 -2.5 
C -0.663008 -2.5 -1.29895 -2.236584 -1.767767 -1.767767 
C -2.236584 -1.29895 -2.5 -0.663008 -2.5 0 
C -2.5 0.663008 -2.236584 1.29895 -1.767767 1.767767 
C -1.29895 2.236584 -0.663008 2.5 0 2.5 
z
" id="C1_0_003e5e0ded"/>
    </defs>
    <g clip-path="url(#pc958abb82a)">
     <use style="fill:#ac4140;" x="206.439734" xlink:href="#C1_0_003e5e0ded" y="159.397195"/>
    </g>
    <g clip-path="url(#pc958abb82a)">
     <use style="fill:#ac4140;" x="205.019479" xlink:href="#C1_0_003e5e0ded" y="157.284714"/>
    </g>
    <g clip-path="url(#pc958abb82a)">
     <use style="fill:#ac4140;" x="207.613619" xlink:href="#C1_0_003e5e0ded" y="154.410796"/>
    </g>
   </g>
   <g id="PathCollection_3">
    <defs>
     <path d="M 0 2.5 
C 0.663008 2.5 1.29895 2.236584 1.767767 1.767767 
C 2.236584 1.29895 2.5 0.663008 2.5 -0 
C 2.5 -0.663008 2.236584 -1.29895 1.767767 -1.767767 
C 1.29895 -2.236584 0.663008 -2.5 0 -2.5 
C -0.663008 -2.5 -1.29895 -2.236584 -1.767767 -1.767767 
C -2.236584 -1.29895 -2.5 -0.663008 -2.5 0 
C -2.5 0.663008 -2.236584 1.29895 -1.767767 1.767767 
C -1.29895 2.236584 -0.663008 2.5 0 2.5 
z
" id="C2_0_817c9bd9ee"/>
    </defs>
    <g clip-path="url(#pc958abb82a)">
     <use style="fill:#f85d5c;" x="285.888363" xlink:href="#C2_0_817c9bd9ee" y="202.904759"/>
    </g>
    <g clip-path="url(#pc958abb82a)">
     <use style="fill:#f85d5c;" x="284.251025" xlink:href="#C2_0_817c9bd9ee" y="206.2041"/>
    </g>
    <g clip-path="url(#pc958abb82a)">
     <use style="fill:#f85d5c;" x="274.963488" xlink:href="#C2_0_817c9bd9ee" y="205.906528"/>
    </g>
   </g>
   <g id="PathCollection_4">
    <defs>
     <path d="M 0 2.5 
C 0.663008 2.5 1.29895 2.236584 1.767767 1.767767 
C 2.236584 1.29895 2.5 0.663008 2.5 -0 
C 2.5 -0.663008 2.236584 -1.29895 1.767767 -1.767767 
C 1.29895 -2.236584 0.663008 -2.5 0 -2.5 
C -0.663008 -2.5 -1.29895 -2.236584 -1.767767 -1.767767 
C -2.236584 -1.29895 -2.5 -0.663008 -2.5 0 
C -2.5 0.663008 -2.236584 1.29895 -1.767767 1.767767 
C -1.29895 2.236584 -0.663008 2.5 0 2.5 
z
" id="C3_0_7fca64cfdb"/>
    </defs>
    <g clip-path="url(#pc958abb82a)">
     <use style="fill:#1de2ff;" x="346.105762" xlink:href="#C3_0_7fca64cfdb" y="139.704324"/>
    </g>
    <g clip-path="url(#pc958abb82a)">
     <use style="fill:#1de2ff;" x="345.107693" xlink:href="#C3_0_7fca64cfdb" y="142.29134"/>
    </g>
    <g clip-path="url(#pc958abb82a)">
     <use style="fill:#1de2ff;" x="354.624619" xlink:href="#C3_0_7fca64cfdb" y="93.646426"/>
    </g>
   </g>
   <g id="PathCollection_5">
    <defs>
     <path d="M 0 2.5 
C 0.663008 2.5 1.29895 2.236584 1.767767 1.767767 
C 2.236584 1.29895 2.5 0.663008 2.5 -0 
C 2.5 -0.663008 2.236584 -1.29895 1.767767 -1.767767 
C 1.29895 -2.236584 0.663008 -2.5 0 -2.5 
C -0.663008 -2.5 -1.29895 -2.236584 -1.767767 -1.767767 
C -2.236584 -1.29895 -2.5 -0.663008 -2.5 0 
C -2.5 0.663008 -2.236584 1.29895 -1.767767 1.767767 
C -1.29895 2.236584 -0.663008 2.5 0 2.5 
z
" id="C4_0_87d5c2a100"/>
    </defs>
    <g clip-path="url(#pc958abb82a)">
     <use style="fill:#29f43d;" x="429.34344" xlink:href="#C4_0_87d5c2a100" y="132.83789"/>
    </g>
    <g clip-path="url(#pc958abb82a)">
     <use style="fill:#29f43d;" x="416.74007" xlink:href="#C4_0_87d5c2a100" y="138.00842"/>
    </g>
    <g clip-path="url(#pc958abb82a)">
     <use style="fill:#29f43d;" x="427.130337" xlink:href="#C4_0_87d5c2a100" y="138.027435"/>
    </g>
   </g>
   <g id="PathCollection_6">
    <defs>
     <path d="M 0 2.5 
C 0.663008 2.5 1.29895 2.236584 1.767767 1.767767 
C 2.236584 1.29895 2.5 0.663008 2.5 -0 
C 2.5 -0.663008 2.236584 -1.29895 1.767767 -1.767767 
C 1.29895 -2.236584 0.663008 -2.5 0 -2.5 
C -0.663008 -2.5 -1.29895 -2.236584 -1.767767 -1.767767 
C -2.236584 -1.29895 -2.5 -0.663008 -2.5 0 
C -2.5 0.663008 -2.236584 1.29895 -1.767767 1.767767 
C -1.29895 2.236584 -0.663008 2.5 0 2.5 
z
" id="C5_0_1c1d766efc"/>
    </defs>
    <g clip-path="url(#pc958abb82a)">
     <use style="fill:#f42d29;" x="498.481011" xlink:href="#C5_0_1c1d766efc" y="47.619106"/>
    </g>
    <g clip-path="url(#pc958abb82a)">
     <use style="fill:#f42d29;" x="496.004629" xlink:href="#C5_0_1c1d766efc" y="58.072128"/>
    </g>
    <g clip-path="url(#pc958abb82a)">
     <use style="fill:#f42d29;" x="492.882004" xlink:href="#C5_0_1c1d766efc" y="28.428658"/>
    </g>
   </g>
  </g>
  <g id="axes_2">
   <g id="patch_5">
    <path d="M 92.036563 454.419886 
L 538.436563 454.419886 
L 538.436563 256.747159 
L 92.036563 256.747159 
z
" style="fill:#ffffff;"/>
   </g>
   <g id="matplotlib.axis_3">
    <g id="xtick_7">
     <g id="line2d_13">
      <g>
       <use style="fill:#262626;stroke:#262626;stroke-width:2.5;" x="139.925408" xlink:href="#mdc3072b7a4" y="454.419886"/>
      </g>
     </g>
     <g id="text_8">
      <!-- 3-gene.Tandem -->
      <g style="fill:#262626;" transform="translate(145.516502 622.778636)rotate(-90)scale(0.22 -0.22)">
       <defs>
        <path d="M 4.203125 18.890625 
L 12.984375 20.0625 
Q 14.5 12.59375 18.140625 9.296875 
Q 21.78125 6 27 6 
Q 33.203125 6 37.46875 10.296875 
Q 41.75 14.59375 41.75 20.953125 
Q 41.75 27 37.796875 30.921875 
Q 33.84375 34.859375 27.734375 34.859375 
Q 25.25 34.859375 21.53125 33.890625 
L 22.515625 41.609375 
Q 23.390625 41.5 23.921875 41.5 
Q 29.546875 41.5 34.03125 44.421875 
Q 38.53125 47.359375 38.53125 53.46875 
Q 38.53125 58.296875 35.25 61.46875 
Q 31.984375 64.65625 26.8125 64.65625 
Q 21.6875 64.65625 18.265625 61.421875 
Q 14.84375 58.203125 13.875 51.765625 
L 5.078125 53.328125 
Q 6.6875 62.15625 12.390625 67.015625 
Q 18.109375 71.875 26.609375 71.875 
Q 32.46875 71.875 37.390625 69.359375 
Q 42.328125 66.84375 44.9375 62.5 
Q 47.5625 58.15625 47.5625 53.265625 
Q 47.5625 48.640625 45.0625 44.828125 
Q 42.578125 41.015625 37.703125 38.765625 
Q 44.046875 37.3125 47.5625 32.6875 
Q 51.078125 28.078125 51.078125 21.140625 
Q 51.078125 11.765625 44.234375 5.25 
Q 37.40625 -1.265625 26.953125 -1.265625 
Q 17.53125 -1.265625 11.296875 4.34375 
Q 5.078125 9.96875 4.203125 18.890625 
z
" id="ArialMT-51"/>
        <path d="M 3.171875 21.484375 
L 3.171875 30.328125 
L 30.171875 30.328125 
L 30.171875 21.484375 
z
" id="ArialMT-45"/>
        <path d="M 25.921875 0 
L 25.921875 63.140625 
L 2.34375 63.140625 
L 2.34375 71.578125 
L 59.078125 71.578125 
L 59.078125 63.140625 
L 35.40625 63.140625 
L 35.40625 0 
z
" id="ArialMT-84"/>
        <path d="M 40.234375 0 
L 40.234375 6.546875 
Q 35.296875 -1.171875 25.734375 -1.171875 
Q 19.53125 -1.171875 14.328125 2.25 
Q 9.125 5.671875 6.265625 11.796875 
Q 3.421875 17.921875 3.421875 25.875 
Q 3.421875 33.640625 6 39.96875 
Q 8.59375 46.296875 13.765625 49.65625 
Q 18.953125 53.03125 25.34375 53.03125 
Q 30.03125 53.03125 33.6875 51.046875 
Q 37.359375 49.078125 39.65625 45.90625 
L 39.65625 71.578125 
L 48.390625 71.578125 
L 48.390625 0 
z
M 12.453125 25.875 
Q 12.453125 15.921875 16.640625 10.984375 
Q 20.84375 6.0625 26.5625 6.0625 
Q 32.328125 6.0625 36.34375 10.765625 
Q 40.375 15.484375 40.375 25.140625 
Q 40.375 35.796875 36.265625 40.765625 
Q 32.171875 45.75 26.171875 45.75 
Q 20.3125 45.75 16.375 40.96875 
Q 12.453125 36.1875 12.453125 25.875 
z
" id="ArialMT-100"/>
        <path d="M 6.59375 0 
L 6.59375 51.859375 
L 14.453125 51.859375 
L 14.453125 44.578125 
Q 16.890625 48.390625 20.9375 50.703125 
Q 25 53.03125 30.171875 53.03125 
Q 35.9375 53.03125 39.625 50.640625 
Q 43.3125 48.25 44.828125 43.953125 
Q 50.984375 53.03125 60.84375 53.03125 
Q 68.5625 53.03125 72.703125 48.75 
Q 76.859375 44.484375 76.859375 35.59375 
L 76.859375 0 
L 68.109375 0 
L 68.109375 32.671875 
Q 68.109375 37.9375 67.25 40.25 
Q 66.40625 42.578125 64.15625 43.984375 
Q 61.921875 45.40625 58.890625 45.40625 
Q 53.421875 45.40625 49.796875 41.765625 
Q 46.1875 38.140625 46.1875 30.125 
L 46.1875 0 
L 37.40625 0 
L 37.40625 33.6875 
Q 37.40625 39.546875 35.25 42.46875 
Q 33.109375 45.40625 28.21875 45.40625 
Q 24.515625 45.40625 21.359375 43.453125 
Q 18.21875 41.5 16.796875 37.734375 
Q 15.375 33.984375 15.375 26.90625 
L 15.375 0 
z
" id="ArialMT-109"/>
       </defs>
       <use xlink:href="#ArialMT-51"/>
       <use x="55.615234" xlink:href="#ArialMT-45"/>
       <use x="88.916016" xlink:href="#ArialMT-103"/>
       <use x="144.53125" xlink:href="#ArialMT-101"/>
       <use x="200.146484" xlink:href="#ArialMT-110"/>
       <use x="255.761719" xlink:href="#ArialMT-101"/>
       <use x="311.376953" xlink:href="#ArialMT-46"/>
       <use x="339.160156" xlink:href="#ArialMT-84"/>
       <use x="389.119141" xlink:href="#ArialMT-97"/>
       <use x="444.734375" xlink:href="#ArialMT-110"/>
       <use x="500.349609" xlink:href="#ArialMT-100"/>
       <use x="555.964844" xlink:href="#ArialMT-101"/>
       <use x="611.580078" xlink:href="#ArialMT-109"/>
      </g>
     </g>
    </g>
    <g id="xtick_8">
     <g id="line2d_14">
      <g>
       <use style="fill:#262626;stroke:#262626;stroke-width:2.5;" x="210.620781" xlink:href="#mdc3072b7a4" y="454.419886"/>
      </g>
     </g>
     <g id="text_9">
      <!-- 2-gene.Convergent -->
      <g style="fill:#262626;" transform="translate(216.313281 658.257074)rotate(-90)scale(0.22 -0.22)">
       <defs>
        <path d="M 58.796875 25.09375 
L 68.265625 22.703125 
Q 65.28125 11.03125 57.546875 4.90625 
Q 49.8125 -1.21875 38.625 -1.21875 
Q 27.046875 -1.21875 19.796875 3.484375 
Q 12.546875 8.203125 8.765625 17.140625 
Q 4.984375 26.078125 4.984375 36.328125 
Q 4.984375 47.515625 9.25 55.828125 
Q 13.53125 64.15625 21.40625 68.46875 
Q 29.296875 72.796875 38.765625 72.796875 
Q 49.515625 72.796875 56.828125 67.328125 
Q 64.15625 61.859375 67.046875 51.953125 
L 57.71875 49.75 
Q 55.21875 57.5625 50.484375 61.125 
Q 45.75 64.703125 38.578125 64.703125 
Q 30.328125 64.703125 24.78125 60.734375 
Q 19.234375 56.78125 16.984375 50.109375 
Q 14.75 43.453125 14.75 36.375 
Q 14.75 27.25 17.40625 20.4375 
Q 20.0625 13.625 25.671875 10.25 
Q 31.296875 6.890625 37.84375 6.890625 
Q 45.796875 6.890625 51.3125 11.46875 
Q 56.84375 16.0625 58.796875 25.09375 
z
" id="ArialMT-67"/>
        <path d="M 21 0 
L 1.265625 51.859375 
L 10.546875 51.859375 
L 21.6875 20.796875 
Q 23.484375 15.765625 25 10.359375 
Q 26.171875 14.453125 28.265625 20.21875 
L 39.796875 51.859375 
L 48.828125 51.859375 
L 29.203125 0 
z
" id="ArialMT-118"/>
       </defs>
       <use xlink:href="#ArialMT-50"/>
       <use x="55.615234" xlink:href="#ArialMT-45"/>
       <use x="88.916016" xlink:href="#ArialMT-103"/>
       <use x="144.53125" xlink:href="#ArialMT-101"/>
       <use x="200.146484" xlink:href="#ArialMT-110"/>
       <use x="255.761719" xlink:href="#ArialMT-101"/>
       <use x="311.376953" xlink:href="#ArialMT-46"/>
       <use x="339.160156" xlink:href="#ArialMT-67"/>
       <use x="411.376953" xlink:href="#ArialMT-111"/>
       <use x="466.992188" xlink:href="#ArialMT-110"/>
       <use x="522.607422" xlink:href="#ArialMT-118"/>
       <use x="572.607422" xlink:href="#ArialMT-101"/>
       <use x="628.222656" xlink:href="#ArialMT-114"/>
       <use x="661.523438" xlink:href="#ArialMT-103"/>
       <use x="717.138672" xlink:href="#ArialMT-101"/>
       <use x="772.753906" xlink:href="#ArialMT-110"/>
       <use x="828.369141" xlink:href="#ArialMT-116"/>
      </g>
     </g>
    </g>
    <g id="xtick_9">
     <g id="line2d_15">
      <g>
       <use style="fill:#262626;stroke:#262626;stroke-width:2.5;" x="281.316154" xlink:href="#mdc3072b7a4" y="454.419886"/>
      </g>
     </g>
     <g id="text_10">
      <!-- 3-gene.Convergent -->
      <g style="fill:#262626;" transform="translate(287.008654 658.257074)rotate(-90)scale(0.22 -0.22)">
       <use xlink:href="#ArialMT-51"/>
       <use x="55.615234" xlink:href="#ArialMT-45"/>
       <use x="88.916016" xlink:href="#ArialMT-103"/>
       <use x="144.53125" xlink:href="#ArialMT-101"/>
       <use x="200.146484" xlink:href="#ArialMT-110"/>
       <use x="255.761719" xlink:href="#ArialMT-101"/>
       <use x="311.376953" xlink:href="#ArialMT-46"/>
       <use x="339.160156" xlink:href="#ArialMT-67"/>
       <use x="411.376953" xlink:href="#ArialMT-111"/>
       <use x="466.992188" xlink:href="#ArialMT-110"/>
       <use x="522.607422" xlink:href="#ArialMT-118"/>
       <use x="572.607422" xlink:href="#ArialMT-101"/>
       <use x="628.222656" xlink:href="#ArialMT-114"/>
       <use x="661.523438" xlink:href="#ArialMT-103"/>
       <use x="717.138672" xlink:href="#ArialMT-101"/>
       <use x="772.753906" xlink:href="#ArialMT-110"/>
       <use x="828.369141" xlink:href="#ArialMT-116"/>
      </g>
     </g>
    </g>
    <g id="xtick_10">
     <g id="line2d_16">
      <g>
       <use style="fill:#262626;stroke:#262626;stroke-width:2.5;" x="352.011527" xlink:href="#mdc3072b7a4" y="454.419886"/>
      </g>
     </g>
     <g id="text_11">
      <!-- 3-gene.Divergent -->
      <g style="fill:#262626;" transform="translate(357.602621 638.677074)rotate(-90)scale(0.22 -0.22)">
       <defs>
        <path d="M 7.71875 0 
L 7.71875 71.578125 
L 32.375 71.578125 
Q 40.71875 71.578125 45.125 70.5625 
Q 51.265625 69.140625 55.609375 65.4375 
Q 61.28125 60.640625 64.078125 53.1875 
Q 66.890625 45.75 66.890625 36.1875 
Q 66.890625 28.03125 64.984375 21.734375 
Q 63.09375 15.4375 60.109375 11.296875 
Q 57.125 7.171875 53.578125 4.796875 
Q 50.046875 2.4375 45.046875 1.21875 
Q 40.046875 0 33.546875 0 
z
M 17.1875 8.453125 
L 32.46875 8.453125 
Q 39.546875 8.453125 43.578125 9.765625 
Q 47.609375 11.078125 50 13.484375 
Q 53.375 16.84375 55.25 22.53125 
Q 57.125 28.21875 57.125 36.328125 
Q 57.125 47.5625 53.4375 53.59375 
Q 49.75 59.625 44.484375 61.671875 
Q 40.671875 63.140625 32.234375 63.140625 
L 17.1875 63.140625 
z
" id="ArialMT-68"/>
       </defs>
       <use xlink:href="#ArialMT-51"/>
       <use x="55.615234" xlink:href="#ArialMT-45"/>
       <use x="88.916016" xlink:href="#ArialMT-103"/>
       <use x="144.53125" xlink:href="#ArialMT-101"/>
       <use x="200.146484" xlink:href="#ArialMT-110"/>
       <use x="255.761719" xlink:href="#ArialMT-101"/>
       <use x="311.376953" xlink:href="#ArialMT-46"/>
       <use x="339.160156" xlink:href="#ArialMT-68"/>
       <use x="411.376953" xlink:href="#ArialMT-105"/>
       <use x="433.59375" xlink:href="#ArialMT-118"/>
       <use x="483.59375" xlink:href="#ArialMT-101"/>
       <use x="539.208984" xlink:href="#ArialMT-114"/>
       <use x="572.509766" xlink:href="#ArialMT-103"/>
       <use x="628.125" xlink:href="#ArialMT-101"/>
       <use x="683.740234" xlink:href="#ArialMT-110"/>
       <use x="739.355469" xlink:href="#ArialMT-116"/>
      </g>
     </g>
    </g>
    <g id="xtick_11">
     <g id="line2d_17">
      <g>
       <use style="fill:#262626;stroke:#262626;stroke-width:2.5;" x="422.7069" xlink:href="#mdc3072b7a4" y="454.419886"/>
      </g>
     </g>
     <g id="text_12">
      <!-- EGFP -->
      <g style="fill:#262626;" transform="translate(428.394244 529.818324)rotate(-90)scale(0.22 -0.22)">
       <defs>
        <path d="M 41.21875 28.078125 
L 41.21875 36.46875 
L 71.53125 36.53125 
L 71.53125 9.96875 
Q 64.546875 4.390625 57.125 1.578125 
Q 49.703125 -1.21875 41.890625 -1.21875 
Q 31.34375 -1.21875 22.71875 3.296875 
Q 14.109375 7.8125 9.71875 16.359375 
Q 5.328125 24.90625 5.328125 35.453125 
Q 5.328125 45.90625 9.6875 54.953125 
Q 14.0625 64.015625 22.265625 68.40625 
Q 30.46875 72.796875 41.15625 72.796875 
Q 48.921875 72.796875 55.1875 70.28125 
Q 61.46875 67.78125 65.03125 63.28125 
Q 68.609375 58.796875 70.453125 51.5625 
L 61.921875 49.21875 
Q 60.296875 54.6875 57.90625 57.8125 
Q 55.515625 60.9375 51.0625 62.8125 
Q 46.625 64.703125 41.21875 64.703125 
Q 34.71875 64.703125 29.984375 62.71875 
Q 25.25 60.75 22.34375 57.515625 
Q 19.4375 54.296875 17.828125 50.4375 
Q 15.09375 43.796875 15.09375 36.03125 
Q 15.09375 26.46875 18.390625 20.015625 
Q 21.6875 13.578125 27.984375 10.453125 
Q 34.28125 7.328125 41.359375 7.328125 
Q 47.515625 7.328125 53.375 9.6875 
Q 59.234375 12.0625 62.25 14.75 
L 62.25 28.078125 
z
" id="ArialMT-71"/>
        <path d="M 8.203125 0 
L 8.203125 71.578125 
L 56.5 71.578125 
L 56.5 63.140625 
L 17.671875 63.140625 
L 17.671875 40.96875 
L 51.265625 40.96875 
L 51.265625 32.515625 
L 17.671875 32.515625 
L 17.671875 0 
z
" id="ArialMT-70"/>
        <path d="M 7.71875 0 
L 7.71875 71.578125 
L 34.71875 71.578125 
Q 41.84375 71.578125 45.609375 70.90625 
Q 50.875 70.015625 54.4375 67.546875 
Q 58.015625 65.09375 60.1875 60.640625 
Q 62.359375 56.203125 62.359375 50.875 
Q 62.359375 41.75 56.546875 35.421875 
Q 50.734375 29.109375 35.546875 29.109375 
L 17.1875 29.109375 
L 17.1875 0 
z
M 17.1875 37.546875 
L 35.6875 37.546875 
Q 44.875 37.546875 48.734375 40.96875 
Q 52.59375 44.390625 52.59375 50.59375 
Q 52.59375 55.078125 50.3125 58.265625 
Q 48.046875 61.46875 44.34375 62.5 
Q 41.9375 63.140625 35.5 63.140625 
L 17.1875 63.140625 
z
" id="ArialMT-80"/>
       </defs>
       <use xlink:href="#ArialMT-69"/>
       <use x="66.699219" xlink:href="#ArialMT-71"/>
       <use x="144.482422" xlink:href="#ArialMT-70"/>
       <use x="205.566406" xlink:href="#ArialMT-80"/>
      </g>
     </g>
    </g>
    <g id="xtick_12">
     <g id="line2d_18">
      <g>
       <use style="fill:#262626;stroke:#262626;stroke-width:2.5;" x="493.402273" xlink:href="#mdc3072b7a4" y="454.419886"/>
      </g>
     </g>
     <g id="text_13">
      <!-- mRuby2 -->
      <g style="fill:#262626;" transform="translate(498.993367 551.835511)rotate(-90)scale(0.22 -0.22)">
       <defs>
        <path d="M 7.859375 0 
L 7.859375 71.578125 
L 39.59375 71.578125 
Q 49.171875 71.578125 54.140625 69.640625 
Q 59.125 67.71875 62.109375 62.828125 
Q 65.09375 57.953125 65.09375 52.046875 
Q 65.09375 44.4375 60.15625 39.203125 
Q 55.21875 33.984375 44.921875 32.5625 
Q 48.6875 30.765625 50.640625 29 
Q 54.78125 25.203125 58.5 19.484375 
L 70.953125 0 
L 59.03125 0 
L 49.5625 14.890625 
Q 45.40625 21.34375 42.71875 24.75 
Q 40.046875 28.171875 37.921875 29.53125 
Q 35.796875 30.90625 33.59375 31.453125 
Q 31.984375 31.78125 28.328125 31.78125 
L 17.328125 31.78125 
L 17.328125 0 
z
M 17.328125 39.984375 
L 37.703125 39.984375 
Q 44.1875 39.984375 47.84375 41.328125 
Q 51.515625 42.671875 53.421875 45.625 
Q 55.328125 48.578125 55.328125 52.046875 
Q 55.328125 57.125 51.640625 60.390625 
Q 47.953125 63.671875 39.984375 63.671875 
L 17.328125 63.671875 
z
" id="ArialMT-82"/>
        <path d="M 40.578125 0 
L 40.578125 7.625 
Q 34.515625 -1.171875 24.125 -1.171875 
Q 19.53125 -1.171875 15.546875 0.578125 
Q 11.578125 2.34375 9.640625 5 
Q 7.71875 7.671875 6.9375 11.53125 
Q 6.390625 14.109375 6.390625 19.734375 
L 6.390625 51.859375 
L 15.1875 51.859375 
L 15.1875 23.09375 
Q 15.1875 16.21875 15.71875 13.8125 
Q 16.546875 10.359375 19.234375 8.375 
Q 21.921875 6.390625 25.875 6.390625 
Q 29.828125 6.390625 33.296875 8.421875 
Q 36.765625 10.453125 38.203125 13.9375 
Q 39.65625 17.4375 39.65625 24.078125 
L 39.65625 51.859375 
L 48.4375 51.859375 
L 48.4375 0 
z
" id="ArialMT-117"/>
        <path d="M 14.703125 0 
L 6.546875 0 
L 6.546875 71.578125 
L 15.328125 71.578125 
L 15.328125 46.046875 
Q 20.90625 53.03125 29.546875 53.03125 
Q 34.328125 53.03125 38.59375 51.09375 
Q 42.875 49.171875 45.625 45.671875 
Q 48.390625 42.1875 49.953125 37.25 
Q 51.515625 32.328125 51.515625 26.703125 
Q 51.515625 13.375 44.921875 6.09375 
Q 38.328125 -1.171875 29.109375 -1.171875 
Q 19.921875 -1.171875 14.703125 6.5 
z
M 14.59375 26.3125 
Q 14.59375 17 17.140625 12.84375 
Q 21.296875 6.0625 28.375 6.0625 
Q 34.125 6.0625 38.328125 11.0625 
Q 42.53125 16.0625 42.53125 25.984375 
Q 42.53125 36.140625 38.5 40.96875 
Q 34.46875 45.796875 28.765625 45.796875 
Q 23 45.796875 18.796875 40.796875 
Q 14.59375 35.796875 14.59375 26.3125 
z
" id="ArialMT-98"/>
       </defs>
       <use xlink:href="#ArialMT-109"/>
       <use x="83.300781" xlink:href="#ArialMT-82"/>
       <use x="155.517578" xlink:href="#ArialMT-117"/>
       <use x="211.132812" xlink:href="#ArialMT-98"/>
       <use x="266.748047" xlink:href="#ArialMT-121"/>
       <use x="316.748047" xlink:href="#ArialMT-50"/>
      </g>
     </g>
    </g>
    <g id="text_14">
     <!-- condition -->
     <g style="fill:#262626;" transform="translate(267.204687 679.435824)scale(0.24 -0.24)">
      <use xlink:href="#ArialMT-99"/>
      <use x="50" xlink:href="#ArialMT-111"/>
      <use x="105.615234" xlink:href="#ArialMT-110"/>
      <use x="161.230469" xlink:href="#ArialMT-100"/>
      <use x="216.845703" xlink:href="#ArialMT-105"/>
      <use x="239.0625" xlink:href="#ArialMT-116"/>
      <use x="266.845703" xlink:href="#ArialMT-105"/>
      <use x="289.0625" xlink:href="#ArialMT-111"/>
      <use x="344.677734" xlink:href="#ArialMT-110"/>
     </g>
    </g>
   </g>
   <g id="matplotlib.axis_4">
    <g id="ytick_7">
     <g id="line2d_19">
      <g>
       <use style="fill:#262626;stroke:#262626;stroke-width:2.5;" x="92.036563" xlink:href="#me9a72ca52e" y="438.845503"/>
      </g>
     </g>
     <g id="text_15">
      <!-- 0 -->
      <g style="fill:#262626;" transform="translate(72.164062 443.205971)rotate(-90)scale(0.22 -0.22)">
       <use xlink:href="#ArialMT-48"/>
      </g>
     </g>
    </g>
    <g id="ytick_8">
     <g id="line2d_20">
      <g>
       <use style="fill:#262626;stroke:#262626;stroke-width:2.5;" x="92.036563" xlink:href="#me9a72ca52e" y="410.872012"/>
      </g>
     </g>
     <g id="text_16">
      <!-- 1 -->
      <g style="fill:#262626;" transform="translate(72.164062 415.23248)rotate(-90)scale(0.22 -0.22)">
       <use xlink:href="#ArialMT-49"/>
      </g>
     </g>
    </g>
    <g id="ytick_9">
     <g id="line2d_21">
      <g>
       <use style="fill:#262626;stroke:#262626;stroke-width:2.5;" x="92.036563" xlink:href="#me9a72ca52e" y="382.898521"/>
      </g>
     </g>
     <g id="text_17">
      <!-- 2 -->
      <g style="fill:#262626;" transform="translate(72.164062 387.25899)rotate(-90)scale(0.22 -0.22)">
       <use xlink:href="#ArialMT-50"/>
      </g>
     </g>
    </g>
    <g id="ytick_10">
     <g id="line2d_22">
      <g>
       <use style="fill:#262626;stroke:#262626;stroke-width:2.5;" x="92.036563" xlink:href="#me9a72ca52e" y="354.92503"/>
      </g>
     </g>
     <g id="text_18">
      <!-- 3 -->
      <g style="fill:#262626;" transform="translate(72.164062 359.285499)rotate(-90)scale(0.22 -0.22)">
       <use xlink:href="#ArialMT-51"/>
      </g>
     </g>
    </g>
    <g id="ytick_11">
     <g id="line2d_23">
      <g>
       <use style="fill:#262626;stroke:#262626;stroke-width:2.5;" x="92.036563" xlink:href="#me9a72ca52e" y="326.951539"/>
      </g>
     </g>
     <g id="text_19">
      <!-- 4 -->
      <g style="fill:#262626;" transform="translate(72.164062 331.312008)rotate(-90)scale(0.22 -0.22)">
       <defs>
        <path d="M 32.328125 0 
L 32.328125 17.140625 
L 1.265625 17.140625 
L 1.265625 25.203125 
L 33.9375 71.578125 
L 41.109375 71.578125 
L 41.109375 25.203125 
L 50.78125 25.203125 
L 50.78125 17.140625 
L 41.109375 17.140625 
L 41.109375 0 
z
M 32.328125 25.203125 
L 32.328125 57.46875 
L 9.90625 25.203125 
z
" id="ArialMT-52"/>
       </defs>
       <use xlink:href="#ArialMT-52"/>
      </g>
     </g>
    </g>
    <g id="ytick_12">
     <g id="line2d_24">
      <g>
       <use style="fill:#262626;stroke:#262626;stroke-width:2.5;" x="92.036563" xlink:href="#me9a72ca52e" y="298.978049"/>
      </g>
     </g>
     <g id="text_20">
      <!-- 5 -->
      <g style="fill:#262626;" transform="translate(72.164062 303.338517)rotate(-90)scale(0.22 -0.22)">
       <use xlink:href="#ArialMT-53"/>
      </g>
     </g>
    </g>
    <g id="text_21">
     <!-- log Integration Marker -->
     <g style="fill:#262626;" transform="translate(24.67125 472.298523)rotate(-90)scale(0.24 -0.24)">
      <defs>
       <path d="M 6.390625 0 
L 6.390625 71.578125 
L 15.1875 71.578125 
L 15.1875 0 
z
" id="ArialMT-108"/>
       <path d="M 7.421875 0 
L 7.421875 71.578125 
L 21.6875 71.578125 
L 38.625 20.90625 
Q 40.96875 13.8125 42.046875 10.296875 
Q 43.265625 14.203125 45.84375 21.78125 
L 62.984375 71.578125 
L 75.734375 71.578125 
L 75.734375 0 
L 66.609375 0 
L 66.609375 59.90625 
L 45.796875 0 
L 37.25 0 
L 16.546875 60.9375 
L 16.546875 0 
z
" id="ArialMT-77"/>
       <path d="M 6.640625 0 
L 6.640625 71.578125 
L 15.4375 71.578125 
L 15.4375 30.765625 
L 36.234375 51.859375 
L 47.609375 51.859375 
L 27.78125 32.625 
L 49.609375 0 
L 38.765625 0 
L 21.625 26.515625 
L 15.4375 20.5625 
L 15.4375 0 
z
" id="ArialMT-107"/>
      </defs>
      <use xlink:href="#ArialMT-108"/>
      <use x="22.216797" xlink:href="#ArialMT-111"/>
      <use x="77.832031" xlink:href="#ArialMT-103"/>
      <use x="133.447266" xlink:href="#ArialMT-32"/>
      <use x="161.230469" xlink:href="#ArialMT-73"/>
      <use x="189.013672" xlink:href="#ArialMT-110"/>
      <use x="244.628906" xlink:href="#ArialMT-116"/>
      <use x="272.412109" xlink:href="#ArialMT-101"/>
      <use x="328.027344" xlink:href="#ArialMT-103"/>
      <use x="383.642578" xlink:href="#ArialMT-114"/>
      <use x="416.943359" xlink:href="#ArialMT-97"/>
      <use x="472.558594" xlink:href="#ArialMT-116"/>
      <use x="500.341797" xlink:href="#ArialMT-105"/>
      <use x="522.558594" xlink:href="#ArialMT-111"/>
      <use x="578.173828" xlink:href="#ArialMT-110"/>
      <use x="633.789062" xlink:href="#ArialMT-32"/>
      <use x="661.572266" xlink:href="#ArialMT-77"/>
      <use x="744.873047" xlink:href="#ArialMT-97"/>
      <use x="800.488281" xlink:href="#ArialMT-114"/>
      <use x="833.789062" xlink:href="#ArialMT-107"/>
      <use x="883.789062" xlink:href="#ArialMT-101"/>
      <use x="939.404297" xlink:href="#ArialMT-114"/>
     </g>
    </g>
   </g>
   <g id="PolyCollection_1">
    <defs>
     <path d="M 140.120272 -248.664496 
L 139.730544 -248.664496 
L 139.278067 -250.097267 
L 138.673489 -251.530038 
L 138.515671 -252.962809 
L 138.997102 -254.39558 
L 139.53132 -255.828351 
L 139.624775 -257.261121 
L 139.222672 -258.693892 
L 138.654735 -260.126663 
L 138.475704 -261.559434 
L 138.591096 -262.992205 
L 138.385934 -264.424976 
L 137.971323 -265.857747 
L 137.752188 -267.290518 
L 137.556498 -268.723289 
L 137.266851 -270.15606 
L 136.951625 -271.588831 
L 136.583595 -273.021602 
L 136.157406 -274.454373 
L 135.699249 -275.887144 
L 135.216168 -277.319915 
L 134.656107 -278.752686 
L 133.97623 -280.185457 
L 133.185273 -281.618228 
L 132.256535 -283.050998 
L 131.155204 -284.483769 
L 129.950294 -285.91654 
L 128.748371 -287.349311 
L 127.534781 -288.782082 
L 126.176306 -290.214853 
L 124.581491 -291.647624 
L 122.773289 -293.080395 
L 120.865376 -294.513166 
L 118.972487 -295.945937 
L 117.088202 -297.378708 
L 115.258331 -298.811479 
L 113.720261 -300.24425 
L 112.694499 -301.677021 
L 112.327472 -303.109792 
L 112.767629 -304.542563 
L 114.199707 -305.975334 
L 116.800323 -307.408105 
L 120.455403 -308.840876 
L 124.675912 -310.273646 
L 128.864542 -311.706417 
L 132.540133 -313.139188 
L 135.414033 -314.571959 
L 137.412453 -316.00473 
L 138.626865 -317.437501 
L 139.259332 -318.870272 
L 139.549951 -320.303043 
L 139.678443 -321.735814 
L 139.735965 -323.168585 
L 139.752322 -324.601356 
L 139.742165 -326.034127 
L 139.731356 -327.466898 
L 139.739083 -328.899669 
L 139.758305 -330.33244 
L 139.766414 -331.765211 
L 139.751007 -333.197982 
L 139.722359 -334.630753 
L 139.695603 -336.063524 
L 139.679303 -337.496294 
L 139.679642 -338.929065 
L 139.688681 -340.361836 
L 139.690864 -341.794607 
L 139.683099 -343.227378 
L 139.664205 -344.660149 
L 139.62163 -346.09292 
L 139.553146 -347.525691 
L 139.486406 -348.958462 
L 139.448639 -350.391233 
L 139.428298 -351.824004 
L 139.402032 -353.256775 
L 139.367029 -354.689546 
L 139.328253 -356.122317 
L 139.296313 -357.555088 
L 139.277002 -358.987859 
L 139.257863 -360.42063 
L 139.236379 -361.853401 
L 139.246 -363.286171 
L 139.317153 -364.718942 
L 139.416032 -366.151713 
L 139.488896 -367.584484 
L 139.535131 -369.017255 
L 139.577629 -370.450026 
L 139.623118 -371.882797 
L 139.668843 -373.315568 
L 139.709416 -374.748339 
L 139.744296 -376.18111 
L 139.778972 -377.613881 
L 139.817667 -379.046652 
L 139.85724 -380.479423 
L 139.887272 -381.912194 
L 139.901641 -383.344965 
L 139.906039 -384.777736 
L 139.909805 -386.210507 
L 139.915948 -387.643278 
L 139.921573 -389.076049 
L 139.924426 -390.508819 
L 139.92639 -390.508819 
L 139.92639 -390.508819 
L 139.929243 -389.076049 
L 139.934868 -387.643278 
L 139.941011 -386.210507 
L 139.944777 -384.777736 
L 139.949175 -383.344965 
L 139.963544 -381.912194 
L 139.993576 -380.479423 
L 140.03315 -379.046652 
L 140.071844 -377.613881 
L 140.10652 -376.18111 
L 140.141401 -374.748339 
L 140.181973 -373.315568 
L 140.227698 -371.882797 
L 140.273187 -370.450026 
L 140.315685 -369.017255 
L 140.36192 -367.584484 
L 140.434784 -366.151713 
L 140.533663 -364.718942 
L 140.604817 -363.286171 
L 140.614437 -361.853401 
L 140.592953 -360.42063 
L 140.573814 -358.987859 
L 140.554503 -357.555088 
L 140.522563 -356.122317 
L 140.483787 -354.689546 
L 140.448784 -353.256775 
L 140.422518 -351.824004 
L 140.402177 -350.391233 
L 140.364411 -348.958462 
L 140.297671 -347.525691 
L 140.229186 -346.09292 
L 140.186611 -344.660149 
L 140.167717 -343.227378 
L 140.159953 -341.794607 
L 140.162136 -340.361836 
L 140.171174 -338.929065 
L 140.171513 -337.496294 
L 140.155213 -336.063524 
L 140.128458 -334.630753 
L 140.099809 -333.197982 
L 140.084403 -331.765211 
L 140.092511 -330.33244 
L 140.111733 -328.899669 
L 140.11946 -327.466898 
L 140.108651 -326.034127 
L 140.098494 -324.601356 
L 140.114851 -323.168585 
L 140.172373 -321.735814 
L 140.300865 -320.303043 
L 140.591484 -318.870272 
L 141.223951 -317.437501 
L 142.438363 -316.00473 
L 144.436783 -314.571959 
L 147.310683 -313.139188 
L 150.986275 -311.706417 
L 155.174904 -310.273646 
L 159.395413 -308.840876 
L 163.050493 -307.408105 
L 165.651109 -305.975334 
L 167.083187 -304.542563 
L 167.523345 -303.109792 
L 167.156317 -301.677021 
L 166.130555 -300.24425 
L 164.592485 -298.811479 
L 162.762614 -297.378708 
L 160.878329 -295.945937 
L 158.98544 -294.513166 
L 157.077527 -293.080395 
L 155.269325 -291.647624 
L 153.67451 -290.214853 
L 152.316036 -288.782082 
L 151.102445 -287.349311 
L 149.900522 -285.91654 
L 148.695612 -284.483769 
L 147.594281 -283.050998 
L 146.665544 -281.618228 
L 145.874586 -280.185457 
L 145.194709 -278.752686 
L 144.634648 -277.319915 
L 144.151568 -275.887144 
L 143.69341 -274.454373 
L 143.267222 -273.021602 
L 142.899191 -271.588831 
L 142.583965 -270.15606 
L 142.294318 -268.723289 
L 142.098628 -267.290518 
L 141.879493 -265.857747 
L 141.464883 -264.424976 
L 141.25972 -262.992205 
L 141.375112 -261.559434 
L 141.196081 -260.126663 
L 140.628144 -258.693892 
L 140.226041 -257.261121 
L 140.319496 -255.828351 
L 140.853715 -254.39558 
L 141.335145 -252.962809 
L 141.177327 -251.530038 
L 140.572749 -250.097267 
L 140.120272 -248.664496 
z
" id="m6532dcdc33" style="stroke:#474747;stroke-width:3;"/>
    </defs>
    <g clip-path="url(#p24067d8945)">
     <use style="fill:#dfb976;stroke:#474747;stroke-width:3;" x="0" xlink:href="#m6532dcdc33" y="691.405824"/>
    </g>
   </g>
   <g id="PolyCollection_2">
    <defs>
     <path d="M 210.793353 -248.176254 
L 210.448209 -248.176254 
L 210.11203 -249.588743 
L 209.630576 -251.001232 
L 209.347948 -252.413721 
L 209.536094 -253.82621 
L 209.980441 -255.238699 
L 210.239467 -256.651188 
L 210.106781 -258.063678 
L 209.719436 -259.476167 
L 209.423709 -260.888656 
L 209.378908 -262.301145 
L 209.340526 -263.713634 
L 209.118329 -265.126123 
L 208.85119 -266.538612 
L 208.628539 -267.951101 
L 208.382907 -269.36359 
L 208.104756 -270.776079 
L 207.815542 -272.188568 
L 207.499794 -273.601057 
L 207.121123 -275.013547 
L 206.646525 -276.426036 
L 206.080687 -277.838525 
L 205.45958 -279.251014 
L 204.80519 -280.663503 
L 204.101946 -282.075992 
L 203.303837 -283.488481 
L 202.35926 -284.90097 
L 201.248474 -286.313459 
L 200.006284 -287.725948 
L 198.699336 -289.138437 
L 197.354314 -290.550926 
L 195.920184 -291.963416 
L 194.34304 -293.375905 
L 192.646536 -294.788394 
L 190.902481 -296.200883 
L 189.168564 -297.613372 
L 187.508449 -299.025861 
L 186.055378 -300.43835 
L 185.006874 -301.850839 
L 184.577642 -303.263328 
L 184.987216 -304.675817 
L 186.397474 -306.088306 
L 188.776118 -307.500795 
L 191.87712 -308.913285 
L 195.36882 -310.325774 
L 198.924145 -311.738263 
L 202.229519 -313.150752 
L 205.006519 -314.563241 
L 207.083707 -315.97573 
L 208.456003 -317.388219 
L 209.260967 -318.800708 
L 209.689052 -320.213197 
L 209.901352 -321.625686 
L 210.000178 -323.038175 
L 210.04385 -324.450664 
L 210.06886 -325.863153 
L 210.092581 -327.275643 
L 210.11469 -328.688132 
L 210.13693 -330.100621 
L 210.168326 -331.51311 
L 210.204807 -332.925599 
L 210.227039 -334.338088 
L 210.219813 -335.750577 
L 210.18118 -337.163066 
L 210.117891 -338.575555 
L 210.035174 -339.988044 
L 209.932017 -341.400533 
L 209.807474 -342.813022 
L 209.65752 -344.225512 
L 209.46178 -345.638001 
L 209.197772 -347.05049 
L 208.87415 -348.462979 
L 208.533944 -349.875468 
L 208.231982 -351.287957 
L 208.028918 -352.700446 
L 207.989246 -354.112935 
L 208.133927 -355.525424 
L 208.404524 -356.937913 
L 208.718645 -358.350402 
L 209.036689 -359.762891 
L 209.350878 -361.175381 
L 209.647399 -362.58787 
L 209.902422 -364.000359 
L 210.103092 -365.412848 
L 210.253464 -366.825337 
L 210.359288 -368.237826 
L 210.42598 -369.650315 
L 210.466401 -371.062804 
L 210.495936 -372.475293 
L 210.522749 -373.887782 
L 210.546955 -375.300271 
L 210.566764 -376.71276 
L 210.582234 -378.125249 
L 210.594163 -379.537739 
L 210.602613 -380.950228 
L 210.607904 -382.362717 
L 210.611652 -383.775206 
L 210.61521 -385.187695 
L 210.618225 -386.600184 
L 210.619961 -388.012673 
L 210.621602 -388.012673 
L 210.621602 -388.012673 
L 210.623337 -386.600184 
L 210.626352 -385.187695 
L 210.62991 -383.775206 
L 210.633658 -382.362717 
L 210.638949 -380.950228 
L 210.647399 -379.537739 
L 210.659328 -378.125249 
L 210.674799 -376.71276 
L 210.694607 -375.300271 
L 210.718813 -373.887782 
L 210.745626 -372.475293 
L 210.775161 -371.062804 
L 210.815582 -369.650315 
L 210.882275 -368.237826 
L 210.988098 -366.825337 
L 211.13847 -365.412848 
L 211.33914 -364.000359 
L 211.594164 -362.58787 
L 211.890684 -361.175381 
L 212.204873 -359.762891 
L 212.522917 -358.350402 
L 212.837038 -356.937913 
L 213.107635 -355.525424 
L 213.252316 -354.112935 
L 213.212644 -352.700446 
L 213.00958 -351.287957 
L 212.707618 -349.875468 
L 212.367412 -348.462979 
L 212.04379 -347.05049 
L 211.779782 -345.638001 
L 211.584042 -344.225512 
L 211.434088 -342.813022 
L 211.309545 -341.400533 
L 211.206388 -339.988044 
L 211.123671 -338.575555 
L 211.060382 -337.163066 
L 211.021749 -335.750577 
L 211.014523 -334.338088 
L 211.036755 -332.925599 
L 211.073236 -331.51311 
L 211.104632 -330.100621 
L 211.126872 -328.688132 
L 211.148981 -327.275643 
L 211.172702 -325.863153 
L 211.197712 -324.450664 
L 211.241385 -323.038175 
L 211.340211 -321.625686 
L 211.55251 -320.213197 
L 211.980595 -318.800708 
L 212.785559 -317.388219 
L 214.157855 -315.97573 
L 216.235043 -314.563241 
L 219.012043 -313.150752 
L 222.317417 -311.738263 
L 225.872742 -310.325774 
L 229.364442 -308.913285 
L 232.465444 -307.500795 
L 234.844089 -306.088306 
L 236.254346 -304.675817 
L 236.66392 -303.263328 
L 236.234688 -301.850839 
L 235.186184 -300.43835 
L 233.733113 -299.025861 
L 232.072998 -297.613372 
L 230.339081 -296.200883 
L 228.595027 -294.788394 
L 226.898522 -293.375905 
L 225.321378 -291.963416 
L 223.887248 -290.550926 
L 222.542226 -289.138437 
L 221.235278 -287.725948 
L 219.993088 -286.313459 
L 218.882302 -284.90097 
L 217.937726 -283.488481 
L 217.139616 -282.075992 
L 216.436372 -280.663503 
L 215.781982 -279.251014 
L 215.160875 -277.838525 
L 214.595037 -276.426036 
L 214.120439 -275.013547 
L 213.741768 -273.601057 
L 213.42602 -272.188568 
L 213.136806 -270.776079 
L 212.858655 -269.36359 
L 212.613023 -267.951101 
L 212.390372 -266.538612 
L 212.123233 -265.126123 
L 211.901036 -263.713634 
L 211.862654 -262.301145 
L 211.817853 -260.888656 
L 211.522126 -259.476167 
L 211.134781 -258.063678 
L 211.002095 -256.651188 
L 211.261122 -255.238699 
L 211.705468 -253.82621 
L 211.893614 -252.413721 
L 211.610986 -251.001232 
L 211.129532 -249.588743 
L 210.793353 -248.176254 
z
" id="m225dafabb3" style="stroke:#474747;stroke-width:3;"/>
    </defs>
    <g clip-path="url(#p24067d8945)">
     <use style="fill:#9e4e4e;stroke:#474747;stroke-width:3;" x="0" xlink:href="#m225dafabb3" y="691.405824"/>
    </g>
   </g>
   <g id="PolyCollection_3">
    <defs>
     <path d="M 281.560038 -249.45081 
L 281.07227 -249.45081 
L 280.292181 -250.907233 
L 279.528442 -252.363657 
L 280.018307 -253.82008 
L 280.922392 -255.276503 
L 281.226914 -256.732926 
L 280.979504 -258.189349 
L 280.15718 -259.645772 
L 279.628937 -261.102195 
L 280.11367 -262.558618 
L 280.086637 -264.015041 
L 279.253847 -265.471465 
L 279.184299 -266.927888 
L 279.27632 -268.384311 
L 278.942232 -269.840734 
L 278.604864 -271.297157 
L 278.246527 -272.75358 
L 277.897559 -274.210003 
L 277.343279 -275.666426 
L 276.703318 -277.122849 
L 276.110589 -278.579273 
L 275.527725 -280.035696 
L 274.837209 -281.492119 
L 273.879468 -282.948542 
L 272.639713 -284.404965 
L 271.329647 -285.861388 
L 270.12727 -287.317811 
L 269.047807 -288.774234 
L 267.888004 -290.230657 
L 266.363079 -291.687081 
L 264.444836 -293.143504 
L 262.463621 -294.599927 
L 260.476335 -296.05635 
L 258.391674 -297.512773 
L 256.3603 -298.969196 
L 254.680738 -300.425619 
L 253.608602 -301.882042 
L 253.038005 -303.338465 
L 253.153941 -304.794889 
L 254.4039 -306.251312 
L 256.931184 -307.707735 
L 260.619784 -309.164158 
L 265.295504 -310.620581 
L 270.179962 -312.077004 
L 274.278685 -313.533427 
L 277.298013 -314.98985 
L 279.272744 -316.446273 
L 280.355219 -317.902697 
L 280.857964 -319.35912 
L 281.047953 -320.815543 
L 281.113847 -322.271966 
L 281.158686 -323.728389 
L 281.189058 -325.184812 
L 281.187696 -326.641235 
L 281.178468 -328.097658 
L 281.190604 -329.554081 
L 281.219209 -331.010505 
L 281.238281 -332.466928 
L 281.237421 -333.923351 
L 281.226129 -335.379774 
L 281.21731 -336.836197 
L 281.211867 -338.29262 
L 281.213907 -339.749043 
L 281.225232 -341.205466 
L 281.227201 -342.661889 
L 281.22181 -344.118313 
L 281.224657 -345.574736 
L 281.223395 -347.031159 
L 281.189445 -348.487582 
L 281.137606 -349.944005 
L 281.112855 -351.400428 
L 281.12277 -352.856851 
L 281.137116 -354.313274 
L 281.12223 -355.769697 
L 281.085851 -357.226121 
L 281.051399 -358.682544 
L 281.035761 -360.138967 
L 281.045004 -361.59539 
L 281.060401 -363.051813 
L 281.069475 -364.508236 
L 281.07254 -365.964659 
L 281.092675 -367.421082 
L 281.130732 -368.877505 
L 281.161534 -370.333929 
L 281.175637 -371.790352 
L 281.192914 -373.246775 
L 281.223185 -374.703198 
L 281.248065 -376.159621 
L 281.258724 -377.616044 
L 281.264202 -379.072467 
L 281.274687 -380.52889 
L 281.289788 -381.985313 
L 281.298524 -383.441737 
L 281.300775 -384.89816 
L 281.304319 -386.354583 
L 281.308495 -387.811006 
L 281.310291 -389.267429 
L 281.311748 -390.723852 
L 281.314092 -392.180275 
L 281.315691 -393.636698 
L 281.316617 -393.636698 
L 281.316617 -393.636698 
L 281.318216 -392.180275 
L 281.32056 -390.723852 
L 281.322017 -389.267429 
L 281.323813 -387.811006 
L 281.327989 -386.354583 
L 281.331533 -384.89816 
L 281.333784 -383.441737 
L 281.34252 -381.985313 
L 281.357621 -380.52889 
L 281.368106 -379.072467 
L 281.373584 -377.616044 
L 281.384243 -376.159621 
L 281.409123 -374.703198 
L 281.439394 -373.246775 
L 281.456671 -371.790352 
L 281.470774 -370.333929 
L 281.501576 -368.877505 
L 281.539633 -367.421082 
L 281.559768 -365.964659 
L 281.562833 -364.508236 
L 281.571907 -363.051813 
L 281.587304 -361.59539 
L 281.596547 -360.138967 
L 281.580909 -358.682544 
L 281.546457 -357.226121 
L 281.510078 -355.769697 
L 281.495192 -354.313274 
L 281.509538 -352.856851 
L 281.519453 -351.400428 
L 281.494702 -349.944005 
L 281.442863 -348.487582 
L 281.408913 -347.031159 
L 281.407651 -345.574736 
L 281.410498 -344.118313 
L 281.405107 -342.661889 
L 281.407076 -341.205466 
L 281.418401 -339.749043 
L 281.420441 -338.29262 
L 281.414998 -336.836197 
L 281.406179 -335.379774 
L 281.394887 -333.923351 
L 281.394027 -332.466928 
L 281.413099 -331.010505 
L 281.441704 -329.554081 
L 281.45384 -328.097658 
L 281.444612 -326.641235 
L 281.44325 -325.184812 
L 281.473622 -323.728389 
L 281.518461 -322.271966 
L 281.584355 -320.815543 
L 281.774344 -319.35912 
L 282.277089 -317.902697 
L 283.359564 -316.446273 
L 285.334295 -314.98985 
L 288.353623 -313.533427 
L 292.452346 -312.077004 
L 297.336804 -310.620581 
L 302.012524 -309.164158 
L 305.701125 -307.707735 
L 308.228408 -306.251312 
L 309.478367 -304.794889 
L 309.594303 -303.338465 
L 309.023706 -301.882042 
L 307.95157 -300.425619 
L 306.272008 -298.969196 
L 304.240634 -297.512773 
L 302.155973 -296.05635 
L 300.168687 -294.599927 
L 298.187472 -293.143504 
L 296.269229 -291.687081 
L 294.744304 -290.230657 
L 293.584501 -288.774234 
L 292.505038 -287.317811 
L 291.302661 -285.861388 
L 289.992595 -284.404965 
L 288.75284 -282.948542 
L 287.795099 -281.492119 
L 287.104583 -280.035696 
L 286.521719 -278.579273 
L 285.92899 -277.122849 
L 285.289029 -275.666426 
L 284.734749 -274.210003 
L 284.385781 -272.75358 
L 284.027444 -271.297157 
L 283.690076 -269.840734 
L 283.355988 -268.384311 
L 283.448009 -266.927888 
L 283.378461 -265.471465 
L 282.545671 -264.015041 
L 282.518638 -262.558618 
L 283.003371 -261.102195 
L 282.475128 -259.645772 
L 281.652804 -258.189349 
L 281.405394 -256.732926 
L 281.709916 -255.276503 
L 282.614001 -253.82008 
L 283.103866 -252.363657 
L 282.340127 -250.907233 
L 281.560038 -249.45081 
z
" id="m4845240528" style="stroke:#474747;stroke-width:3;"/>
    </defs>
    <g clip-path="url(#p24067d8945)">
     <use style="fill:#e47070;stroke:#474747;stroke-width:3;" x="0" xlink:href="#m4845240528" y="691.405824"/>
    </g>
   </g>
   <g id="PolyCollection_4">
    <defs>
     <path d="M 352.137193 -247.437103 
L 351.885861 -247.437103 
L 351.651108 -249.036079 
L 351.311183 -250.635056 
L 351.087677 -252.234032 
L 351.171318 -253.833009 
L 351.424546 -255.431985 
L 351.515893 -257.030962 
L 351.312262 -258.629938 
L 351.005785 -260.228915 
L 350.835197 -261.827891 
L 350.76808 -263.426867 
L 350.640861 -265.025844 
L 350.443968 -266.62482 
L 350.23123 -268.223797 
L 349.989353 -269.822773 
L 349.695257 -271.42175 
L 349.335452 -273.020726 
L 348.894727 -274.619703 
L 348.377005 -276.218679 
L 347.797032 -277.817656 
L 347.146001 -279.416632 
L 346.39462 -281.015608 
L 345.530444 -282.614585 
L 344.577917 -284.213561 
L 343.569246 -285.812538 
L 342.489062 -287.411514 
L 341.269043 -289.010491 
L 339.856534 -290.609467 
L 338.269984 -292.208444 
L 336.572555 -293.80742 
L 334.812392 -295.406397 
L 333.01114 -297.005373 
L 331.219301 -298.60435 
L 329.603567 -300.203326 
L 328.459947 -301.802302 
L 328.067098 -303.401279 
L 328.540379 -305.000255 
L 329.884617 -306.599232 
L 332.107259 -308.198208 
L 335.147109 -309.797185 
L 338.71076 -311.396161 
L 342.285185 -312.995138 
L 345.364031 -314.594114 
L 347.674186 -316.193091 
L 349.207844 -317.792067 
L 350.113032 -319.391043 
L 350.592472 -320.99002 
L 350.830209 -322.588996 
L 350.939867 -324.187973 
L 350.972658 -325.786949 
L 350.959905 -327.385926 
L 350.927998 -328.984902 
L 350.889501 -330.583879 
L 350.846714 -332.182855 
L 350.80203 -333.781832 
L 350.751233 -335.380808 
L 350.679687 -336.979784 
L 350.584329 -338.578761 
L 350.483321 -340.177737 
L 350.389115 -341.776714 
L 350.293013 -343.37569 
L 350.186375 -344.974667 
L 350.077095 -346.573643 
L 349.979025 -348.17262 
L 349.898269 -349.771596 
L 349.838232 -351.370573 
L 349.815642 -352.969549 
L 349.856681 -354.568526 
L 349.969959 -356.167502 
L 350.134858 -357.766478 
L 350.318839 -359.365455 
L 350.492894 -360.964431 
L 350.638022 -362.563408 
L 350.752684 -364.162384 
L 350.843747 -365.761361 
L 350.913572 -367.360337 
L 350.971399 -368.959314 
L 351.03868 -370.55829 
L 351.129049 -372.157267 
L 351.238934 -373.756243 
L 351.356279 -375.355219 
L 351.465486 -376.954196 
L 351.555561 -378.553172 
L 351.631202 -380.152149 
L 351.704318 -381.751125 
L 351.776091 -383.350102 
L 351.837287 -384.949078 
L 351.882056 -386.548055 
L 351.913734 -388.147031 
L 351.939193 -389.746008 
L 351.962115 -391.344984 
L 351.981329 -392.94396 
L 351.994173 -394.542937 
L 352.000722 -396.141913 
L 352.003758 -397.74089 
L 352.005706 -399.339866 
L 352.007455 -400.938843 
L 352.009103 -402.537819 
L 352.01041 -404.136796 
L 352.011155 -405.735772 
L 352.011899 -405.735772 
L 352.011899 -405.735772 
L 352.012644 -404.136796 
L 352.013951 -402.537819 
L 352.015599 -400.938843 
L 352.017348 -399.339866 
L 352.019296 -397.74089 
L 352.022332 -396.141913 
L 352.028881 -394.542937 
L 352.041725 -392.94396 
L 352.060939 -391.344984 
L 352.083861 -389.746008 
L 352.10932 -388.147031 
L 352.140998 -386.548055 
L 352.185767 -384.949078 
L 352.246963 -383.350102 
L 352.318735 -381.751125 
L 352.391852 -380.152149 
L 352.467492 -378.553172 
L 352.557568 -376.954196 
L 352.666775 -375.355219 
L 352.784119 -373.756243 
L 352.894005 -372.157267 
L 352.984373 -370.55829 
L 353.051655 -368.959314 
L 353.109482 -367.360337 
L 353.179307 -365.761361 
L 353.27037 -364.162384 
L 353.385032 -362.563408 
L 353.53016 -360.964431 
L 353.704215 -359.365455 
L 353.888196 -357.766478 
L 354.053095 -356.167502 
L 354.166373 -354.568526 
L 354.207412 -352.969549 
L 354.184822 -351.370573 
L 354.124784 -349.771596 
L 354.044029 -348.17262 
L 353.945959 -346.573643 
L 353.836679 -344.974667 
L 353.730041 -343.37569 
L 353.633939 -341.776714 
L 353.539733 -340.177737 
L 353.438725 -338.578761 
L 353.343367 -336.979784 
L 353.271821 -335.380808 
L 353.221024 -333.781832 
L 353.17634 -332.182855 
L 353.133553 -330.583879 
L 353.095056 -328.984902 
L 353.063149 -327.385926 
L 353.050396 -325.786949 
L 353.083187 -324.187973 
L 353.192845 -322.588996 
L 353.430582 -320.99002 
L 353.910022 -319.391043 
L 354.81521 -317.792067 
L 356.348868 -316.193091 
L 358.659023 -314.594114 
L 361.737869 -312.995138 
L 365.312294 -311.396161 
L 368.875945 -309.797185 
L 371.915795 -308.198208 
L 374.138437 -306.599232 
L 375.482675 -305.000255 
L 375.955956 -303.401279 
L 375.563107 -301.802302 
L 374.419487 -300.203326 
L 372.803753 -298.60435 
L 371.011914 -297.005373 
L 369.210662 -295.406397 
L 367.450499 -293.80742 
L 365.75307 -292.208444 
L 364.16652 -290.609467 
L 362.754011 -289.010491 
L 361.533992 -287.411514 
L 360.453808 -285.812538 
L 359.445137 -284.213561 
L 358.49261 -282.614585 
L 357.628434 -281.015608 
L 356.877053 -279.416632 
L 356.226022 -277.817656 
L 355.646049 -276.218679 
L 355.128327 -274.619703 
L 354.687602 -273.020726 
L 354.327797 -271.42175 
L 354.033701 -269.822773 
L 353.791824 -268.223797 
L 353.579086 -266.62482 
L 353.382193 -265.025844 
L 353.254974 -263.426867 
L 353.187856 -261.827891 
L 353.017269 -260.228915 
L 352.710792 -258.629938 
L 352.507161 -257.030962 
L 352.598507 -255.431985 
L 352.851736 -253.833009 
L 352.935377 -252.234032 
L 352.711871 -250.635056 
L 352.371946 -249.036079 
L 352.137193 -247.437103 
z
" id="m07b9854b0c" style="stroke:#474747;stroke-width:3;"/>
    </defs>
    <g clip-path="url(#p24067d8945)">
     <use style="fill:#39cde3;stroke:#474747;stroke-width:3;" x="0" xlink:href="#m07b9854b0c" y="691.405824"/>
    </g>
   </g>
   <g id="PolyCollection_5">
    <defs>
     <path d="M 422.853209 -245.971061 
L 422.560591 -245.971061 
L 422.328294 -247.786238 
L 421.98223 -249.601415 
L 421.674647 -251.416591 
L 421.585845 -253.231768 
L 421.695667 -255.046944 
L 421.77399 -256.862121 
L 421.655649 -258.677297 
L 421.406792 -260.492474 
L 421.162102 -262.30765 
L 420.929398 -264.122827 
L 420.63645 -265.938004 
L 420.257161 -267.75318 
L 419.812948 -269.568357 
L 419.314062 -271.383533 
L 418.742804 -273.19871 
L 418.078932 -275.013886 
L 417.322657 -276.829063 
L 416.478479 -278.64424 
L 415.524757 -280.459416 
L 414.420838 -282.274593 
L 413.143332 -284.089769 
L 411.703972 -285.904946 
L 410.135769 -287.720122 
L 408.470256 -289.535299 
L 406.731945 -291.350475 
L 404.958531 -293.165652 
L 403.227799 -294.980829 
L 401.671537 -296.796005 
L 400.481616 -298.611182 
L 399.9081 -300.426358 
L 400.217534 -302.241535 
L 401.592564 -304.056711 
L 404.019106 -305.871888 
L 407.236148 -307.687064 
L 410.788414 -309.502241 
L 414.168125 -311.317418 
L 416.978891 -313.132594 
L 419.038701 -314.947771 
L 420.382452 -316.762947 
L 421.183461 -318.578124 
L 421.645695 -320.3933 
L 421.921341 -322.208477 
L 422.088532 -324.023654 
L 422.180007 -325.83883 
L 422.218759 -327.654007 
L 422.230699 -329.469183 
L 422.238672 -331.28436 
L 422.254541 -333.099536 
L 422.278653 -334.914713 
L 422.305798 -336.729889 
L 422.331145 -338.545066 
L 422.351253 -340.360243 
L 422.363239 -342.175419 
L 422.367363 -343.990596 
L 422.369532 -345.805772 
L 422.377419 -347.620949 
L 422.393511 -349.436125 
L 422.412936 -351.251302 
L 422.426189 -353.066478 
L 422.422038 -354.881655 
L 422.390977 -356.696832 
L 422.331033 -358.512008 
L 422.250213 -360.327185 
L 422.159205 -362.142361 
L 422.060365 -363.957538 
L 421.944886 -365.772714 
L 421.799944 -367.587891 
L 421.618538 -369.403067 
L 421.406251 -371.218244 
L 421.182638 -373.033421 
L 420.975912 -374.848597 
L 420.812174 -376.663774 
L 420.705862 -378.47895 
L 420.657748 -380.294127 
L 420.660346 -382.109303 
L 420.708081 -383.92448 
L 420.804735 -385.739657 
L 420.958017 -387.554833 
L 421.166626 -389.37001 
L 421.413865 -391.185186 
L 421.670014 -393.000363 
L 421.901718 -394.815539 
L 422.08733 -396.630716 
L 422.226523 -398.445892 
L 422.33284 -400.261069 
L 422.417806 -402.076246 
L 422.484995 -403.891422 
L 422.536312 -405.706599 
L 422.576767 -407.521775 
L 422.611459 -409.336952 
L 422.641887 -411.152128 
L 422.666623 -412.967305 
L 422.684004 -414.782481 
L 422.694106 -416.597658 
L 422.699093 -418.412835 
L 422.701782 -420.228011 
L 422.703814 -422.043188 
L 422.705395 -423.858364 
L 422.70634 -425.673541 
L 422.70746 -425.673541 
L 422.70746 -425.673541 
L 422.708405 -423.858364 
L 422.709986 -422.043188 
L 422.712017 -420.228011 
L 422.714706 -418.412835 
L 422.719693 -416.597658 
L 422.729796 -414.782481 
L 422.747177 -412.967305 
L 422.771913 -411.152128 
L 422.802341 -409.336952 
L 422.837032 -407.521775 
L 422.877487 -405.706599 
L 422.928805 -403.891422 
L 422.995994 -402.076246 
L 423.08096 -400.261069 
L 423.187276 -398.445892 
L 423.32647 -396.630716 
L 423.512082 -394.815539 
L 423.743786 -393.000363 
L 423.999935 -391.185186 
L 424.247174 -389.37001 
L 424.455783 -387.554833 
L 424.609064 -385.739657 
L 424.705719 -383.92448 
L 424.753454 -382.109303 
L 424.756052 -380.294127 
L 424.707937 -378.47895 
L 424.601626 -376.663774 
L 424.437888 -374.848597 
L 424.231162 -373.033421 
L 424.007549 -371.218244 
L 423.795261 -369.403067 
L 423.613855 -367.587891 
L 423.468914 -365.772714 
L 423.353435 -363.957538 
L 423.254595 -362.142361 
L 423.163587 -360.327185 
L 423.082766 -358.512008 
L 423.022823 -356.696832 
L 422.991762 -354.881655 
L 422.987611 -353.066478 
L 423.000863 -351.251302 
L 423.020288 -349.436125 
L 423.036381 -347.620949 
L 423.044268 -345.805772 
L 423.046437 -343.990596 
L 423.050561 -342.175419 
L 423.062547 -340.360243 
L 423.082655 -338.545066 
L 423.108002 -336.729889 
L 423.135147 -334.914713 
L 423.159258 -333.099536 
L 423.175128 -331.28436 
L 423.183101 -329.469183 
L 423.195041 -327.654007 
L 423.233793 -325.83883 
L 423.325268 -324.023654 
L 423.492459 -322.208477 
L 423.768104 -320.3933 
L 424.230339 -318.578124 
L 425.031348 -316.762947 
L 426.375099 -314.947771 
L 428.434908 -313.132594 
L 431.245675 -311.317418 
L 434.625386 -309.502241 
L 438.177651 -307.687064 
L 441.394694 -305.871888 
L 443.821235 -304.056711 
L 445.196265 -302.241535 
L 445.5057 -300.426358 
L 444.932184 -298.611182 
L 443.742262 -296.796005 
L 442.186 -294.980829 
L 440.455268 -293.165652 
L 438.681855 -291.350475 
L 436.943544 -289.535299 
L 435.278031 -287.720122 
L 433.709828 -285.904946 
L 432.270468 -284.089769 
L 430.992962 -282.274593 
L 429.889043 -280.459416 
L 428.935321 -278.64424 
L 428.091142 -276.829063 
L 427.334868 -275.013886 
L 426.670996 -273.19871 
L 426.099738 -271.383533 
L 425.600852 -269.568357 
L 425.156639 -267.75318 
L 424.77735 -265.938004 
L 424.484402 -264.122827 
L 424.251698 -262.30765 
L 424.007008 -260.492474 
L 423.75815 -258.677297 
L 423.63981 -256.862121 
L 423.718133 -255.046944 
L 423.827955 -253.231768 
L 423.739153 -251.416591 
L 423.43157 -249.601415 
L 423.085506 -247.786238 
L 422.853209 -245.971061 
z
" id="mf2a33a8ffc" style="stroke:#474747;stroke-width:3;"/>
    </defs>
    <g clip-path="url(#p24067d8945)">
     <use style="fill:#42db51;stroke:#474747;stroke-width:3;" x="0" xlink:href="#mf2a33a8ffc" y="691.405824"/>
    </g>
   </g>
   <g id="PolyCollection_6">
    <defs>
     <path d="M 493.566816 -249.04767 
L 493.23773 -249.04767 
L 492.841687 -250.374859 
L 492.323295 -251.702049 
L 492.22898 -253.029239 
L 492.680456 -254.356428 
L 493.13801 -255.683618 
L 493.249431 -257.010807 
L 492.966123 -258.337997 
L 492.390572 -259.665187 
L 492.042255 -260.992376 
L 492.254429 -262.319566 
L 492.453256 -263.646756 
L 492.21156 -264.973945 
L 491.943999 -266.301135 
L 491.825233 -267.628324 
L 491.615939 -268.955514 
L 491.417338 -270.282704 
L 491.269889 -271.609893 
L 491.045515 -272.937083 
L 490.726309 -274.264272 
L 490.337467 -275.591462 
L 489.919281 -276.918652 
L 489.49604 -278.245841 
L 489.052003 -279.573031 
L 488.546258 -280.90022 
L 487.935515 -282.22741 
L 487.234787 -283.5546 
L 486.513824 -284.881789 
L 485.768643 -286.208979 
L 484.961646 -287.536169 
L 484.097885 -288.863358 
L 483.148164 -290.190548 
L 482.112023 -291.517737 
L 481.045336 -292.844927 
L 479.962418 -294.172117 
L 478.879129 -295.499306 
L 477.79673 -296.826496 
L 476.694141 -298.153685 
L 475.694263 -299.480875 
L 475.035785 -300.808065 
L 474.831949 -302.135254 
L 474.966962 -303.462444 
L 475.317617 -304.789633 
L 475.934957 -306.116823 
L 476.887554 -307.444013 
L 478.05495 -308.771202 
L 479.198999 -310.098392 
L 480.180957 -311.425582 
L 480.945822 -312.752771 
L 481.45353 -314.079961 
L 481.727633 -315.40715 
L 481.87669 -316.73434 
L 482.093871 -318.06153 
L 482.52401 -319.388719 
L 483.124983 -320.715909 
L 483.786746 -322.043098 
L 484.46022 -323.370288 
L 485.149738 -324.697478 
L 485.866133 -326.024667 
L 486.583221 -327.351857 
L 487.253244 -328.679046 
L 487.869715 -330.006236 
L 488.481803 -331.333426 
L 489.107613 -332.660615 
L 489.697322 -333.987805 
L 490.214941 -335.314995 
L 490.678169 -336.642184 
L 491.110687 -337.969374 
L 491.495143 -339.296563 
L 491.811848 -340.623753 
L 492.083729 -341.950943 
L 492.34701 -343.278132 
L 492.60088 -344.605322 
L 492.813317 -345.932511 
L 492.965199 -347.259701 
L 493.062519 -348.586891 
L 493.128168 -349.91408 
L 493.182198 -351.24127 
L 493.232955 -352.568459 
L 493.280057 -353.895649 
L 493.318321 -355.222839 
L 493.34509 -356.550028 
L 493.36117 -357.877218 
L 493.369967 -359.204408 
L 493.377445 -360.531597 
L 493.385493 -361.858787 
L 493.390804 -363.185976 
L 493.392791 -364.513166 
L 493.393979 -365.840356 
L 493.395369 -367.167545 
L 493.396603 -368.494735 
L 493.397869 -369.821924 
L 493.399488 -371.149114 
L 493.400578 -372.476304 
L 493.400258 -373.803493 
L 493.39924 -375.130683 
L 493.398996 -376.457872 
L 493.399965 -377.785062 
L 493.401247 -379.112252 
L 493.401996 -380.439441 
L 493.40255 -380.439441 
L 493.40255 -380.439441 
L 493.403298 -379.112252 
L 493.404581 -377.785062 
L 493.405549 -376.457872 
L 493.405306 -375.130683 
L 493.404288 -373.803493 
L 493.403968 -372.476304 
L 493.405058 -371.149114 
L 493.406677 -369.821924 
L 493.407943 -368.494735 
L 493.409177 -367.167545 
L 493.410567 -365.840356 
L 493.411755 -364.513166 
L 493.413742 -363.185976 
L 493.419052 -361.858787 
L 493.427101 -360.531597 
L 493.434578 -359.204408 
L 493.443376 -357.877218 
L 493.459455 -356.550028 
L 493.486225 -355.222839 
L 493.524489 -353.895649 
L 493.571591 -352.568459 
L 493.622348 -351.24127 
L 493.676377 -349.91408 
L 493.742026 -348.586891 
L 493.839347 -347.259701 
L 493.991228 -345.932511 
L 494.203666 -344.605322 
L 494.457536 -343.278132 
L 494.720817 -341.950943 
L 494.992697 -340.623753 
L 495.309403 -339.296563 
L 495.693858 -337.969374 
L 496.126377 -336.642184 
L 496.589604 -335.314995 
L 497.107224 -333.987805 
L 497.696933 -332.660615 
L 498.322743 -331.333426 
L 498.93483 -330.006236 
L 499.551302 -328.679046 
L 500.221325 -327.351857 
L 500.938413 -326.024667 
L 501.654808 -324.697478 
L 502.344326 -323.370288 
L 503.0178 -322.043098 
L 503.679563 -320.715909 
L 504.280536 -319.388719 
L 504.710675 -318.06153 
L 504.927856 -316.73434 
L 505.076913 -315.40715 
L 505.351015 -314.079961 
L 505.858724 -312.752771 
L 506.623589 -311.425582 
L 507.605546 -310.098392 
L 508.749596 -308.771202 
L 509.916992 -307.444013 
L 510.869589 -306.116823 
L 511.486929 -304.789633 
L 511.837583 -303.462444 
L 511.972597 -302.135254 
L 511.768761 -300.808065 
L 511.110283 -299.480875 
L 510.110405 -298.153685 
L 509.007816 -296.826496 
L 507.925416 -295.499306 
L 506.842127 -294.172117 
L 505.75921 -292.844927 
L 504.692523 -291.517737 
L 503.656382 -290.190548 
L 502.70666 -288.863358 
L 501.842899 -287.536169 
L 501.035903 -286.208979 
L 500.290722 -284.881789 
L 499.569758 -283.5546 
L 498.869031 -282.22741 
L 498.258288 -280.90022 
L 497.752543 -279.573031 
L 497.308506 -278.245841 
L 496.885265 -276.918652 
L 496.467079 -275.591462 
L 496.078237 -274.264272 
L 495.75903 -272.937083 
L 495.534657 -271.609893 
L 495.387207 -270.282704 
L 495.188607 -268.955514 
L 494.979312 -267.628324 
L 494.860547 -266.301135 
L 494.592986 -264.973945 
L 494.35129 -263.646756 
L 494.550117 -262.319566 
L 494.762291 -260.992376 
L 494.413974 -259.665187 
L 493.838423 -258.337997 
L 493.555115 -257.010807 
L 493.666536 -255.683618 
L 494.12409 -254.356428 
L 494.575566 -253.029239 
L 494.481251 -251.702049 
L 493.962859 -250.374859 
L 493.566816 -249.04767 
z
" id="me39bfffa5d" style="stroke:#474747;stroke-width:3;"/>
    </defs>
    <g clip-path="url(#p24067d8945)">
     <use style="fill:#db4542;stroke:#474747;stroke-width:3;" x="0" xlink:href="#me39bfffa5d" y="691.405824"/>
    </g>
   </g>
   <g id="line2d_25">
    <path clip-path="url(#p24067d8945)" d="M 139.925408 422.003783 
L 139.925408 363.297392 
" style="fill:none;stroke:#474747;stroke-linecap:round;stroke-width:3;"/>
   </g>
   <g id="line2d_26">
    <path clip-path="url(#p24067d8945)" d="M 139.925408 400.753221 
L 139.925408 385.762249 
" style="fill:none;stroke:#474747;stroke-linecap:round;stroke-width:9;"/>
   </g>
   <g id="line2d_27">
    <path clip-path="url(#p24067d8945)" d="M 210.620781 422.003783 
L 210.620781 361.563739 
" style="fill:none;stroke:#474747;stroke-linecap:round;stroke-width:3;"/>
   </g>
   <g id="line2d_28">
    <path clip-path="url(#p24067d8945)" d="M 210.620781 399.740241 
L 210.620781 384.451534 
" style="fill:none;stroke:#474747;stroke-linecap:round;stroke-width:9;"/>
   </g>
   <g id="line2d_29">
    <path clip-path="url(#p24067d8945)" d="M 281.316154 419.292872 
L 281.316154 364.097598 
" style="fill:none;stroke:#474747;stroke-linecap:round;stroke-width:3;"/>
   </g>
   <g id="line2d_30">
    <path clip-path="url(#p24067d8945)" d="M 281.316154 400.236176 
L 281.316154 385.762249 
" style="fill:none;stroke:#474747;stroke-linecap:round;stroke-width:9;"/>
   </g>
   <g id="line2d_31">
    <path clip-path="url(#p24067d8945)" d="M 352.011527 419.292872 
L 352.011527 359.102976 
" style="fill:none;stroke:#474747;stroke-linecap:round;stroke-width:3;"/>
   </g>
   <g id="line2d_32">
    <path clip-path="url(#p24067d8945)" d="M 352.011527 398.363441 
L 352.011527 382.657944 
" style="fill:none;stroke:#474747;stroke-linecap:round;stroke-width:9;"/>
   </g>
   <g id="line2d_33">
    <path clip-path="url(#p24067d8945)" d="M 422.7069 425.498756 
L 422.7069 361.253013 
" style="fill:none;stroke:#474747;stroke-linecap:round;stroke-width:3;"/>
   </g>
   <g id="line2d_34">
    <path clip-path="url(#p24067d8945)" d="M 422.7069 401.858413 
L 422.7069 385.609432 
" style="fill:none;stroke:#474747;stroke-linecap:round;stroke-width:9;"/>
   </g>
   <g id="line2d_35">
    <path clip-path="url(#p24067d8945)" d="M 493.402273 425.498756 
L 493.402273 343.044176 
" style="fill:none;stroke:#474747;stroke-linecap:round;stroke-width:3;"/>
   </g>
   <g id="line2d_36">
    <path clip-path="url(#p24067d8945)" d="M 493.402273 397.12691 
L 493.402273 375.490642 
" style="fill:none;stroke:#474747;stroke-linecap:round;stroke-width:9;"/>
   </g>
   <g id="line2d_37">
    <path clip-path="url(#p24067d8945)" d="M 115.182028 374.477661 
L 518.145653 374.477661 
" style="fill:none;stroke:#000000;stroke-linecap:round;stroke-width:3;"/>
   </g>
   <g id="patch_6">
    <path d="M 92.036563 454.419886 
L 92.036563 256.747159 
" style="fill:none;stroke:#262626;stroke-linecap:square;stroke-linejoin:miter;stroke-width:2.5;"/>
   </g>
   <g id="patch_7">
    <path d="M 92.036563 454.419886 
L 538.436563 454.419886 
" style="fill:none;stroke:#262626;stroke-linecap:square;stroke-linejoin:miter;stroke-width:2.5;"/>
   </g>
   <g id="PathCollection_7">
    <defs>
     <path d="M 0 3 
C 0.795609 3 1.55874 2.683901 2.12132 2.12132 
C 2.683901 1.55874 3 0.795609 3 0 
C 3 -0.795609 2.683901 -1.55874 2.12132 -2.12132 
C 1.55874 -2.683901 0.795609 -3 0 -3 
C -0.795609 -3 -1.55874 -2.683901 -2.12132 -2.12132 
C -2.683901 -1.55874 -3 -0.795609 -3 0 
C -3 0.795609 -2.683901 1.55874 -2.12132 2.12132 
C -1.55874 2.683901 -0.795609 3 0 3 
z
" id="m5f5715e0f9" style="stroke:#474747;stroke-width:2;"/>
    </defs>
    <g clip-path="url(#p24067d8945)">
     <use style="fill:#ffffff;stroke:#474747;stroke-width:2;" x="139.925408" xlink:href="#m5f5715e0f9" y="392.071089"/>
    </g>
   </g>
   <g id="PathCollection_8">
    <g clip-path="url(#p24067d8945)">
     <use style="fill:#ffffff;stroke:#474747;stroke-width:2;" x="210.620781" xlink:href="#m5f5715e0f9" y="390.842899"/>
    </g>
   </g>
   <g id="PathCollection_9">
    <g clip-path="url(#p24067d8945)">
     <use style="fill:#ffffff;stroke:#474747;stroke-width:2;" x="281.316154" xlink:href="#m5f5715e0f9" y="391.815316"/>
    </g>
   </g>
   <g id="PathCollection_10">
    <g clip-path="url(#p24067d8945)">
     <use style="fill:#ffffff;stroke:#474747;stroke-width:2;" x="352.011527" xlink:href="#m5f5715e0f9" y="389.727553"/>
    </g>
   </g>
   <g id="PathCollection_11">
    <g clip-path="url(#p24067d8945)">
     <use style="fill:#ffffff;stroke:#474747;stroke-width:2;" x="422.7069" xlink:href="#m5f5715e0f9" y="392.872394"/>
    </g>
   </g>
   <g id="PathCollection_12">
    <g clip-path="url(#p24067d8945)">
     <use style="fill:#ffffff;stroke:#474747;stroke-width:2;" x="493.402273" xlink:href="#m5f5715e0f9" y="387.23167"/>
    </g>
   </g>
  </g>
 </g>
 <defs>
  <clipPath id="pc958abb82a">
   <rect height="197.672727" width="446.4" x="92.036563" y="19.539886"/>
  </clipPath>
  <clipPath id="p24067d8945">
   <rect height="197.672727" width="446.4" x="92.036563" y="256.747159"/>
  </clipPath>
 </defs>
</svg>
