<?xml version="1.0" encoding="utf-8" standalone="no"?>
<!DOCTYPE svg PUBLIC "-//W3C//DTD SVG 1.1//EN"
  "http://www.w3.org/Graphics/SVG/1.1/DTD/svg11.dtd">
<!-- Created with matplotlib (https://matplotlib.org/) -->
<svg height="545.694375pt" version="1.1" viewBox="0 0 499.234625 545.694375" width="499.234625pt" xmlns="http://www.w3.org/2000/svg" xmlns:xlink="http://www.w3.org/1999/xlink">
 <metadata>
  <rdf:RDF xmlns:cc="http://creativecommons.org/ns#" xmlns:dc="http://purl.org/dc/elements/1.1/" xmlns:rdf="http://www.w3.org/1999/02/22-rdf-syntax-ns#">
   <cc:Work>
    <dc:type rdf:resource="http://purl.org/dc/dcmitype/StillImage"/>
    <dc:date>2021-12-15T13:05:17.714819</dc:date>
    <dc:format>image/svg+xml</dc:format>
    <dc:creator>
     <cc:Agent>
      <dc:title>Matplotlib v3.3.0, https://matplotlib.org/</dc:title>
     </cc:Agent>
    </dc:creator>
   </cc:Work>
  </rdf:RDF>
 </metadata>
 <defs>
  <style type="text/css">*{stroke-linecap:butt;stroke-linejoin:round;}</style>
 </defs>
 <g id="figure_1">
  <g id="patch_1">
   <path d="M 0 545.694375 
L 499.234625 545.694375 
L 499.234625 0 
L 0 0 
z
" style="fill:#ffffff;"/>
  </g>
  <g id="axes_1">
   <g id="patch_2">
    <path d="M 45.634625 204.872727 
L 492.034625 204.872727 
L 492.034625 7.2 
L 45.634625 7.2 
z
" style="fill:#ffffff;"/>
   </g>
   <g id="matplotlib.axis_1">
    <g id="xtick_1">
     <g id="line2d_1">
      <defs>
       <path d="M 0 0 
L 0 4.8 
" id="m45c3ab618b" style="stroke:#262626;"/>
      </defs>
      <g>
       <use style="fill:#262626;stroke:#262626;" x="93.523471" xlink:href="#m45c3ab618b" y="204.872727"/>
      </g>
     </g>
    </g>
    <g id="xtick_2">
     <g id="line2d_2">
      <g>
       <use style="fill:#262626;stroke:#262626;" x="164.218844" xlink:href="#m45c3ab618b" y="204.872727"/>
      </g>
     </g>
    </g>
    <g id="xtick_3">
     <g id="line2d_3">
      <g>
       <use style="fill:#262626;stroke:#262626;" x="234.914217" xlink:href="#m45c3ab618b" y="204.872727"/>
      </g>
     </g>
    </g>
    <g id="xtick_4">
     <g id="line2d_4">
      <g>
       <use style="fill:#262626;stroke:#262626;" x="305.609589" xlink:href="#m45c3ab618b" y="204.872727"/>
      </g>
     </g>
    </g>
    <g id="xtick_5">
     <g id="line2d_5">
      <g>
       <use style="fill:#262626;stroke:#262626;" x="376.304962" xlink:href="#m45c3ab618b" y="204.872727"/>
      </g>
     </g>
    </g>
    <g id="xtick_6">
     <g id="line2d_6">
      <g>
       <use style="fill:#262626;stroke:#262626;" x="447.000335" xlink:href="#m45c3ab618b" y="204.872727"/>
      </g>
     </g>
    </g>
   </g>
   <g id="matplotlib.axis_2">
    <g id="ytick_1">
     <g id="line2d_7">
      <defs>
       <path d="M 0 0 
L -4.8 0 
" id="m12057cf5ae" style="stroke:#262626;"/>
      </defs>
      <g>
       <use style="fill:#262626;stroke:#262626;" x="45.634625" xlink:href="#m12057cf5ae" y="204.872727"/>
      </g>
     </g>
     <g id="text_1">
      <!-- 0.00 -->
      <g style="fill:#262626;" transform="translate(20.209 208.022165)scale(0.088 -0.088)">
       <defs>
        <path d="M 4.15625 35.296875 
Q 4.15625 48 6.765625 55.734375 
Q 9.375 63.484375 14.515625 67.671875 
Q 19.671875 71.875 27.484375 71.875 
Q 33.25 71.875 37.59375 69.546875 
Q 41.9375 67.234375 44.765625 62.859375 
Q 47.609375 58.5 49.21875 52.21875 
Q 50.828125 45.953125 50.828125 35.296875 
Q 50.828125 22.703125 48.234375 14.96875 
Q 45.65625 7.234375 40.5 3 
Q 35.359375 -1.21875 27.484375 -1.21875 
Q 17.140625 -1.21875 11.234375 6.203125 
Q 4.15625 15.140625 4.15625 35.296875 
z
M 13.1875 35.296875 
Q 13.1875 17.671875 17.3125 11.828125 
Q 21.4375 6 27.484375 6 
Q 33.546875 6 37.671875 11.859375 
Q 41.796875 17.71875 41.796875 35.296875 
Q 41.796875 52.984375 37.671875 58.78125 
Q 33.546875 64.59375 27.390625 64.59375 
Q 21.34375 64.59375 17.71875 59.46875 
Q 13.1875 52.9375 13.1875 35.296875 
z
" id="ArialMT-48"/>
        <path d="M 9.078125 0 
L 9.078125 10.015625 
L 19.09375 10.015625 
L 19.09375 0 
z
" id="ArialMT-46"/>
       </defs>
       <use xlink:href="#ArialMT-48"/>
       <use x="55.615234" xlink:href="#ArialMT-46"/>
       <use x="83.398438" xlink:href="#ArialMT-48"/>
       <use x="139.013672" xlink:href="#ArialMT-48"/>
      </g>
     </g>
    </g>
    <g id="ytick_2">
     <g id="line2d_8">
      <g>
       <use style="fill:#262626;stroke:#262626;" x="45.634625" xlink:href="#m12057cf5ae" y="167.91077"/>
      </g>
     </g>
     <g id="text_2">
      <!-- 0.05 -->
      <g style="fill:#262626;" transform="translate(20.209 171.060208)scale(0.088 -0.088)">
       <defs>
        <path d="M 4.15625 18.75 
L 13.375 19.53125 
Q 14.40625 12.796875 18.140625 9.390625 
Q 21.875 6 27.15625 6 
Q 33.5 6 37.890625 10.78125 
Q 42.28125 15.578125 42.28125 23.484375 
Q 42.28125 31 38.0625 35.34375 
Q 33.84375 39.703125 27 39.703125 
Q 22.75 39.703125 19.328125 37.765625 
Q 15.921875 35.84375 13.96875 32.765625 
L 5.71875 33.84375 
L 12.640625 70.609375 
L 48.25 70.609375 
L 48.25 62.203125 
L 19.671875 62.203125 
L 15.828125 42.96875 
Q 22.265625 47.46875 29.34375 47.46875 
Q 38.71875 47.46875 45.15625 40.96875 
Q 51.609375 34.46875 51.609375 24.265625 
Q 51.609375 14.546875 45.953125 7.46875 
Q 39.0625 -1.21875 27.15625 -1.21875 
Q 17.390625 -1.21875 11.203125 4.25 
Q 5.03125 9.71875 4.15625 18.75 
z
" id="ArialMT-53"/>
       </defs>
       <use xlink:href="#ArialMT-48"/>
       <use x="55.615234" xlink:href="#ArialMT-46"/>
       <use x="83.398438" xlink:href="#ArialMT-48"/>
       <use x="139.013672" xlink:href="#ArialMT-53"/>
      </g>
     </g>
    </g>
    <g id="ytick_3">
     <g id="line2d_9">
      <g>
       <use style="fill:#262626;stroke:#262626;" x="45.634625" xlink:href="#m12057cf5ae" y="130.948813"/>
      </g>
     </g>
     <g id="text_3">
      <!-- 0.10 -->
      <g style="fill:#262626;" transform="translate(20.209 134.098251)scale(0.088 -0.088)">
       <defs>
        <path d="M 37.25 0 
L 28.46875 0 
L 28.46875 56 
Q 25.296875 52.984375 20.140625 49.953125 
Q 14.984375 46.921875 10.890625 45.40625 
L 10.890625 53.90625 
Q 18.265625 57.375 23.78125 62.296875 
Q 29.296875 67.234375 31.59375 71.875 
L 37.25 71.875 
z
" id="ArialMT-49"/>
       </defs>
       <use xlink:href="#ArialMT-48"/>
       <use x="55.615234" xlink:href="#ArialMT-46"/>
       <use x="83.398438" xlink:href="#ArialMT-49"/>
       <use x="139.013672" xlink:href="#ArialMT-48"/>
      </g>
     </g>
    </g>
    <g id="ytick_4">
     <g id="line2d_10">
      <g>
       <use style="fill:#262626;stroke:#262626;" x="45.634625" xlink:href="#m12057cf5ae" y="93.986856"/>
      </g>
     </g>
     <g id="text_4">
      <!-- 0.15 -->
      <g style="fill:#262626;" transform="translate(20.209 97.136293)scale(0.088 -0.088)">
       <use xlink:href="#ArialMT-48"/>
       <use x="55.615234" xlink:href="#ArialMT-46"/>
       <use x="83.398438" xlink:href="#ArialMT-49"/>
       <use x="139.013672" xlink:href="#ArialMT-53"/>
      </g>
     </g>
    </g>
    <g id="ytick_5">
     <g id="line2d_11">
      <g>
       <use style="fill:#262626;stroke:#262626;" x="45.634625" xlink:href="#m12057cf5ae" y="57.024899"/>
      </g>
     </g>
     <g id="text_5">
      <!-- 0.20 -->
      <g style="fill:#262626;" transform="translate(20.209 60.174336)scale(0.088 -0.088)">
       <defs>
        <path d="M 50.34375 8.453125 
L 50.34375 0 
L 3.03125 0 
Q 2.9375 3.171875 4.046875 6.109375 
Q 5.859375 10.9375 9.828125 15.625 
Q 13.8125 20.3125 21.34375 26.46875 
Q 33.015625 36.03125 37.109375 41.625 
Q 41.21875 47.21875 41.21875 52.203125 
Q 41.21875 57.421875 37.46875 61 
Q 33.734375 64.59375 27.734375 64.59375 
Q 21.390625 64.59375 17.578125 60.78125 
Q 13.765625 56.984375 13.71875 50.25 
L 4.6875 51.171875 
Q 5.609375 61.28125 11.65625 66.578125 
Q 17.71875 71.875 27.9375 71.875 
Q 38.234375 71.875 44.234375 66.15625 
Q 50.25 60.453125 50.25 52 
Q 50.25 47.703125 48.484375 43.546875 
Q 46.734375 39.40625 42.65625 34.8125 
Q 38.578125 30.21875 29.109375 22.21875 
Q 21.1875 15.578125 18.9375 13.203125 
Q 16.703125 10.84375 15.234375 8.453125 
z
" id="ArialMT-50"/>
       </defs>
       <use xlink:href="#ArialMT-48"/>
       <use x="55.615234" xlink:href="#ArialMT-46"/>
       <use x="83.398438" xlink:href="#ArialMT-50"/>
       <use x="139.013672" xlink:href="#ArialMT-48"/>
      </g>
     </g>
    </g>
    <g id="ytick_6">
     <g id="line2d_12">
      <g>
       <use style="fill:#262626;stroke:#262626;" x="45.634625" xlink:href="#m12057cf5ae" y="20.062942"/>
      </g>
     </g>
     <g id="text_6">
      <!-- 0.25 -->
      <g style="fill:#262626;" transform="translate(20.209 23.212379)scale(0.088 -0.088)">
       <use xlink:href="#ArialMT-48"/>
       <use x="55.615234" xlink:href="#ArialMT-46"/>
       <use x="83.398438" xlink:href="#ArialMT-50"/>
       <use x="139.013672" xlink:href="#ArialMT-53"/>
      </g>
     </g>
    </g>
    <g id="text_7">
     <!-- Integration Efficiency -->
     <g style="fill:#262626;" transform="translate(14.1885 150.506864)rotate(-90)scale(0.096 -0.096)">
      <defs>
       <path d="M 9.328125 0 
L 9.328125 71.578125 
L 18.796875 71.578125 
L 18.796875 0 
z
" id="ArialMT-73"/>
       <path d="M 6.59375 0 
L 6.59375 51.859375 
L 14.5 51.859375 
L 14.5 44.484375 
Q 20.21875 53.03125 31 53.03125 
Q 35.6875 53.03125 39.625 51.34375 
Q 43.5625 49.65625 45.515625 46.921875 
Q 47.46875 44.1875 48.25 40.4375 
Q 48.734375 37.984375 48.734375 31.890625 
L 48.734375 0 
L 39.9375 0 
L 39.9375 31.546875 
Q 39.9375 36.921875 38.90625 39.578125 
Q 37.890625 42.234375 35.28125 43.8125 
Q 32.671875 45.40625 29.15625 45.40625 
Q 23.53125 45.40625 19.453125 41.84375 
Q 15.375 38.28125 15.375 28.328125 
L 15.375 0 
z
" id="ArialMT-110"/>
       <path d="M 25.78125 7.859375 
L 27.046875 0.09375 
Q 23.34375 -0.6875 20.40625 -0.6875 
Q 15.625 -0.6875 12.984375 0.828125 
Q 10.359375 2.34375 9.28125 4.8125 
Q 8.203125 7.28125 8.203125 15.1875 
L 8.203125 45.015625 
L 1.765625 45.015625 
L 1.765625 51.859375 
L 8.203125 51.859375 
L 8.203125 64.703125 
L 16.9375 69.96875 
L 16.9375 51.859375 
L 25.78125 51.859375 
L 25.78125 45.015625 
L 16.9375 45.015625 
L 16.9375 14.703125 
Q 16.9375 10.9375 17.40625 9.859375 
Q 17.875 8.796875 18.921875 8.15625 
Q 19.96875 7.515625 21.921875 7.515625 
Q 23.390625 7.515625 25.78125 7.859375 
z
" id="ArialMT-116"/>
       <path d="M 42.09375 16.703125 
L 51.171875 15.578125 
Q 49.03125 7.625 43.21875 3.21875 
Q 37.40625 -1.171875 28.375 -1.171875 
Q 17 -1.171875 10.328125 5.828125 
Q 3.65625 12.84375 3.65625 25.484375 
Q 3.65625 38.578125 10.390625 45.796875 
Q 17.140625 53.03125 27.875 53.03125 
Q 38.28125 53.03125 44.875 45.953125 
Q 51.46875 38.875 51.46875 26.03125 
Q 51.46875 25.25 51.421875 23.6875 
L 12.75 23.6875 
Q 13.234375 15.140625 17.578125 10.59375 
Q 21.921875 6.0625 28.421875 6.0625 
Q 33.25 6.0625 36.671875 8.59375 
Q 40.09375 11.140625 42.09375 16.703125 
z
M 13.234375 30.90625 
L 42.1875 30.90625 
Q 41.609375 37.453125 38.875 40.71875 
Q 34.671875 45.796875 27.984375 45.796875 
Q 21.921875 45.796875 17.796875 41.75 
Q 13.671875 37.703125 13.234375 30.90625 
z
" id="ArialMT-101"/>
       <path d="M 4.984375 -4.296875 
L 13.53125 -5.5625 
Q 14.0625 -9.515625 16.5 -11.328125 
Q 19.78125 -13.765625 25.4375 -13.765625 
Q 31.546875 -13.765625 34.859375 -11.328125 
Q 38.1875 -8.890625 39.359375 -4.5 
Q 40.046875 -1.8125 39.984375 6.78125 
Q 34.234375 0 25.640625 0 
Q 14.9375 0 9.078125 7.71875 
Q 3.21875 15.4375 3.21875 26.21875 
Q 3.21875 33.640625 5.90625 39.90625 
Q 8.59375 46.1875 13.6875 49.609375 
Q 18.796875 53.03125 25.6875 53.03125 
Q 34.859375 53.03125 40.828125 45.609375 
L 40.828125 51.859375 
L 48.921875 51.859375 
L 48.921875 7.03125 
Q 48.921875 -5.078125 46.453125 -10.125 
Q 44 -15.1875 38.640625 -18.109375 
Q 33.296875 -21.046875 25.484375 -21.046875 
Q 16.21875 -21.046875 10.5 -16.875 
Q 4.78125 -12.703125 4.984375 -4.296875 
z
M 12.25 26.859375 
Q 12.25 16.65625 16.296875 11.96875 
Q 20.359375 7.28125 26.46875 7.28125 
Q 32.515625 7.28125 36.609375 11.9375 
Q 40.71875 16.609375 40.71875 26.5625 
Q 40.71875 36.078125 36.5 40.90625 
Q 32.28125 45.75 26.3125 45.75 
Q 20.453125 45.75 16.34375 40.984375 
Q 12.25 36.234375 12.25 26.859375 
z
" id="ArialMT-103"/>
       <path d="M 6.5 0 
L 6.5 51.859375 
L 14.40625 51.859375 
L 14.40625 44 
Q 17.4375 49.515625 20 51.265625 
Q 22.5625 53.03125 25.640625 53.03125 
Q 30.078125 53.03125 34.671875 50.203125 
L 31.640625 42.046875 
Q 28.421875 43.953125 25.203125 43.953125 
Q 22.3125 43.953125 20.015625 42.21875 
Q 17.71875 40.484375 16.75 37.40625 
Q 15.28125 32.71875 15.28125 27.15625 
L 15.28125 0 
z
" id="ArialMT-114"/>
       <path d="M 40.4375 6.390625 
Q 35.546875 2.25 31.03125 0.53125 
Q 26.515625 -1.171875 21.34375 -1.171875 
Q 12.796875 -1.171875 8.203125 3 
Q 3.609375 7.171875 3.609375 13.671875 
Q 3.609375 17.484375 5.34375 20.625 
Q 7.078125 23.78125 9.890625 25.6875 
Q 12.703125 27.59375 16.21875 28.5625 
Q 18.796875 29.25 24.03125 29.890625 
Q 34.671875 31.15625 39.703125 32.90625 
Q 39.75 34.71875 39.75 35.203125 
Q 39.75 40.578125 37.25 42.78125 
Q 33.890625 45.75 27.25 45.75 
Q 21.046875 45.75 18.09375 43.578125 
Q 15.140625 41.40625 13.71875 35.890625 
L 5.125 37.0625 
Q 6.296875 42.578125 8.984375 45.96875 
Q 11.671875 49.359375 16.75 51.1875 
Q 21.828125 53.03125 28.515625 53.03125 
Q 35.15625 53.03125 39.296875 51.46875 
Q 43.453125 49.90625 45.40625 47.53125 
Q 47.359375 45.171875 48.140625 41.546875 
Q 48.578125 39.3125 48.578125 33.453125 
L 48.578125 21.734375 
Q 48.578125 9.46875 49.140625 6.21875 
Q 49.703125 2.984375 51.375 0 
L 42.1875 0 
Q 40.828125 2.734375 40.4375 6.390625 
z
M 39.703125 26.03125 
Q 34.90625 24.078125 25.34375 22.703125 
Q 19.921875 21.921875 17.671875 20.9375 
Q 15.4375 19.96875 14.203125 18.09375 
Q 12.984375 16.21875 12.984375 13.921875 
Q 12.984375 10.40625 15.640625 8.0625 
Q 18.3125 5.71875 23.4375 5.71875 
Q 28.515625 5.71875 32.46875 7.9375 
Q 36.421875 10.15625 38.28125 14.015625 
Q 39.703125 17 39.703125 22.796875 
z
" id="ArialMT-97"/>
       <path d="M 6.640625 61.46875 
L 6.640625 71.578125 
L 15.4375 71.578125 
L 15.4375 61.46875 
z
M 6.640625 0 
L 6.640625 51.859375 
L 15.4375 51.859375 
L 15.4375 0 
z
" id="ArialMT-105"/>
       <path d="M 3.328125 25.921875 
Q 3.328125 40.328125 11.328125 47.265625 
Q 18.015625 53.03125 27.640625 53.03125 
Q 38.328125 53.03125 45.109375 46.015625 
Q 51.90625 39.015625 51.90625 26.65625 
Q 51.90625 16.65625 48.90625 10.90625 
Q 45.90625 5.171875 40.15625 2 
Q 34.421875 -1.171875 27.640625 -1.171875 
Q 16.75 -1.171875 10.03125 5.8125 
Q 3.328125 12.796875 3.328125 25.921875 
z
M 12.359375 25.921875 
Q 12.359375 15.96875 16.703125 11.015625 
Q 21.046875 6.0625 27.640625 6.0625 
Q 34.1875 6.0625 38.53125 11.03125 
Q 42.875 16.015625 42.875 26.21875 
Q 42.875 35.84375 38.5 40.796875 
Q 34.125 45.75 27.640625 45.75 
Q 21.046875 45.75 16.703125 40.8125 
Q 12.359375 35.890625 12.359375 25.921875 
z
" id="ArialMT-111"/>
       <path id="ArialMT-32"/>
       <path d="M 7.90625 0 
L 7.90625 71.578125 
L 59.671875 71.578125 
L 59.671875 63.140625 
L 17.390625 63.140625 
L 17.390625 41.21875 
L 56.984375 41.21875 
L 56.984375 32.8125 
L 17.390625 32.8125 
L 17.390625 8.453125 
L 61.328125 8.453125 
L 61.328125 0 
z
" id="ArialMT-69"/>
       <path d="M 8.6875 0 
L 8.6875 45.015625 
L 0.921875 45.015625 
L 0.921875 51.859375 
L 8.6875 51.859375 
L 8.6875 57.375 
Q 8.6875 62.59375 9.625 65.140625 
Q 10.890625 68.5625 14.078125 70.671875 
Q 17.28125 72.796875 23.046875 72.796875 
Q 26.765625 72.796875 31.25 71.921875 
L 29.9375 64.265625 
Q 27.203125 64.75 24.75 64.75 
Q 20.75 64.75 19.09375 63.03125 
Q 17.4375 61.328125 17.4375 56.640625 
L 17.4375 51.859375 
L 27.546875 51.859375 
L 27.546875 45.015625 
L 17.4375 45.015625 
L 17.4375 0 
z
" id="ArialMT-102"/>
       <path d="M 40.4375 19 
L 49.078125 17.875 
Q 47.65625 8.9375 41.8125 3.875 
Q 35.984375 -1.171875 27.484375 -1.171875 
Q 16.84375 -1.171875 10.375 5.78125 
Q 3.90625 12.75 3.90625 25.734375 
Q 3.90625 34.125 6.6875 40.421875 
Q 9.46875 46.734375 15.15625 49.875 
Q 20.84375 53.03125 27.546875 53.03125 
Q 35.984375 53.03125 41.359375 48.75 
Q 46.734375 44.484375 48.25 36.625 
L 39.703125 35.296875 
Q 38.484375 40.53125 35.375 43.15625 
Q 32.28125 45.796875 27.875 45.796875 
Q 21.234375 45.796875 17.078125 41.03125 
Q 12.9375 36.28125 12.9375 25.984375 
Q 12.9375 15.53125 16.9375 10.796875 
Q 20.953125 6.0625 27.390625 6.0625 
Q 32.5625 6.0625 36.03125 9.234375 
Q 39.5 12.40625 40.4375 19 
z
" id="ArialMT-99"/>
       <path d="M 6.203125 -19.96875 
L 5.21875 -11.71875 
Q 8.109375 -12.5 10.25 -12.5 
Q 13.1875 -12.5 14.9375 -11.515625 
Q 16.703125 -10.546875 17.828125 -8.796875 
Q 18.65625 -7.46875 20.515625 -2.25 
Q 20.75 -1.515625 21.296875 -0.09375 
L 1.609375 51.859375 
L 11.078125 51.859375 
L 21.875 21.828125 
Q 23.96875 16.109375 25.640625 9.8125 
Q 27.15625 15.875 29.25 21.625 
L 40.328125 51.859375 
L 49.125 51.859375 
L 29.390625 -0.875 
Q 26.21875 -9.421875 24.46875 -12.640625 
Q 22.125 -17 19.09375 -19.015625 
Q 16.0625 -21.046875 11.859375 -21.046875 
Q 9.328125 -21.046875 6.203125 -19.96875 
z
" id="ArialMT-121"/>
      </defs>
      <use xlink:href="#ArialMT-73"/>
      <use x="27.783203" xlink:href="#ArialMT-110"/>
      <use x="83.398438" xlink:href="#ArialMT-116"/>
      <use x="111.181641" xlink:href="#ArialMT-101"/>
      <use x="166.796875" xlink:href="#ArialMT-103"/>
      <use x="222.412109" xlink:href="#ArialMT-114"/>
      <use x="255.712891" xlink:href="#ArialMT-97"/>
      <use x="311.328125" xlink:href="#ArialMT-116"/>
      <use x="339.111328" xlink:href="#ArialMT-105"/>
      <use x="361.328125" xlink:href="#ArialMT-111"/>
      <use x="416.943359" xlink:href="#ArialMT-110"/>
      <use x="472.558594" xlink:href="#ArialMT-32"/>
      <use x="500.341797" xlink:href="#ArialMT-69"/>
      <use x="567.041016" xlink:href="#ArialMT-102"/>
      <use x="593.074219" xlink:href="#ArialMT-102"/>
      <use x="620.857422" xlink:href="#ArialMT-105"/>
      <use x="643.074219" xlink:href="#ArialMT-99"/>
      <use x="693.074219" xlink:href="#ArialMT-105"/>
      <use x="715.291016" xlink:href="#ArialMT-101"/>
      <use x="770.90625" xlink:href="#ArialMT-110"/>
      <use x="826.521484" xlink:href="#ArialMT-99"/>
      <use x="876.521484" xlink:href="#ArialMT-121"/>
     </g>
    </g>
   </g>
   <g id="patch_3">
    <path d="M 45.634625 204.872727 
L 45.634625 7.2 
" style="fill:none;stroke:#262626;stroke-linecap:square;stroke-linejoin:miter;"/>
   </g>
   <g id="patch_4">
    <path d="M 45.634625 204.872727 
L 492.034625 204.872727 
" style="fill:none;stroke:#262626;stroke-linecap:square;stroke-linejoin:miter;"/>
   </g>
   <g id="PathCollection_1">
    <defs>
     <path d="M 0 2.5 
C 0.663008 2.5 1.29895 2.236584 1.767767 1.767767 
C 2.236584 1.29895 2.5 0.663008 2.5 -0 
C 2.5 -0.663008 2.236584 -1.29895 1.767767 -1.767767 
C 1.29895 -2.236584 0.663008 -2.5 0 -2.5 
C -0.663008 -2.5 -1.29895 -2.236584 -1.767767 -1.767767 
C -2.236584 -1.29895 -2.5 -0.663008 -2.5 0 
C -2.5 0.663008 -2.236584 1.29895 -1.767767 1.767767 
C -1.29895 2.236584 -0.663008 2.5 0 2.5 
z
" id="C0_0_8f585bab9a"/>
    </defs>
    <g clip-path="url(#p4b5801e8fa)">
     <use style="fill:#f1be64;" x="92.437273" xlink:href="#C0_0_8f585bab9a" y="184.233333"/>
    </g>
    <g clip-path="url(#p4b5801e8fa)">
     <use style="fill:#f1be64;" x="93.924056" xlink:href="#C0_0_8f585bab9a" y="179.464748"/>
    </g>
    <g clip-path="url(#p4b5801e8fa)">
     <use style="fill:#f1be64;" x="88.445215" xlink:href="#C0_0_8f585bab9a" y="179.746722"/>
    </g>
   </g>
   <g id="PathCollection_2">
    <defs>
     <path d="M 0 2.5 
C 0.663008 2.5 1.29895 2.236584 1.767767 1.767767 
C 2.236584 1.29895 2.5 0.663008 2.5 -0 
C 2.5 -0.663008 2.236584 -1.29895 1.767767 -1.767767 
C 1.29895 -2.236584 0.663008 -2.5 0 -2.5 
C -0.663008 -2.5 -1.29895 -2.236584 -1.767767 -1.767767 
C -2.236584 -1.29895 -2.5 -0.663008 -2.5 0 
C -2.5 0.663008 -2.236584 1.29895 -1.767767 1.767767 
C -1.29895 2.236584 -0.663008 2.5 0 2.5 
z
" id="C1_0_0a8d814aab"/>
    </defs>
    <g clip-path="url(#p4b5801e8fa)">
     <use style="fill:#ac4140;" x="158.943016" xlink:href="#C1_0_0a8d814aab" y="147.057308"/>
    </g>
    <g clip-path="url(#p4b5801e8fa)">
     <use style="fill:#ac4140;" x="159.160526" xlink:href="#C1_0_0a8d814aab" y="144.944828"/>
    </g>
    <g clip-path="url(#p4b5801e8fa)">
     <use style="fill:#ac4140;" x="165.076812" xlink:href="#C1_0_0a8d814aab" y="142.07091"/>
    </g>
   </g>
   <g id="PathCollection_3">
    <defs>
     <path d="M 0 2.5 
C 0.663008 2.5 1.29895 2.236584 1.767767 1.767767 
C 2.236584 1.29895 2.5 0.663008 2.5 -0 
C 2.5 -0.663008 2.236584 -1.29895 1.767767 -1.767767 
C 1.29895 -2.236584 0.663008 -2.5 0 -2.5 
C -0.663008 -2.5 -1.29895 -2.236584 -1.767767 -1.767767 
C -2.236584 -1.29895 -2.5 -0.663008 -2.5 0 
C -2.5 0.663008 -2.236584 1.29895 -1.767767 1.767767 
C -1.29895 2.236584 -0.663008 2.5 0 2.5 
z
" id="C2_0_57382b4112"/>
    </defs>
    <g clip-path="url(#p4b5801e8fa)">
     <use style="fill:#f85d5c;" x="233.827623" xlink:href="#C2_0_57382b4112" y="190.564873"/>
    </g>
    <g clip-path="url(#p4b5801e8fa)">
     <use style="fill:#f85d5c;" x="227.858924" xlink:href="#C2_0_57382b4112" y="193.864213"/>
    </g>
    <g clip-path="url(#p4b5801e8fa)">
     <use style="fill:#f85d5c;" x="233.76084" xlink:href="#C2_0_57382b4112" y="193.566642"/>
    </g>
   </g>
   <g id="PathCollection_4">
    <defs>
     <path d="M 0 2.5 
C 0.663008 2.5 1.29895 2.236584 1.767767 1.767767 
C 2.236584 1.29895 2.5 0.663008 2.5 -0 
C 2.5 -0.663008 2.236584 -1.29895 1.767767 -1.767767 
C 1.29895 -2.236584 0.663008 -2.5 0 -2.5 
C -0.663008 -2.5 -1.29895 -2.236584 -1.767767 -1.767767 
C -2.236584 -1.29895 -2.5 -0.663008 -2.5 0 
C -2.5 0.663008 -2.236584 1.29895 -1.767767 1.767767 
C -1.29895 2.236584 -0.663008 2.5 0 2.5 
z
" id="C3_0_94ce109a59"/>
    </defs>
    <g clip-path="url(#p4b5801e8fa)">
     <use style="fill:#1de2ff;" x="301.268623" xlink:href="#C3_0_94ce109a59" y="127.364438"/>
    </g>
    <g clip-path="url(#p4b5801e8fa)">
     <use style="fill:#1de2ff;" x="301.946287" xlink:href="#C3_0_94ce109a59" y="129.951453"/>
    </g>
    <g clip-path="url(#p4b5801e8fa)">
     <use style="fill:#1de2ff;" x="302.613938" xlink:href="#C3_0_94ce109a59" y="81.306539"/>
    </g>
   </g>
   <g id="PathCollection_5">
    <defs>
     <path d="M 0 2.5 
C 0.663008 2.5 1.29895 2.236584 1.767767 1.767767 
C 2.236584 1.29895 2.5 0.663008 2.5 -0 
C 2.5 -0.663008 2.236584 -1.29895 1.767767 -1.767767 
C 1.29895 -2.236584 0.663008 -2.5 0 -2.5 
C -0.663008 -2.5 -1.29895 -2.236584 -1.767767 -1.767767 
C -2.236584 -1.29895 -2.5 -0.663008 -2.5 0 
C -2.5 0.663008 -2.236584 1.29895 -1.767767 1.767767 
C -1.29895 2.236584 -0.663008 2.5 0 2.5 
z
" id="C4_0_2062e818e7"/>
    </defs>
    <g clip-path="url(#p4b5801e8fa)">
     <use style="fill:#29f43d;" x="382.14668" xlink:href="#C4_0_2062e818e7" y="120.498003"/>
    </g>
    <g clip-path="url(#p4b5801e8fa)">
     <use style="fill:#29f43d;" x="374.426218" xlink:href="#C4_0_2062e818e7" y="125.668533"/>
    </g>
    <g clip-path="url(#p4b5801e8fa)">
     <use style="fill:#29f43d;" x="376.831985" xlink:href="#C4_0_2062e818e7" y="125.687548"/>
    </g>
   </g>
   <g id="PathCollection_6">
    <defs>
     <path d="M 0 2.5 
C 0.663008 2.5 1.29895 2.236584 1.767767 1.767767 
C 2.236584 1.29895 2.5 0.663008 2.5 -0 
C 2.5 -0.663008 2.236584 -1.29895 1.767767 -1.767767 
C 1.29895 -2.236584 0.663008 -2.5 0 -2.5 
C -0.663008 -2.5 -1.29895 -2.236584 -1.767767 -1.767767 
C -2.236584 -1.29895 -2.5 -0.663008 -2.5 0 
C -2.5 0.663008 -2.236584 1.29895 -1.767767 1.767767 
C -1.29895 2.236584 -0.663008 2.5 0 2.5 
z
" id="C5_0_ef85ab6284"/>
    </defs>
    <g clip-path="url(#p4b5801e8fa)">
     <use style="fill:#f42d29;" x="450.669984" xlink:href="#C5_0_ef85ab6284" y="35.279219"/>
    </g>
    <g clip-path="url(#p4b5801e8fa)">
     <use style="fill:#f42d29;" x="453.983688" xlink:href="#C5_0_ef85ab6284" y="45.732242"/>
    </g>
    <g clip-path="url(#p4b5801e8fa)">
     <use style="fill:#f42d29;" x="443.641821" xlink:href="#C5_0_ef85ab6284" y="16.088772"/>
    </g>
   </g>
  </g>
  <g id="axes_2">
   <g id="patch_5">
    <path d="M 45.634625 442.08 
L 492.034625 442.08 
L 492.034625 244.407273 
L 45.634625 244.407273 
z
" style="fill:#ffffff;"/>
   </g>
   <g id="matplotlib.axis_3">
    <g id="xtick_7">
     <g id="line2d_13">
      <g>
       <use style="fill:#262626;stroke:#262626;" x="93.523471" xlink:href="#m45c3ab618b" y="442.08"/>
      </g>
     </g>
     <g id="text_8">
      <!-- 3-gene.Tandem -->
      <g style="fill:#262626;" transform="translate(95.759908 511.5235)rotate(-90)scale(0.088 -0.088)">
       <defs>
        <path d="M 4.203125 18.890625 
L 12.984375 20.0625 
Q 14.5 12.59375 18.140625 9.296875 
Q 21.78125 6 27 6 
Q 33.203125 6 37.46875 10.296875 
Q 41.75 14.59375 41.75 20.953125 
Q 41.75 27 37.796875 30.921875 
Q 33.84375 34.859375 27.734375 34.859375 
Q 25.25 34.859375 21.53125 33.890625 
L 22.515625 41.609375 
Q 23.390625 41.5 23.921875 41.5 
Q 29.546875 41.5 34.03125 44.421875 
Q 38.53125 47.359375 38.53125 53.46875 
Q 38.53125 58.296875 35.25 61.46875 
Q 31.984375 64.65625 26.8125 64.65625 
Q 21.6875 64.65625 18.265625 61.421875 
Q 14.84375 58.203125 13.875 51.765625 
L 5.078125 53.328125 
Q 6.6875 62.15625 12.390625 67.015625 
Q 18.109375 71.875 26.609375 71.875 
Q 32.46875 71.875 37.390625 69.359375 
Q 42.328125 66.84375 44.9375 62.5 
Q 47.5625 58.15625 47.5625 53.265625 
Q 47.5625 48.640625 45.0625 44.828125 
Q 42.578125 41.015625 37.703125 38.765625 
Q 44.046875 37.3125 47.5625 32.6875 
Q 51.078125 28.078125 51.078125 21.140625 
Q 51.078125 11.765625 44.234375 5.25 
Q 37.40625 -1.265625 26.953125 -1.265625 
Q 17.53125 -1.265625 11.296875 4.34375 
Q 5.078125 9.96875 4.203125 18.890625 
z
" id="ArialMT-51"/>
        <path d="M 3.171875 21.484375 
L 3.171875 30.328125 
L 30.171875 30.328125 
L 30.171875 21.484375 
z
" id="ArialMT-45"/>
        <path d="M 25.921875 0 
L 25.921875 63.140625 
L 2.34375 63.140625 
L 2.34375 71.578125 
L 59.078125 71.578125 
L 59.078125 63.140625 
L 35.40625 63.140625 
L 35.40625 0 
z
" id="ArialMT-84"/>
        <path d="M 40.234375 0 
L 40.234375 6.546875 
Q 35.296875 -1.171875 25.734375 -1.171875 
Q 19.53125 -1.171875 14.328125 2.25 
Q 9.125 5.671875 6.265625 11.796875 
Q 3.421875 17.921875 3.421875 25.875 
Q 3.421875 33.640625 6 39.96875 
Q 8.59375 46.296875 13.765625 49.65625 
Q 18.953125 53.03125 25.34375 53.03125 
Q 30.03125 53.03125 33.6875 51.046875 
Q 37.359375 49.078125 39.65625 45.90625 
L 39.65625 71.578125 
L 48.390625 71.578125 
L 48.390625 0 
z
M 12.453125 25.875 
Q 12.453125 15.921875 16.640625 10.984375 
Q 20.84375 6.0625 26.5625 6.0625 
Q 32.328125 6.0625 36.34375 10.765625 
Q 40.375 15.484375 40.375 25.140625 
Q 40.375 35.796875 36.265625 40.765625 
Q 32.171875 45.75 26.171875 45.75 
Q 20.3125 45.75 16.375 40.96875 
Q 12.453125 36.1875 12.453125 25.875 
z
" id="ArialMT-100"/>
        <path d="M 6.59375 0 
L 6.59375 51.859375 
L 14.453125 51.859375 
L 14.453125 44.578125 
Q 16.890625 48.390625 20.9375 50.703125 
Q 25 53.03125 30.171875 53.03125 
Q 35.9375 53.03125 39.625 50.640625 
Q 43.3125 48.25 44.828125 43.953125 
Q 50.984375 53.03125 60.84375 53.03125 
Q 68.5625 53.03125 72.703125 48.75 
Q 76.859375 44.484375 76.859375 35.59375 
L 76.859375 0 
L 68.109375 0 
L 68.109375 32.671875 
Q 68.109375 37.9375 67.25 40.25 
Q 66.40625 42.578125 64.15625 43.984375 
Q 61.921875 45.40625 58.890625 45.40625 
Q 53.421875 45.40625 49.796875 41.765625 
Q 46.1875 38.140625 46.1875 30.125 
L 46.1875 0 
L 37.40625 0 
L 37.40625 33.6875 
Q 37.40625 39.546875 35.25 42.46875 
Q 33.109375 45.40625 28.21875 45.40625 
Q 24.515625 45.40625 21.359375 43.453125 
Q 18.21875 41.5 16.796875 37.734375 
Q 15.375 33.984375 15.375 26.90625 
L 15.375 0 
z
" id="ArialMT-109"/>
       </defs>
       <use xlink:href="#ArialMT-51"/>
       <use x="55.615234" xlink:href="#ArialMT-45"/>
       <use x="88.916016" xlink:href="#ArialMT-103"/>
       <use x="144.53125" xlink:href="#ArialMT-101"/>
       <use x="200.146484" xlink:href="#ArialMT-110"/>
       <use x="255.761719" xlink:href="#ArialMT-101"/>
       <use x="311.376953" xlink:href="#ArialMT-46"/>
       <use x="339.160156" xlink:href="#ArialMT-84"/>
       <use x="389.119141" xlink:href="#ArialMT-97"/>
       <use x="444.734375" xlink:href="#ArialMT-110"/>
       <use x="500.349609" xlink:href="#ArialMT-100"/>
       <use x="555.964844" xlink:href="#ArialMT-101"/>
       <use x="611.580078" xlink:href="#ArialMT-109"/>
      </g>
     </g>
    </g>
    <g id="xtick_8">
     <g id="line2d_14">
      <g>
       <use style="fill:#262626;stroke:#262626;" x="164.218844" xlink:href="#m45c3ab618b" y="442.08"/>
      </g>
     </g>
     <g id="text_9">
      <!-- 2-gene.Convergent -->
      <g style="fill:#262626;" transform="translate(166.495844 525.714875)rotate(-90)scale(0.088 -0.088)">
       <defs>
        <path d="M 58.796875 25.09375 
L 68.265625 22.703125 
Q 65.28125 11.03125 57.546875 4.90625 
Q 49.8125 -1.21875 38.625 -1.21875 
Q 27.046875 -1.21875 19.796875 3.484375 
Q 12.546875 8.203125 8.765625 17.140625 
Q 4.984375 26.078125 4.984375 36.328125 
Q 4.984375 47.515625 9.25 55.828125 
Q 13.53125 64.15625 21.40625 68.46875 
Q 29.296875 72.796875 38.765625 72.796875 
Q 49.515625 72.796875 56.828125 67.328125 
Q 64.15625 61.859375 67.046875 51.953125 
L 57.71875 49.75 
Q 55.21875 57.5625 50.484375 61.125 
Q 45.75 64.703125 38.578125 64.703125 
Q 30.328125 64.703125 24.78125 60.734375 
Q 19.234375 56.78125 16.984375 50.109375 
Q 14.75 43.453125 14.75 36.375 
Q 14.75 27.25 17.40625 20.4375 
Q 20.0625 13.625 25.671875 10.25 
Q 31.296875 6.890625 37.84375 6.890625 
Q 45.796875 6.890625 51.3125 11.46875 
Q 56.84375 16.0625 58.796875 25.09375 
z
" id="ArialMT-67"/>
        <path d="M 21 0 
L 1.265625 51.859375 
L 10.546875 51.859375 
L 21.6875 20.796875 
Q 23.484375 15.765625 25 10.359375 
Q 26.171875 14.453125 28.265625 20.21875 
L 39.796875 51.859375 
L 48.828125 51.859375 
L 29.203125 0 
z
" id="ArialMT-118"/>
       </defs>
       <use xlink:href="#ArialMT-50"/>
       <use x="55.615234" xlink:href="#ArialMT-45"/>
       <use x="88.916016" xlink:href="#ArialMT-103"/>
       <use x="144.53125" xlink:href="#ArialMT-101"/>
       <use x="200.146484" xlink:href="#ArialMT-110"/>
       <use x="255.761719" xlink:href="#ArialMT-101"/>
       <use x="311.376953" xlink:href="#ArialMT-46"/>
       <use x="339.160156" xlink:href="#ArialMT-67"/>
       <use x="411.376953" xlink:href="#ArialMT-111"/>
       <use x="466.992188" xlink:href="#ArialMT-110"/>
       <use x="522.607422" xlink:href="#ArialMT-118"/>
       <use x="572.607422" xlink:href="#ArialMT-101"/>
       <use x="628.222656" xlink:href="#ArialMT-114"/>
       <use x="661.523438" xlink:href="#ArialMT-103"/>
       <use x="717.138672" xlink:href="#ArialMT-101"/>
       <use x="772.753906" xlink:href="#ArialMT-110"/>
       <use x="828.369141" xlink:href="#ArialMT-116"/>
      </g>
     </g>
    </g>
    <g id="xtick_9">
     <g id="line2d_15">
      <g>
       <use style="fill:#262626;stroke:#262626;" x="234.914217" xlink:href="#m45c3ab618b" y="442.08"/>
      </g>
     </g>
     <g id="text_10">
      <!-- 3-gene.Convergent -->
      <g style="fill:#262626;" transform="translate(237.191217 525.714875)rotate(-90)scale(0.088 -0.088)">
       <use xlink:href="#ArialMT-51"/>
       <use x="55.615234" xlink:href="#ArialMT-45"/>
       <use x="88.916016" xlink:href="#ArialMT-103"/>
       <use x="144.53125" xlink:href="#ArialMT-101"/>
       <use x="200.146484" xlink:href="#ArialMT-110"/>
       <use x="255.761719" xlink:href="#ArialMT-101"/>
       <use x="311.376953" xlink:href="#ArialMT-46"/>
       <use x="339.160156" xlink:href="#ArialMT-67"/>
       <use x="411.376953" xlink:href="#ArialMT-111"/>
       <use x="466.992188" xlink:href="#ArialMT-110"/>
       <use x="522.607422" xlink:href="#ArialMT-118"/>
       <use x="572.607422" xlink:href="#ArialMT-101"/>
       <use x="628.222656" xlink:href="#ArialMT-114"/>
       <use x="661.523438" xlink:href="#ArialMT-103"/>
       <use x="717.138672" xlink:href="#ArialMT-101"/>
       <use x="772.753906" xlink:href="#ArialMT-110"/>
       <use x="828.369141" xlink:href="#ArialMT-116"/>
      </g>
     </g>
    </g>
    <g id="xtick_10">
     <g id="line2d_16">
      <g>
       <use style="fill:#262626;stroke:#262626;" x="305.609589" xlink:href="#m45c3ab618b" y="442.08"/>
      </g>
     </g>
     <g id="text_11">
      <!-- 3-gene.Divergent -->
      <g style="fill:#262626;" transform="translate(307.846027 517.882875)rotate(-90)scale(0.088 -0.088)">
       <defs>
        <path d="M 7.71875 0 
L 7.71875 71.578125 
L 32.375 71.578125 
Q 40.71875 71.578125 45.125 70.5625 
Q 51.265625 69.140625 55.609375 65.4375 
Q 61.28125 60.640625 64.078125 53.1875 
Q 66.890625 45.75 66.890625 36.1875 
Q 66.890625 28.03125 64.984375 21.734375 
Q 63.09375 15.4375 60.109375 11.296875 
Q 57.125 7.171875 53.578125 4.796875 
Q 50.046875 2.4375 45.046875 1.21875 
Q 40.046875 0 33.546875 0 
z
M 17.1875 8.453125 
L 32.46875 8.453125 
Q 39.546875 8.453125 43.578125 9.765625 
Q 47.609375 11.078125 50 13.484375 
Q 53.375 16.84375 55.25 22.53125 
Q 57.125 28.21875 57.125 36.328125 
Q 57.125 47.5625 53.4375 53.59375 
Q 49.75 59.625 44.484375 61.671875 
Q 40.671875 63.140625 32.234375 63.140625 
L 17.1875 63.140625 
z
" id="ArialMT-68"/>
       </defs>
       <use xlink:href="#ArialMT-51"/>
       <use x="55.615234" xlink:href="#ArialMT-45"/>
       <use x="88.916016" xlink:href="#ArialMT-103"/>
       <use x="144.53125" xlink:href="#ArialMT-101"/>
       <use x="200.146484" xlink:href="#ArialMT-110"/>
       <use x="255.761719" xlink:href="#ArialMT-101"/>
       <use x="311.376953" xlink:href="#ArialMT-46"/>
       <use x="339.160156" xlink:href="#ArialMT-68"/>
       <use x="411.376953" xlink:href="#ArialMT-105"/>
       <use x="433.59375" xlink:href="#ArialMT-118"/>
       <use x="483.59375" xlink:href="#ArialMT-101"/>
       <use x="539.208984" xlink:href="#ArialMT-114"/>
       <use x="572.509766" xlink:href="#ArialMT-103"/>
       <use x="628.125" xlink:href="#ArialMT-101"/>
       <use x="683.740234" xlink:href="#ArialMT-110"/>
       <use x="739.355469" xlink:href="#ArialMT-116"/>
      </g>
     </g>
    </g>
    <g id="xtick_11">
     <g id="line2d_17">
      <g>
       <use style="fill:#262626;stroke:#262626;" x="376.304962" xlink:href="#m45c3ab618b" y="442.08"/>
      </g>
     </g>
     <g id="text_12">
      <!-- EGFP -->
      <g style="fill:#262626;" transform="translate(378.5799 474.339375)rotate(-90)scale(0.088 -0.088)">
       <defs>
        <path d="M 41.21875 28.078125 
L 41.21875 36.46875 
L 71.53125 36.53125 
L 71.53125 9.96875 
Q 64.546875 4.390625 57.125 1.578125 
Q 49.703125 -1.21875 41.890625 -1.21875 
Q 31.34375 -1.21875 22.71875 3.296875 
Q 14.109375 7.8125 9.71875 16.359375 
Q 5.328125 24.90625 5.328125 35.453125 
Q 5.328125 45.90625 9.6875 54.953125 
Q 14.0625 64.015625 22.265625 68.40625 
Q 30.46875 72.796875 41.15625 72.796875 
Q 48.921875 72.796875 55.1875 70.28125 
Q 61.46875 67.78125 65.03125 63.28125 
Q 68.609375 58.796875 70.453125 51.5625 
L 61.921875 49.21875 
Q 60.296875 54.6875 57.90625 57.8125 
Q 55.515625 60.9375 51.0625 62.8125 
Q 46.625 64.703125 41.21875 64.703125 
Q 34.71875 64.703125 29.984375 62.71875 
Q 25.25 60.75 22.34375 57.515625 
Q 19.4375 54.296875 17.828125 50.4375 
Q 15.09375 43.796875 15.09375 36.03125 
Q 15.09375 26.46875 18.390625 20.015625 
Q 21.6875 13.578125 27.984375 10.453125 
Q 34.28125 7.328125 41.359375 7.328125 
Q 47.515625 7.328125 53.375 9.6875 
Q 59.234375 12.0625 62.25 14.75 
L 62.25 28.078125 
z
" id="ArialMT-71"/>
        <path d="M 8.203125 0 
L 8.203125 71.578125 
L 56.5 71.578125 
L 56.5 63.140625 
L 17.671875 63.140625 
L 17.671875 40.96875 
L 51.265625 40.96875 
L 51.265625 32.515625 
L 17.671875 32.515625 
L 17.671875 0 
z
" id="ArialMT-70"/>
        <path d="M 7.71875 0 
L 7.71875 71.578125 
L 34.71875 71.578125 
Q 41.84375 71.578125 45.609375 70.90625 
Q 50.875 70.015625 54.4375 67.546875 
Q 58.015625 65.09375 60.1875 60.640625 
Q 62.359375 56.203125 62.359375 50.875 
Q 62.359375 41.75 56.546875 35.421875 
Q 50.734375 29.109375 35.546875 29.109375 
L 17.1875 29.109375 
L 17.1875 0 
z
M 17.1875 37.546875 
L 35.6875 37.546875 
Q 44.875 37.546875 48.734375 40.96875 
Q 52.59375 44.390625 52.59375 50.59375 
Q 52.59375 55.078125 50.3125 58.265625 
Q 48.046875 61.46875 44.34375 62.5 
Q 41.9375 63.140625 35.5 63.140625 
L 17.1875 63.140625 
z
" id="ArialMT-80"/>
       </defs>
       <use xlink:href="#ArialMT-69"/>
       <use x="66.699219" xlink:href="#ArialMT-71"/>
       <use x="144.482422" xlink:href="#ArialMT-70"/>
       <use x="205.566406" xlink:href="#ArialMT-80"/>
      </g>
     </g>
    </g>
    <g id="xtick_12">
     <g id="line2d_18">
      <g>
       <use style="fill:#262626;stroke:#262626;" x="447.000335" xlink:href="#m45c3ab618b" y="442.08"/>
      </g>
     </g>
     <g id="text_13">
      <!-- mRuby2 -->
      <g style="fill:#262626;" transform="translate(449.236773 483.14625)rotate(-90)scale(0.088 -0.088)">
       <defs>
        <path d="M 7.859375 0 
L 7.859375 71.578125 
L 39.59375 71.578125 
Q 49.171875 71.578125 54.140625 69.640625 
Q 59.125 67.71875 62.109375 62.828125 
Q 65.09375 57.953125 65.09375 52.046875 
Q 65.09375 44.4375 60.15625 39.203125 
Q 55.21875 33.984375 44.921875 32.5625 
Q 48.6875 30.765625 50.640625 29 
Q 54.78125 25.203125 58.5 19.484375 
L 70.953125 0 
L 59.03125 0 
L 49.5625 14.890625 
Q 45.40625 21.34375 42.71875 24.75 
Q 40.046875 28.171875 37.921875 29.53125 
Q 35.796875 30.90625 33.59375 31.453125 
Q 31.984375 31.78125 28.328125 31.78125 
L 17.328125 31.78125 
L 17.328125 0 
z
M 17.328125 39.984375 
L 37.703125 39.984375 
Q 44.1875 39.984375 47.84375 41.328125 
Q 51.515625 42.671875 53.421875 45.625 
Q 55.328125 48.578125 55.328125 52.046875 
Q 55.328125 57.125 51.640625 60.390625 
Q 47.953125 63.671875 39.984375 63.671875 
L 17.328125 63.671875 
z
" id="ArialMT-82"/>
        <path d="M 40.578125 0 
L 40.578125 7.625 
Q 34.515625 -1.171875 24.125 -1.171875 
Q 19.53125 -1.171875 15.546875 0.578125 
Q 11.578125 2.34375 9.640625 5 
Q 7.71875 7.671875 6.9375 11.53125 
Q 6.390625 14.109375 6.390625 19.734375 
L 6.390625 51.859375 
L 15.1875 51.859375 
L 15.1875 23.09375 
Q 15.1875 16.21875 15.71875 13.8125 
Q 16.546875 10.359375 19.234375 8.375 
Q 21.921875 6.390625 25.875 6.390625 
Q 29.828125 6.390625 33.296875 8.421875 
Q 36.765625 10.453125 38.203125 13.9375 
Q 39.65625 17.4375 39.65625 24.078125 
L 39.65625 51.859375 
L 48.4375 51.859375 
L 48.4375 0 
z
" id="ArialMT-117"/>
        <path d="M 14.703125 0 
L 6.546875 0 
L 6.546875 71.578125 
L 15.328125 71.578125 
L 15.328125 46.046875 
Q 20.90625 53.03125 29.546875 53.03125 
Q 34.328125 53.03125 38.59375 51.09375 
Q 42.875 49.171875 45.625 45.671875 
Q 48.390625 42.1875 49.953125 37.25 
Q 51.515625 32.328125 51.515625 26.703125 
Q 51.515625 13.375 44.921875 6.09375 
Q 38.328125 -1.171875 29.109375 -1.171875 
Q 19.921875 -1.171875 14.703125 6.5 
z
M 14.59375 26.3125 
Q 14.59375 17 17.140625 12.84375 
Q 21.296875 6.0625 28.375 6.0625 
Q 34.125 6.0625 38.328125 11.0625 
Q 42.53125 16.0625 42.53125 25.984375 
Q 42.53125 36.140625 38.5 40.96875 
Q 34.46875 45.796875 28.765625 45.796875 
Q 23 45.796875 18.796875 40.796875 
Q 14.59375 35.796875 14.59375 26.3125 
z
" id="ArialMT-98"/>
       </defs>
       <use xlink:href="#ArialMT-109"/>
       <use x="83.300781" xlink:href="#ArialMT-82"/>
       <use x="155.517578" xlink:href="#ArialMT-117"/>
       <use x="211.132812" xlink:href="#ArialMT-98"/>
       <use x="266.748047" xlink:href="#ArialMT-121"/>
       <use x="316.748047" xlink:href="#ArialMT-50"/>
      </g>
     </g>
    </g>
    <g id="text_14">
     <!-- condition -->
     <g style="fill:#262626;" transform="translate(249.621875 536.586375)scale(0.096 -0.096)">
      <use xlink:href="#ArialMT-99"/>
      <use x="50" xlink:href="#ArialMT-111"/>
      <use x="105.615234" xlink:href="#ArialMT-110"/>
      <use x="161.230469" xlink:href="#ArialMT-100"/>
      <use x="216.845703" xlink:href="#ArialMT-105"/>
      <use x="239.0625" xlink:href="#ArialMT-116"/>
      <use x="266.845703" xlink:href="#ArialMT-105"/>
      <use x="289.0625" xlink:href="#ArialMT-111"/>
      <use x="344.677734" xlink:href="#ArialMT-110"/>
     </g>
    </g>
   </g>
   <g id="matplotlib.axis_4">
    <g id="ytick_7">
     <g id="line2d_19">
      <g>
       <use style="fill:#262626;stroke:#262626;" x="45.634625" xlink:href="#m12057cf5ae" y="426.505616"/>
      </g>
     </g>
     <g id="text_15">
      <!-- 0 -->
      <g style="fill:#262626;" transform="translate(35.585625 428.249804)rotate(-90)scale(0.088 -0.088)">
       <use xlink:href="#ArialMT-48"/>
      </g>
     </g>
    </g>
    <g id="ytick_8">
     <g id="line2d_20">
      <g>
       <use style="fill:#262626;stroke:#262626;" x="45.634625" xlink:href="#m12057cf5ae" y="398.532125"/>
      </g>
     </g>
     <g id="text_16">
      <!-- 1 -->
      <g style="fill:#262626;" transform="translate(35.585625 400.276313)rotate(-90)scale(0.088 -0.088)">
       <use xlink:href="#ArialMT-49"/>
      </g>
     </g>
    </g>
    <g id="ytick_9">
     <g id="line2d_21">
      <g>
       <use style="fill:#262626;stroke:#262626;" x="45.634625" xlink:href="#m12057cf5ae" y="370.558635"/>
      </g>
     </g>
     <g id="text_17">
      <!-- 2 -->
      <g style="fill:#262626;" transform="translate(35.585625 372.302822)rotate(-90)scale(0.088 -0.088)">
       <use xlink:href="#ArialMT-50"/>
      </g>
     </g>
    </g>
    <g id="ytick_10">
     <g id="line2d_22">
      <g>
       <use style="fill:#262626;stroke:#262626;" x="45.634625" xlink:href="#m12057cf5ae" y="342.585144"/>
      </g>
     </g>
     <g id="text_18">
      <!-- 3 -->
      <g style="fill:#262626;" transform="translate(35.585625 344.329331)rotate(-90)scale(0.088 -0.088)">
       <use xlink:href="#ArialMT-51"/>
      </g>
     </g>
    </g>
    <g id="ytick_11">
     <g id="line2d_23">
      <g>
       <use style="fill:#262626;stroke:#262626;" x="45.634625" xlink:href="#m12057cf5ae" y="314.611653"/>
      </g>
     </g>
     <g id="text_19">
      <!-- 4 -->
      <g style="fill:#262626;" transform="translate(35.585625 316.35584)rotate(-90)scale(0.088 -0.088)">
       <defs>
        <path d="M 32.328125 0 
L 32.328125 17.140625 
L 1.265625 17.140625 
L 1.265625 25.203125 
L 33.9375 71.578125 
L 41.109375 71.578125 
L 41.109375 25.203125 
L 50.78125 25.203125 
L 50.78125 17.140625 
L 41.109375 17.140625 
L 41.109375 0 
z
M 32.328125 25.203125 
L 32.328125 57.46875 
L 9.90625 25.203125 
z
" id="ArialMT-52"/>
       </defs>
       <use xlink:href="#ArialMT-52"/>
      </g>
     </g>
    </g>
    <g id="ytick_12">
     <g id="line2d_24">
      <g>
       <use style="fill:#262626;stroke:#262626;" x="45.634625" xlink:href="#m12057cf5ae" y="286.638162"/>
      </g>
     </g>
     <g id="text_20">
      <!-- 5 -->
      <g style="fill:#262626;" transform="translate(35.585625 288.38235)rotate(-90)scale(0.088 -0.088)">
       <use xlink:href="#ArialMT-53"/>
      </g>
     </g>
    </g>
    <g id="text_21">
     <!-- log Integration Marker -->
     <g style="fill:#262626;" transform="translate(14.1885 389.929636)rotate(-90)scale(0.096 -0.096)">
      <defs>
       <path d="M 6.390625 0 
L 6.390625 71.578125 
L 15.1875 71.578125 
L 15.1875 0 
z
" id="ArialMT-108"/>
       <path d="M 7.421875 0 
L 7.421875 71.578125 
L 21.6875 71.578125 
L 38.625 20.90625 
Q 40.96875 13.8125 42.046875 10.296875 
Q 43.265625 14.203125 45.84375 21.78125 
L 62.984375 71.578125 
L 75.734375 71.578125 
L 75.734375 0 
L 66.609375 0 
L 66.609375 59.90625 
L 45.796875 0 
L 37.25 0 
L 16.546875 60.9375 
L 16.546875 0 
z
" id="ArialMT-77"/>
       <path d="M 6.640625 0 
L 6.640625 71.578125 
L 15.4375 71.578125 
L 15.4375 30.765625 
L 36.234375 51.859375 
L 47.609375 51.859375 
L 27.78125 32.625 
L 49.609375 0 
L 38.765625 0 
L 21.625 26.515625 
L 15.4375 20.5625 
L 15.4375 0 
z
" id="ArialMT-107"/>
      </defs>
      <use xlink:href="#ArialMT-108"/>
      <use x="22.216797" xlink:href="#ArialMT-111"/>
      <use x="77.832031" xlink:href="#ArialMT-103"/>
      <use x="133.447266" xlink:href="#ArialMT-32"/>
      <use x="161.230469" xlink:href="#ArialMT-73"/>
      <use x="189.013672" xlink:href="#ArialMT-110"/>
      <use x="244.628906" xlink:href="#ArialMT-116"/>
      <use x="272.412109" xlink:href="#ArialMT-101"/>
      <use x="328.027344" xlink:href="#ArialMT-103"/>
      <use x="383.642578" xlink:href="#ArialMT-114"/>
      <use x="416.943359" xlink:href="#ArialMT-97"/>
      <use x="472.558594" xlink:href="#ArialMT-116"/>
      <use x="500.341797" xlink:href="#ArialMT-105"/>
      <use x="522.558594" xlink:href="#ArialMT-111"/>
      <use x="578.173828" xlink:href="#ArialMT-110"/>
      <use x="633.789062" xlink:href="#ArialMT-32"/>
      <use x="661.572266" xlink:href="#ArialMT-77"/>
      <use x="744.873047" xlink:href="#ArialMT-97"/>
      <use x="800.488281" xlink:href="#ArialMT-114"/>
      <use x="833.789062" xlink:href="#ArialMT-107"/>
      <use x="883.789062" xlink:href="#ArialMT-101"/>
      <use x="939.404297" xlink:href="#ArialMT-114"/>
     </g>
    </g>
   </g>
   <g id="PolyCollection_1">
    <defs>
     <path d="M 93.718334 -115.292933 
L 93.328607 -115.292933 
L 92.876129 -116.725704 
L 92.271551 -118.158475 
L 92.113734 -119.591246 
L 92.595164 -121.024017 
L 93.129382 -122.456788 
L 93.222838 -123.889559 
L 92.820735 -125.32233 
L 92.252798 -126.755101 
L 92.073766 -128.187872 
L 92.189159 -129.620643 
L 91.983996 -131.053414 
L 91.569386 -132.486185 
L 91.350251 -133.918956 
L 91.15456 -135.351727 
L 90.864914 -136.784497 
L 90.549687 -138.217268 
L 90.181657 -139.650039 
L 89.755468 -141.08281 
L 89.297311 -142.515581 
L 88.81423 -143.948352 
L 88.25417 -145.381123 
L 87.574293 -146.813894 
L 86.783335 -148.246665 
L 85.854597 -149.679436 
L 84.753266 -151.112207 
L 83.548357 -152.544978 
L 82.346434 -153.977749 
L 81.132843 -155.41052 
L 79.774368 -156.843291 
L 78.179554 -158.276062 
L 76.371352 -159.708833 
L 74.463438 -161.141604 
L 72.57055 -162.574375 
L 70.686264 -164.007145 
L 68.856393 -165.439916 
L 67.318324 -166.872687 
L 66.292562 -168.305458 
L 65.925534 -169.738229 
L 66.365692 -171.171 
L 67.79777 -172.603771 
L 70.398386 -174.036542 
L 74.053466 -175.469313 
L 78.273975 -176.902084 
L 82.462604 -178.334855 
L 86.138196 -179.767626 
L 89.012095 -181.200397 
L 91.010515 -182.633168 
L 92.224927 -184.065939 
L 92.857395 -185.49871 
L 93.148014 -186.931481 
L 93.276505 -188.364252 
L 93.334028 -189.797022 
L 93.350384 -191.229793 
L 93.340228 -192.662564 
L 93.329419 -194.095335 
L 93.337146 -195.528106 
L 93.356368 -196.960877 
L 93.364476 -198.393648 
L 93.349069 -199.826419 
L 93.320421 -201.25919 
L 93.293665 -202.691961 
L 93.277366 -204.124732 
L 93.277705 -205.557503 
L 93.286743 -206.990274 
L 93.288926 -208.423045 
L 93.281162 -209.855816 
L 93.262267 -211.288587 
L 93.219692 -212.721358 
L 93.151208 -214.154129 
L 93.084468 -215.5869 
L 93.046702 -217.01967 
L 93.026361 -218.452441 
L 93.000094 -219.885212 
L 92.965091 -221.317983 
L 92.926316 -222.750754 
L 92.894375 -224.183525 
L 92.875064 -225.616296 
L 92.855925 -227.049067 
L 92.834441 -228.481838 
L 92.844062 -229.914609 
L 92.915216 -231.34738 
L 93.014095 -232.780151 
L 93.086959 -234.212922 
L 93.133193 -235.645693 
L 93.175692 -237.078464 
L 93.221181 -238.511235 
L 93.266906 -239.944006 
L 93.307478 -241.376777 
L 93.342359 -242.809548 
L 93.377034 -244.242318 
L 93.415729 -245.675089 
L 93.455303 -247.10786 
L 93.485334 -248.540631 
L 93.499704 -249.973402 
L 93.504101 -251.406173 
L 93.507868 -252.838944 
L 93.514011 -254.271715 
L 93.519636 -255.704486 
L 93.522489 -257.137257 
L 93.524452 -257.137257 
L 93.524452 -257.137257 
L 93.527306 -255.704486 
L 93.532931 -254.271715 
L 93.539074 -252.838944 
L 93.54284 -251.406173 
L 93.547237 -249.973402 
L 93.561607 -248.540631 
L 93.591638 -247.10786 
L 93.631212 -245.675089 
L 93.669907 -244.242318 
L 93.704582 -242.809548 
L 93.739463 -241.376777 
L 93.780035 -239.944006 
L 93.825761 -238.511235 
L 93.871249 -237.078464 
L 93.913748 -235.645693 
L 93.959983 -234.212922 
L 94.032847 -232.780151 
L 94.131726 -231.34738 
L 94.202879 -229.914609 
L 94.2125 -228.481838 
L 94.191016 -227.049067 
L 94.171877 -225.616296 
L 94.152566 -224.183525 
L 94.120626 -222.750754 
L 94.08185 -221.317983 
L 94.046847 -219.885212 
L 94.020581 -218.452441 
L 94.00024 -217.01967 
L 93.962473 -215.5869 
L 93.895733 -214.154129 
L 93.827249 -212.721358 
L 93.784674 -211.288587 
L 93.765779 -209.855816 
L 93.758015 -208.423045 
L 93.760198 -206.990274 
L 93.769236 -205.557503 
L 93.769576 -204.124732 
L 93.753276 -202.691961 
L 93.72652 -201.25919 
L 93.697872 -199.826419 
L 93.682465 -198.393648 
L 93.690574 -196.960877 
L 93.709796 -195.528106 
L 93.717522 -194.095335 
L 93.706713 -192.662564 
L 93.696557 -191.229793 
L 93.712914 -189.797022 
L 93.770436 -188.364252 
L 93.898927 -186.931481 
L 94.189546 -185.49871 
L 94.822014 -184.065939 
L 96.036426 -182.633168 
L 98.034846 -181.200397 
L 100.908745 -179.767626 
L 104.584337 -178.334855 
L 108.772966 -176.902084 
L 112.993475 -175.469313 
L 116.648555 -174.036542 
L 119.249172 -172.603771 
L 120.68125 -171.171 
L 121.121407 -169.738229 
L 120.754379 -168.305458 
L 119.728617 -166.872687 
L 118.190548 -165.439916 
L 116.360677 -164.007145 
L 114.476391 -162.574375 
L 112.583503 -161.141604 
L 110.675589 -159.708833 
L 108.867388 -158.276062 
L 107.272573 -156.843291 
L 105.914098 -155.41052 
L 104.700508 -153.977749 
L 103.498584 -152.544978 
L 102.293675 -151.112207 
L 101.192344 -149.679436 
L 100.263606 -148.246665 
L 99.472648 -146.813894 
L 98.792772 -145.381123 
L 98.232711 -143.948352 
L 97.74963 -142.515581 
L 97.291473 -141.08281 
L 96.865284 -139.650039 
L 96.497254 -138.217268 
L 96.182028 -136.784497 
L 95.892381 -135.351727 
L 95.696691 -133.918956 
L 95.477555 -132.486185 
L 95.062945 -131.053414 
L 94.857782 -129.620643 
L 94.973175 -128.187872 
L 94.794143 -126.755101 
L 94.226206 -125.32233 
L 93.824103 -123.889559 
L 93.917559 -122.456788 
L 94.451777 -121.024017 
L 94.933207 -119.591246 
L 94.77539 -118.158475 
L 94.170812 -116.725704 
L 93.718334 -115.292933 
z
" id="m1e79cb9b9f" style="stroke:#474747;stroke-width:1.2;"/>
    </defs>
    <g clip-path="url(#pc9b81d6650)">
     <use style="fill:#dfb976;stroke:#474747;stroke-width:1.2;" x="0" xlink:href="#m1e79cb9b9f" y="545.694375"/>
    </g>
   </g>
   <g id="PolyCollection_2">
    <defs>
     <path d="M 164.391416 -114.804692 
L 164.046271 -114.804692 
L 163.710093 -116.217181 
L 163.228639 -117.62967 
L 162.946011 -119.042159 
L 163.134157 -120.454648 
L 163.578503 -121.867137 
L 163.83753 -123.279626 
L 163.704844 -124.692115 
L 163.317499 -126.104604 
L 163.021771 -127.517093 
L 162.976971 -128.929582 
L 162.938588 -130.342071 
L 162.716392 -131.75456 
L 162.449253 -133.16705 
L 162.226602 -134.579539 
L 161.98097 -135.992028 
L 161.702818 -137.404517 
L 161.413605 -138.817006 
L 161.097857 -140.229495 
L 160.719186 -141.641984 
L 160.244588 -143.054473 
L 159.67875 -144.466962 
L 159.057642 -145.879451 
L 158.403253 -147.29194 
L 157.700009 -148.704429 
L 156.901899 -150.116919 
L 155.957323 -151.529408 
L 154.846536 -152.941897 
L 153.604347 -154.354386 
L 152.297398 -155.766875 
L 150.952377 -157.179364 
L 149.518246 -158.591853 
L 147.941102 -160.004342 
L 146.244598 -161.416831 
L 144.500544 -162.82932 
L 142.766627 -164.241809 
L 141.106512 -165.654298 
L 139.653441 -167.066788 
L 138.604937 -168.479277 
L 138.175705 -169.891766 
L 138.585278 -171.304255 
L 139.995536 -172.716744 
L 142.37418 -174.129233 
L 145.475182 -175.541722 
L 148.966883 -176.954211 
L 152.522208 -178.3667 
L 155.827581 -179.779189 
L 158.604582 -181.191678 
L 160.68177 -182.604167 
L 162.054065 -184.016656 
L 162.859029 -185.429146 
L 163.287114 -186.841635 
L 163.499414 -188.254124 
L 163.59824 -189.666613 
L 163.641913 -191.079102 
L 163.666923 -192.491591 
L 163.690644 -193.90408 
L 163.712753 -195.316569 
L 163.734992 -196.729058 
L 163.766388 -198.141547 
L 163.80287 -199.554036 
L 163.825101 -200.966525 
L 163.817876 -202.379015 
L 163.779242 -203.791504 
L 163.715954 -205.203993 
L 163.633236 -206.616482 
L 163.53008 -208.028971 
L 163.405537 -209.44146 
L 163.255583 -210.853949 
L 163.059842 -212.266438 
L 162.795834 -213.678927 
L 162.472213 -215.091416 
L 162.132007 -216.503905 
L 161.830044 -217.916394 
L 161.62698 -219.328884 
L 161.587309 -220.741373 
L 161.731989 -222.153862 
L 162.002586 -223.566351 
L 162.316708 -224.97884 
L 162.634751 -226.391329 
L 162.94894 -227.803818 
L 163.245461 -229.216307 
L 163.500485 -230.628796 
L 163.701155 -232.041285 
L 163.851527 -233.453774 
L 163.95735 -234.866263 
L 164.024043 -236.278753 
L 164.064463 -237.691242 
L 164.093999 -239.103731 
L 164.120812 -240.51622 
L 164.145018 -241.928709 
L 164.164826 -243.341198 
L 164.180297 -244.753687 
L 164.192226 -246.166176 
L 164.200676 -247.578665 
L 164.205966 -248.991154 
L 164.209715 -250.403643 
L 164.213273 -251.816132 
L 164.216288 -253.228621 
L 164.218023 -254.641111 
L 164.219664 -254.641111 
L 164.219664 -254.641111 
L 164.2214 -253.228621 
L 164.224414 -251.816132 
L 164.227972 -250.403643 
L 164.231721 -248.991154 
L 164.237012 -247.578665 
L 164.245461 -246.166176 
L 164.257391 -244.753687 
L 164.272861 -243.341198 
L 164.29267 -241.928709 
L 164.316875 -240.51622 
L 164.343688 -239.103731 
L 164.373224 -237.691242 
L 164.413644 -236.278753 
L 164.480337 -234.866263 
L 164.586161 -233.453774 
L 164.736533 -232.041285 
L 164.937202 -230.628796 
L 165.192226 -229.216307 
L 165.488747 -227.803818 
L 165.802936 -226.391329 
L 166.120979 -224.97884 
L 166.435101 -223.566351 
L 166.705698 -222.153862 
L 166.850378 -220.741373 
L 166.810707 -219.328884 
L 166.607643 -217.916394 
L 166.305681 -216.503905 
L 165.965474 -215.091416 
L 165.641853 -213.678927 
L 165.377845 -212.266438 
L 165.182104 -210.853949 
L 165.03215 -209.44146 
L 164.907607 -208.028971 
L 164.804451 -206.616482 
L 164.721733 -205.203993 
L 164.658445 -203.791504 
L 164.619811 -202.379015 
L 164.612586 -200.966525 
L 164.634817 -199.554036 
L 164.671299 -198.141547 
L 164.702695 -196.729058 
L 164.724934 -195.316569 
L 164.747044 -193.90408 
L 164.770764 -192.491591 
L 164.795774 -191.079102 
L 164.839447 -189.666613 
L 164.938273 -188.254124 
L 165.150573 -186.841635 
L 165.578658 -185.429146 
L 166.383622 -184.016656 
L 167.755917 -182.604167 
L 169.833105 -181.191678 
L 172.610106 -179.779189 
L 175.915479 -178.3667 
L 179.470804 -176.954211 
L 182.962505 -175.541722 
L 186.063507 -174.129233 
L 188.442151 -172.716744 
L 189.852409 -171.304255 
L 190.261982 -169.891766 
L 189.83275 -168.479277 
L 188.784246 -167.066788 
L 187.331175 -165.654298 
L 185.67106 -164.241809 
L 183.937143 -162.82932 
L 182.193089 -161.416831 
L 180.496585 -160.004342 
L 178.919441 -158.591853 
L 177.48531 -157.179364 
L 176.140289 -155.766875 
L 174.83334 -154.354386 
L 173.591151 -152.941897 
L 172.480364 -151.529408 
L 171.535788 -150.116919 
L 170.737678 -148.704429 
L 170.034434 -147.29194 
L 169.380045 -145.879451 
L 168.758937 -144.466962 
L 168.1931 -143.054473 
L 167.718501 -141.641984 
L 167.33983 -140.229495 
L 167.024082 -138.817006 
L 166.734869 -137.404517 
L 166.456717 -135.992028 
L 166.211085 -134.579539 
L 165.988434 -133.16705 
L 165.721295 -131.75456 
L 165.499099 -130.342071 
L 165.460716 -128.929582 
L 165.415916 -127.517093 
L 165.120189 -126.104604 
L 164.732843 -124.692115 
L 164.600157 -123.279626 
L 164.859184 -121.867137 
L 165.303531 -120.454648 
L 165.491676 -119.042159 
L 165.209048 -117.62967 
L 164.727594 -116.217181 
L 164.391416 -114.804692 
z
" id="mfd80e66979" style="stroke:#474747;stroke-width:1.2;"/>
    </defs>
    <g clip-path="url(#pc9b81d6650)">
     <use style="fill:#9e4e4e;stroke:#474747;stroke-width:1.2;" x="0" xlink:href="#mfd80e66979" y="545.694375"/>
    </g>
   </g>
   <g id="PolyCollection_3">
    <defs>
     <path d="M 235.1581 -116.079248 
L 234.670333 -116.079248 
L 233.890243 -117.535671 
L 233.126504 -118.992094 
L 233.61637 -120.448517 
L 234.520454 -121.90494 
L 234.824976 -123.361363 
L 234.577567 -124.817787 
L 233.755242 -126.27421 
L 233.226999 -127.730633 
L 233.711732 -129.187056 
L 233.6847 -130.643479 
L 232.85191 -132.099902 
L 232.782361 -133.556325 
L 232.874383 -135.012748 
L 232.540294 -136.469171 
L 232.202926 -137.925595 
L 231.84459 -139.382018 
L 231.495622 -140.838441 
L 230.941341 -142.294864 
L 230.30138 -143.751287 
L 229.708651 -145.20771 
L 229.125788 -146.664133 
L 228.435272 -148.120556 
L 227.47753 -149.576979 
L 226.237776 -151.033403 
L 224.92771 -152.489826 
L 223.725332 -153.946249 
L 222.645869 -155.402672 
L 221.486066 -156.859095 
L 219.961142 -158.315518 
L 218.042898 -159.771941 
L 216.061683 -161.228364 
L 214.074397 -162.684787 
L 211.989736 -164.141211 
L 209.958362 -165.597634 
L 208.278801 -167.054057 
L 207.206664 -168.51048 
L 206.636067 -169.966903 
L 206.752003 -171.423326 
L 208.001962 -172.879749 
L 210.529246 -174.336172 
L 214.217846 -175.792595 
L 218.893566 -177.249019 
L 223.778025 -178.705442 
L 227.876748 -180.161865 
L 230.896075 -181.618288 
L 232.870806 -183.074711 
L 233.953281 -184.531134 
L 234.456026 -185.987557 
L 234.646015 -187.44398 
L 234.71191 -188.900403 
L 234.756749 -190.356827 
L 234.78712 -191.81325 
L 234.785758 -193.269673 
L 234.77653 -194.726096 
L 234.788666 -196.182519 
L 234.817271 -197.638942 
L 234.836344 -199.095365 
L 234.835484 -200.551788 
L 234.824192 -202.008211 
L 234.815372 -203.464635 
L 234.80993 -204.921058 
L 234.811969 -206.377481 
L 234.823295 -207.833904 
L 234.825263 -209.290327 
L 234.819872 -210.74675 
L 234.82272 -212.203173 
L 234.821458 -213.659596 
L 234.787507 -215.116019 
L 234.735669 -216.572443 
L 234.710918 -218.028866 
L 234.720832 -219.485289 
L 234.735179 -220.941712 
L 234.720292 -222.398135 
L 234.683914 -223.854558 
L 234.649462 -225.310981 
L 234.633823 -226.767404 
L 234.643066 -228.223827 
L 234.658463 -229.680251 
L 234.667538 -231.136674 
L 234.670603 -232.593097 
L 234.690738 -234.04952 
L 234.728795 -235.505943 
L 234.759596 -236.962366 
L 234.773699 -238.418789 
L 234.790976 -239.875212 
L 234.821248 -241.331635 
L 234.846128 -242.788059 
L 234.856787 -244.244482 
L 234.862264 -245.700905 
L 234.87275 -247.157328 
L 234.88785 -248.613751 
L 234.896587 -250.070174 
L 234.898837 -251.526597 
L 234.902382 -252.98302 
L 234.906558 -254.439443 
L 234.908353 -255.895867 
L 234.909811 -257.35229 
L 234.912155 -258.808713 
L 234.913754 -260.265136 
L 234.914679 -260.265136 
L 234.914679 -260.265136 
L 234.916278 -258.808713 
L 234.918622 -257.35229 
L 234.92008 -255.895867 
L 234.921875 -254.439443 
L 234.926051 -252.98302 
L 234.929596 -251.526597 
L 234.931846 -250.070174 
L 234.940583 -248.613751 
L 234.955683 -247.157328 
L 234.966169 -245.700905 
L 234.971646 -244.244482 
L 234.982305 -242.788059 
L 235.007186 -241.331635 
L 235.037457 -239.875212 
L 235.054734 -238.418789 
L 235.068837 -236.962366 
L 235.099638 -235.505943 
L 235.137695 -234.04952 
L 235.15783 -232.593097 
L 235.160895 -231.136674 
L 235.16997 -229.680251 
L 235.185367 -228.223827 
L 235.19461 -226.767404 
L 235.178971 -225.310981 
L 235.144519 -223.854558 
L 235.108141 -222.398135 
L 235.093254 -220.941712 
L 235.107601 -219.485289 
L 235.117515 -218.028866 
L 235.092764 -216.572443 
L 235.040926 -215.116019 
L 235.006975 -213.659596 
L 235.005713 -212.203173 
L 235.008561 -210.74675 
L 235.00317 -209.290327 
L 235.005138 -207.833904 
L 235.016464 -206.377481 
L 235.018503 -204.921058 
L 235.013061 -203.464635 
L 235.004241 -202.008211 
L 234.992949 -200.551788 
L 234.992089 -199.095365 
L 235.011162 -197.638942 
L 235.039767 -196.182519 
L 235.051903 -194.726096 
L 235.042675 -193.269673 
L 235.041313 -191.81325 
L 235.071684 -190.356827 
L 235.116523 -188.900403 
L 235.182418 -187.44398 
L 235.372407 -185.987557 
L 235.875152 -184.531134 
L 236.957627 -183.074711 
L 238.932358 -181.618288 
L 241.951685 -180.161865 
L 246.050408 -178.705442 
L 250.934867 -177.249019 
L 255.610587 -175.792595 
L 259.299187 -174.336172 
L 261.826471 -172.879749 
L 263.07643 -171.423326 
L 263.192366 -169.966903 
L 262.621769 -168.51048 
L 261.549632 -167.054057 
L 259.870071 -165.597634 
L 257.838697 -164.141211 
L 255.754036 -162.684787 
L 253.76675 -161.228364 
L 251.785535 -159.771941 
L 249.867291 -158.315518 
L 248.342367 -156.859095 
L 247.182564 -155.402672 
L 246.103101 -153.946249 
L 244.900723 -152.489826 
L 243.590657 -151.033403 
L 242.350903 -149.576979 
L 241.393161 -148.120556 
L 240.702645 -146.664133 
L 240.119782 -145.20771 
L 239.527053 -143.751287 
L 238.887092 -142.294864 
L 238.332811 -140.838441 
L 237.983843 -139.382018 
L 237.625507 -137.925595 
L 237.288139 -136.469171 
L 236.95405 -135.012748 
L 237.046072 -133.556325 
L 236.976523 -132.099902 
L 236.143733 -130.643479 
L 236.116701 -129.187056 
L 236.601434 -127.730633 
L 236.073191 -126.27421 
L 235.250866 -124.817787 
L 235.003457 -123.361363 
L 235.307979 -121.90494 
L 236.212063 -120.448517 
L 236.701929 -118.992094 
L 235.93819 -117.535671 
L 235.1581 -116.079248 
z
" id="m60b67f4afd" style="stroke:#474747;stroke-width:1.2;"/>
    </defs>
    <g clip-path="url(#pc9b81d6650)">
     <use style="fill:#e47070;stroke:#474747;stroke-width:1.2;" x="0" xlink:href="#m60b67f4afd" y="545.694375"/>
    </g>
   </g>
   <g id="PolyCollection_4">
    <defs>
     <path d="M 305.735255 -114.06554 
L 305.483924 -114.06554 
L 305.24917 -115.664517 
L 304.909245 -117.263493 
L 304.685739 -118.86247 
L 304.76938 -120.461446 
L 305.022609 -122.060423 
L 305.113956 -123.659399 
L 304.910324 -125.258376 
L 304.603848 -126.857352 
L 304.43326 -128.456328 
L 304.366143 -130.055305 
L 304.238923 -131.654281 
L 304.04203 -133.253258 
L 303.829293 -134.852234 
L 303.587415 -136.451211 
L 303.293319 -138.050187 
L 302.933515 -139.649164 
L 302.492789 -141.24814 
L 301.975067 -142.847117 
L 301.395095 -144.446093 
L 300.744063 -146.04507 
L 299.992683 -147.644046 
L 299.128507 -149.243022 
L 298.17598 -150.841999 
L 297.167308 -152.440975 
L 296.087124 -154.039952 
L 294.867105 -155.638928 
L 293.454597 -157.237905 
L 291.868046 -158.836881 
L 290.170617 -160.435858 
L 288.410454 -162.034834 
L 286.609203 -163.633811 
L 284.817363 -165.232787 
L 283.201629 -166.831763 
L 282.05801 -168.43074 
L 281.665161 -170.029716 
L 282.138441 -171.628693 
L 283.48268 -173.227669 
L 285.705321 -174.826646 
L 288.745172 -176.425622 
L 292.308822 -178.024599 
L 295.883247 -179.623575 
L 298.962093 -181.222552 
L 301.272248 -182.821528 
L 302.805907 -184.420504 
L 303.711094 -186.019481 
L 304.190535 -187.618457 
L 304.428271 -189.217434 
L 304.537929 -190.81641 
L 304.57072 -192.415387 
L 304.557967 -194.014363 
L 304.52606 -195.61334 
L 304.487564 -197.212316 
L 304.444776 -198.811293 
L 304.400093 -200.410269 
L 304.349296 -202.009246 
L 304.27775 -203.608222 
L 304.182392 -205.207198 
L 304.081384 -206.806175 
L 303.987178 -208.405151 
L 303.891076 -210.004128 
L 303.784437 -211.603104 
L 303.675157 -213.202081 
L 303.577088 -214.801057 
L 303.496332 -216.400034 
L 303.436294 -217.99901 
L 303.413705 -219.597987 
L 303.454744 -221.196963 
L 303.568022 -222.795939 
L 303.73292 -224.394916 
L 303.916902 -225.993892 
L 304.090956 -227.592869 
L 304.236085 -229.191845 
L 304.350746 -230.790822 
L 304.44181 -232.389798 
L 304.511635 -233.988775 
L 304.569462 -235.587751 
L 304.636743 -237.186728 
L 304.727111 -238.785704 
L 304.836997 -240.38468 
L 304.954342 -241.983657 
L 305.063548 -243.582633 
L 305.153624 -245.18161 
L 305.229264 -246.780586 
L 305.302381 -248.379563 
L 305.374154 -249.978539 
L 305.43535 -251.577516 
L 305.480119 -253.176492 
L 305.511797 -254.775469 
L 305.537256 -256.374445 
L 305.560178 -257.973422 
L 305.579392 -259.572398 
L 305.592236 -261.171374 
L 305.598784 -262.770351 
L 305.60182 -264.369327 
L 305.603769 -265.968304 
L 305.605517 -267.56728 
L 305.607166 -269.166257 
L 305.608473 -270.765233 
L 305.609218 -272.36421 
L 305.609961 -272.36421 
L 305.609961 -272.36421 
L 305.610706 -270.765233 
L 305.612013 -269.166257 
L 305.613662 -267.56728 
L 305.61541 -265.968304 
L 305.617359 -264.369327 
L 305.620395 -262.770351 
L 305.626943 -261.171374 
L 305.639787 -259.572398 
L 305.659001 -257.973422 
L 305.681923 -256.374445 
L 305.707382 -254.775469 
L 305.73906 -253.176492 
L 305.783829 -251.577516 
L 305.845025 -249.978539 
L 305.916798 -248.379563 
L 305.989915 -246.780586 
L 306.065555 -245.18161 
L 306.155631 -243.582633 
L 306.264837 -241.983657 
L 306.382182 -240.38468 
L 306.492068 -238.785704 
L 306.582436 -237.186728 
L 306.649717 -235.587751 
L 306.707544 -233.988775 
L 306.777369 -232.389798 
L 306.868433 -230.790822 
L 306.983094 -229.191845 
L 307.128223 -227.592869 
L 307.302277 -225.993892 
L 307.486259 -224.394916 
L 307.651157 -222.795939 
L 307.764435 -221.196963 
L 307.805474 -219.597987 
L 307.782885 -217.99901 
L 307.722847 -216.400034 
L 307.642091 -214.801057 
L 307.544022 -213.202081 
L 307.434741 -211.603104 
L 307.328103 -210.004128 
L 307.232001 -208.405151 
L 307.137795 -206.806175 
L 307.036787 -205.207198 
L 306.941429 -203.608222 
L 306.869883 -202.009246 
L 306.819086 -200.410269 
L 306.774403 -198.811293 
L 306.731615 -197.212316 
L 306.693119 -195.61334 
L 306.661212 -194.014363 
L 306.648459 -192.415387 
L 306.68125 -190.81641 
L 306.790908 -189.217434 
L 307.028644 -187.618457 
L 307.508085 -186.019481 
L 308.413272 -184.420504 
L 309.946931 -182.821528 
L 312.257086 -181.222552 
L 315.335932 -179.623575 
L 318.910357 -178.024599 
L 322.474007 -176.425622 
L 325.513858 -174.826646 
L 327.736499 -173.227669 
L 329.080738 -171.628693 
L 329.554018 -170.029716 
L 329.161169 -168.43074 
L 328.01755 -166.831763 
L 326.401816 -165.232787 
L 324.609976 -163.633811 
L 322.808725 -162.034834 
L 321.048561 -160.435858 
L 319.351133 -158.836881 
L 317.764582 -157.237905 
L 316.352074 -155.638928 
L 315.132055 -154.039952 
L 314.05187 -152.440975 
L 313.043199 -150.841999 
L 312.090672 -149.243022 
L 311.226496 -147.644046 
L 310.475116 -146.04507 
L 309.824084 -144.446093 
L 309.244112 -142.847117 
L 308.72639 -141.24814 
L 308.285664 -139.649164 
L 307.92586 -138.050187 
L 307.631763 -136.451211 
L 307.389886 -134.852234 
L 307.177149 -133.253258 
L 306.980255 -131.654281 
L 306.853036 -130.055305 
L 306.785919 -128.456328 
L 306.615331 -126.857352 
L 306.308855 -125.258376 
L 306.105223 -123.659399 
L 306.19657 -122.060423 
L 306.449799 -120.461446 
L 306.53344 -118.86247 
L 306.309933 -117.263493 
L 305.970009 -115.664517 
L 305.735255 -114.06554 
z
" id="m40ae56ccd2" style="stroke:#474747;stroke-width:1.2;"/>
    </defs>
    <g clip-path="url(#pc9b81d6650)">
     <use style="fill:#39cde3;stroke:#474747;stroke-width:1.2;" x="0" xlink:href="#m40ae56ccd2" y="545.694375"/>
    </g>
   </g>
   <g id="PolyCollection_5">
    <defs>
     <path d="M 376.451272 -112.599499 
L 376.158653 -112.599499 
L 375.926357 -114.414676 
L 375.580293 -116.229852 
L 375.272709 -118.045029 
L 375.183908 -119.860205 
L 375.293729 -121.675382 
L 375.372052 -123.490558 
L 375.253712 -125.305735 
L 375.004855 -127.120911 
L 374.760164 -128.936088 
L 374.527461 -130.751265 
L 374.234512 -132.566441 
L 373.855223 -134.381618 
L 373.41101 -136.196794 
L 372.912124 -138.011971 
L 372.340866 -139.827147 
L 371.676994 -141.642324 
L 370.92072 -143.4575 
L 370.076542 -145.272677 
L 369.122819 -147.087854 
L 368.0189 -148.90303 
L 366.741395 -150.718207 
L 365.302035 -152.533383 
L 363.733831 -154.34856 
L 362.068319 -156.163736 
L 360.330007 -157.978913 
L 358.556594 -159.79409 
L 356.825862 -161.609266 
L 355.2696 -163.424443 
L 354.079679 -165.239619 
L 353.506162 -167.054796 
L 353.815597 -168.869972 
L 355.190627 -170.685149 
L 357.617168 -172.500325 
L 360.834211 -174.315502 
L 364.386476 -176.130679 
L 367.766188 -177.945855 
L 370.576954 -179.761032 
L 372.636764 -181.576208 
L 373.980514 -183.391385 
L 374.781524 -185.206561 
L 375.243758 -187.021738 
L 375.519403 -188.836914 
L 375.686594 -190.652091 
L 375.778069 -192.467268 
L 375.816821 -194.282444 
L 375.828762 -196.097621 
L 375.836734 -197.912797 
L 375.852604 -199.727974 
L 375.876716 -201.54315 
L 375.90386 -203.358327 
L 375.929208 -205.173503 
L 375.949315 -206.98868 
L 375.961301 -208.803857 
L 375.965426 -210.619033 
L 375.967594 -212.43421 
L 375.975481 -214.249386 
L 375.991574 -216.064563 
L 376.010999 -217.879739 
L 376.024251 -219.694916 
L 376.0201 -221.510093 
L 375.98904 -223.325269 
L 375.929096 -225.140446 
L 375.848275 -226.955622 
L 375.757268 -228.770799 
L 375.658427 -230.585975 
L 375.542948 -232.401152 
L 375.398007 -234.216328 
L 375.216601 -236.031505 
L 375.004313 -237.846682 
L 374.7807 -239.661858 
L 374.573974 -241.477035 
L 374.410237 -243.292211 
L 374.303925 -245.107388 
L 374.255811 -246.922564 
L 374.258408 -248.737741 
L 374.306144 -250.552917 
L 374.402798 -252.368094 
L 374.55608 -254.183271 
L 374.764688 -255.998447 
L 375.011927 -257.813624 
L 375.268076 -259.6288 
L 375.49978 -261.443977 
L 375.685392 -263.259153 
L 375.824586 -265.07433 
L 375.930903 -266.889506 
L 376.015868 -268.704683 
L 376.083057 -270.51986 
L 376.134375 -272.335036 
L 376.17483 -274.150213 
L 376.209522 -275.965389 
L 376.23995 -277.780566 
L 376.264685 -279.595742 
L 376.282067 -281.410919 
L 376.292169 -283.226096 
L 376.297156 -285.041272 
L 376.299845 -286.856449 
L 376.301877 -288.671625 
L 376.303457 -290.486802 
L 376.304402 -292.301978 
L 376.305523 -292.301978 
L 376.305523 -292.301978 
L 376.306468 -290.486802 
L 376.308048 -288.671625 
L 376.31008 -286.856449 
L 376.312769 -285.041272 
L 376.317756 -283.226096 
L 376.327858 -281.410919 
L 376.34524 -279.595742 
L 376.369975 -277.780566 
L 376.400403 -275.965389 
L 376.435095 -274.150213 
L 376.47555 -272.335036 
L 376.526867 -270.51986 
L 376.594056 -268.704683 
L 376.679022 -266.889506 
L 376.785339 -265.07433 
L 376.924533 -263.259153 
L 377.110144 -261.443977 
L 377.341849 -259.6288 
L 377.597998 -257.813624 
L 377.845237 -255.998447 
L 378.053845 -254.183271 
L 378.207127 -252.368094 
L 378.303781 -250.552917 
L 378.351517 -248.737741 
L 378.354114 -246.922564 
L 378.306 -245.107388 
L 378.199688 -243.292211 
L 378.03595 -241.477035 
L 377.829225 -239.661858 
L 377.605612 -237.846682 
L 377.393324 -236.031505 
L 377.211918 -234.216328 
L 377.066976 -232.401152 
L 376.951497 -230.585975 
L 376.852657 -228.770799 
L 376.76165 -226.955622 
L 376.680829 -225.140446 
L 376.620885 -223.325269 
L 376.589825 -221.510093 
L 376.585674 -219.694916 
L 376.598926 -217.879739 
L 376.618351 -216.064563 
L 376.634444 -214.249386 
L 376.642331 -212.43421 
L 376.644499 -210.619033 
L 376.648624 -208.803857 
L 376.66061 -206.98868 
L 376.680717 -205.173503 
L 376.706065 -203.358327 
L 376.733209 -201.54315 
L 376.757321 -199.727974 
L 376.77319 -197.912797 
L 376.781163 -196.097621 
L 376.793104 -194.282444 
L 376.831855 -192.467268 
L 376.923331 -190.652091 
L 377.090522 -188.836914 
L 377.366167 -187.021738 
L 377.828401 -185.206561 
L 378.629411 -183.391385 
L 379.973161 -181.576208 
L 382.032971 -179.761032 
L 384.843737 -177.945855 
L 388.223448 -176.130679 
L 391.775714 -174.315502 
L 394.992757 -172.500325 
L 397.419298 -170.685149 
L 398.794328 -168.869972 
L 399.103762 -167.054796 
L 398.530246 -165.239619 
L 397.340325 -163.424443 
L 395.784063 -161.609266 
L 394.053331 -159.79409 
L 392.279917 -157.978913 
L 390.541606 -156.163736 
L 388.876093 -154.34856 
L 387.30789 -152.533383 
L 385.86853 -150.718207 
L 384.591024 -148.90303 
L 383.487106 -147.087854 
L 382.533383 -145.272677 
L 381.689205 -143.4575 
L 380.932931 -141.642324 
L 380.269059 -139.827147 
L 379.6978 -138.011971 
L 379.198914 -136.196794 
L 378.754702 -134.381618 
L 378.375412 -132.566441 
L 378.082464 -130.751265 
L 377.84976 -128.936088 
L 377.60507 -127.120911 
L 377.356213 -125.305735 
L 377.237873 -123.490558 
L 377.316196 -121.675382 
L 377.426017 -119.860205 
L 377.337216 -118.045029 
L 377.029632 -116.229852 
L 376.683568 -114.414676 
L 376.451272 -112.599499 
z
" id="m1edc34c8e5" style="stroke:#474747;stroke-width:1.2;"/>
    </defs>
    <g clip-path="url(#pc9b81d6650)">
     <use style="fill:#42db51;stroke:#474747;stroke-width:1.2;" x="0" xlink:href="#m1edc34c8e5" y="545.694375"/>
    </g>
   </g>
   <g id="PolyCollection_6">
    <defs>
     <path d="M 447.164878 -115.676107 
L 446.835793 -115.676107 
L 446.43975 -117.003297 
L 445.921357 -118.330487 
L 445.827043 -119.657676 
L 446.278519 -120.984866 
L 446.736072 -122.312055 
L 446.847493 -123.639245 
L 446.564185 -124.966435 
L 445.988635 -126.293624 
L 445.640317 -127.620814 
L 445.852492 -128.948003 
L 446.051319 -130.275193 
L 445.809622 -131.602383 
L 445.542061 -132.929572 
L 445.423296 -134.256762 
L 445.214002 -135.583951 
L 445.015401 -136.911141 
L 444.867951 -138.238331 
L 444.643578 -139.56552 
L 444.324371 -140.89271 
L 443.935529 -142.2199 
L 443.517343 -143.547089 
L 443.094102 -144.874279 
L 442.650065 -146.201468 
L 442.14432 -147.528658 
L 441.533577 -148.855848 
L 440.83285 -150.183037 
L 440.111887 -151.510227 
L 439.366705 -152.837416 
L 438.559709 -154.164606 
L 437.695948 -155.491796 
L 436.746226 -156.818985 
L 435.710085 -158.146175 
L 434.643398 -159.473364 
L 433.560481 -160.800554 
L 432.477192 -162.127744 
L 431.394793 -163.454933 
L 430.292203 -164.782123 
L 429.292325 -166.109313 
L 428.633847 -167.436502 
L 428.430011 -168.763692 
L 428.565025 -170.090881 
L 428.91568 -171.418071 
L 429.53302 -172.745261 
L 430.485616 -174.07245 
L 431.653013 -175.39964 
L 432.797062 -176.726829 
L 433.779019 -178.054019 
L 434.543884 -179.381209 
L 435.051593 -180.708398 
L 435.325695 -182.035588 
L 435.474753 -183.362777 
L 435.691933 -184.689967 
L 436.122073 -186.017157 
L 436.723045 -187.344346 
L 437.384808 -188.671536 
L 438.058282 -189.998726 
L 438.747801 -191.325915 
L 439.464196 -192.653105 
L 440.181284 -193.980294 
L 440.851307 -195.307484 
L 441.467778 -196.634674 
L 442.079865 -197.961863 
L 442.705676 -199.289053 
L 443.295384 -200.616242 
L 443.813004 -201.943432 
L 444.276231 -203.270622 
L 444.70875 -204.597811 
L 445.093206 -205.925001 
L 445.409911 -207.25219 
L 445.681791 -208.57938 
L 445.945073 -209.90657 
L 446.198943 -211.233759 
L 446.41138 -212.560949 
L 446.563261 -213.888139 
L 446.660582 -215.215328 
L 446.726231 -216.542518 
L 446.78026 -217.869707 
L 446.831018 -219.196897 
L 446.878119 -220.524087 
L 446.916383 -221.851276 
L 446.943153 -223.178466 
L 446.959232 -224.505655 
L 446.96803 -225.832845 
L 446.975508 -227.160035 
L 446.983556 -228.487224 
L 446.988866 -229.814414 
L 446.990853 -231.141603 
L 446.992041 -232.468793 
L 446.993431 -233.795983 
L 446.994665 -235.123172 
L 446.995931 -236.450362 
L 446.99755 -237.777552 
L 446.99864 -239.104741 
L 446.998321 -240.431931 
L 446.997302 -241.75912 
L 446.997059 -243.08631 
L 446.998027 -244.4135 
L 446.99931 -245.740689 
L 447.000059 -247.067879 
L 447.000612 -247.067879 
L 447.000612 -247.067879 
L 447.001361 -245.740689 
L 447.002644 -244.4135 
L 447.003612 -243.08631 
L 447.003368 -241.75912 
L 447.00235 -240.431931 
L 447.00203 -239.104741 
L 447.003121 -237.777552 
L 447.004739 -236.450362 
L 447.006006 -235.123172 
L 447.00724 -233.795983 
L 447.008629 -232.468793 
L 447.009818 -231.141603 
L 447.011804 -229.814414 
L 447.017115 -228.487224 
L 447.025163 -227.160035 
L 447.032641 -225.832845 
L 447.041439 -224.505655 
L 447.057518 -223.178466 
L 447.084287 -221.851276 
L 447.122552 -220.524087 
L 447.169653 -219.196897 
L 447.220411 -217.869707 
L 447.27444 -216.542518 
L 447.340089 -215.215328 
L 447.437409 -213.888139 
L 447.589291 -212.560949 
L 447.801728 -211.233759 
L 448.055598 -209.90657 
L 448.31888 -208.57938 
L 448.59076 -207.25219 
L 448.907465 -205.925001 
L 449.291921 -204.597811 
L 449.72444 -203.270622 
L 450.187667 -201.943432 
L 450.705287 -200.616242 
L 451.294995 -199.289053 
L 451.920805 -197.961863 
L 452.532893 -196.634674 
L 453.149364 -195.307484 
L 453.819387 -193.980294 
L 454.536475 -192.653105 
L 455.25287 -191.325915 
L 455.942388 -189.998726 
L 456.615862 -188.671536 
L 457.277626 -187.344346 
L 457.878598 -186.017157 
L 458.308737 -184.689967 
L 458.525918 -183.362777 
L 458.674975 -182.035588 
L 458.949078 -180.708398 
L 459.456787 -179.381209 
L 460.221651 -178.054019 
L 461.203609 -176.726829 
L 462.347658 -175.39964 
L 463.515055 -174.07245 
L 464.467651 -172.745261 
L 465.084991 -171.418071 
L 465.435646 -170.090881 
L 465.57066 -168.763692 
L 465.366823 -167.436502 
L 464.708345 -166.109313 
L 463.708467 -164.782123 
L 462.605878 -163.454933 
L 461.523479 -162.127744 
L 460.44019 -160.800554 
L 459.357272 -159.473364 
L 458.290586 -158.146175 
L 457.254445 -156.818985 
L 456.304723 -155.491796 
L 455.440962 -154.164606 
L 454.633966 -152.837416 
L 453.888784 -151.510227 
L 453.167821 -150.183037 
L 452.467094 -148.855848 
L 451.85635 -147.528658 
L 451.350606 -146.201468 
L 450.906568 -144.874279 
L 450.483328 -143.547089 
L 450.065142 -142.2199 
L 449.676299 -140.89271 
L 449.357093 -139.56552 
L 449.132719 -138.238331 
L 448.98527 -136.911141 
L 448.786669 -135.583951 
L 448.577375 -134.256762 
L 448.458609 -132.929572 
L 448.191049 -131.602383 
L 447.949352 -130.275193 
L 448.148179 -128.948003 
L 448.360354 -127.620814 
L 448.012036 -126.293624 
L 447.436485 -124.966435 
L 447.153178 -123.639245 
L 447.264599 -122.312055 
L 447.722152 -120.984866 
L 448.173628 -119.657676 
L 448.079314 -118.330487 
L 447.560921 -117.003297 
L 447.164878 -115.676107 
z
" id="mb2f8892267" style="stroke:#474747;stroke-width:1.2;"/>
    </defs>
    <g clip-path="url(#pc9b81d6650)">
     <use style="fill:#db4542;stroke:#474747;stroke-width:1.2;" x="0" xlink:href="#mb2f8892267" y="545.694375"/>
    </g>
   </g>
   <g id="line2d_25">
    <path clip-path="url(#pc9b81d6650)" d="M 93.523471 409.663897 
L 93.523471 350.957506 
" style="fill:none;stroke:#474747;stroke-linecap:round;stroke-width:1.2;"/>
   </g>
   <g id="line2d_26">
    <path clip-path="url(#pc9b81d6650)" d="M 93.523471 388.413335 
L 93.523471 373.422362 
" style="fill:none;stroke:#474747;stroke-linecap:round;stroke-width:3.6;"/>
   </g>
   <g id="line2d_27">
    <path clip-path="url(#pc9b81d6650)" d="M 164.218844 409.663897 
L 164.218844 349.223853 
" style="fill:none;stroke:#474747;stroke-linecap:round;stroke-width:1.2;"/>
   </g>
   <g id="line2d_28">
    <path clip-path="url(#pc9b81d6650)" d="M 164.218844 387.400354 
L 164.218844 372.111648 
" style="fill:none;stroke:#474747;stroke-linecap:round;stroke-width:3.6;"/>
   </g>
   <g id="line2d_29">
    <path clip-path="url(#pc9b81d6650)" d="M 234.914217 406.952985 
L 234.914217 351.757711 
" style="fill:none;stroke:#474747;stroke-linecap:round;stroke-width:1.2;"/>
   </g>
   <g id="line2d_30">
    <path clip-path="url(#pc9b81d6650)" d="M 234.914217 387.89629 
L 234.914217 373.422362 
" style="fill:none;stroke:#474747;stroke-linecap:round;stroke-width:3.6;"/>
   </g>
   <g id="line2d_31">
    <path clip-path="url(#pc9b81d6650)" d="M 305.609589 406.952985 
L 305.609589 346.76309 
" style="fill:none;stroke:#474747;stroke-linecap:round;stroke-width:1.2;"/>
   </g>
   <g id="line2d_32">
    <path clip-path="url(#pc9b81d6650)" d="M 305.609589 386.023554 
L 305.609589 370.318058 
" style="fill:none;stroke:#474747;stroke-linecap:round;stroke-width:3.6;"/>
   </g>
   <g id="line2d_33">
    <path clip-path="url(#pc9b81d6650)" d="M 376.304962 413.158869 
L 376.304962 348.913127 
" style="fill:none;stroke:#474747;stroke-linecap:round;stroke-width:1.2;"/>
   </g>
   <g id="line2d_34">
    <path clip-path="url(#pc9b81d6650)" d="M 376.304962 389.518527 
L 376.304962 373.269546 
" style="fill:none;stroke:#474747;stroke-linecap:round;stroke-width:3.6;"/>
   </g>
   <g id="line2d_35">
    <path clip-path="url(#pc9b81d6650)" d="M 447.000335 413.158869 
L 447.000335 330.704289 
" style="fill:none;stroke:#474747;stroke-linecap:round;stroke-width:1.2;"/>
   </g>
   <g id="line2d_36">
    <path clip-path="url(#pc9b81d6650)" d="M 447.000335 384.787024 
L 447.000335 363.150756 
" style="fill:none;stroke:#474747;stroke-linecap:round;stroke-width:3.6;"/>
   </g>
   <g id="line2d_37">
    <path clip-path="url(#pc9b81d6650)" d="M 68.78009 362.137775 
L 471.743716 362.137775 
" style="fill:none;stroke:#000000;stroke-linecap:round;stroke-width:1.2;"/>
   </g>
   <g id="patch_6">
    <path d="M 45.634625 442.08 
L 45.634625 244.407273 
" style="fill:none;stroke:#262626;stroke-linecap:square;stroke-linejoin:miter;"/>
   </g>
   <g id="patch_7">
    <path d="M 45.634625 442.08 
L 492.034625 442.08 
" style="fill:none;stroke:#262626;stroke-linecap:square;stroke-linejoin:miter;"/>
   </g>
   <g id="PathCollection_7">
    <defs>
     <path d="M 0 1.2 
C 0.318244 1.2 0.623496 1.07356 0.848528 0.848528 
C 1.07356 0.623496 1.2 0.318244 1.2 0 
C 1.2 -0.318244 1.07356 -0.623496 0.848528 -0.848528 
C 0.623496 -1.07356 0.318244 -1.2 0 -1.2 
C -0.318244 -1.2 -0.623496 -1.07356 -0.848528 -0.848528 
C -1.07356 -0.623496 -1.2 -0.318244 -1.2 0 
C -1.2 0.318244 -1.07356 0.623496 -0.848528 0.848528 
C -0.623496 1.07356 -0.318244 1.2 0 1.2 
z
" id="me4c02da30c" style="stroke:#474747;stroke-width:0.8;"/>
    </defs>
    <g clip-path="url(#pc9b81d6650)">
     <use style="fill:#ffffff;stroke:#474747;stroke-width:0.8;" x="93.523471" xlink:href="#me4c02da30c" y="379.731202"/>
    </g>
   </g>
   <g id="PathCollection_8">
    <g clip-path="url(#pc9b81d6650)">
     <use style="fill:#ffffff;stroke:#474747;stroke-width:0.8;" x="164.218844" xlink:href="#me4c02da30c" y="378.503012"/>
    </g>
   </g>
   <g id="PathCollection_9">
    <g clip-path="url(#pc9b81d6650)">
     <use style="fill:#ffffff;stroke:#474747;stroke-width:0.8;" x="234.914217" xlink:href="#me4c02da30c" y="379.47543"/>
    </g>
   </g>
   <g id="PathCollection_10">
    <g clip-path="url(#pc9b81d6650)">
     <use style="fill:#ffffff;stroke:#474747;stroke-width:0.8;" x="305.609589" xlink:href="#me4c02da30c" y="377.387667"/>
    </g>
   </g>
   <g id="PathCollection_11">
    <g clip-path="url(#pc9b81d6650)">
     <use style="fill:#ffffff;stroke:#474747;stroke-width:0.8;" x="376.304962" xlink:href="#me4c02da30c" y="380.532508"/>
    </g>
   </g>
   <g id="PathCollection_12">
    <g clip-path="url(#pc9b81d6650)">
     <use style="fill:#ffffff;stroke:#474747;stroke-width:0.8;" x="447.000335" xlink:href="#me4c02da30c" y="374.891783"/>
    </g>
   </g>
  </g>
 </g>
 <defs>
  <clipPath id="p4b5801e8fa">
   <rect height="197.672727" width="446.4" x="45.634625" y="7.2"/>
  </clipPath>
  <clipPath id="pc9b81d6650">
   <rect height="197.672727" width="446.4" x="45.634625" y="244.407273"/>
  </clipPath>
 </defs>
</svg>
