<?xml version="1.0" encoding="utf-8" standalone="no"?>
<!DOCTYPE svg PUBLIC "-//W3C//DTD SVG 1.1//EN"
  "http://www.w3.org/Graphics/SVG/1.1/DTD/svg11.dtd">
<!-- Created with matplotlib (https://matplotlib.org/) -->
<svg height="623.494453pt" version="1.1" viewBox="0 0 526.302422 623.494453" width="526.302422pt" xmlns="http://www.w3.org/2000/svg" xmlns:xlink="http://www.w3.org/1999/xlink">
 <metadata>
  <rdf:RDF xmlns:cc="http://creativecommons.org/ns#" xmlns:dc="http://purl.org/dc/elements/1.1/" xmlns:rdf="http://www.w3.org/1999/02/22-rdf-syntax-ns#">
   <cc:Work>
    <dc:type rdf:resource="http://purl.org/dc/dcmitype/StillImage"/>
    <dc:date>2021-12-15T13:05:06.677310</dc:date>
    <dc:format>image/svg+xml</dc:format>
    <dc:creator>
     <cc:Agent>
      <dc:title>Matplotlib v3.3.0, https://matplotlib.org/</dc:title>
     </cc:Agent>
    </dc:creator>
   </cc:Work>
  </rdf:RDF>
 </metadata>
 <defs>
  <style type="text/css">*{stroke-linecap:butt;stroke-linejoin:round;}</style>
 </defs>
 <g id="figure_1">
  <g id="patch_1">
   <path d="M 0 623.494453 
L 526.302422 623.494453 
L 526.302422 0 
L 0 0 
z
" style="fill:#ffffff;"/>
  </g>
  <g id="axes_1">
   <g id="patch_2">
    <path d="M 72.702422 204.872727 
L 519.102422 204.872727 
L 519.102422 7.2 
L 72.702422 7.2 
z
" style="fill:#ffffff;"/>
   </g>
   <g id="matplotlib.axis_1">
    <g id="xtick_1">
     <g id="line2d_1">
      <defs>
       <path d="M 0 0 
L 0 9 
" id="m36d753aebe" style="stroke:#262626;stroke-width:1.875;"/>
      </defs>
      <g>
       <use style="fill:#262626;stroke:#262626;stroke-width:1.875;" x="120.591267" xlink:href="#m36d753aebe" y="204.872727"/>
      </g>
     </g>
    </g>
    <g id="xtick_2">
     <g id="line2d_2">
      <g>
       <use style="fill:#262626;stroke:#262626;stroke-width:1.875;" x="191.28664" xlink:href="#m36d753aebe" y="204.872727"/>
      </g>
     </g>
    </g>
    <g id="xtick_3">
     <g id="line2d_3">
      <g>
       <use style="fill:#262626;stroke:#262626;stroke-width:1.875;" x="261.982013" xlink:href="#m36d753aebe" y="204.872727"/>
      </g>
     </g>
    </g>
    <g id="xtick_4">
     <g id="line2d_4">
      <g>
       <use style="fill:#262626;stroke:#262626;stroke-width:1.875;" x="332.677386" xlink:href="#m36d753aebe" y="204.872727"/>
      </g>
     </g>
    </g>
    <g id="xtick_5">
     <g id="line2d_5">
      <g>
       <use style="fill:#262626;stroke:#262626;stroke-width:1.875;" x="403.372759" xlink:href="#m36d753aebe" y="204.872727"/>
      </g>
     </g>
    </g>
    <g id="xtick_6">
     <g id="line2d_6">
      <g>
       <use style="fill:#262626;stroke:#262626;stroke-width:1.875;" x="474.068132" xlink:href="#m36d753aebe" y="204.872727"/>
      </g>
     </g>
    </g>
   </g>
   <g id="matplotlib.axis_2">
    <g id="ytick_1">
     <g id="line2d_7">
      <defs>
       <path d="M 0 0 
L -9 0 
" id="m2e5bea66b7" style="stroke:#262626;stroke-width:1.875;"/>
      </defs>
      <g>
       <use style="fill:#262626;stroke:#262626;stroke-width:1.875;" x="72.702422" xlink:href="#m2e5bea66b7" y="204.872727"/>
      </g>
     </g>
     <g id="text_1">
      <!-- 0.00 -->
      <g style="fill:#262626;" transform="translate(28.091875 210.777923)scale(0.165 -0.165)">
       <defs>
        <path d="M 4.15625 35.296875 
Q 4.15625 48 6.765625 55.734375 
Q 9.375 63.484375 14.515625 67.671875 
Q 19.671875 71.875 27.484375 71.875 
Q 33.25 71.875 37.59375 69.546875 
Q 41.9375 67.234375 44.765625 62.859375 
Q 47.609375 58.5 49.21875 52.21875 
Q 50.828125 45.953125 50.828125 35.296875 
Q 50.828125 22.703125 48.234375 14.96875 
Q 45.65625 7.234375 40.5 3 
Q 35.359375 -1.21875 27.484375 -1.21875 
Q 17.140625 -1.21875 11.234375 6.203125 
Q 4.15625 15.140625 4.15625 35.296875 
z
M 13.1875 35.296875 
Q 13.1875 17.671875 17.3125 11.828125 
Q 21.4375 6 27.484375 6 
Q 33.546875 6 37.671875 11.859375 
Q 41.796875 17.71875 41.796875 35.296875 
Q 41.796875 52.984375 37.671875 58.78125 
Q 33.546875 64.59375 27.390625 64.59375 
Q 21.34375 64.59375 17.71875 59.46875 
Q 13.1875 52.9375 13.1875 35.296875 
z
" id="ArialMT-48"/>
        <path d="M 9.078125 0 
L 9.078125 10.015625 
L 19.09375 10.015625 
L 19.09375 0 
z
" id="ArialMT-46"/>
       </defs>
       <use xlink:href="#ArialMT-48"/>
       <use x="55.615234" xlink:href="#ArialMT-46"/>
       <use x="83.398438" xlink:href="#ArialMT-48"/>
       <use x="139.013672" xlink:href="#ArialMT-48"/>
      </g>
     </g>
    </g>
    <g id="ytick_2">
     <g id="line2d_8">
      <g>
       <use style="fill:#262626;stroke:#262626;stroke-width:1.875;" x="72.702422" xlink:href="#m2e5bea66b7" y="167.91077"/>
      </g>
     </g>
     <g id="text_2">
      <!-- 0.05 -->
      <g style="fill:#262626;" transform="translate(28.091875 173.815965)scale(0.165 -0.165)">
       <defs>
        <path d="M 4.15625 18.75 
L 13.375 19.53125 
Q 14.40625 12.796875 18.140625 9.390625 
Q 21.875 6 27.15625 6 
Q 33.5 6 37.890625 10.78125 
Q 42.28125 15.578125 42.28125 23.484375 
Q 42.28125 31 38.0625 35.34375 
Q 33.84375 39.703125 27 39.703125 
Q 22.75 39.703125 19.328125 37.765625 
Q 15.921875 35.84375 13.96875 32.765625 
L 5.71875 33.84375 
L 12.640625 70.609375 
L 48.25 70.609375 
L 48.25 62.203125 
L 19.671875 62.203125 
L 15.828125 42.96875 
Q 22.265625 47.46875 29.34375 47.46875 
Q 38.71875 47.46875 45.15625 40.96875 
Q 51.609375 34.46875 51.609375 24.265625 
Q 51.609375 14.546875 45.953125 7.46875 
Q 39.0625 -1.21875 27.15625 -1.21875 
Q 17.390625 -1.21875 11.203125 4.25 
Q 5.03125 9.71875 4.15625 18.75 
z
" id="ArialMT-53"/>
       </defs>
       <use xlink:href="#ArialMT-48"/>
       <use x="55.615234" xlink:href="#ArialMT-46"/>
       <use x="83.398438" xlink:href="#ArialMT-48"/>
       <use x="139.013672" xlink:href="#ArialMT-53"/>
      </g>
     </g>
    </g>
    <g id="ytick_3">
     <g id="line2d_9">
      <g>
       <use style="fill:#262626;stroke:#262626;stroke-width:1.875;" x="72.702422" xlink:href="#m2e5bea66b7" y="130.948813"/>
      </g>
     </g>
     <g id="text_3">
      <!-- 0.10 -->
      <g style="fill:#262626;" transform="translate(28.091875 136.854008)scale(0.165 -0.165)">
       <defs>
        <path d="M 37.25 0 
L 28.46875 0 
L 28.46875 56 
Q 25.296875 52.984375 20.140625 49.953125 
Q 14.984375 46.921875 10.890625 45.40625 
L 10.890625 53.90625 
Q 18.265625 57.375 23.78125 62.296875 
Q 29.296875 67.234375 31.59375 71.875 
L 37.25 71.875 
z
" id="ArialMT-49"/>
       </defs>
       <use xlink:href="#ArialMT-48"/>
       <use x="55.615234" xlink:href="#ArialMT-46"/>
       <use x="83.398438" xlink:href="#ArialMT-49"/>
       <use x="139.013672" xlink:href="#ArialMT-48"/>
      </g>
     </g>
    </g>
    <g id="ytick_4">
     <g id="line2d_10">
      <g>
       <use style="fill:#262626;stroke:#262626;stroke-width:1.875;" x="72.702422" xlink:href="#m2e5bea66b7" y="93.986856"/>
      </g>
     </g>
     <g id="text_4">
      <!-- 0.15 -->
      <g style="fill:#262626;" transform="translate(28.091875 99.892051)scale(0.165 -0.165)">
       <use xlink:href="#ArialMT-48"/>
       <use x="55.615234" xlink:href="#ArialMT-46"/>
       <use x="83.398438" xlink:href="#ArialMT-49"/>
       <use x="139.013672" xlink:href="#ArialMT-53"/>
      </g>
     </g>
    </g>
    <g id="ytick_5">
     <g id="line2d_11">
      <g>
       <use style="fill:#262626;stroke:#262626;stroke-width:1.875;" x="72.702422" xlink:href="#m2e5bea66b7" y="57.024899"/>
      </g>
     </g>
     <g id="text_5">
      <!-- 0.20 -->
      <g style="fill:#262626;" transform="translate(28.091875 62.930094)scale(0.165 -0.165)">
       <defs>
        <path d="M 50.34375 8.453125 
L 50.34375 0 
L 3.03125 0 
Q 2.9375 3.171875 4.046875 6.109375 
Q 5.859375 10.9375 9.828125 15.625 
Q 13.8125 20.3125 21.34375 26.46875 
Q 33.015625 36.03125 37.109375 41.625 
Q 41.21875 47.21875 41.21875 52.203125 
Q 41.21875 57.421875 37.46875 61 
Q 33.734375 64.59375 27.734375 64.59375 
Q 21.390625 64.59375 17.578125 60.78125 
Q 13.765625 56.984375 13.71875 50.25 
L 4.6875 51.171875 
Q 5.609375 61.28125 11.65625 66.578125 
Q 17.71875 71.875 27.9375 71.875 
Q 38.234375 71.875 44.234375 66.15625 
Q 50.25 60.453125 50.25 52 
Q 50.25 47.703125 48.484375 43.546875 
Q 46.734375 39.40625 42.65625 34.8125 
Q 38.578125 30.21875 29.109375 22.21875 
Q 21.1875 15.578125 18.9375 13.203125 
Q 16.703125 10.84375 15.234375 8.453125 
z
" id="ArialMT-50"/>
       </defs>
       <use xlink:href="#ArialMT-48"/>
       <use x="55.615234" xlink:href="#ArialMT-46"/>
       <use x="83.398438" xlink:href="#ArialMT-50"/>
       <use x="139.013672" xlink:href="#ArialMT-48"/>
      </g>
     </g>
    </g>
    <g id="ytick_6">
     <g id="line2d_12">
      <g>
       <use style="fill:#262626;stroke:#262626;stroke-width:1.875;" x="72.702422" xlink:href="#m2e5bea66b7" y="20.062942"/>
      </g>
     </g>
     <g id="text_6">
      <!-- 0.25 -->
      <g style="fill:#262626;" transform="translate(28.091875 25.968137)scale(0.165 -0.165)">
       <use xlink:href="#ArialMT-48"/>
       <use x="55.615234" xlink:href="#ArialMT-46"/>
       <use x="83.398438" xlink:href="#ArialMT-50"/>
       <use x="139.013672" xlink:href="#ArialMT-53"/>
      </g>
     </g>
    </g>
    <g id="text_7">
     <!-- Integration Efficiency -->
     <g style="fill:#262626;" transform="translate(20.303438 189.418551)rotate(-90)scale(0.18 -0.18)">
      <defs>
       <path d="M 9.328125 0 
L 9.328125 71.578125 
L 18.796875 71.578125 
L 18.796875 0 
z
" id="ArialMT-73"/>
       <path d="M 6.59375 0 
L 6.59375 51.859375 
L 14.5 51.859375 
L 14.5 44.484375 
Q 20.21875 53.03125 31 53.03125 
Q 35.6875 53.03125 39.625 51.34375 
Q 43.5625 49.65625 45.515625 46.921875 
Q 47.46875 44.1875 48.25 40.4375 
Q 48.734375 37.984375 48.734375 31.890625 
L 48.734375 0 
L 39.9375 0 
L 39.9375 31.546875 
Q 39.9375 36.921875 38.90625 39.578125 
Q 37.890625 42.234375 35.28125 43.8125 
Q 32.671875 45.40625 29.15625 45.40625 
Q 23.53125 45.40625 19.453125 41.84375 
Q 15.375 38.28125 15.375 28.328125 
L 15.375 0 
z
" id="ArialMT-110"/>
       <path d="M 25.78125 7.859375 
L 27.046875 0.09375 
Q 23.34375 -0.6875 20.40625 -0.6875 
Q 15.625 -0.6875 12.984375 0.828125 
Q 10.359375 2.34375 9.28125 4.8125 
Q 8.203125 7.28125 8.203125 15.1875 
L 8.203125 45.015625 
L 1.765625 45.015625 
L 1.765625 51.859375 
L 8.203125 51.859375 
L 8.203125 64.703125 
L 16.9375 69.96875 
L 16.9375 51.859375 
L 25.78125 51.859375 
L 25.78125 45.015625 
L 16.9375 45.015625 
L 16.9375 14.703125 
Q 16.9375 10.9375 17.40625 9.859375 
Q 17.875 8.796875 18.921875 8.15625 
Q 19.96875 7.515625 21.921875 7.515625 
Q 23.390625 7.515625 25.78125 7.859375 
z
" id="ArialMT-116"/>
       <path d="M 42.09375 16.703125 
L 51.171875 15.578125 
Q 49.03125 7.625 43.21875 3.21875 
Q 37.40625 -1.171875 28.375 -1.171875 
Q 17 -1.171875 10.328125 5.828125 
Q 3.65625 12.84375 3.65625 25.484375 
Q 3.65625 38.578125 10.390625 45.796875 
Q 17.140625 53.03125 27.875 53.03125 
Q 38.28125 53.03125 44.875 45.953125 
Q 51.46875 38.875 51.46875 26.03125 
Q 51.46875 25.25 51.421875 23.6875 
L 12.75 23.6875 
Q 13.234375 15.140625 17.578125 10.59375 
Q 21.921875 6.0625 28.421875 6.0625 
Q 33.25 6.0625 36.671875 8.59375 
Q 40.09375 11.140625 42.09375 16.703125 
z
M 13.234375 30.90625 
L 42.1875 30.90625 
Q 41.609375 37.453125 38.875 40.71875 
Q 34.671875 45.796875 27.984375 45.796875 
Q 21.921875 45.796875 17.796875 41.75 
Q 13.671875 37.703125 13.234375 30.90625 
z
" id="ArialMT-101"/>
       <path d="M 4.984375 -4.296875 
L 13.53125 -5.5625 
Q 14.0625 -9.515625 16.5 -11.328125 
Q 19.78125 -13.765625 25.4375 -13.765625 
Q 31.546875 -13.765625 34.859375 -11.328125 
Q 38.1875 -8.890625 39.359375 -4.5 
Q 40.046875 -1.8125 39.984375 6.78125 
Q 34.234375 0 25.640625 0 
Q 14.9375 0 9.078125 7.71875 
Q 3.21875 15.4375 3.21875 26.21875 
Q 3.21875 33.640625 5.90625 39.90625 
Q 8.59375 46.1875 13.6875 49.609375 
Q 18.796875 53.03125 25.6875 53.03125 
Q 34.859375 53.03125 40.828125 45.609375 
L 40.828125 51.859375 
L 48.921875 51.859375 
L 48.921875 7.03125 
Q 48.921875 -5.078125 46.453125 -10.125 
Q 44 -15.1875 38.640625 -18.109375 
Q 33.296875 -21.046875 25.484375 -21.046875 
Q 16.21875 -21.046875 10.5 -16.875 
Q 4.78125 -12.703125 4.984375 -4.296875 
z
M 12.25 26.859375 
Q 12.25 16.65625 16.296875 11.96875 
Q 20.359375 7.28125 26.46875 7.28125 
Q 32.515625 7.28125 36.609375 11.9375 
Q 40.71875 16.609375 40.71875 26.5625 
Q 40.71875 36.078125 36.5 40.90625 
Q 32.28125 45.75 26.3125 45.75 
Q 20.453125 45.75 16.34375 40.984375 
Q 12.25 36.234375 12.25 26.859375 
z
" id="ArialMT-103"/>
       <path d="M 6.5 0 
L 6.5 51.859375 
L 14.40625 51.859375 
L 14.40625 44 
Q 17.4375 49.515625 20 51.265625 
Q 22.5625 53.03125 25.640625 53.03125 
Q 30.078125 53.03125 34.671875 50.203125 
L 31.640625 42.046875 
Q 28.421875 43.953125 25.203125 43.953125 
Q 22.3125 43.953125 20.015625 42.21875 
Q 17.71875 40.484375 16.75 37.40625 
Q 15.28125 32.71875 15.28125 27.15625 
L 15.28125 0 
z
" id="ArialMT-114"/>
       <path d="M 40.4375 6.390625 
Q 35.546875 2.25 31.03125 0.53125 
Q 26.515625 -1.171875 21.34375 -1.171875 
Q 12.796875 -1.171875 8.203125 3 
Q 3.609375 7.171875 3.609375 13.671875 
Q 3.609375 17.484375 5.34375 20.625 
Q 7.078125 23.78125 9.890625 25.6875 
Q 12.703125 27.59375 16.21875 28.5625 
Q 18.796875 29.25 24.03125 29.890625 
Q 34.671875 31.15625 39.703125 32.90625 
Q 39.75 34.71875 39.75 35.203125 
Q 39.75 40.578125 37.25 42.78125 
Q 33.890625 45.75 27.25 45.75 
Q 21.046875 45.75 18.09375 43.578125 
Q 15.140625 41.40625 13.71875 35.890625 
L 5.125 37.0625 
Q 6.296875 42.578125 8.984375 45.96875 
Q 11.671875 49.359375 16.75 51.1875 
Q 21.828125 53.03125 28.515625 53.03125 
Q 35.15625 53.03125 39.296875 51.46875 
Q 43.453125 49.90625 45.40625 47.53125 
Q 47.359375 45.171875 48.140625 41.546875 
Q 48.578125 39.3125 48.578125 33.453125 
L 48.578125 21.734375 
Q 48.578125 9.46875 49.140625 6.21875 
Q 49.703125 2.984375 51.375 0 
L 42.1875 0 
Q 40.828125 2.734375 40.4375 6.390625 
z
M 39.703125 26.03125 
Q 34.90625 24.078125 25.34375 22.703125 
Q 19.921875 21.921875 17.671875 20.9375 
Q 15.4375 19.96875 14.203125 18.09375 
Q 12.984375 16.21875 12.984375 13.921875 
Q 12.984375 10.40625 15.640625 8.0625 
Q 18.3125 5.71875 23.4375 5.71875 
Q 28.515625 5.71875 32.46875 7.9375 
Q 36.421875 10.15625 38.28125 14.015625 
Q 39.703125 17 39.703125 22.796875 
z
" id="ArialMT-97"/>
       <path d="M 6.640625 61.46875 
L 6.640625 71.578125 
L 15.4375 71.578125 
L 15.4375 61.46875 
z
M 6.640625 0 
L 6.640625 51.859375 
L 15.4375 51.859375 
L 15.4375 0 
z
" id="ArialMT-105"/>
       <path d="M 3.328125 25.921875 
Q 3.328125 40.328125 11.328125 47.265625 
Q 18.015625 53.03125 27.640625 53.03125 
Q 38.328125 53.03125 45.109375 46.015625 
Q 51.90625 39.015625 51.90625 26.65625 
Q 51.90625 16.65625 48.90625 10.90625 
Q 45.90625 5.171875 40.15625 2 
Q 34.421875 -1.171875 27.640625 -1.171875 
Q 16.75 -1.171875 10.03125 5.8125 
Q 3.328125 12.796875 3.328125 25.921875 
z
M 12.359375 25.921875 
Q 12.359375 15.96875 16.703125 11.015625 
Q 21.046875 6.0625 27.640625 6.0625 
Q 34.1875 6.0625 38.53125 11.03125 
Q 42.875 16.015625 42.875 26.21875 
Q 42.875 35.84375 38.5 40.796875 
Q 34.125 45.75 27.640625 45.75 
Q 21.046875 45.75 16.703125 40.8125 
Q 12.359375 35.890625 12.359375 25.921875 
z
" id="ArialMT-111"/>
       <path id="ArialMT-32"/>
       <path d="M 7.90625 0 
L 7.90625 71.578125 
L 59.671875 71.578125 
L 59.671875 63.140625 
L 17.390625 63.140625 
L 17.390625 41.21875 
L 56.984375 41.21875 
L 56.984375 32.8125 
L 17.390625 32.8125 
L 17.390625 8.453125 
L 61.328125 8.453125 
L 61.328125 0 
z
" id="ArialMT-69"/>
       <path d="M 8.6875 0 
L 8.6875 45.015625 
L 0.921875 45.015625 
L 0.921875 51.859375 
L 8.6875 51.859375 
L 8.6875 57.375 
Q 8.6875 62.59375 9.625 65.140625 
Q 10.890625 68.5625 14.078125 70.671875 
Q 17.28125 72.796875 23.046875 72.796875 
Q 26.765625 72.796875 31.25 71.921875 
L 29.9375 64.265625 
Q 27.203125 64.75 24.75 64.75 
Q 20.75 64.75 19.09375 63.03125 
Q 17.4375 61.328125 17.4375 56.640625 
L 17.4375 51.859375 
L 27.546875 51.859375 
L 27.546875 45.015625 
L 17.4375 45.015625 
L 17.4375 0 
z
" id="ArialMT-102"/>
       <path d="M 40.4375 19 
L 49.078125 17.875 
Q 47.65625 8.9375 41.8125 3.875 
Q 35.984375 -1.171875 27.484375 -1.171875 
Q 16.84375 -1.171875 10.375 5.78125 
Q 3.90625 12.75 3.90625 25.734375 
Q 3.90625 34.125 6.6875 40.421875 
Q 9.46875 46.734375 15.15625 49.875 
Q 20.84375 53.03125 27.546875 53.03125 
Q 35.984375 53.03125 41.359375 48.75 
Q 46.734375 44.484375 48.25 36.625 
L 39.703125 35.296875 
Q 38.484375 40.53125 35.375 43.15625 
Q 32.28125 45.796875 27.875 45.796875 
Q 21.234375 45.796875 17.078125 41.03125 
Q 12.9375 36.28125 12.9375 25.984375 
Q 12.9375 15.53125 16.9375 10.796875 
Q 20.953125 6.0625 27.390625 6.0625 
Q 32.5625 6.0625 36.03125 9.234375 
Q 39.5 12.40625 40.4375 19 
z
" id="ArialMT-99"/>
       <path d="M 6.203125 -19.96875 
L 5.21875 -11.71875 
Q 8.109375 -12.5 10.25 -12.5 
Q 13.1875 -12.5 14.9375 -11.515625 
Q 16.703125 -10.546875 17.828125 -8.796875 
Q 18.65625 -7.46875 20.515625 -2.25 
Q 20.75 -1.515625 21.296875 -0.09375 
L 1.609375 51.859375 
L 11.078125 51.859375 
L 21.875 21.828125 
Q 23.96875 16.109375 25.640625 9.8125 
Q 27.15625 15.875 29.25 21.625 
L 40.328125 51.859375 
L 49.125 51.859375 
L 29.390625 -0.875 
Q 26.21875 -9.421875 24.46875 -12.640625 
Q 22.125 -17 19.09375 -19.015625 
Q 16.0625 -21.046875 11.859375 -21.046875 
Q 9.328125 -21.046875 6.203125 -19.96875 
z
" id="ArialMT-121"/>
      </defs>
      <use xlink:href="#ArialMT-73"/>
      <use x="27.783203" xlink:href="#ArialMT-110"/>
      <use x="83.398438" xlink:href="#ArialMT-116"/>
      <use x="111.181641" xlink:href="#ArialMT-101"/>
      <use x="166.796875" xlink:href="#ArialMT-103"/>
      <use x="222.412109" xlink:href="#ArialMT-114"/>
      <use x="255.712891" xlink:href="#ArialMT-97"/>
      <use x="311.328125" xlink:href="#ArialMT-116"/>
      <use x="339.111328" xlink:href="#ArialMT-105"/>
      <use x="361.328125" xlink:href="#ArialMT-111"/>
      <use x="416.943359" xlink:href="#ArialMT-110"/>
      <use x="472.558594" xlink:href="#ArialMT-32"/>
      <use x="500.341797" xlink:href="#ArialMT-69"/>
      <use x="567.041016" xlink:href="#ArialMT-102"/>
      <use x="593.074219" xlink:href="#ArialMT-102"/>
      <use x="620.857422" xlink:href="#ArialMT-105"/>
      <use x="643.074219" xlink:href="#ArialMT-99"/>
      <use x="693.074219" xlink:href="#ArialMT-105"/>
      <use x="715.291016" xlink:href="#ArialMT-101"/>
      <use x="770.90625" xlink:href="#ArialMT-110"/>
      <use x="826.521484" xlink:href="#ArialMT-99"/>
      <use x="876.521484" xlink:href="#ArialMT-121"/>
     </g>
    </g>
   </g>
   <g id="patch_3">
    <path d="M 72.702422 204.872727 
L 72.702422 7.2 
" style="fill:none;stroke:#262626;stroke-linecap:square;stroke-linejoin:miter;stroke-width:1.875;"/>
   </g>
   <g id="patch_4">
    <path d="M 72.702422 204.872727 
L 519.102422 204.872727 
" style="fill:none;stroke:#262626;stroke-linecap:square;stroke-linejoin:miter;stroke-width:1.875;"/>
   </g>
   <g id="PathCollection_1">
    <defs>
     <path d="M 0 2.5 
C 0.663008 2.5 1.29895 2.236584 1.767767 1.767767 
C 2.236584 1.29895 2.5 0.663008 2.5 -0 
C 2.5 -0.663008 2.236584 -1.29895 1.767767 -1.767767 
C 1.29895 -2.236584 0.663008 -2.5 0 -2.5 
C -0.663008 -2.5 -1.29895 -2.236584 -1.767767 -1.767767 
C -2.236584 -1.29895 -2.5 -0.663008 -2.5 0 
C -2.5 0.663008 -2.236584 1.29895 -1.767767 1.767767 
C -1.29895 2.236584 -0.663008 2.5 0 2.5 
z
" id="C0_0_384af8c867"/>
    </defs>
    <g clip-path="url(#p136a24bed6)">
     <use style="fill:#f1be64;" x="124.217571" xlink:href="#C0_0_384af8c867" y="184.233333"/>
    </g>
    <g clip-path="url(#p136a24bed6)">
     <use style="fill:#f1be64;" x="122.468864" xlink:href="#C0_0_384af8c867" y="179.464748"/>
    </g>
    <g clip-path="url(#p136a24bed6)">
     <use style="fill:#f1be64;" x="116.688171" xlink:href="#C0_0_384af8c867" y="179.746722"/>
    </g>
   </g>
   <g id="PathCollection_2">
    <defs>
     <path d="M 0 2.5 
C 0.663008 2.5 1.29895 2.236584 1.767767 1.767767 
C 2.236584 1.29895 2.5 0.663008 2.5 -0 
C 2.5 -0.663008 2.236584 -1.29895 1.767767 -1.767767 
C 1.29895 -2.236584 0.663008 -2.5 0 -2.5 
C -0.663008 -2.5 -1.29895 -2.236584 -1.767767 -1.767767 
C -2.236584 -1.29895 -2.5 -0.663008 -2.5 0 
C -2.5 0.663008 -2.236584 1.29895 -1.767767 1.767767 
C -1.29895 2.236584 -0.663008 2.5 0 2.5 
z
" id="C1_0_c8062e16f6"/>
    </defs>
    <g clip-path="url(#p136a24bed6)">
     <use style="fill:#ac4140;" x="190.316848" xlink:href="#C1_0_c8062e16f6" y="147.057308"/>
    </g>
    <g clip-path="url(#p136a24bed6)">
     <use style="fill:#ac4140;" x="184.951529" xlink:href="#C1_0_c8062e16f6" y="144.944828"/>
    </g>
    <g clip-path="url(#p136a24bed6)">
     <use style="fill:#ac4140;" x="196.015082" xlink:href="#C1_0_c8062e16f6" y="142.07091"/>
    </g>
   </g>
   <g id="PathCollection_3">
    <defs>
     <path d="M 0 2.5 
C 0.663008 2.5 1.29895 2.236584 1.767767 1.767767 
C 2.236584 1.29895 2.5 0.663008 2.5 -0 
C 2.5 -0.663008 2.236584 -1.29895 1.767767 -1.767767 
C 1.29895 -2.236584 0.663008 -2.5 0 -2.5 
C -0.663008 -2.5 -1.29895 -2.236584 -1.767767 -1.767767 
C -2.236584 -1.29895 -2.5 -0.663008 -2.5 0 
C -2.5 0.663008 -2.236584 1.29895 -1.767767 1.767767 
C -1.29895 2.236584 -0.663008 2.5 0 2.5 
z
" id="C2_0_c9f0b584c2"/>
    </defs>
    <g clip-path="url(#p136a24bed6)">
     <use style="fill:#f85d5c;" x="257.894884" xlink:href="#C2_0_c9f0b584c2" y="190.564873"/>
    </g>
    <g clip-path="url(#p136a24bed6)">
     <use style="fill:#f85d5c;" x="265.247639" xlink:href="#C2_0_c9f0b584c2" y="193.864213"/>
    </g>
    <g clip-path="url(#p136a24bed6)">
     <use style="fill:#f85d5c;" x="267.220049" xlink:href="#C2_0_c9f0b584c2" y="193.566642"/>
    </g>
   </g>
   <g id="PathCollection_4">
    <defs>
     <path d="M 0 2.5 
C 0.663008 2.5 1.29895 2.236584 1.767767 1.767767 
C 2.236584 1.29895 2.5 0.663008 2.5 -0 
C 2.5 -0.663008 2.236584 -1.29895 1.767767 -1.767767 
C 1.29895 -2.236584 0.663008 -2.5 0 -2.5 
C -0.663008 -2.5 -1.29895 -2.236584 -1.767767 -1.767767 
C -2.236584 -1.29895 -2.5 -0.663008 -2.5 0 
C -2.5 0.663008 -2.236584 1.29895 -1.767767 1.767767 
C -1.29895 2.236584 -0.663008 2.5 0 2.5 
z
" id="C3_0_12ccf541ce"/>
    </defs>
    <g clip-path="url(#p136a24bed6)">
     <use style="fill:#1de2ff;" x="334.785006" xlink:href="#C3_0_12ccf541ce" y="127.364438"/>
    </g>
    <g clip-path="url(#p136a24bed6)">
     <use style="fill:#1de2ff;" x="328.410797" xlink:href="#C3_0_12ccf541ce" y="129.951453"/>
    </g>
    <g clip-path="url(#p136a24bed6)">
     <use style="fill:#1de2ff;" x="337.625221" xlink:href="#C3_0_12ccf541ce" y="81.306539"/>
    </g>
   </g>
   <g id="PathCollection_5">
    <defs>
     <path d="M 0 2.5 
C 0.663008 2.5 1.29895 2.236584 1.767767 1.767767 
C 2.236584 1.29895 2.5 0.663008 2.5 -0 
C 2.5 -0.663008 2.236584 -1.29895 1.767767 -1.767767 
C 1.29895 -2.236584 0.663008 -2.5 0 -2.5 
C -0.663008 -2.5 -1.29895 -2.236584 -1.767767 -1.767767 
C -2.236584 -1.29895 -2.5 -0.663008 -2.5 0 
C -2.5 0.663008 -2.236584 1.29895 -1.767767 1.767767 
C -1.29895 2.236584 -0.663008 2.5 0 2.5 
z
" id="C4_0_bd43edce64"/>
    </defs>
    <g clip-path="url(#p136a24bed6)">
     <use style="fill:#29f43d;" x="403.332297" xlink:href="#C4_0_bd43edce64" y="120.498003"/>
    </g>
    <g clip-path="url(#p136a24bed6)">
     <use style="fill:#29f43d;" x="399.570932" xlink:href="#C4_0_bd43edce64" y="125.668533"/>
    </g>
    <g clip-path="url(#p136a24bed6)">
     <use style="fill:#29f43d;" x="407.612122" xlink:href="#C4_0_bd43edce64" y="125.687548"/>
    </g>
   </g>
   <g id="PathCollection_6">
    <defs>
     <path d="M 0 2.5 
C 0.663008 2.5 1.29895 2.236584 1.767767 1.767767 
C 2.236584 1.29895 2.5 0.663008 2.5 -0 
C 2.5 -0.663008 2.236584 -1.29895 1.767767 -1.767767 
C 1.29895 -2.236584 0.663008 -2.5 0 -2.5 
C -0.663008 -2.5 -1.29895 -2.236584 -1.767767 -1.767767 
C -2.236584 -1.29895 -2.5 -0.663008 -2.5 0 
C -2.5 0.663008 -2.236584 1.29895 -1.767767 1.767767 
C -1.29895 2.236584 -0.663008 2.5 0 2.5 
z
" id="C5_0_b8dba6ce32"/>
    </defs>
    <g clip-path="url(#p136a24bed6)">
     <use style="fill:#f42d29;" x="475.12536" xlink:href="#C5_0_b8dba6ce32" y="35.279219"/>
    </g>
    <g clip-path="url(#p136a24bed6)">
     <use style="fill:#f42d29;" x="480.325564" xlink:href="#C5_0_b8dba6ce32" y="45.732242"/>
    </g>
    <g clip-path="url(#p136a24bed6)">
     <use style="fill:#f42d29;" x="469.610134" xlink:href="#C5_0_b8dba6ce32" y="16.088772"/>
    </g>
   </g>
  </g>
  <g id="axes_2">
   <g id="patch_5">
    <path d="M 72.702422 442.08 
L 519.102422 442.08 
L 519.102422 244.407273 
L 72.702422 244.407273 
z
" style="fill:#ffffff;"/>
   </g>
   <g id="matplotlib.axis_3">
    <g id="xtick_7">
     <g id="line2d_13">
      <g>
       <use style="fill:#262626;stroke:#262626;stroke-width:1.875;" x="120.591267" xlink:href="#m36d753aebe" y="442.08"/>
      </g>
     </g>
     <g id="text_8">
      <!-- 3-gene.Tandem -->
      <g style="fill:#262626;" transform="translate(124.784588 569.224062)rotate(-90)scale(0.165 -0.165)">
       <defs>
        <path d="M 4.203125 18.890625 
L 12.984375 20.0625 
Q 14.5 12.59375 18.140625 9.296875 
Q 21.78125 6 27 6 
Q 33.203125 6 37.46875 10.296875 
Q 41.75 14.59375 41.75 20.953125 
Q 41.75 27 37.796875 30.921875 
Q 33.84375 34.859375 27.734375 34.859375 
Q 25.25 34.859375 21.53125 33.890625 
L 22.515625 41.609375 
Q 23.390625 41.5 23.921875 41.5 
Q 29.546875 41.5 34.03125 44.421875 
Q 38.53125 47.359375 38.53125 53.46875 
Q 38.53125 58.296875 35.25 61.46875 
Q 31.984375 64.65625 26.8125 64.65625 
Q 21.6875 64.65625 18.265625 61.421875 
Q 14.84375 58.203125 13.875 51.765625 
L 5.078125 53.328125 
Q 6.6875 62.15625 12.390625 67.015625 
Q 18.109375 71.875 26.609375 71.875 
Q 32.46875 71.875 37.390625 69.359375 
Q 42.328125 66.84375 44.9375 62.5 
Q 47.5625 58.15625 47.5625 53.265625 
Q 47.5625 48.640625 45.0625 44.828125 
Q 42.578125 41.015625 37.703125 38.765625 
Q 44.046875 37.3125 47.5625 32.6875 
Q 51.078125 28.078125 51.078125 21.140625 
Q 51.078125 11.765625 44.234375 5.25 
Q 37.40625 -1.265625 26.953125 -1.265625 
Q 17.53125 -1.265625 11.296875 4.34375 
Q 5.078125 9.96875 4.203125 18.890625 
z
" id="ArialMT-51"/>
        <path d="M 3.171875 21.484375 
L 3.171875 30.328125 
L 30.171875 30.328125 
L 30.171875 21.484375 
z
" id="ArialMT-45"/>
        <path d="M 25.921875 0 
L 25.921875 63.140625 
L 2.34375 63.140625 
L 2.34375 71.578125 
L 59.078125 71.578125 
L 59.078125 63.140625 
L 35.40625 63.140625 
L 35.40625 0 
z
" id="ArialMT-84"/>
        <path d="M 40.234375 0 
L 40.234375 6.546875 
Q 35.296875 -1.171875 25.734375 -1.171875 
Q 19.53125 -1.171875 14.328125 2.25 
Q 9.125 5.671875 6.265625 11.796875 
Q 3.421875 17.921875 3.421875 25.875 
Q 3.421875 33.640625 6 39.96875 
Q 8.59375 46.296875 13.765625 49.65625 
Q 18.953125 53.03125 25.34375 53.03125 
Q 30.03125 53.03125 33.6875 51.046875 
Q 37.359375 49.078125 39.65625 45.90625 
L 39.65625 71.578125 
L 48.390625 71.578125 
L 48.390625 0 
z
M 12.453125 25.875 
Q 12.453125 15.921875 16.640625 10.984375 
Q 20.84375 6.0625 26.5625 6.0625 
Q 32.328125 6.0625 36.34375 10.765625 
Q 40.375 15.484375 40.375 25.140625 
Q 40.375 35.796875 36.265625 40.765625 
Q 32.171875 45.75 26.171875 45.75 
Q 20.3125 45.75 16.375 40.96875 
Q 12.453125 36.1875 12.453125 25.875 
z
" id="ArialMT-100"/>
        <path d="M 6.59375 0 
L 6.59375 51.859375 
L 14.453125 51.859375 
L 14.453125 44.578125 
Q 16.890625 48.390625 20.9375 50.703125 
Q 25 53.03125 30.171875 53.03125 
Q 35.9375 53.03125 39.625 50.640625 
Q 43.3125 48.25 44.828125 43.953125 
Q 50.984375 53.03125 60.84375 53.03125 
Q 68.5625 53.03125 72.703125 48.75 
Q 76.859375 44.484375 76.859375 35.59375 
L 76.859375 0 
L 68.109375 0 
L 68.109375 32.671875 
Q 68.109375 37.9375 67.25 40.25 
Q 66.40625 42.578125 64.15625 43.984375 
Q 61.921875 45.40625 58.890625 45.40625 
Q 53.421875 45.40625 49.796875 41.765625 
Q 46.1875 38.140625 46.1875 30.125 
L 46.1875 0 
L 37.40625 0 
L 37.40625 33.6875 
Q 37.40625 39.546875 35.25 42.46875 
Q 33.109375 45.40625 28.21875 45.40625 
Q 24.515625 45.40625 21.359375 43.453125 
Q 18.21875 41.5 16.796875 37.734375 
Q 15.375 33.984375 15.375 26.90625 
L 15.375 0 
z
" id="ArialMT-109"/>
       </defs>
       <use xlink:href="#ArialMT-51"/>
       <use x="55.615234" xlink:href="#ArialMT-45"/>
       <use x="88.916016" xlink:href="#ArialMT-103"/>
       <use x="144.53125" xlink:href="#ArialMT-101"/>
       <use x="200.146484" xlink:href="#ArialMT-110"/>
       <use x="255.761719" xlink:href="#ArialMT-101"/>
       <use x="311.376953" xlink:href="#ArialMT-46"/>
       <use x="339.160156" xlink:href="#ArialMT-84"/>
       <use x="389.119141" xlink:href="#ArialMT-97"/>
       <use x="444.734375" xlink:href="#ArialMT-110"/>
       <use x="500.349609" xlink:href="#ArialMT-100"/>
       <use x="555.964844" xlink:href="#ArialMT-101"/>
       <use x="611.580078" xlink:href="#ArialMT-109"/>
      </g>
     </g>
    </g>
    <g id="xtick_8">
     <g id="line2d_14">
      <g>
       <use style="fill:#262626;stroke:#262626;stroke-width:1.875;" x="191.28664" xlink:href="#m36d753aebe" y="442.08"/>
      </g>
     </g>
     <g id="text_9">
      <!-- 2-gene.Convergent -->
      <g style="fill:#262626;" transform="translate(195.556015 595.832891)rotate(-90)scale(0.165 -0.165)">
       <defs>
        <path d="M 58.796875 25.09375 
L 68.265625 22.703125 
Q 65.28125 11.03125 57.546875 4.90625 
Q 49.8125 -1.21875 38.625 -1.21875 
Q 27.046875 -1.21875 19.796875 3.484375 
Q 12.546875 8.203125 8.765625 17.140625 
Q 4.984375 26.078125 4.984375 36.328125 
Q 4.984375 47.515625 9.25 55.828125 
Q 13.53125 64.15625 21.40625 68.46875 
Q 29.296875 72.796875 38.765625 72.796875 
Q 49.515625 72.796875 56.828125 67.328125 
Q 64.15625 61.859375 67.046875 51.953125 
L 57.71875 49.75 
Q 55.21875 57.5625 50.484375 61.125 
Q 45.75 64.703125 38.578125 64.703125 
Q 30.328125 64.703125 24.78125 60.734375 
Q 19.234375 56.78125 16.984375 50.109375 
Q 14.75 43.453125 14.75 36.375 
Q 14.75 27.25 17.40625 20.4375 
Q 20.0625 13.625 25.671875 10.25 
Q 31.296875 6.890625 37.84375 6.890625 
Q 45.796875 6.890625 51.3125 11.46875 
Q 56.84375 16.0625 58.796875 25.09375 
z
" id="ArialMT-67"/>
        <path d="M 21 0 
L 1.265625 51.859375 
L 10.546875 51.859375 
L 21.6875 20.796875 
Q 23.484375 15.765625 25 10.359375 
Q 26.171875 14.453125 28.265625 20.21875 
L 39.796875 51.859375 
L 48.828125 51.859375 
L 29.203125 0 
z
" id="ArialMT-118"/>
       </defs>
       <use xlink:href="#ArialMT-50"/>
       <use x="55.615234" xlink:href="#ArialMT-45"/>
       <use x="88.916016" xlink:href="#ArialMT-103"/>
       <use x="144.53125" xlink:href="#ArialMT-101"/>
       <use x="200.146484" xlink:href="#ArialMT-110"/>
       <use x="255.761719" xlink:href="#ArialMT-101"/>
       <use x="311.376953" xlink:href="#ArialMT-46"/>
       <use x="339.160156" xlink:href="#ArialMT-67"/>
       <use x="411.376953" xlink:href="#ArialMT-111"/>
       <use x="466.992188" xlink:href="#ArialMT-110"/>
       <use x="522.607422" xlink:href="#ArialMT-118"/>
       <use x="572.607422" xlink:href="#ArialMT-101"/>
       <use x="628.222656" xlink:href="#ArialMT-114"/>
       <use x="661.523438" xlink:href="#ArialMT-103"/>
       <use x="717.138672" xlink:href="#ArialMT-101"/>
       <use x="772.753906" xlink:href="#ArialMT-110"/>
       <use x="828.369141" xlink:href="#ArialMT-116"/>
      </g>
     </g>
    </g>
    <g id="xtick_9">
     <g id="line2d_15">
      <g>
       <use style="fill:#262626;stroke:#262626;stroke-width:1.875;" x="261.982013" xlink:href="#m36d753aebe" y="442.08"/>
      </g>
     </g>
     <g id="text_10">
      <!-- 3-gene.Convergent -->
      <g style="fill:#262626;" transform="translate(266.251388 595.832891)rotate(-90)scale(0.165 -0.165)">
       <use xlink:href="#ArialMT-51"/>
       <use x="55.615234" xlink:href="#ArialMT-45"/>
       <use x="88.916016" xlink:href="#ArialMT-103"/>
       <use x="144.53125" xlink:href="#ArialMT-101"/>
       <use x="200.146484" xlink:href="#ArialMT-110"/>
       <use x="255.761719" xlink:href="#ArialMT-101"/>
       <use x="311.376953" xlink:href="#ArialMT-46"/>
       <use x="339.160156" xlink:href="#ArialMT-67"/>
       <use x="411.376953" xlink:href="#ArialMT-111"/>
       <use x="466.992188" xlink:href="#ArialMT-110"/>
       <use x="522.607422" xlink:href="#ArialMT-118"/>
       <use x="572.607422" xlink:href="#ArialMT-101"/>
       <use x="628.222656" xlink:href="#ArialMT-114"/>
       <use x="661.523438" xlink:href="#ArialMT-103"/>
       <use x="717.138672" xlink:href="#ArialMT-101"/>
       <use x="772.753906" xlink:href="#ArialMT-110"/>
       <use x="828.369141" xlink:href="#ArialMT-116"/>
      </g>
     </g>
    </g>
    <g id="xtick_10">
     <g id="line2d_16">
      <g>
       <use style="fill:#262626;stroke:#262626;stroke-width:1.875;" x="332.677386" xlink:href="#m36d753aebe" y="442.08"/>
      </g>
     </g>
     <g id="text_11">
      <!-- 3-gene.Divergent -->
      <g style="fill:#262626;" transform="translate(336.870707 581.147891)rotate(-90)scale(0.165 -0.165)">
       <defs>
        <path d="M 7.71875 0 
L 7.71875 71.578125 
L 32.375 71.578125 
Q 40.71875 71.578125 45.125 70.5625 
Q 51.265625 69.140625 55.609375 65.4375 
Q 61.28125 60.640625 64.078125 53.1875 
Q 66.890625 45.75 66.890625 36.1875 
Q 66.890625 28.03125 64.984375 21.734375 
Q 63.09375 15.4375 60.109375 11.296875 
Q 57.125 7.171875 53.578125 4.796875 
Q 50.046875 2.4375 45.046875 1.21875 
Q 40.046875 0 33.546875 0 
z
M 17.1875 8.453125 
L 32.46875 8.453125 
Q 39.546875 8.453125 43.578125 9.765625 
Q 47.609375 11.078125 50 13.484375 
Q 53.375 16.84375 55.25 22.53125 
Q 57.125 28.21875 57.125 36.328125 
Q 57.125 47.5625 53.4375 53.59375 
Q 49.75 59.625 44.484375 61.671875 
Q 40.671875 63.140625 32.234375 63.140625 
L 17.1875 63.140625 
z
" id="ArialMT-68"/>
       </defs>
       <use xlink:href="#ArialMT-51"/>
       <use x="55.615234" xlink:href="#ArialMT-45"/>
       <use x="88.916016" xlink:href="#ArialMT-103"/>
       <use x="144.53125" xlink:href="#ArialMT-101"/>
       <use x="200.146484" xlink:href="#ArialMT-110"/>
       <use x="255.761719" xlink:href="#ArialMT-101"/>
       <use x="311.376953" xlink:href="#ArialMT-46"/>
       <use x="339.160156" xlink:href="#ArialMT-68"/>
       <use x="411.376953" xlink:href="#ArialMT-105"/>
       <use x="433.59375" xlink:href="#ArialMT-118"/>
       <use x="483.59375" xlink:href="#ArialMT-101"/>
       <use x="539.208984" xlink:href="#ArialMT-114"/>
       <use x="572.509766" xlink:href="#ArialMT-103"/>
       <use x="628.125" xlink:href="#ArialMT-101"/>
       <use x="683.740234" xlink:href="#ArialMT-110"/>
       <use x="739.355469" xlink:href="#ArialMT-116"/>
      </g>
     </g>
    </g>
    <g id="xtick_11">
     <g id="line2d_17">
      <g>
       <use style="fill:#262626;stroke:#262626;stroke-width:1.875;" x="403.372759" xlink:href="#m36d753aebe" y="442.08"/>
      </g>
     </g>
     <g id="text_12">
      <!-- EGFP -->
      <g style="fill:#262626;" transform="translate(407.638267 499.503828)rotate(-90)scale(0.165 -0.165)">
       <defs>
        <path d="M 41.21875 28.078125 
L 41.21875 36.46875 
L 71.53125 36.53125 
L 71.53125 9.96875 
Q 64.546875 4.390625 57.125 1.578125 
Q 49.703125 -1.21875 41.890625 -1.21875 
Q 31.34375 -1.21875 22.71875 3.296875 
Q 14.109375 7.8125 9.71875 16.359375 
Q 5.328125 24.90625 5.328125 35.453125 
Q 5.328125 45.90625 9.6875 54.953125 
Q 14.0625 64.015625 22.265625 68.40625 
Q 30.46875 72.796875 41.15625 72.796875 
Q 48.921875 72.796875 55.1875 70.28125 
Q 61.46875 67.78125 65.03125 63.28125 
Q 68.609375 58.796875 70.453125 51.5625 
L 61.921875 49.21875 
Q 60.296875 54.6875 57.90625 57.8125 
Q 55.515625 60.9375 51.0625 62.8125 
Q 46.625 64.703125 41.21875 64.703125 
Q 34.71875 64.703125 29.984375 62.71875 
Q 25.25 60.75 22.34375 57.515625 
Q 19.4375 54.296875 17.828125 50.4375 
Q 15.09375 43.796875 15.09375 36.03125 
Q 15.09375 26.46875 18.390625 20.015625 
Q 21.6875 13.578125 27.984375 10.453125 
Q 34.28125 7.328125 41.359375 7.328125 
Q 47.515625 7.328125 53.375 9.6875 
Q 59.234375 12.0625 62.25 14.75 
L 62.25 28.078125 
z
" id="ArialMT-71"/>
        <path d="M 8.203125 0 
L 8.203125 71.578125 
L 56.5 71.578125 
L 56.5 63.140625 
L 17.671875 63.140625 
L 17.671875 40.96875 
L 51.265625 40.96875 
L 51.265625 32.515625 
L 17.671875 32.515625 
L 17.671875 0 
z
" id="ArialMT-70"/>
        <path d="M 7.71875 0 
L 7.71875 71.578125 
L 34.71875 71.578125 
Q 41.84375 71.578125 45.609375 70.90625 
Q 50.875 70.015625 54.4375 67.546875 
Q 58.015625 65.09375 60.1875 60.640625 
Q 62.359375 56.203125 62.359375 50.875 
Q 62.359375 41.75 56.546875 35.421875 
Q 50.734375 29.109375 35.546875 29.109375 
L 17.1875 29.109375 
L 17.1875 0 
z
M 17.1875 37.546875 
L 35.6875 37.546875 
Q 44.875 37.546875 48.734375 40.96875 
Q 52.59375 44.390625 52.59375 50.59375 
Q 52.59375 55.078125 50.3125 58.265625 
Q 48.046875 61.46875 44.34375 62.5 
Q 41.9375 63.140625 35.5 63.140625 
L 17.1875 63.140625 
z
" id="ArialMT-80"/>
       </defs>
       <use xlink:href="#ArialMT-69"/>
       <use x="66.699219" xlink:href="#ArialMT-71"/>
       <use x="144.482422" xlink:href="#ArialMT-70"/>
       <use x="205.566406" xlink:href="#ArialMT-80"/>
      </g>
     </g>
    </g>
    <g id="xtick_12">
     <g id="line2d_18">
      <g>
       <use style="fill:#262626;stroke:#262626;stroke-width:1.875;" x="474.068132" xlink:href="#m36d753aebe" y="442.08"/>
      </g>
     </g>
     <g id="text_13">
      <!-- mRuby2 -->
      <g style="fill:#262626;" transform="translate(478.261453 516.016719)rotate(-90)scale(0.165 -0.165)">
       <defs>
        <path d="M 7.859375 0 
L 7.859375 71.578125 
L 39.59375 71.578125 
Q 49.171875 71.578125 54.140625 69.640625 
Q 59.125 67.71875 62.109375 62.828125 
Q 65.09375 57.953125 65.09375 52.046875 
Q 65.09375 44.4375 60.15625 39.203125 
Q 55.21875 33.984375 44.921875 32.5625 
Q 48.6875 30.765625 50.640625 29 
Q 54.78125 25.203125 58.5 19.484375 
L 70.953125 0 
L 59.03125 0 
L 49.5625 14.890625 
Q 45.40625 21.34375 42.71875 24.75 
Q 40.046875 28.171875 37.921875 29.53125 
Q 35.796875 30.90625 33.59375 31.453125 
Q 31.984375 31.78125 28.328125 31.78125 
L 17.328125 31.78125 
L 17.328125 0 
z
M 17.328125 39.984375 
L 37.703125 39.984375 
Q 44.1875 39.984375 47.84375 41.328125 
Q 51.515625 42.671875 53.421875 45.625 
Q 55.328125 48.578125 55.328125 52.046875 
Q 55.328125 57.125 51.640625 60.390625 
Q 47.953125 63.671875 39.984375 63.671875 
L 17.328125 63.671875 
z
" id="ArialMT-82"/>
        <path d="M 40.578125 0 
L 40.578125 7.625 
Q 34.515625 -1.171875 24.125 -1.171875 
Q 19.53125 -1.171875 15.546875 0.578125 
Q 11.578125 2.34375 9.640625 5 
Q 7.71875 7.671875 6.9375 11.53125 
Q 6.390625 14.109375 6.390625 19.734375 
L 6.390625 51.859375 
L 15.1875 51.859375 
L 15.1875 23.09375 
Q 15.1875 16.21875 15.71875 13.8125 
Q 16.546875 10.359375 19.234375 8.375 
Q 21.921875 6.390625 25.875 6.390625 
Q 29.828125 6.390625 33.296875 8.421875 
Q 36.765625 10.453125 38.203125 13.9375 
Q 39.65625 17.4375 39.65625 24.078125 
L 39.65625 51.859375 
L 48.4375 51.859375 
L 48.4375 0 
z
" id="ArialMT-117"/>
        <path d="M 14.703125 0 
L 6.546875 0 
L 6.546875 71.578125 
L 15.328125 71.578125 
L 15.328125 46.046875 
Q 20.90625 53.03125 29.546875 53.03125 
Q 34.328125 53.03125 38.59375 51.09375 
Q 42.875 49.171875 45.625 45.671875 
Q 48.390625 42.1875 49.953125 37.25 
Q 51.515625 32.328125 51.515625 26.703125 
Q 51.515625 13.375 44.921875 6.09375 
Q 38.328125 -1.171875 29.109375 -1.171875 
Q 19.921875 -1.171875 14.703125 6.5 
z
M 14.59375 26.3125 
Q 14.59375 17 17.140625 12.84375 
Q 21.296875 6.0625 28.375 6.0625 
Q 34.125 6.0625 38.328125 11.0625 
Q 42.53125 16.0625 42.53125 25.984375 
Q 42.53125 36.140625 38.5 40.96875 
Q 34.46875 45.796875 28.765625 45.796875 
Q 23 45.796875 18.796875 40.796875 
Q 14.59375 35.796875 14.59375 26.3125 
z
" id="ArialMT-98"/>
       </defs>
       <use xlink:href="#ArialMT-109"/>
       <use x="83.300781" xlink:href="#ArialMT-82"/>
       <use x="155.517578" xlink:href="#ArialMT-117"/>
       <use x="211.132812" xlink:href="#ArialMT-98"/>
       <use x="266.748047" xlink:href="#ArialMT-121"/>
       <use x="316.748047" xlink:href="#ArialMT-50"/>
      </g>
     </g>
    </g>
    <g id="text_14">
     <!-- condition -->
     <g style="fill:#262626;" transform="translate(259.878516 612.716953)scale(0.18 -0.18)">
      <use xlink:href="#ArialMT-99"/>
      <use x="50" xlink:href="#ArialMT-111"/>
      <use x="105.615234" xlink:href="#ArialMT-110"/>
      <use x="161.230469" xlink:href="#ArialMT-100"/>
      <use x="216.845703" xlink:href="#ArialMT-105"/>
      <use x="239.0625" xlink:href="#ArialMT-116"/>
      <use x="266.845703" xlink:href="#ArialMT-105"/>
      <use x="289.0625" xlink:href="#ArialMT-111"/>
      <use x="344.677734" xlink:href="#ArialMT-110"/>
     </g>
    </g>
   </g>
   <g id="matplotlib.axis_4">
    <g id="ytick_7">
     <g id="line2d_19">
      <g>
       <use style="fill:#262626;stroke:#262626;stroke-width:1.875;" x="72.702422" xlink:href="#m2e5bea66b7" y="426.505616"/>
      </g>
     </g>
     <g id="text_15">
      <!-- 0 -->
      <g style="fill:#262626;" transform="translate(56.923047 429.775968)rotate(-90)scale(0.165 -0.165)">
       <use xlink:href="#ArialMT-48"/>
      </g>
     </g>
    </g>
    <g id="ytick_8">
     <g id="line2d_20">
      <g>
       <use style="fill:#262626;stroke:#262626;stroke-width:1.875;" x="72.702422" xlink:href="#m2e5bea66b7" y="398.532125"/>
      </g>
     </g>
     <g id="text_16">
      <!-- 1 -->
      <g style="fill:#262626;" transform="translate(56.923047 401.802477)rotate(-90)scale(0.165 -0.165)">
       <use xlink:href="#ArialMT-49"/>
      </g>
     </g>
    </g>
    <g id="ytick_9">
     <g id="line2d_21">
      <g>
       <use style="fill:#262626;stroke:#262626;stroke-width:1.875;" x="72.702422" xlink:href="#m2e5bea66b7" y="370.558635"/>
      </g>
     </g>
     <g id="text_17">
      <!-- 2 -->
      <g style="fill:#262626;" transform="translate(56.923047 373.828986)rotate(-90)scale(0.165 -0.165)">
       <use xlink:href="#ArialMT-50"/>
      </g>
     </g>
    </g>
    <g id="ytick_10">
     <g id="line2d_22">
      <g>
       <use style="fill:#262626;stroke:#262626;stroke-width:1.875;" x="72.702422" xlink:href="#m2e5bea66b7" y="342.585144"/>
      </g>
     </g>
     <g id="text_18">
      <!-- 3 -->
      <g style="fill:#262626;" transform="translate(56.923047 345.855495)rotate(-90)scale(0.165 -0.165)">
       <use xlink:href="#ArialMT-51"/>
      </g>
     </g>
    </g>
    <g id="ytick_11">
     <g id="line2d_23">
      <g>
       <use style="fill:#262626;stroke:#262626;stroke-width:1.875;" x="72.702422" xlink:href="#m2e5bea66b7" y="314.611653"/>
      </g>
     </g>
     <g id="text_19">
      <!-- 4 -->
      <g style="fill:#262626;" transform="translate(56.923047 317.882005)rotate(-90)scale(0.165 -0.165)">
       <defs>
        <path d="M 32.328125 0 
L 32.328125 17.140625 
L 1.265625 17.140625 
L 1.265625 25.203125 
L 33.9375 71.578125 
L 41.109375 71.578125 
L 41.109375 25.203125 
L 50.78125 25.203125 
L 50.78125 17.140625 
L 41.109375 17.140625 
L 41.109375 0 
z
M 32.328125 25.203125 
L 32.328125 57.46875 
L 9.90625 25.203125 
z
" id="ArialMT-52"/>
       </defs>
       <use xlink:href="#ArialMT-52"/>
      </g>
     </g>
    </g>
    <g id="ytick_12">
     <g id="line2d_24">
      <g>
       <use style="fill:#262626;stroke:#262626;stroke-width:1.875;" x="72.702422" xlink:href="#m2e5bea66b7" y="286.638162"/>
      </g>
     </g>
     <g id="text_20">
      <!-- 5 -->
      <g style="fill:#262626;" transform="translate(56.923047 289.908514)rotate(-90)scale(0.165 -0.165)">
       <use xlink:href="#ArialMT-53"/>
      </g>
     </g>
    </g>
    <g id="text_21">
     <!-- log Integration Marker -->
     <g style="fill:#262626;" transform="translate(20.303438 430.779886)rotate(-90)scale(0.18 -0.18)">
      <defs>
       <path d="M 6.390625 0 
L 6.390625 71.578125 
L 15.1875 71.578125 
L 15.1875 0 
z
" id="ArialMT-108"/>
       <path d="M 7.421875 0 
L 7.421875 71.578125 
L 21.6875 71.578125 
L 38.625 20.90625 
Q 40.96875 13.8125 42.046875 10.296875 
Q 43.265625 14.203125 45.84375 21.78125 
L 62.984375 71.578125 
L 75.734375 71.578125 
L 75.734375 0 
L 66.609375 0 
L 66.609375 59.90625 
L 45.796875 0 
L 37.25 0 
L 16.546875 60.9375 
L 16.546875 0 
z
" id="ArialMT-77"/>
       <path d="M 6.640625 0 
L 6.640625 71.578125 
L 15.4375 71.578125 
L 15.4375 30.765625 
L 36.234375 51.859375 
L 47.609375 51.859375 
L 27.78125 32.625 
L 49.609375 0 
L 38.765625 0 
L 21.625 26.515625 
L 15.4375 20.5625 
L 15.4375 0 
z
" id="ArialMT-107"/>
      </defs>
      <use xlink:href="#ArialMT-108"/>
      <use x="22.216797" xlink:href="#ArialMT-111"/>
      <use x="77.832031" xlink:href="#ArialMT-103"/>
      <use x="133.447266" xlink:href="#ArialMT-32"/>
      <use x="161.230469" xlink:href="#ArialMT-73"/>
      <use x="189.013672" xlink:href="#ArialMT-110"/>
      <use x="244.628906" xlink:href="#ArialMT-116"/>
      <use x="272.412109" xlink:href="#ArialMT-101"/>
      <use x="328.027344" xlink:href="#ArialMT-103"/>
      <use x="383.642578" xlink:href="#ArialMT-114"/>
      <use x="416.943359" xlink:href="#ArialMT-97"/>
      <use x="472.558594" xlink:href="#ArialMT-116"/>
      <use x="500.341797" xlink:href="#ArialMT-105"/>
      <use x="522.558594" xlink:href="#ArialMT-111"/>
      <use x="578.173828" xlink:href="#ArialMT-110"/>
      <use x="633.789062" xlink:href="#ArialMT-32"/>
      <use x="661.572266" xlink:href="#ArialMT-77"/>
      <use x="744.873047" xlink:href="#ArialMT-97"/>
      <use x="800.488281" xlink:href="#ArialMT-114"/>
      <use x="833.789062" xlink:href="#ArialMT-107"/>
      <use x="883.789062" xlink:href="#ArialMT-101"/>
      <use x="939.404297" xlink:href="#ArialMT-114"/>
     </g>
    </g>
   </g>
   <g id="PolyCollection_1">
    <defs>
     <path d="M 120.786131 -193.093011 
L 120.396404 -193.093011 
L 119.943926 -194.525782 
L 119.339348 -195.958553 
L 119.181531 -197.391324 
L 119.662961 -198.824095 
L 120.197179 -200.256866 
L 120.290635 -201.689637 
L 119.888532 -203.122408 
L 119.320595 -204.555179 
L 119.141563 -205.98795 
L 119.256956 -207.420721 
L 119.051793 -208.853492 
L 118.637183 -210.286263 
L 118.418048 -211.719034 
L 118.222357 -213.151805 
L 117.93271 -214.584576 
L 117.617484 -216.017347 
L 117.249454 -217.450117 
L 116.823265 -218.882888 
L 116.365108 -220.315659 
L 115.882027 -221.74843 
L 115.321966 -223.181201 
L 114.64209 -224.613972 
L 113.851132 -226.046743 
L 112.922394 -227.479514 
L 111.821063 -228.912285 
L 110.616154 -230.345056 
L 109.414231 -231.777827 
L 108.20064 -233.210598 
L 106.842165 -234.643369 
L 105.247351 -236.07614 
L 103.439149 -237.508911 
L 101.531235 -238.941682 
L 99.638347 -240.374453 
L 97.754061 -241.807224 
L 95.92419 -243.239995 
L 94.386121 -244.672765 
L 93.360359 -246.105536 
L 92.993331 -247.538307 
L 93.433489 -248.971078 
L 94.865566 -250.403849 
L 97.466183 -251.83662 
L 101.121263 -253.269391 
L 105.341772 -254.702162 
L 109.530401 -256.134933 
L 113.205993 -257.567704 
L 116.079892 -259.000475 
L 118.078312 -260.433246 
L 119.292724 -261.866017 
L 119.925192 -263.298788 
L 120.215811 -264.731559 
L 120.344302 -266.16433 
L 120.401824 -267.597101 
L 120.418181 -269.029872 
L 120.408025 -270.462643 
L 120.397216 -271.895413 
L 120.404942 -273.328184 
L 120.424165 -274.760955 
L 120.432273 -276.193726 
L 120.416866 -277.626497 
L 120.388218 -279.059268 
L 120.361462 -280.492039 
L 120.345162 -281.92481 
L 120.345502 -283.357581 
L 120.35454 -284.790352 
L 120.356723 -286.223123 
L 120.348959 -287.655894 
L 120.330064 -289.088665 
L 120.287489 -290.521436 
L 120.219005 -291.954207 
L 120.152265 -293.386978 
L 120.114498 -294.819749 
L 120.094158 -296.25252 
L 120.067891 -297.68529 
L 120.032888 -299.118061 
L 119.994113 -300.550832 
L 119.962172 -301.983603 
L 119.942861 -303.416374 
L 119.923722 -304.849145 
L 119.902238 -306.281916 
L 119.911859 -307.714687 
L 119.983012 -309.147458 
L 120.081891 -310.580229 
L 120.154756 -312.013 
L 120.20099 -313.445771 
L 120.243489 -314.878542 
L 120.288977 -316.311313 
L 120.334703 -317.744084 
L 120.375275 -319.176855 
L 120.410156 -320.609626 
L 120.444831 -322.042397 
L 120.483526 -323.475168 
L 120.5231 -324.907938 
L 120.553131 -326.340709 
L 120.567501 -327.77348 
L 120.571898 -329.206251 
L 120.575664 -330.639022 
L 120.581808 -332.071793 
L 120.587432 -333.504564 
L 120.590286 -334.937335 
L 120.592249 -334.937335 
L 120.592249 -334.937335 
L 120.595102 -333.504564 
L 120.600727 -332.071793 
L 120.60687 -330.639022 
L 120.610637 -329.206251 
L 120.615034 -327.77348 
L 120.629404 -326.340709 
L 120.659435 -324.907938 
L 120.699009 -323.475168 
L 120.737704 -322.042397 
L 120.772379 -320.609626 
L 120.80726 -319.176855 
L 120.847832 -317.744084 
L 120.893558 -316.311313 
L 120.939046 -314.878542 
L 120.981545 -313.445771 
L 121.027779 -312.013 
L 121.100643 -310.580229 
L 121.199523 -309.147458 
L 121.270676 -307.714687 
L 121.280297 -306.281916 
L 121.258813 -304.849145 
L 121.239674 -303.416374 
L 121.220363 -301.983603 
L 121.188422 -300.550832 
L 121.149647 -299.118061 
L 121.114644 -297.68529 
L 121.088377 -296.25252 
L 121.068036 -294.819749 
L 121.03027 -293.386978 
L 120.96353 -291.954207 
L 120.895046 -290.521436 
L 120.852471 -289.088665 
L 120.833576 -287.655894 
L 120.825812 -286.223123 
L 120.827995 -284.790352 
L 120.837033 -283.357581 
L 120.837373 -281.92481 
L 120.821073 -280.492039 
L 120.794317 -279.059268 
L 120.765669 -277.626497 
L 120.750262 -276.193726 
L 120.75837 -274.760955 
L 120.777592 -273.328184 
L 120.785319 -271.895413 
L 120.77451 -270.462643 
L 120.764354 -269.029872 
L 120.780711 -267.597101 
L 120.838233 -266.16433 
L 120.966724 -264.731559 
L 121.257343 -263.298788 
L 121.889811 -261.866017 
L 123.104223 -260.433246 
L 125.102643 -259.000475 
L 127.976542 -257.567704 
L 131.652134 -256.134933 
L 135.840763 -254.702162 
L 140.061272 -253.269391 
L 143.716352 -251.83662 
L 146.316968 -250.403849 
L 147.749046 -248.971078 
L 148.189204 -247.538307 
L 147.822176 -246.105536 
L 146.796414 -244.672765 
L 145.258345 -243.239995 
L 143.428474 -241.807224 
L 141.544188 -240.374453 
L 139.6513 -238.941682 
L 137.743386 -237.508911 
L 135.935184 -236.07614 
L 134.34037 -234.643369 
L 132.981895 -233.210598 
L 131.768304 -231.777827 
L 130.566381 -230.345056 
L 129.361472 -228.912285 
L 128.260141 -227.479514 
L 127.331403 -226.046743 
L 126.540445 -224.613972 
L 125.860569 -223.181201 
L 125.300508 -221.74843 
L 124.817427 -220.315659 
L 124.35927 -218.882888 
L 123.933081 -217.450117 
L 123.565051 -216.017347 
L 123.249824 -214.584576 
L 122.960178 -213.151805 
L 122.764487 -211.719034 
L 122.545352 -210.286263 
L 122.130742 -208.853492 
L 121.925579 -207.420721 
L 122.040972 -205.98795 
L 121.86194 -204.555179 
L 121.294003 -203.122408 
L 120.8919 -201.689637 
L 120.985356 -200.256866 
L 121.519574 -198.824095 
L 122.001004 -197.391324 
L 121.843187 -195.958553 
L 121.238609 -194.525782 
L 120.786131 -193.093011 
z
" id="m0675382d37" style="stroke:#474747;stroke-width:2.25;"/>
    </defs>
    <g clip-path="url(#p6910886593)">
     <use style="fill:#dfb976;stroke:#474747;stroke-width:2.25;" x="0" xlink:href="#m0675382d37" y="623.494453"/>
    </g>
   </g>
   <g id="PolyCollection_2">
    <defs>
     <path d="M 191.459213 -192.60477 
L 191.114068 -192.60477 
L 190.77789 -194.017259 
L 190.296435 -195.429748 
L 190.013808 -196.842237 
L 190.201953 -198.254726 
L 190.6463 -199.667215 
L 190.905327 -201.079704 
L 190.772641 -202.492193 
L 190.385295 -203.904682 
L 190.089568 -205.317171 
L 190.044768 -206.72966 
L 190.006385 -208.14215 
L 189.784189 -209.554639 
L 189.517049 -210.967128 
L 189.294399 -212.379617 
L 189.048767 -213.792106 
L 188.770615 -215.204595 
L 188.481402 -216.617084 
L 188.165654 -218.029573 
L 187.786983 -219.442062 
L 187.312384 -220.854551 
L 186.746547 -222.26704 
L 186.125439 -223.679529 
L 185.471049 -225.092019 
L 184.767806 -226.504508 
L 183.969696 -227.916997 
L 183.02512 -229.329486 
L 181.914333 -230.741975 
L 180.672144 -232.154464 
L 179.365195 -233.566953 
L 178.020174 -234.979442 
L 176.586043 -236.391931 
L 175.008899 -237.80442 
L 173.312395 -239.216909 
L 171.568341 -240.629398 
L 169.834424 -242.041887 
L 168.174309 -243.454377 
L 166.721238 -244.866866 
L 165.672734 -246.279355 
L 165.243502 -247.691844 
L 165.653075 -249.104333 
L 167.063333 -250.516822 
L 169.441977 -251.929311 
L 172.542979 -253.3418 
L 176.03468 -254.754289 
L 179.590005 -256.166778 
L 182.895378 -257.579267 
L 185.672379 -258.991756 
L 187.749567 -260.404246 
L 189.121862 -261.816735 
L 189.926826 -263.229224 
L 190.354911 -264.641713 
L 190.567211 -266.054202 
L 190.666037 -267.466691 
L 190.70971 -268.87918 
L 190.73472 -270.291669 
L 190.75844 -271.704158 
L 190.78055 -273.116647 
L 190.802789 -274.529136 
L 190.834185 -275.941625 
L 190.870667 -277.354115 
L 190.892898 -278.766604 
L 190.885673 -280.179093 
L 190.847039 -281.591582 
L 190.783751 -283.004071 
L 190.701033 -284.41656 
L 190.597877 -285.829049 
L 190.473334 -287.241538 
L 190.323379 -288.654027 
L 190.127639 -290.066516 
L 189.863631 -291.479005 
L 189.540009 -292.891494 
L 189.199803 -294.303983 
L 188.897841 -295.716473 
L 188.694777 -297.128962 
L 188.655106 -298.541451 
L 188.799786 -299.95394 
L 189.070383 -301.366429 
L 189.384505 -302.778918 
L 189.702548 -304.191407 
L 190.016737 -305.603896 
L 190.313258 -307.016385 
L 190.568282 -308.428874 
L 190.768951 -309.841363 
L 190.919323 -311.253852 
L 191.025147 -312.666342 
L 191.09184 -314.078831 
L 191.13226 -315.49132 
L 191.161795 -316.903809 
L 191.188609 -318.316298 
L 191.212814 -319.728787 
L 191.232623 -321.141276 
L 191.248093 -322.553765 
L 191.260023 -323.966254 
L 191.268472 -325.378743 
L 191.273763 -326.791232 
L 191.277512 -328.203721 
L 191.28107 -329.616211 
L 191.284084 -331.0287 
L 191.28582 -332.441189 
L 191.287461 -332.441189 
L 191.287461 -332.441189 
L 191.289196 -331.0287 
L 191.292211 -329.616211 
L 191.295769 -328.203721 
L 191.299518 -326.791232 
L 191.304808 -325.378743 
L 191.313258 -323.966254 
L 191.325187 -322.553765 
L 191.340658 -321.141276 
L 191.360466 -319.728787 
L 191.384672 -318.316298 
L 191.411485 -316.903809 
L 191.441021 -315.49132 
L 191.481441 -314.078831 
L 191.548134 -312.666342 
L 191.653957 -311.253852 
L 191.804329 -309.841363 
L 192.004999 -308.428874 
L 192.260023 -307.016385 
L 192.556543 -305.603896 
L 192.870733 -304.191407 
L 193.188776 -302.778918 
L 193.502897 -301.366429 
L 193.773495 -299.95394 
L 193.918175 -298.541451 
L 193.878503 -297.128962 
L 193.67544 -295.716473 
L 193.373477 -294.303983 
L 193.033271 -292.891494 
L 192.70965 -291.479005 
L 192.445642 -290.066516 
L 192.249901 -288.654027 
L 192.099947 -287.241538 
L 191.975404 -285.829049 
L 191.872248 -284.41656 
L 191.78953 -283.004071 
L 191.726242 -281.591582 
L 191.687608 -280.179093 
L 191.680383 -278.766604 
L 191.702614 -277.354115 
L 191.739096 -275.941625 
L 191.770492 -274.529136 
L 191.792731 -273.116647 
L 191.81484 -271.704158 
L 191.838561 -270.291669 
L 191.863571 -268.87918 
L 191.907244 -267.466691 
L 192.00607 -266.054202 
L 192.21837 -264.641713 
L 192.646455 -263.229224 
L 193.451419 -261.816735 
L 194.823714 -260.404246 
L 196.900902 -258.991756 
L 199.677903 -257.579267 
L 202.983276 -256.166778 
L 206.538601 -254.754289 
L 210.030302 -253.3418 
L 213.131304 -251.929311 
L 215.509948 -250.516822 
L 216.920206 -249.104333 
L 217.329779 -247.691844 
L 216.900547 -246.279355 
L 215.852043 -244.866866 
L 214.398972 -243.454377 
L 212.738857 -242.041887 
L 211.00494 -240.629398 
L 209.260886 -239.216909 
L 207.564382 -237.80442 
L 205.987238 -236.391931 
L 204.553107 -234.979442 
L 203.208086 -233.566953 
L 201.901137 -232.154464 
L 200.658948 -230.741975 
L 199.548161 -229.329486 
L 198.603585 -227.916997 
L 197.805475 -226.504508 
L 197.102231 -225.092019 
L 196.447842 -223.679529 
L 195.826734 -222.26704 
L 195.260896 -220.854551 
L 194.786298 -219.442062 
L 194.407627 -218.029573 
L 194.091879 -216.617084 
L 193.802666 -215.204595 
L 193.524514 -213.792106 
L 193.278882 -212.379617 
L 193.056231 -210.967128 
L 192.789092 -209.554639 
L 192.566896 -208.14215 
L 192.528513 -206.72966 
L 192.483713 -205.317171 
L 192.187985 -203.904682 
L 191.80064 -202.492193 
L 191.667954 -201.079704 
L 191.926981 -199.667215 
L 192.371327 -198.254726 
L 192.559473 -196.842237 
L 192.276845 -195.429748 
L 191.795391 -194.017259 
L 191.459213 -192.60477 
z
" id="mbc1b78ed24" style="stroke:#474747;stroke-width:2.25;"/>
    </defs>
    <g clip-path="url(#p6910886593)">
     <use style="fill:#9e4e4e;stroke:#474747;stroke-width:2.25;" x="0" xlink:href="#mbc1b78ed24" y="623.494453"/>
    </g>
   </g>
   <g id="PolyCollection_3">
    <defs>
     <path d="M 262.225897 -193.879326 
L 261.73813 -193.879326 
L 260.95804 -195.335749 
L 260.194301 -196.792172 
L 260.684166 -198.248595 
L 261.588251 -199.705018 
L 261.892773 -201.161442 
L 261.645364 -202.617865 
L 260.823039 -204.074288 
L 260.294796 -205.530711 
L 260.779529 -206.987134 
L 260.752497 -208.443557 
L 259.919706 -209.89998 
L 259.850158 -211.356403 
L 259.94218 -212.812826 
L 259.608091 -214.26925 
L 259.270723 -215.725673 
L 258.912387 -217.182096 
L 258.563419 -218.638519 
L 258.009138 -220.094942 
L 257.369177 -221.551365 
L 256.776448 -223.007788 
L 256.193585 -224.464211 
L 255.503068 -225.920634 
L 254.545327 -227.377058 
L 253.305572 -228.833481 
L 251.995506 -230.289904 
L 250.793129 -231.746327 
L 249.713666 -233.20275 
L 248.553863 -234.659173 
L 247.028939 -236.115596 
L 245.110695 -237.572019 
L 243.12948 -239.028442 
L 241.142194 -240.484866 
L 239.057533 -241.941289 
L 237.026159 -243.397712 
L 235.346598 -244.854135 
L 234.274461 -246.310558 
L 233.703864 -247.766981 
L 233.8198 -249.223404 
L 235.069759 -250.679827 
L 237.597043 -252.13625 
L 241.285643 -253.592674 
L 245.961363 -255.049097 
L 250.845821 -256.50552 
L 254.944545 -257.961943 
L 257.963872 -259.418366 
L 259.938603 -260.874789 
L 261.021078 -262.331212 
L 261.523823 -263.787635 
L 261.713812 -265.244058 
L 261.779707 -266.700482 
L 261.824546 -268.156905 
L 261.854917 -269.613328 
L 261.853555 -271.069751 
L 261.844327 -272.526174 
L 261.856463 -273.982597 
L 261.885068 -275.43902 
L 261.904141 -276.895443 
L 261.903281 -278.351866 
L 261.891989 -279.80829 
L 261.883169 -281.264713 
L 261.877727 -282.721136 
L 261.879766 -284.177559 
L 261.891092 -285.633982 
L 261.89306 -287.090405 
L 261.887669 -288.546828 
L 261.890517 -290.003251 
L 261.889255 -291.459674 
L 261.855304 -292.916098 
L 261.803466 -294.372521 
L 261.778715 -295.828944 
L 261.788629 -297.285367 
L 261.802976 -298.74179 
L 261.788089 -300.198213 
L 261.751711 -301.654636 
L 261.717259 -303.111059 
L 261.70162 -304.567482 
L 261.710863 -306.023906 
L 261.72626 -307.480329 
L 261.735335 -308.936752 
L 261.7384 -310.393175 
L 261.758535 -311.849598 
L 261.796592 -313.306021 
L 261.827393 -314.762444 
L 261.841496 -316.218867 
L 261.858773 -317.67529 
L 261.889044 -319.131714 
L 261.913925 -320.588137 
L 261.924584 -322.04456 
L 261.930061 -323.500983 
L 261.940547 -324.957406 
L 261.955647 -326.413829 
L 261.964384 -327.870252 
L 261.966634 -329.326675 
L 261.970179 -330.783098 
L 261.974355 -332.239522 
L 261.97615 -333.695945 
L 261.977608 -335.152368 
L 261.979952 -336.608791 
L 261.981551 -338.065214 
L 261.982476 -338.065214 
L 261.982476 -338.065214 
L 261.984075 -336.608791 
L 261.986419 -335.152368 
L 261.987876 -333.695945 
L 261.989672 -332.239522 
L 261.993848 -330.783098 
L 261.997393 -329.326675 
L 261.999643 -327.870252 
L 262.00838 -326.413829 
L 262.02348 -324.957406 
L 262.033966 -323.500983 
L 262.039443 -322.04456 
L 262.050102 -320.588137 
L 262.074982 -319.131714 
L 262.105254 -317.67529 
L 262.122531 -316.218867 
L 262.136634 -314.762444 
L 262.167435 -313.306021 
L 262.205492 -311.849598 
L 262.225627 -310.393175 
L 262.228692 -308.936752 
L 262.237766 -307.480329 
L 262.253164 -306.023906 
L 262.262407 -304.567482 
L 262.246768 -303.111059 
L 262.212316 -301.654636 
L 262.175938 -300.198213 
L 262.161051 -298.74179 
L 262.175398 -297.285367 
L 262.185312 -295.828944 
L 262.160561 -294.372521 
L 262.108723 -292.916098 
L 262.074772 -291.459674 
L 262.07351 -290.003251 
L 262.076357 -288.546828 
L 262.070967 -287.090405 
L 262.072935 -285.633982 
L 262.084261 -284.177559 
L 262.0863 -282.721136 
L 262.080858 -281.264713 
L 262.072038 -279.80829 
L 262.060746 -278.351866 
L 262.059886 -276.895443 
L 262.078959 -275.43902 
L 262.107564 -273.982597 
L 262.1197 -272.526174 
L 262.110472 -271.069751 
L 262.10911 -269.613328 
L 262.139481 -268.156905 
L 262.18432 -266.700482 
L 262.250214 -265.244058 
L 262.440204 -263.787635 
L 262.942949 -262.331212 
L 264.025424 -260.874789 
L 266.000155 -259.418366 
L 269.019482 -257.961943 
L 273.118205 -256.50552 
L 278.002664 -255.049097 
L 282.678383 -253.592674 
L 286.366984 -252.13625 
L 288.894268 -250.679827 
L 290.144227 -249.223404 
L 290.260163 -247.766981 
L 289.689566 -246.310558 
L 288.617429 -244.854135 
L 286.937867 -243.397712 
L 284.906493 -241.941289 
L 282.821833 -240.484866 
L 280.834546 -239.028442 
L 278.853332 -237.572019 
L 276.935088 -236.115596 
L 275.410164 -234.659173 
L 274.250361 -233.20275 
L 273.170898 -231.746327 
L 271.96852 -230.289904 
L 270.658454 -228.833481 
L 269.4187 -227.377058 
L 268.460958 -225.920634 
L 267.770442 -224.464211 
L 267.187579 -223.007788 
L 266.59485 -221.551365 
L 265.954888 -220.094942 
L 265.400608 -218.638519 
L 265.05164 -217.182096 
L 264.693304 -215.725673 
L 264.355936 -214.26925 
L 264.021847 -212.812826 
L 264.113868 -211.356403 
L 264.04432 -209.89998 
L 263.21153 -208.443557 
L 263.184498 -206.987134 
L 263.669231 -205.530711 
L 263.140988 -204.074288 
L 262.318663 -202.617865 
L 262.071253 -201.161442 
L 262.375776 -199.705018 
L 263.27986 -198.248595 
L 263.769725 -196.792172 
L 263.005987 -195.335749 
L 262.225897 -193.879326 
z
" id="m307e6857e4" style="stroke:#474747;stroke-width:2.25;"/>
    </defs>
    <g clip-path="url(#p6910886593)">
     <use style="fill:#e47070;stroke:#474747;stroke-width:2.25;" x="0" xlink:href="#m307e6857e4" y="623.494453"/>
    </g>
   </g>
   <g id="PolyCollection_4">
    <defs>
     <path d="M 332.803052 -191.865618 
L 332.551721 -191.865618 
L 332.316967 -193.464595 
L 331.977042 -195.063571 
L 331.753536 -196.662548 
L 331.837177 -198.261524 
L 332.090406 -199.860501 
L 332.181753 -201.459477 
L 331.978121 -203.058454 
L 331.671644 -204.65743 
L 331.501057 -206.256407 
L 331.43394 -207.855383 
L 331.30672 -209.45436 
L 331.109827 -211.053336 
L 330.89709 -212.652312 
L 330.655212 -214.251289 
L 330.361116 -215.850265 
L 330.001312 -217.449242 
L 329.560586 -219.048218 
L 329.042864 -220.647195 
L 328.462892 -222.246171 
L 327.81186 -223.845148 
L 327.06048 -225.444124 
L 326.196303 -227.043101 
L 325.243776 -228.642077 
L 324.235105 -230.241053 
L 323.154921 -231.84003 
L 321.934902 -233.439006 
L 320.522393 -235.037983 
L 318.935843 -236.636959 
L 317.238414 -238.235936 
L 315.478251 -239.834912 
L 313.677 -241.433889 
L 311.88516 -243.032865 
L 310.269426 -244.631842 
L 309.125806 -246.230818 
L 308.732957 -247.829795 
L 309.206238 -249.428771 
L 310.550476 -251.027747 
L 312.773118 -252.626724 
L 315.812969 -254.2257 
L 319.376619 -255.824677 
L 322.951044 -257.423653 
L 326.02989 -259.02263 
L 328.340045 -260.621606 
L 329.873703 -262.220583 
L 330.778891 -263.819559 
L 331.258332 -265.418536 
L 331.496068 -267.017512 
L 331.605726 -268.616488 
L 331.638517 -270.215465 
L 331.625764 -271.814441 
L 331.593857 -273.413418 
L 331.55536 -275.012394 
L 331.512573 -276.611371 
L 331.46789 -278.210347 
L 331.417092 -279.809324 
L 331.345547 -281.4083 
L 331.250189 -283.007277 
L 331.149181 -284.606253 
L 331.054975 -286.205229 
L 330.958873 -287.804206 
L 330.852234 -289.403182 
L 330.742954 -291.002159 
L 330.644885 -292.601135 
L 330.564129 -294.200112 
L 330.504091 -295.799088 
L 330.481502 -297.398065 
L 330.522541 -298.997041 
L 330.635819 -300.596018 
L 330.800717 -302.194994 
L 330.984698 -303.793971 
L 331.158753 -305.392947 
L 331.303882 -306.991923 
L 331.418543 -308.5909 
L 331.509607 -310.189876 
L 331.579431 -311.788853 
L 331.637259 -313.387829 
L 331.70454 -314.986806 
L 331.794908 -316.585782 
L 331.904794 -318.184759 
L 332.022139 -319.783735 
L 332.131345 -321.382712 
L 332.221421 -322.981688 
L 332.297061 -324.580664 
L 332.370178 -326.179641 
L 332.441951 -327.778617 
L 332.503146 -329.377594 
L 332.547916 -330.97657 
L 332.579594 -332.575547 
L 332.605053 -334.174523 
L 332.627974 -335.7735 
L 332.647189 -337.372476 
L 332.660033 -338.971453 
L 332.666581 -340.570429 
L 332.669617 -342.169405 
L 332.671565 -343.768382 
L 332.673314 -345.367358 
L 332.674962 -346.966335 
L 332.67627 -348.565311 
L 332.677015 -350.164288 
L 332.677758 -350.164288 
L 332.677758 -350.164288 
L 332.678503 -348.565311 
L 332.67981 -346.966335 
L 332.681459 -345.367358 
L 332.683207 -343.768382 
L 332.685156 -342.169405 
L 332.688192 -340.570429 
L 332.69474 -338.971453 
L 332.707584 -337.372476 
L 332.726798 -335.7735 
L 332.74972 -334.174523 
L 332.775179 -332.575547 
L 332.806857 -330.97657 
L 332.851626 -329.377594 
L 332.912822 -327.778617 
L 332.984595 -326.179641 
L 333.057712 -324.580664 
L 333.133352 -322.981688 
L 333.223428 -321.382712 
L 333.332634 -319.783735 
L 333.449979 -318.184759 
L 333.559864 -316.585782 
L 333.650233 -314.986806 
L 333.717514 -313.387829 
L 333.775341 -311.788853 
L 333.845166 -310.189876 
L 333.93623 -308.5909 
L 334.050891 -306.991923 
L 334.196019 -305.392947 
L 334.370074 -303.793971 
L 334.554056 -302.194994 
L 334.718954 -300.596018 
L 334.832232 -298.997041 
L 334.873271 -297.398065 
L 334.850681 -295.799088 
L 334.790644 -294.200112 
L 334.709888 -292.601135 
L 334.611819 -291.002159 
L 334.502538 -289.403182 
L 334.3959 -287.804206 
L 334.299798 -286.205229 
L 334.205592 -284.606253 
L 334.104584 -283.007277 
L 334.009226 -281.4083 
L 333.93768 -279.809324 
L 333.886883 -278.210347 
L 333.842199 -276.611371 
L 333.799412 -275.012394 
L 333.760916 -273.413418 
L 333.729009 -271.814441 
L 333.716256 -270.215465 
L 333.749046 -268.616488 
L 333.858705 -267.017512 
L 334.096441 -265.418536 
L 334.575882 -263.819559 
L 335.481069 -262.220583 
L 337.014727 -260.621606 
L 339.324883 -259.02263 
L 342.403729 -257.423653 
L 345.978154 -255.824677 
L 349.541804 -254.2257 
L 352.581655 -252.626724 
L 354.804296 -251.027747 
L 356.148535 -249.428771 
L 356.621815 -247.829795 
L 356.228966 -246.230818 
L 355.085347 -244.631842 
L 353.469613 -243.032865 
L 351.677773 -241.433889 
L 349.876522 -239.834912 
L 348.116358 -238.235936 
L 346.41893 -236.636959 
L 344.832379 -235.037983 
L 343.419871 -233.439006 
L 342.199851 -231.84003 
L 341.119667 -230.241053 
L 340.110996 -228.642077 
L 339.158469 -227.043101 
L 338.294293 -225.444124 
L 337.542913 -223.845148 
L 336.891881 -222.246171 
L 336.311909 -220.647195 
L 335.794187 -219.048218 
L 335.353461 -217.449242 
L 334.993657 -215.850265 
L 334.69956 -214.251289 
L 334.457683 -212.652312 
L 334.244945 -211.053336 
L 334.048052 -209.45436 
L 333.920833 -207.855383 
L 333.853716 -206.256407 
L 333.683128 -204.65743 
L 333.376652 -203.058454 
L 333.17302 -201.459477 
L 333.264367 -199.860501 
L 333.517595 -198.261524 
L 333.601237 -196.662548 
L 333.37773 -195.063571 
L 333.037806 -193.464595 
L 332.803052 -191.865618 
z
" id="m0a71ec91da" style="stroke:#474747;stroke-width:2.25;"/>
    </defs>
    <g clip-path="url(#p6910886593)">
     <use style="fill:#39cde3;stroke:#474747;stroke-width:2.25;" x="0" xlink:href="#m0a71ec91da" y="623.494453"/>
    </g>
   </g>
   <g id="PolyCollection_5">
    <defs>
     <path d="M 403.519069 -190.399577 
L 403.22645 -190.399577 
L 402.994154 -192.214754 
L 402.64809 -194.02993 
L 402.340506 -195.845107 
L 402.251705 -197.660283 
L 402.361526 -199.47546 
L 402.439849 -201.290636 
L 402.321509 -203.105813 
L 402.072652 -204.92099 
L 401.827961 -206.736166 
L 401.595258 -208.551343 
L 401.302309 -210.366519 
L 400.92302 -212.181696 
L 400.478807 -213.996872 
L 399.979921 -215.812049 
L 399.408663 -217.627225 
L 398.744791 -219.442402 
L 397.988517 -221.257579 
L 397.144338 -223.072755 
L 396.190616 -224.887932 
L 395.086697 -226.703108 
L 393.809192 -228.518285 
L 392.369832 -230.333461 
L 390.801628 -232.148638 
L 389.136116 -233.963815 
L 387.397804 -235.778991 
L 385.624391 -237.594168 
L 383.893659 -239.409344 
L 382.337397 -241.224521 
L 381.147476 -243.039697 
L 380.573959 -244.854874 
L 380.883394 -246.67005 
L 382.258424 -248.485227 
L 384.684965 -250.300404 
L 387.902008 -252.11558 
L 391.454273 -253.930757 
L 394.833984 -255.745933 
L 397.644751 -257.56111 
L 399.704561 -259.376286 
L 401.048311 -261.191463 
L 401.84932 -263.006639 
L 402.311555 -264.821816 
L 402.5872 -266.636993 
L 402.754391 -268.452169 
L 402.845866 -270.267346 
L 402.884618 -272.082522 
L 402.896558 -273.897699 
L 402.904531 -275.712875 
L 402.920401 -277.528052 
L 402.944513 -279.343228 
L 402.971657 -281.158405 
L 402.997004 -282.973582 
L 403.017112 -284.788758 
L 403.029098 -286.603935 
L 403.033223 -288.419111 
L 403.035391 -290.234288 
L 403.043278 -292.049464 
L 403.059371 -293.864641 
L 403.078796 -295.679818 
L 403.092048 -297.494994 
L 403.087897 -299.310171 
L 403.056836 -301.125347 
L 402.996893 -302.940524 
L 402.916072 -304.7557 
L 402.825065 -306.570877 
L 402.726224 -308.386053 
L 402.610745 -310.20123 
L 402.465804 -312.016407 
L 402.284398 -313.831583 
L 402.07211 -315.64676 
L 401.848497 -317.461936 
L 401.641771 -319.277113 
L 401.478034 -321.092289 
L 401.371722 -322.907466 
L 401.323607 -324.722642 
L 401.326205 -326.537819 
L 401.373941 -328.352996 
L 401.470595 -330.168172 
L 401.623877 -331.983349 
L 401.832485 -333.798525 
L 402.079724 -335.613702 
L 402.335873 -337.428878 
L 402.567577 -339.244055 
L 402.753189 -341.059231 
L 402.892383 -342.874408 
L 402.998699 -344.689585 
L 403.083665 -346.504761 
L 403.150854 -348.319938 
L 403.202172 -350.135114 
L 403.242627 -351.950291 
L 403.277319 -353.765467 
L 403.307747 -355.580644 
L 403.332482 -357.395821 
L 403.349864 -359.210997 
L 403.359966 -361.026174 
L 403.364953 -362.84135 
L 403.367642 -364.656527 
L 403.369674 -366.471703 
L 403.371254 -368.28688 
L 403.372199 -370.102056 
L 403.373319 -370.102056 
L 403.373319 -370.102056 
L 403.374264 -368.28688 
L 403.375845 -366.471703 
L 403.377877 -364.656527 
L 403.380566 -362.84135 
L 403.385553 -361.026174 
L 403.395655 -359.210997 
L 403.413037 -357.395821 
L 403.437772 -355.580644 
L 403.4682 -353.765467 
L 403.502892 -351.950291 
L 403.543347 -350.135114 
L 403.594664 -348.319938 
L 403.661853 -346.504761 
L 403.746819 -344.689585 
L 403.853136 -342.874408 
L 403.99233 -341.059231 
L 404.177941 -339.244055 
L 404.409645 -337.428878 
L 404.665795 -335.613702 
L 404.913034 -333.798525 
L 405.121642 -331.983349 
L 405.274924 -330.168172 
L 405.371578 -328.352996 
L 405.419314 -326.537819 
L 405.421911 -324.722642 
L 405.373797 -322.907466 
L 405.267485 -321.092289 
L 405.103747 -319.277113 
L 404.897022 -317.461936 
L 404.673409 -315.64676 
L 404.461121 -313.831583 
L 404.279715 -312.016407 
L 404.134773 -310.20123 
L 404.019294 -308.386053 
L 403.920454 -306.570877 
L 403.829447 -304.7557 
L 403.748626 -302.940524 
L 403.688682 -301.125347 
L 403.657621 -299.310171 
L 403.653471 -297.494994 
L 403.666723 -295.679818 
L 403.686148 -293.864641 
L 403.70224 -292.049464 
L 403.710127 -290.234288 
L 403.712296 -288.419111 
L 403.71642 -286.603935 
L 403.728407 -284.788758 
L 403.748514 -282.973582 
L 403.773861 -281.158405 
L 403.801006 -279.343228 
L 403.825118 -277.528052 
L 403.840987 -275.712875 
L 403.84896 -273.897699 
L 403.8609 -272.082522 
L 403.899652 -270.267346 
L 403.991128 -268.452169 
L 404.158318 -266.636993 
L 404.433964 -264.821816 
L 404.896198 -263.006639 
L 405.697207 -261.191463 
L 407.040958 -259.376286 
L 409.100768 -257.56111 
L 411.911534 -255.745933 
L 415.291245 -253.930757 
L 418.843511 -252.11558 
L 422.060553 -250.300404 
L 424.487095 -248.485227 
L 425.862125 -246.67005 
L 426.171559 -244.854874 
L 425.598043 -243.039697 
L 424.408122 -241.224521 
L 422.85186 -239.409344 
L 421.121128 -237.594168 
L 419.347714 -235.778991 
L 417.609403 -233.963815 
L 415.94389 -232.148638 
L 414.375687 -230.333461 
L 412.936327 -228.518285 
L 411.658821 -226.703108 
L 410.554903 -224.887932 
L 409.60118 -223.072755 
L 408.757002 -221.257579 
L 408.000728 -219.442402 
L 407.336856 -217.627225 
L 406.765597 -215.812049 
L 406.266711 -213.996872 
L 405.822499 -212.181696 
L 405.443209 -210.366519 
L 405.150261 -208.551343 
L 404.917557 -206.736166 
L 404.672867 -204.92099 
L 404.42401 -203.105813 
L 404.30567 -201.290636 
L 404.383993 -199.47546 
L 404.493814 -197.660283 
L 404.405013 -195.845107 
L 404.097429 -194.02993 
L 403.751365 -192.214754 
L 403.519069 -190.399577 
z
" id="m24c55fc491" style="stroke:#474747;stroke-width:2.25;"/>
    </defs>
    <g clip-path="url(#p6910886593)">
     <use style="fill:#42db51;stroke:#474747;stroke-width:2.25;" x="0" xlink:href="#m24c55fc491" y="623.494453"/>
    </g>
   </g>
   <g id="PolyCollection_6">
    <defs>
     <path d="M 474.232675 -193.476185 
L 473.90359 -193.476185 
L 473.507546 -194.803375 
L 472.989154 -196.130565 
L 472.89484 -197.457754 
L 473.346316 -198.784944 
L 473.803869 -200.112133 
L 473.91529 -201.439323 
L 473.631982 -202.766513 
L 473.056431 -204.093702 
L 472.708114 -205.420892 
L 472.920289 -206.748082 
L 473.119116 -208.075271 
L 472.877419 -209.402461 
L 472.609858 -210.72965 
L 472.491093 -212.05684 
L 472.281799 -213.38403 
L 472.083198 -214.711219 
L 471.935748 -216.038409 
L 471.711375 -217.365598 
L 471.392168 -218.692788 
L 471.003326 -220.019978 
L 470.58514 -221.347167 
L 470.161899 -222.674357 
L 469.717862 -224.001546 
L 469.212117 -225.328736 
L 468.601374 -226.655926 
L 467.900647 -227.983115 
L 467.179683 -229.310305 
L 466.434502 -230.637495 
L 465.627506 -231.964684 
L 464.763745 -233.291874 
L 463.814023 -234.619063 
L 462.777882 -235.946253 
L 461.711195 -237.273443 
L 460.628278 -238.600632 
L 459.544989 -239.927822 
L 458.462589 -241.255011 
L 457.36 -242.582201 
L 456.360122 -243.909391 
L 455.701644 -245.23658 
L 455.497808 -246.56377 
L 455.632822 -247.890959 
L 455.983476 -249.218149 
L 456.600817 -250.545339 
L 457.553413 -251.872528 
L 458.720809 -253.199718 
L 459.864859 -254.526908 
L 460.846816 -255.854097 
L 461.611681 -257.181287 
L 462.11939 -258.508476 
L 462.393492 -259.835666 
L 462.54255 -261.162856 
L 462.75973 -262.490045 
L 463.18987 -263.817235 
L 463.790842 -265.144424 
L 464.452605 -266.471614 
L 465.126079 -267.798804 
L 465.815598 -269.125993 
L 466.531992 -270.453183 
L 467.24908 -271.780372 
L 467.919104 -273.107562 
L 468.535575 -274.434752 
L 469.147662 -275.761941 
L 469.773473 -277.089131 
L 470.363181 -278.416321 
L 470.880801 -279.74351 
L 471.344028 -281.0707 
L 471.776547 -282.397889 
L 472.161003 -283.725079 
L 472.477708 -285.052269 
L 472.749588 -286.379458 
L 473.01287 -287.706648 
L 473.26674 -289.033837 
L 473.479177 -290.361027 
L 473.631058 -291.688217 
L 473.728379 -293.015406 
L 473.794028 -294.342596 
L 473.848057 -295.669785 
L 473.898814 -296.996975 
L 473.945916 -298.324165 
L 473.98418 -299.651354 
L 474.01095 -300.978544 
L 474.027029 -302.305734 
L 474.035827 -303.632923 
L 474.043304 -304.960113 
L 474.051353 -306.287302 
L 474.056663 -307.614492 
L 474.05865 -308.941682 
L 474.059838 -310.268871 
L 474.061228 -311.596061 
L 474.062462 -312.92325 
L 474.063728 -314.25044 
L 474.065347 -315.57763 
L 474.066437 -316.904819 
L 474.066118 -318.232009 
L 474.065099 -319.559198 
L 474.064856 -320.886388 
L 474.065824 -322.213578 
L 474.067107 -323.540767 
L 474.067855 -324.867957 
L 474.068409 -324.867957 
L 474.068409 -324.867957 
L 474.069158 -323.540767 
L 474.070441 -322.213578 
L 474.071409 -320.886388 
L 474.071165 -319.559198 
L 474.070147 -318.232009 
L 474.069827 -316.904819 
L 474.070917 -315.57763 
L 474.072536 -314.25044 
L 474.073802 -312.92325 
L 474.075037 -311.596061 
L 474.076426 -310.268871 
L 474.077615 -308.941682 
L 474.079601 -307.614492 
L 474.084912 -306.287302 
L 474.09296 -304.960113 
L 474.100438 -303.632923 
L 474.109236 -302.305734 
L 474.125315 -300.978544 
L 474.152084 -299.651354 
L 474.190348 -298.324165 
L 474.23745 -296.996975 
L 474.288207 -295.669785 
L 474.342237 -294.342596 
L 474.407886 -293.015406 
L 474.505206 -291.688217 
L 474.657088 -290.361027 
L 474.869525 -289.033837 
L 475.123395 -287.706648 
L 475.386676 -286.379458 
L 475.658557 -285.052269 
L 475.975262 -283.725079 
L 476.359718 -282.397889 
L 476.792237 -281.0707 
L 477.255464 -279.74351 
L 477.773083 -278.416321 
L 478.362792 -277.089131 
L 478.988602 -275.761941 
L 479.60069 -274.434752 
L 480.217161 -273.107562 
L 480.887184 -271.780372 
L 481.604272 -270.453183 
L 482.320667 -269.125993 
L 483.010185 -267.798804 
L 483.683659 -266.471614 
L 484.345423 -265.144424 
L 484.946395 -263.817235 
L 485.376534 -262.490045 
L 485.593715 -261.162856 
L 485.742772 -259.835666 
L 486.016875 -258.508476 
L 486.524583 -257.181287 
L 487.289448 -255.854097 
L 488.271406 -254.526908 
L 489.415455 -253.199718 
L 490.582851 -251.872528 
L 491.535448 -250.545339 
L 492.152788 -249.218149 
L 492.503443 -247.890959 
L 492.638456 -246.56377 
L 492.43462 -245.23658 
L 491.776142 -243.909391 
L 490.776264 -242.582201 
L 489.673675 -241.255011 
L 488.591276 -239.927822 
L 487.507987 -238.600632 
L 486.425069 -237.273443 
L 485.358382 -235.946253 
L 484.322241 -234.619063 
L 483.37252 -233.291874 
L 482.508759 -231.964684 
L 481.701762 -230.637495 
L 480.956581 -229.310305 
L 480.235618 -227.983115 
L 479.534891 -226.655926 
L 478.924147 -225.328736 
L 478.418402 -224.001546 
L 477.974365 -222.674357 
L 477.551124 -221.347167 
L 477.132939 -220.019978 
L 476.744096 -218.692788 
L 476.42489 -217.365598 
L 476.200516 -216.038409 
L 476.053067 -214.711219 
L 475.854466 -213.38403 
L 475.645172 -212.05684 
L 475.526406 -210.72965 
L 475.258846 -209.402461 
L 475.017149 -208.075271 
L 475.215976 -206.748082 
L 475.42815 -205.420892 
L 475.079833 -204.093702 
L 474.504282 -202.766513 
L 474.220975 -201.439323 
L 474.332395 -200.112133 
L 474.789949 -198.784944 
L 475.241425 -197.457754 
L 475.14711 -196.130565 
L 474.628718 -194.803375 
L 474.232675 -193.476185 
z
" id="mb711dcffca" style="stroke:#474747;stroke-width:2.25;"/>
    </defs>
    <g clip-path="url(#p6910886593)">
     <use style="fill:#db4542;stroke:#474747;stroke-width:2.25;" x="0" xlink:href="#mb711dcffca" y="623.494453"/>
    </g>
   </g>
   <g id="line2d_25">
    <path clip-path="url(#p6910886593)" d="M 120.591267 409.663897 
L 120.591267 350.957506 
" style="fill:none;stroke:#474747;stroke-linecap:round;stroke-width:2.25;"/>
   </g>
   <g id="line2d_26">
    <path clip-path="url(#p6910886593)" d="M 120.591267 388.413335 
L 120.591267 373.422362 
" style="fill:none;stroke:#474747;stroke-linecap:round;stroke-width:6.75;"/>
   </g>
   <g id="line2d_27">
    <path clip-path="url(#p6910886593)" d="M 191.28664 409.663897 
L 191.28664 349.223853 
" style="fill:none;stroke:#474747;stroke-linecap:round;stroke-width:2.25;"/>
   </g>
   <g id="line2d_28">
    <path clip-path="url(#p6910886593)" d="M 191.28664 387.400354 
L 191.28664 372.111648 
" style="fill:none;stroke:#474747;stroke-linecap:round;stroke-width:6.75;"/>
   </g>
   <g id="line2d_29">
    <path clip-path="url(#p6910886593)" d="M 261.982013 406.952985 
L 261.982013 351.757711 
" style="fill:none;stroke:#474747;stroke-linecap:round;stroke-width:2.25;"/>
   </g>
   <g id="line2d_30">
    <path clip-path="url(#p6910886593)" d="M 261.982013 387.89629 
L 261.982013 373.422362 
" style="fill:none;stroke:#474747;stroke-linecap:round;stroke-width:6.75;"/>
   </g>
   <g id="line2d_31">
    <path clip-path="url(#p6910886593)" d="M 332.677386 406.952985 
L 332.677386 346.76309 
" style="fill:none;stroke:#474747;stroke-linecap:round;stroke-width:2.25;"/>
   </g>
   <g id="line2d_32">
    <path clip-path="url(#p6910886593)" d="M 332.677386 386.023554 
L 332.677386 370.318058 
" style="fill:none;stroke:#474747;stroke-linecap:round;stroke-width:6.75;"/>
   </g>
   <g id="line2d_33">
    <path clip-path="url(#p6910886593)" d="M 403.372759 413.158869 
L 403.372759 348.913127 
" style="fill:none;stroke:#474747;stroke-linecap:round;stroke-width:2.25;"/>
   </g>
   <g id="line2d_34">
    <path clip-path="url(#p6910886593)" d="M 403.372759 389.518527 
L 403.372759 373.269546 
" style="fill:none;stroke:#474747;stroke-linecap:round;stroke-width:6.75;"/>
   </g>
   <g id="line2d_35">
    <path clip-path="url(#p6910886593)" d="M 474.068132 413.158869 
L 474.068132 330.704289 
" style="fill:none;stroke:#474747;stroke-linecap:round;stroke-width:2.25;"/>
   </g>
   <g id="line2d_36">
    <path clip-path="url(#p6910886593)" d="M 474.068132 384.787024 
L 474.068132 363.150756 
" style="fill:none;stroke:#474747;stroke-linecap:round;stroke-width:6.75;"/>
   </g>
   <g id="line2d_37">
    <path clip-path="url(#p6910886593)" d="M 95.847887 362.137775 
L 498.811513 362.137775 
" style="fill:none;stroke:#000000;stroke-linecap:round;stroke-width:2.25;"/>
   </g>
   <g id="patch_6">
    <path d="M 72.702422 442.08 
L 72.702422 244.407273 
" style="fill:none;stroke:#262626;stroke-linecap:square;stroke-linejoin:miter;stroke-width:1.875;"/>
   </g>
   <g id="patch_7">
    <path d="M 72.702422 442.08 
L 519.102422 442.08 
" style="fill:none;stroke:#262626;stroke-linecap:square;stroke-linejoin:miter;stroke-width:1.875;"/>
   </g>
   <g id="PathCollection_7">
    <defs>
     <path d="M 0 2.25 
C 0.596707 2.25 1.169055 2.012926 1.59099 1.59099 
C 2.012926 1.169055 2.25 0.596707 2.25 0 
C 2.25 -0.596707 2.012926 -1.169055 1.59099 -1.59099 
C 1.169055 -2.012926 0.596707 -2.25 0 -2.25 
C -0.596707 -2.25 -1.169055 -2.012926 -1.59099 -1.59099 
C -2.012926 -1.169055 -2.25 -0.596707 -2.25 0 
C -2.25 0.596707 -2.012926 1.169055 -1.59099 1.59099 
C -1.169055 2.012926 -0.596707 2.25 0 2.25 
z
" id="m12b7bbf807" style="stroke:#474747;stroke-width:1.5;"/>
    </defs>
    <g clip-path="url(#p6910886593)">
     <use style="fill:#ffffff;stroke:#474747;stroke-width:1.5;" x="120.591267" xlink:href="#m12b7bbf807" y="379.731202"/>
    </g>
   </g>
   <g id="PathCollection_8">
    <g clip-path="url(#p6910886593)">
     <use style="fill:#ffffff;stroke:#474747;stroke-width:1.5;" x="191.28664" xlink:href="#m12b7bbf807" y="378.503012"/>
    </g>
   </g>
   <g id="PathCollection_9">
    <g clip-path="url(#p6910886593)">
     <use style="fill:#ffffff;stroke:#474747;stroke-width:1.5;" x="261.982013" xlink:href="#m12b7bbf807" y="379.47543"/>
    </g>
   </g>
   <g id="PathCollection_10">
    <g clip-path="url(#p6910886593)">
     <use style="fill:#ffffff;stroke:#474747;stroke-width:1.5;" x="332.677386" xlink:href="#m12b7bbf807" y="377.387667"/>
    </g>
   </g>
   <g id="PathCollection_11">
    <g clip-path="url(#p6910886593)">
     <use style="fill:#ffffff;stroke:#474747;stroke-width:1.5;" x="403.372759" xlink:href="#m12b7bbf807" y="380.532508"/>
    </g>
   </g>
   <g id="PathCollection_12">
    <g clip-path="url(#p6910886593)">
     <use style="fill:#ffffff;stroke:#474747;stroke-width:1.5;" x="474.068132" xlink:href="#m12b7bbf807" y="374.891783"/>
    </g>
   </g>
  </g>
 </g>
 <defs>
  <clipPath id="p136a24bed6">
   <rect height="197.672727" width="446.4" x="72.702422" y="7.2"/>
  </clipPath>
  <clipPath id="p6910886593">
   <rect height="197.672727" width="446.4" x="72.702422" y="244.407273"/>
  </clipPath>
 </defs>
</svg>
